<?xml version="1.0" encoding="utf-8"?>
<!-- Generator: Adobe Illustrator 17.0.0, SVG Export Plug-In . SVG Version: 6.00 Build 0)  -->
<!DOCTYPE svg PUBLIC "-//W3C//DTD SVG 1.1//EN" "http://www.w3.org/Graphics/SVG/1.1/DTD/svg11.dtd">
<svg version="1.1" id="OBJECTS" xmlns="http://www.w3.org/2000/svg" xmlns:xlink="http://www.w3.org/1999/xlink" x="0px" y="0px"
	 width="987.214px" height="431.906px" viewBox="-154.73 23.594 987.214 431.906"
	 enable-background="new -154.73 23.594 987.214 431.906" xml:space="preserve">
<g>
	<path fill="#CDE8F1" d="M234.807,430.6c0,0-21.898-30.694-57.083-39.49s-64.507-43.508-62.552-81.862
		c1.955-38.355,35.186-52.869,35.186-83.729s-15.638-65.069,14.661-107.096s69.802-26.389,98.919-20.525s61.37-6.842,89.714-41.05
		s93.828-21.502,111.421,11.729s13.683,53.756,15.638,73.303c1.955,19.548,14.661,30.299,39.095,54.733
		c24.434,24.434,18.57,63.298-6.842,95.667s-13.683,99.482-49.846,121.636c-36.163,22.154-83.62,38.809-138.57,32.436
		C269.596,439.979,247.307,444.436,234.807,430.6z"/>
	<path fill="#CDE8F1" d="M112.565,260.685c0,0,11.729-15.456,7.385-36.832s-2.81-27.892,2.505-28.326
		S139.931,236.359,112.565,260.685z"/>
	<path fill="#CDE8F1" d="M530.229,281.318c0,0-18.57,18.57-24.108,40.072c-5.538,21.502,7.167,16.941,12.054,0
		C523.062,304.449,526.646,288.811,530.229,281.318z"/>
	<path fill="#CDE8F1" d="M412.944,30.893c0,0,19.547-0.434,37.357,11.728c0,0,4.778,4.127,8.471,0
		C462.465,38.495,440.311,20.903,412.944,30.893z"/>
</g>
<g>
	<path fill="#65B988" d="M145.359,400.232c0,0-27.801,2.641-34.751-6.553s-9.122-46.594-9.556-64.817s1.303-21.411,10.86-23.944
		s9.496-12.958,11.264-26.858s7.147-26.932,17.272-25.195c10.125,1.738,6.289,51.258,11.465,54.299s13.429,0.869,16.036,12.163
		C170.554,330.621,183.586,392.087,145.359,400.232z"/>
	
		<line fill="none" stroke="#50916F" stroke-linecap="round" stroke-linejoin="round" stroke-miterlimit="10" x1="136.591" y1="371.888" x2="136.591" y2="446.352"/>
	<path fill="#4D9E6E" d="M119.665,349.572c2.529-15.801,14.412-22.925,14.412-22.925s-10.425-4.279-6.931-34.367
		c2.037-17.539,6.509-31.129,9.888-39.424c-7.938,1.393-12.301,12.959-13.858,25.205c-1.768,13.9-1.707,24.326-11.264,26.858
		c-9.557,2.533-11.294,5.721-10.86,23.944s2.606,55.623,9.556,64.817c2.199,2.909,6.488,4.631,11.321,5.629
		C117.352,384.874,117.875,360.751,119.665,349.572z"/>
</g>
<g>
	<path fill="#7F85FC" d="M469.364,400.232c0,0-27.801,2.641-34.751-6.553s-9.122-46.594-9.556-64.817s1.303-21.411,10.86-23.944
		c9.557-2.533,9.496-12.958,11.264-26.858s7.147-26.932,17.272-25.195c10.125,1.738,6.289,51.258,11.465,54.299
		s13.429,0.869,16.036,12.163C494.558,330.621,507.59,392.087,469.364,400.232z"/>
	
		<line fill="none" stroke="#5B65D7" stroke-linecap="round" stroke-linejoin="round" stroke-miterlimit="10" x1="460.595" y1="371.888" x2="460.595" y2="446.352"/>
	<path fill="#5B65D7" d="M443.669,349.572c2.529-15.801,14.412-22.925,14.412-22.925s-10.425-4.279-6.931-34.367
		c2.037-17.539,6.509-31.129,9.888-39.424c-7.939,1.393-12.301,12.959-13.858,25.205c-1.768,13.9-1.707,24.326-11.264,26.858
		c-9.557,2.533-11.294,5.721-10.86,23.944c0.434,18.223,2.606,55.623,9.556,64.817c2.199,2.909,6.487,4.631,11.32,5.629
		C441.357,384.874,441.88,360.751,443.669,349.572z"/>
</g>
<g>
	<g>
		<path fill="none" stroke="#5E9CEE" stroke-miterlimit="10" d="M252.004,321.391c0,0-1.468,0.13-3.993-0.043"/>
		<path fill="none" stroke="#5E9CEE" stroke-miterlimit="10" stroke-dasharray="7.9338,7.9338" d="M240.18,320.139
			c-14.514-3.426-38.893-15.63-52.684-58.205c-20.525-63.366,13.844-101.484,68.497-126.896s80.824-48.869,67.25-85.031
			c-13.575-36.163-70.063-29.321-84.335,0c-14.271,29.321,6.628,87.964,88.54,84.054c77.822-3.714,101.999-41.834,151.155-44.794"/>
		<path fill="none" stroke="#5E9CEE" stroke-miterlimit="10" d="M482.573,89.107c1.315-0.027,2.647-0.029,4-0.005"/>
	</g>
</g>
<g>
	<g>
		<path fill="none" stroke="#5E9CEE" stroke-miterlimit="10" d="M371.243,276.106c0,0,0.683-1.374,1.607-3.661"/>
		<path fill="none" stroke="#5E9CEE" stroke-miterlimit="10" stroke-dasharray="8.1022,8.1022" d="M375.492,264.789
			c2.799-9.758,4.521-23.495-4.249-31.439c-14.661-13.281-28.344,5.531-19.547,16.65c8.796,11.119,35.185-0.678,43.004-12.372
			s11.728-47.857,46.914-56.653c32.127-8.032,21.882,14.878,45.899,22.538"/>
		<path fill="none" stroke="#5E9CEE" stroke-miterlimit="10" d="M491.43,204.552c1.235,0.268,2.546,0.5,3.94,0.694"/>
	</g>
</g>
<g>
	<path fill="#4B88C9" d="M101.28,446.352c0,0-22.588-3.041-32.579-15.204c-9.991-12.163-2.172-14.769-3.475-27.801
		c0,0,0-6.081-11.729-17.376s-6.516-19.982-3.041-27.801s-7.385-29.973,0.434-35.185c7.819-5.213,29.973,20.416,35.62,33.448
		c5.647,13.032,13.032,3.857,18.244,10.833c5.213,6.976,6.95,26.741,11.729,37.927C121.262,416.379,112.575,438.533,101.28,446.352z
		"/>
	<path fill="#5D9AED" d="M116.484,405.193c-4.778-11.185-6.516-30.95-11.729-37.927s-12.597,2.198-18.244-10.833
		c-5.647-13.032-27.801-38.661-35.62-33.448c-0.708,0.472-1.259,1.087-1.685,1.814c15.99,20.622,46.757,66.774,51.249,121.425
		c0.525,0.086,0.825,0.128,0.825,0.128C112.575,438.533,121.262,416.379,116.484,405.193z"/>
	<path fill="none" stroke="#4374B1" stroke-linecap="round" stroke-miterlimit="10" d="M101.28,446.352
		c-5.43-45.768-31.045-90.27-31.045-90.27"/>
</g>
<g>
	<path fill="#5D9AED" d="M564.85,369.3c0,0,5.539,6.325,13.032-7.033c7.493-13.357,17.593-29.973,28.669-25.737
		c11.077,4.235-13.032,31.851-18.57,46.55c-5.539,14.699-2.663,16.654-0.843,24.147s-3.067,12.124-14.47,15.184
		c-11.403,3.06-11.728,3.895-19.873,14.717c-8.145,10.823-40.072,5.284-40.072,5.284s-5.538-22.805-4.235-37.792
		c1.303-14.986,4.235-24.109,9.774-18.57c5.538,5.538,10.099,20.525,17.267,13.357c7.167-7.167,2.281-28.995,10.425-40.724
		C554.099,346.956,558.858,358.684,564.85,369.3z"/>
	<path fill="#4B88C9" d="M606.551,336.53c-11.077-4.235-21.176,12.38-28.67,25.737c-7.493,13.358-13.032,7.033-13.032,7.033
		c-5.992-10.616-10.751-22.345-18.896-10.616s-3.258,33.557-10.425,40.724s-11.728-7.819-17.267-13.357
		c-5.538-5.539-8.471,3.584-9.774,18.57c-1.247,14.344,3.769,35.835,4.202,37.654C526.67,429.146,556.052,409.12,606.551,336.53z"/>
	<path fill="none" stroke="#4374B1" stroke-linecap="round" stroke-miterlimit="10" d="M574.624,378.883
		c0,0-42.027,50.498-61.9,63.529"/>
</g>
<g>
	<polygon fill="#E1F4F9" points="475.062,105.174 493.089,89.536 550.428,89.536 	"/>
	<path fill="#C0CCCE" d="M481.361,76.07c0.217,0.652,11.728,13.466,11.728,13.466h57.339L481.361,76.07z"/>
	<path fill="#A9BEBF" d="M493.523,117.554c0-0.652,1.846-16.594,1.846-16.594l55.059-11.424L493.523,117.554z"/>
</g>
<g>
	<path fill="#FFFFFF" d="M471.098,178.68c0,0-8.145,35.006-24.108,48.453h50.106c0,0,13.749-20.251,18.636-52.108
		C515.732,175.025,482.175,184.87,471.098,178.68z"/>
	<path fill="none" stroke="#C1C1C1" stroke-linecap="round" stroke-linejoin="round" stroke-miterlimit="10" d="M473.922,188.236
		c0,0,19.113,1.955,34.534-2.606"/>
	<path fill="none" stroke="#C1C1C1" stroke-linecap="round" stroke-linejoin="round" stroke-miterlimit="10" d="M471.967,194.752
		c0,0,20.851,2.606,33.882-1.086"/>
	<path fill="none" stroke="#C1C1C1" stroke-linecap="round" stroke-linejoin="round" stroke-miterlimit="10" d="M469.795,202.137
		c0,0,21.285,1.794,33.448-1.058"/>
	<path fill="none" stroke="#C1C1C1" stroke-linecap="round" stroke-linejoin="round" stroke-miterlimit="10" d="M466.469,208.652
		c0,0,19.616,3.041,34.385,0"/>
</g>
<g>
	<path fill="#FFFFFF" d="M370.266,99.201c0,0,3.579,12.407-29.647,42.353c0,0,25.412,3.258,42.353-3.584
		c0,0,9.122-5.973,23.783-40.615C406.754,97.355,378.085,99.527,370.266,99.201z"/>
	<path fill="none" stroke="#C1C1C1" stroke-linecap="round" stroke-linejoin="round" stroke-miterlimit="10" d="M373.687,106.26
		c0,0,13.48,0.346,21.882-1.086"/>
	<path fill="none" stroke="#C1C1C1" stroke-linecap="round" stroke-linejoin="round" stroke-miterlimit="10" d="M370.591,111.69
		c0,0,13.683,2.172,25.846,0"/>
	<path fill="none" stroke="#C1C1C1" stroke-linecap="round" stroke-linejoin="round" stroke-miterlimit="10" d="M366.465,117.554
		c0,0,14.725,2.018,26.498,0"/>
</g>
<g>
	<path fill="#FFFFFF" d="M158.393,222.187c0,0,24.76,3.041,36.923-0.733c0,0,2.172,31.846-18.462,49.656c0,0-18.896,4.344-39.312,0
		C137.542,271.11,157.88,247.403,158.393,222.187z"/>
	<path fill="none" stroke="#C1C1C1" stroke-linecap="round" stroke-linejoin="round" stroke-miterlimit="10" d="M160.348,228.104
		c0,0,17.376,1.739,29.321,1.413"/>
	<path fill="none" stroke="#C1C1C1" stroke-linecap="round" stroke-linejoin="round" stroke-miterlimit="10" d="M159.044,234.404
		c0,0,19.547,3.475,29.538,1.738"/>
	<path fill="none" stroke="#C1C1C1" stroke-linecap="round" stroke-linejoin="round" stroke-miterlimit="10" d="M156.655,242.168
		c0,0,18.027,2.444,31.928,1.141"/>
	<path fill="none" stroke="#C1C1C1" stroke-linecap="round" stroke-linejoin="round" stroke-miterlimit="10" d="M153.18,250
		c0,0,19.113,2.866,31.71,1.563"/>
</g>
<g>
	<path fill="#16293B" d="M307.393,171.5c0,0-11.408-9.096-24.765-4.534c-13.357,4.561-22.805,14.009-24.76,25.412
		c-1.955,11.403-2.932,14.009-10.751,18.896s-13.683,18.244,0,31.602c13.683,13.357,51.801,16.941,68.09,14.986
		c16.29-1.955,13.032-14.986,8.796-21.828c-4.235-6.842,3.825-12.706,2.89-20.851s-8.103-9.774-8.428-20.199
		C318.139,184.558,317.236,176.287,307.393,171.5z"/>
	<path fill="#C37557" d="M308.365,180.975c0,0-10.751,16.941-30.95,21.176c0,0-0.814,5.376,0,10.914c0,0-2.443-3.747-4.235-7.167
		c-1.792-3.421-5.05-3.095-6.19,0s-0.977,10.588,5.213,12.706c0,0,1.955,3.91,2.118,7.167c0.163,3.258-1.303,11.891-1.303,11.891
		s3.524,15.801,14.387,24.271c0,0,0.703-10.588,0-20.851l0.763-7.982c0,0,13.846,4.887,21.828-2.932s6.679-21.991,6.679-28.995
		s0.079-10.425,0.079-10.425S313.415,183.255,308.365,180.975z"/>
	<path fill="#E87552" d="M307.062,206.386c0,0-5.05,8.796-1.955,10.588C308.202,218.766,309.343,214.042,307.062,206.386z"/>
	<path fill="none" stroke="#16293B" stroke-linecap="round" stroke-linejoin="round" stroke-miterlimit="10" d="M292.727,222.187
		c0,0,0,3.91,4.235,3.258"/>
	<ellipse fill="#16293B" cx="296.067" cy="209.156" rx="2.199" ry="3.909"/>
	<ellipse fill="#16293B" cx="313.741" cy="209.156" rx="2.199" ry="3.909"/>
	<path fill="#16293B" d="M288.166,233.101c0,0-4.072-1.792-8.308-3.584c0,0,4.595,6.046,7.918,7.665L288.166,233.101z"/>
	<g>
		<rect x="234.806" y="352.341" fill="#C48B7C" width="95.387" height="91.873"/>
		<polygon fill="#D8A08D" points="234.807,352.341 234.807,444.214 330.193,444.214 235.099,352.341 		"/>
		<rect x="278.025" y="352.341" opacity="0.29" fill="#FDFCFD" enable-background="new    " width="14.288" height="91.873"/>
		<line fill="none" stroke="#AD796C" stroke-miterlimit="10" x1="285.169" y1="352.341" x2="285.169" y2="444.214"/>
	</g>
	<path fill="#5E9CF2" d="M311.542,293.047c-1.548-2.606,1.33-20.199,0-28.018s-2.199-11.946-9.801-16.724
		s-14.337-7.222-14.337-7.222c0.703,10.262,0,20.851,0,20.851c-10.862-8.471-14.387-24.271-14.387-24.271
		s-21.231-1.52-27.747,15.638c-6.516,17.158-12.163,35.403-9.991,39.095c2.172,3.692,16.724,8.905,16.724,8.905l-3.475,8.905
		c0,0,21.3-1.303,34.65-0.869c13.35,0.434,16.173,0.869,16.173,0.869h23.891v-10.86
		C323.243,299.345,313.089,295.653,311.542,293.047z"/>
	<path fill="#FDFCFD" d="M361.469,335.074c-3.258-10.425-6.516-12.38-18.244-13.683c0,0-3.692-5.756-23.783-8.471
		c-20.09-2.715-20.09-2.715-20.09-2.715s-2.824-0.434-16.173-0.869c-13.35-0.434-34.65,0.869-34.65,0.869s-9.231,25.846,7.71,39.203
		c16.941,13.358,59.701,8.471,59.701,8.471s3.092,43.004,10.953,56.036c0,0,3.952,3.258,12.422,0l5.864-42.027
		c0,0,8.145,19.873,18.57,31.602c0,0,9.774,1.303,13.683-3.258C377.433,400.232,364.727,345.499,361.469,335.074z"/>
	<polygon fill="#17273E" points="262.429,313.246 298.266,313.246 301.28,310.205 262.429,310.205 	"/>
	<path fill="#C37557" d="M281.854,300.214l-2.616,9.043l28.15,0.948c0,0-5.43-5.43-9.122-8.688S281.854,300.214,281.854,300.214z"/>
	
		<line fill="none" stroke="#497FBF" stroke-linecap="round" stroke-linejoin="round" stroke-miterlimit="10" x1="252.004" y1="301.3" x2="279.238" y2="309.257"/>
	<path fill="none" stroke="#497FBF" stroke-linecap="round" stroke-linejoin="round" stroke-miterlimit="10" d="M281.854,300.214
		c0,0-12.91-7.602-19.426-10.643c-6.516-3.041-12.405-5.43-16.411-5.213"/>
	<path fill="#497FBF" d="M261.126,261.934l-10.264,23.075c0,0,12.95,3.919,27.163,12.983c0,0-13.478-10.588-16.736-18.029
		C258.031,272.522,261.126,261.934,261.126,261.934z"/>
	<path fill="none" stroke="#497FBF" stroke-linecap="round" stroke-linejoin="round" stroke-miterlimit="10" d="M299.352,260.685
		c0,0,5.213,8.253,4.127,15.421c-1.086,7.167-3.475,7.385-5.213,11.294c-1.738,3.91,0,14.118,0,14.118"/>
	<path fill="#E9E9F4" d="M361.469,335.074c-3.215-10.288-6.446-12.326-17.802-13.63c0.056,1.6-0.02,5.027,0.413,6.802
		c2.139,8.774,4.358,22.303,0.8,45.793l0.3-2.15c0,0,8.145,19.873,18.57,31.602c0,0,9.774,1.303,13.683-3.258
		C377.433,400.232,364.727,345.499,361.469,335.074z"/>
	<path fill="none" stroke="#79AADF" stroke-linecap="round" stroke-linejoin="round" stroke-miterlimit="10" d="M315.94,357.879
		c0,0-1.004-7.493,0-16.615"/>
	<path fill="none" stroke="#79AADF" stroke-linecap="round" stroke-linejoin="round" stroke-miterlimit="10" d="M345.18,371.888
		c0,0,2.823-15.638,1.52-29.104s-3.475-21.394-3.475-21.394"/>
	<path fill="#79AADF" d="M326.893,413.915c0,0-2.347,15.312-2.347,20.09c0,4.778,10.552,9.122,20.588,11.077
		s12.86,1.955,14.815-2.172c1.955-4.127-8.218-6.224-12.905-12.777c-4.688-6.553-7.728-16.218-7.728-16.218
		S332.715,417.065,326.893,413.915z"/>
	<path fill="#6595C1" d="M363.75,403.49c0,0,5.104,14.444,6.407,18.136s11.946,6.373,23.674,8.508s13.9-3.512,12.38-7.639
		s-15.638-9.774-19.765-12.38c-4.127-2.606-9.013-9.882-9.013-9.882S375.587,404.25,363.75,403.49z"/>
	<polygon fill="#17273E" points="298.266,313.246 335.08,276.106 388.51,276.106 350.067,313.246 	"/>
</g>
<g>
	<path fill="#2D3991" d="M210.157,447.183c0,0-5.155-32.535-16.507-43.33c-11.352-10.796-25.195-6.407-30.407,0
		c-5.213,6.407-5.647,17.339-19.982,15.131c-14.335-2.208-22.588-1.265-33.448,14.77s-8.633,12.777-8.633,12.777L210.157,447.183z"
		/>
	<path fill="#212E70" d="M137.034,442.412c2.305-11.575,27.668-6.017,30.274-22.959c1.226-7.967,5.095-15.892,8.851-22.053
		c-5.537,0.545-10.307,3.246-12.916,6.452c-5.213,6.407-5.647,17.339-19.982,15.131c-14.335-2.208-22.588-1.265-33.448,14.77
		s-8.633,12.777-8.633,12.777l35.567,0.213C136.671,445.289,136.75,443.836,137.034,442.412z"/>
</g>
<g>
	<path fill="#ECAC40" d="M416.064,447.04c0,0,11.43-21.48,16.58-29.793s14.593-8.017,21.166,0.664
		c6.573,8.681,13.923-17.816,17.048-23.911s6.626-13.808,20.608-12.717s20.582,29.655,24.54,38.58
		c3.957,8.925,9.105,21.473,21.274,28.373L416.064,447.04z"/>
	<path fill="#D39235" d="M461.038,432.703c4.95-6.516,16.335-12.597,18.67-33.395c0.844-7.52,4.589-13.52,9.021-18.126
		c-11.721,0.067-14.962,7.141-17.872,12.817c-3.125,6.095-10.475,32.592-17.048,23.911c-6.572-8.681-16.016-8.977-21.166-0.664
		s-16.58,29.793-16.58,29.793l43.16,0.426C458.473,442.762,458.195,436.445,461.038,432.703z"/>
</g>
</svg>
