<?xml version="1.0" encoding="utf-8"?>
<!-- Generator: Adobe Illustrator 17.0.0, SVG Export Plug-In . SVG Version: 6.00 Build 0)  -->
<!DOCTYPE svg PUBLIC "-//W3C//DTD SVG 1.1//EN" "http://www.w3.org/Graphics/SVG/1.1/DTD/svg11.dtd">
<svg version="1.1" id="OBJECTS" xmlns="http://www.w3.org/2000/svg" xmlns:xlink="http://www.w3.org/1999/xlink" x="0px" y="0px"
	 width="535.47px" height="358.5px" viewBox="-30.235 278.886 535.47 358.5" enable-background="new -30.235 278.886 535.47 358.5"
	 xml:space="preserve">
<g>
	<path fill="#C6D8ED" d="M405.522,522.445c0,6.404-5.292,11.597-11.82,11.597H75.69c-6.529,0-11.82-5.192-11.82-11.597V346.28
		c0-6.404,5.291-11.597,11.82-11.597h318.012c6.528,0,11.82,5.192,11.82,11.597V522.445z"/>
	<path fill="#B7C1DA" d="M63.87,356.952v-10.984c0-6.405,5.291-11.597,11.82-11.597h318.012c6.528,0,11.82,5.191,11.82,11.597
		v10.983L63.87,356.952L63.87,356.952z"/>
	<ellipse fill="#2A4F9A" cx="390.327" cy="345.662" rx="3.448" ry="3.382"/>
	<ellipse fill="#2A4F9A" cx="373.582" cy="345.662" rx="3.448" ry="3.382"/>
	<ellipse fill="#2A4F9A" cx="356.837" cy="345.662" rx="3.448" ry="3.382"/>
	<path fill="#FFFFFF" d="M241.001,345.662c0,2.847-2.698,5.154-6.026,5.154H81.618c-3.328,0-6.026-2.308-6.026-5.154l0,0
		c0-2.847,2.698-5.155,6.026-5.155h153.357C238.303,340.509,241.001,342.815,241.001,345.662L241.001,345.662z"/>
</g>
<g>
	<path fill="#5686C4" d="M158.235,574.997c0,0-0.658-11.574,14.446-11.574c0,0,5.581,0,7.88,5.787c0,0-3.282-18.671,7.881-20.604
		C199.605,546.672,199.277,566,199.277,566s3.776-4.991,11.902-4.268c8.126,0.724,8.454,4.911,8.454,4.911
		s14.693-3.266,15.063,8.353L158.235,574.997L158.235,574.997z"/>
	<line fill="none" stroke="#353C73" stroke-miterlimit="10" x1="190.042" y1="555.669" x2="192.053" y2="574.997"/>
	<line fill="none" stroke="#353C73" stroke-miterlimit="10" x1="184.789" y1="559.558" x2="191.047" y2="568.577"/>
	<line fill="none" stroke="#353C73" stroke-miterlimit="10" x1="212.369" y1="568.577" x2="209.414" y2="574.831"/>
	<line fill="none" stroke="#353C73" stroke-miterlimit="10" x1="169.029" y1="568.577" x2="172.969" y2="574.997"/>
</g>
<path fill="#B7C1DA" d="M313.894,575.11h26.021c0,0,2.734-15.16-14.598-9.57C310.788,564.303,313.894,575.11,313.894,575.11z"/>
<g>
	<path fill="#5686C4" d="M36.427,574.831c0,0-24.898-31.88-16.247-35.605c8.65-3.726,22.155,25.876,22.155,25.876
		s-23.631-67.071-8.44-69.762c15.193-2.691,24.475,34.984,21.732,69.969c0,0,4.854-16.974,11.816-15.319
		c6.963,1.655,3.587,13.455-3.587,24.841L36.427,574.831L36.427,574.831z"/>
	<line fill="none" stroke="#353C73" stroke-miterlimit="10" x1="36.107" y1="501.413" x2="53.272" y2="574.831"/>
	<line fill="none" stroke="#353C73" stroke-miterlimit="10" x1="23.084" y1="544.739" x2="44.808" y2="574.997"/>
	<line fill="none" stroke="#353C73" stroke-miterlimit="10" x1="44.357" y1="536.701" x2="48.73" y2="522.191"/>
	<line fill="none" stroke="#353C73" stroke-miterlimit="10" x1="33.946" y1="517.68" x2="41.348" y2="523.828"/>
	<line fill="none" stroke="#353C73" stroke-miterlimit="10" x1="48.73" y1="555.403" x2="42.127" y2="548.469"/>
	<line fill="none" stroke="#353C73" stroke-miterlimit="10" x1="31.127" y1="551.827" x2="31.127" y2="555.943"/>
</g>
<g>
	<rect x="74.478" y="444.076" fill="#FFFFFF" width="73.209" height="12.014"/>
	<rect x="74.478" y="463.403" fill="#FFFFFF" width="73.209" height="12.014"/>
	<rect x="74.478" y="482.731" fill="#FFFFFF" width="61.964" height="12.014"/>
	<rect x="74.478" y="502.058" fill="#FFFFFF" width="28.604" height="12.014"/>
</g>
<path fill="#2A4F9A" d="M79.702,456.09c0,0,4.856,6.589-1.048,13.8c-6.239,7.621-3.64-13.394-3.64-13.394L79.702,456.09z"/>
<line fill="none" stroke="#353C73" stroke-width="2" stroke-miterlimit="10" x1="464.65" y1="574.997" x2="4.742" y2="574.997"/>
<g>
	<path fill="#2A4F9A" d="M49.541,588.941c-1.1,2.114-4.705,3.009-6.032,3.653c-1.9,0.924-4.738,1.845-4.57,7.006
		c0.084,2.574,15.108-0.16,19.509-2.299c2.108-1.025,3.044-1.815,3.744-6.603C62.575,588.091,50.639,586.831,49.541,588.941z"/>
	<path fill="#2A4F9A" d="M92.472,588.941c1.1,2.114,4.705,3.009,6.032,3.653c1.9,0.924,4.738,1.845,4.57,7.006
		c-0.084,2.574-15.108-0.16-19.509-2.299c-2.108-1.025-3.044-1.815-3.744-6.603C79.438,588.091,91.374,586.831,92.472,588.941z"/>
	<path fill="#B7C1DA" d="M54.689,526.22l-5.959,62.813c0,0,4.433,4.107,15.514,0l3.884-45.178h5.227l5.171,45.178
		c0,0,6.403,2.174,15.268-0.725l-7.526-63.265L54.689,526.22z"/>
	<path fill="#FBADB1" d="M48.758,491.453c-8.406-5.436-19.491-19.234-10.814-53.176c0,0-9.015-12.446-3.658-15.945
		c3.823-2.496,8.919,11.31,8.919,11.31s3.194-3.576,3.945-2.946c0.973,0.817,0.727,2.025-3.097,6.856c0,0-7.17,33.799,9.327,44.734"
		/>
	<path fill="#FBADB1" d="M81.231,482.121c7.847-5.645,12.564-18.71,12.564-45.535c0-2.103-3.756-8.637-2.525-9.181
		c1.081-0.476,2.118,1.972,2.401,2.658c0,0,2.311-2.979,7.346-3.704c10.753-1.55,5.457,5.039-2.135,8.004
		c0,0,9.028,42.551-14.047,57.275"/>
	<path fill="#353C73" d="M53.378,482.286c2.464,1.634,5.459,2.759,9.084,3.182c7.283,0.852,13.684,0.311,18.769-3.348l3.605,9.517
		c-2.013,1.285-4.271,2.358-6.801,3.173l9.708,29.635c0,0-15.103,7.087-34.803,1.289l3.615-30.924c0,0-3.558-0.616-7.796-3.357
		L53.378,482.286z"/>
	<path fill="#FBADB1" d="M71.661,475.08c0,0-1.724,7.731,3.694,10.389c0,0-1.478,3.866-7.388,3.866h0.32
		c-5.91,0-7.388-3.866-7.388-3.866c5.418-2.658,3.694-10.389,3.694-10.389H71.661z"/>
	<path fill="#FBADB1" d="M79.702,463.966c0,7.872-4.347,14.978-11.575,14.978c-7.228,0-11.573-7.105-11.573-14.978
		c0-7.873,5.181-14.254,11.574-14.254C74.519,449.712,79.702,456.094,79.702,463.966z"/>
	<path fill="#2A4F9A" d="M57.795,470.382c0,0-1.628-14.037,4.774-14.293c6.403-0.256,14.364,6.347,20.685-0.578
		c0,0-2.955,0.578-5.746-3.141c-2.965-3.951-11.985-7.167-19.7,0.081C49.02,460.706,57.795,470.382,57.795,470.382z"/>
</g>
<polyline fill="none" stroke="#353C73" stroke-miterlimit="10" stroke-dasharray="6" points="309.781,448.132 309.781,525.043 
	247.277,525.043 247.277,448.132 "/>
<g>
	<rect x="247.277" y="369.181" fill="#FFFFFF" width="62.505" height="74.894"/>
	<ellipse fill="#B7C1DA" cx="261.086" cy="389.837" rx="10.098" ry="9.907"/>
	<rect x="251.934" y="406.628" fill="#353C73" width="54.132" height="5.073"/>
	<rect x="274.589" y="396.964" fill="#353C73" width="31.477" height="5.073"/>
	<rect x="274.589" y="387.301" fill="#353C73" width="31.477" height="5.073"/>
	<rect x="274.589" y="377.637" fill="#353C73" width="31.477" height="5.073"/>
	<rect x="251.934" y="416.292" fill="#353C73" width="54.132" height="5.073"/>
	<rect x="251.934" y="425.956" fill="#353C73" width="54.132" height="5.073"/>
	<rect x="251.934" y="435.62" fill="#353C73" width="54.132" height="5.073"/>
</g>
<g>
	<path fill="#353C73" d="M296.615,326.741c-12.217-13.771,2.519-22.275-2.558-35.79c-4.071-10.839-14.817-9.734-15.713-9.228
		c0,0-11.505-1.611-15.576,9.228c-5.076,13.514,9.66,22.019-2.558,35.79"/>
	<path fill="#5686C4" d="M256.366,334.683c0,0,1.74-13.498,22.047-13.498c20.308,0,22.278,13.498,22.278,13.498H256.366z"/>
	<path fill="#FBADB1" d="M281.947,312.469c0,0-1.724,7.731,3.694,10.389c0,0-1.478,3.866-7.388,3.866h0.32
		c-5.91,0-7.388-3.866-7.388-3.866c5.418-2.658,3.694-10.389,3.694-10.389H281.947z"/>
	<ellipse fill="#FBADB1" cx="278.414" cy="299.931" rx="11.574" ry="14.254"/>
	<path fill="#353C73" d="M277.134,284.462c-7.921,0-9.433,7.731-9.433,7.731s2.562-2.636,4.905,0c2.34,2.636,4.396,0.805,5.111,0
		c0.715-0.805,3.933-2.335,6.007,0c2.076,2.336,3.606,1.869,5.266,0C288.989,292.192,288.79,284.462,277.134,284.462z"/>
	<path fill="#5686C4" d="M269.916,322.143c0,0-30.294,5.483-15.191,47.038l7.069-2.601c0,0-8.711-20.918,8.121-34.444"/>
	<path fill="#5686C4" d="M286.655,322.143c0,0,30.294,5.483,15.191,47.038l-7.069-2.601c0,0,8.711-20.918-8.121-34.444"/>
	<path fill="#FBADB1" d="M254.725,369.181c0,0,3.119,11.113,7.305,11.113c4.186,0,1.478-8.214,1.478-8.214s1.724,2.416,2.955,0.483
		c0,0,1.006-3.511-4.668-5.983L254.725,369.181z"/>
	<path fill="#FBADB1" d="M301.846,369.181c0,0-3.119,11.113-7.305,11.113s-1.478-8.214-1.478-8.214s-1.724,2.416-2.955,0.483
		c0,0-1.007-3.511,4.668-5.983L301.846,369.181z"/>
</g>
<g>
	<g>
		<line fill="none" stroke="#353C73" stroke-miterlimit="10" x1="132.501" y1="423.861" x2="135.456" y2="423.861"/>
		
			<line fill="none" stroke="#353C73" stroke-miterlimit="10" stroke-dasharray="6.1,6.1" x1="141.465" y1="423.861" x2="222.58" y2="423.861"/>
		<polyline fill="none" stroke="#353C73" stroke-miterlimit="10" points="225.585,423.861 228.54,423.861 228.54,420.962 		"/>
		
			<line fill="none" stroke="#353C73" stroke-miterlimit="10" stroke-dasharray="6.6429,6.6429" x1="228.54" y1="414.542" x2="228.54" y2="379.234"/>
		<polyline fill="none" stroke="#353C73" stroke-miterlimit="10" points="228.54,376.025 228.54,373.126 225.585,373.126 		"/>
		
			<line fill="none" stroke="#353C73" stroke-miterlimit="10" stroke-dasharray="5.6912,5.6912" x1="219.979" y1="373.126" x2="133.089" y2="373.126"/>
		<line fill="none" stroke="#353C73" stroke-miterlimit="10" x1="130.285" y1="373.126" x2="127.33" y2="373.126"/>
	</g>
</g>
<g>
	<polygon fill="#B7C1DA" points="129.616,423.762 42.037,432.791 36.89,384.738 124.47,375.71 	"/>
	<polygon fill="#5686C4" points="115.068,419.544 51.06,426.143 50.601,421.862 114.609,415.263 	"/>
	<polygon fill="#5686C4" points="122.944,408.166 82.834,412.301 82.376,408.02 122.485,403.885 	"/>
	<polygon fill="#5686C4" points="121.958,398.502 81.849,402.636 81.391,398.356 121.5,394.221 	"/>
	<polygon fill="#5686C4" points="120.974,388.838 80.864,392.973 80.406,388.692 120.515,384.557 	"/>
	<polygon fill="#353C73" points="64.772,402.179 44.664,404.252 43.021,388.911 63.129,386.838 	"/>
	<polygon fill="#FBADB1" points="78.305,409.186 58.197,411.259 56.554,395.918 76.662,393.845 	"/>
</g>
<g>
	<polygon fill="#2A4F9A" points="385.497,455.977 321.627,451.093 326.239,393.04 390.109,397.924 	"/>
	<polygon fill="#5686C4" points="398.628,434.794 334.904,441.173 328.88,383.252 392.605,376.873 	"/>
	<ellipse fill="#FFFFFF" cx="360.284" cy="380.294" rx="7.24" ry="7.103"/>
	<ellipse fill="#FBADB1" cx="364.752" cy="384.558" rx="5.413" ry="5.31"/>
	<line fill="none" stroke="#353C73" stroke-miterlimit="10" x1="336.152" y1="394.222" x2="388.501" y2="389.837"/>
	<line fill="none" stroke="#353C73" stroke-miterlimit="10" x1="337.574" y1="406.444" x2="389.924" y2="402.059"/>
	<line fill="none" stroke="#353C73" stroke-miterlimit="10" x1="338.577" y1="417.457" x2="390.926" y2="413.072"/>
	<line fill="none" stroke="#353C73" stroke-miterlimit="10" x1="340.547" y1="428.087" x2="392.896" y2="423.702"/>
</g>
<rect x="324.332" y="463.966" fill="none" stroke="#353C73" stroke-miterlimit="10" stroke-dasharray="6" width="69.443" height="61.076"/>
<g>
	<rect x="155.566" y="444.076" fill="#5686C4" width="72.973" height="71.593"/>
	<ellipse fill="#FBADB1" cx="179.186" cy="458.702" rx="9.162" ry="8.988"/>
	<path fill="#FFFFFF" d="M183.825,478.988h-2.347c0.01-0.091,0.028-0.18,0.028-0.273c0-1.429-1.181-2.588-2.638-2.588h-6.299
		c-1.457,0-2.638,1.159-2.638,2.588c0,0.094,0.019,0.183,0.028,0.273h-0.377c-1.303,0-2.359,1.036-2.359,2.314
		c0,1.278,1.056,2.314,2.359,2.314h14.243c1.303,0,2.359-1.036,2.359-2.314C186.184,480.024,185.128,478.988,183.825,478.988z"/>
	<path fill="#FFFFFF" d="M215.488,464.82h-3.111c0.015-0.103,0.033-0.206,0.033-0.313c0-1.241-1.024-2.246-2.289-2.246h-4.287
		c-1.265,0-2.289,1.005-2.289,2.246c0,0.119,0.018,0.233,0.035,0.346c-1.132,0.16-2.005,1.107-2.005,2.262
		c0,1.267,1.047,2.295,2.339,2.295h11.574c1.291,0,2.339-1.028,2.339-2.295C217.828,465.847,216.78,464.82,215.488,464.82z"/>
	<path fill="#2A4F9A" d="M155.566,492.957c0,0,15.843-2.174,39.976,3.141c24.133,5.315,32.998-4.664,32.998-4.664v24.235h-72.973
		V492.957z"/>
</g>
<g>
	<g>
		<path fill="#5686C4" d="M403.305,574.891c0,0-10.144-17.992-0.561-18.876c4.303-0.398,8.907,9.291,8.907,9.291
			s4.659-68.868,32.318-68.868c27.658,0-15.031,63.116-15.031,63.116s14.428-12.977,20.443-7.668
			c6.012,5.308-16.836,16.516-16.836,16.516s16.235-4.128,16.235,6.489H403.305z"/>
		<line fill="none" stroke="#353C73" stroke-miterlimit="10" x1="441.876" y1="505.441" x2="417.238" y2="574.831"/>
		<line fill="none" stroke="#353C73" stroke-miterlimit="10" x1="425.212" y1="528.311" x2="429.556" y2="540.136"/>
		<line fill="none" stroke="#353C73" stroke-miterlimit="10" x1="404.644" y1="561.732" x2="411.833" y2="574.831"/>
		<line fill="none" stroke="#353C73" stroke-miterlimit="10" x1="441.876" y1="555.669" x2="417.238" y2="574.831"/>
	</g>
	<line fill="none" stroke="#353C73" stroke-miterlimit="10" x1="436.375" y1="520.93" x2="447.13" y2="512.849"/>
</g>
<line fill="none" stroke="#353C73" stroke-miterlimit="10" x1="35.232" y1="568.056" x2="39.629" y2="568.056"/>
<g>
	<polygon fill="#C6D8ED" points="164.419,605.442 105.258,614.457 130.106,628.98 190.042,619.409 	"/>
	<polygon fill="#B7C1DA" points="105.258,614.457 105.258,619.553 129.546,634.532 190.042,624.977 190.042,619.409 130.106,628.98 
			"/>
	<polyline fill="none" stroke="#2A4F9A" stroke-miterlimit="10" points="109.755,619.984 130.106,631.879 187.483,622.716 	"/>
</g>
</svg>
