<?xml version="1.0" encoding="utf-8"?>
<!-- Generator: Adobe Illustrator 17.0.0, SVG Export Plug-In . SVG Version: 6.00 Build 0)  -->
<!DOCTYPE svg PUBLIC "-//W3C//DTD SVG 1.1//EN" "http://www.w3.org/Graphics/SVG/1.1/DTD/svg11.dtd">
<svg version="1.1" id="Layer_1" xmlns="http://www.w3.org/2000/svg" xmlns:xlink="http://www.w3.org/1999/xlink" x="0px" y="0px"
	 width="718px" height="314.125px" viewBox="-156 5.221 718 314.125" enable-background="new -156 5.221 718 314.125"
	 xml:space="preserve">
<g id="OBJECTS">
	<g>
		<path opacity="0.5" fill="#076D6D" enable-background="new    " d="M122.206,238.532L53.584,280.65
			c-0.45,0.277-0.447,0.932,0.006,1.204l1.615,0.972c0.877,0.528,1.974,0.522,2.846-0.014l68.025-41.751
			c0.492-0.302,0.488-1.018-0.006-1.316l-2.032-1.223C123.474,238.183,122.767,238.187,122.206,238.532z"/>
		<g>
			<g>
				<path fill="#BCBCBC" d="M91.627,135.586l-0.8,0.48c-1.185,0.712-2.042,0.094-1.719-1.241l0.001-0.004l-0.005,0.003
					c0.149-0.669,0.069-1.276-0.872-1.443c-0.286-0.051-0.642,0.029-1.004,0.258c-1.009,0.637-1.813,1.949-1.813,2.966
					c0,0.15,0.023,0.282,0.055,0.404l-0.005,0.003l0,0c0.326,0.945-0.531,2.596-1.718,3.309l-0.8,0.48
					c-0.913,0.549-1.654,1.734-1.654,2.648v0.309l11.988-7.203v-0.309C93.281,135.333,92.541,135.037,91.627,135.586z
					 M87.288,136.449c-0.541,0.325-0.977,0.151-0.977-0.385c0-0.541,0.436-1.239,0.977-1.564s0.977-0.151,0.977,0.39
					C88.264,135.425,87.828,136.124,87.288,136.449z"/>
				<path fill="#D3D3D3" d="M101.867,135.486l-29.159,17.52v-0.748c0-2.222,1.801-5.106,4.024-6.441l21.112-12.685
					c2.222-1.335,4.023-0.616,4.023,1.606C101.867,134.738,101.867,135.486,101.867,135.486z"/>
			</g>
			<g>
				<path fill="#0B4656" d="M121.661,124.905l-2.456-1.001l-0.006,0.011c-0.432-0.171-0.938-0.167-1.392,0.112l-65.824,40.455
					c-1.128,0.693-1.815,1.922-1.815,3.246v107.15c0,0.713,0.391,1.289,0.934,1.593l0,0l0,0c0.127,0.071,0.262,0.125,0.403,0.165
					l2.209,0.908l-0.292-1.402l65.068-39.991c1.063-0.653,1.71-1.811,1.71-3.059L121.661,124.905z"/>
				<path fill="#063444" d="M122.563,126.325v107.728c0,1.247-0.648,2.406-1.71,3.059l-65.541,40.281
					c-1.216,0.747-2.781-0.128-2.781-1.555V169.01c0-1.523,0.791-2.938,2.089-3.735l65.551-40.287
					C121.217,124.345,122.563,125.097,122.563,126.325z"/>
				<path fill="#4DE4E8" d="M120.171,129.038v104.415c0,0.467-0.243,0.901-0.64,1.145l-63.674,39.133
					c-0.408,0.251-0.933-0.043-0.933-0.522V168.955c0-0.679,0.353-1.31,0.931-1.666l63.228-38.859
					C119.558,128.137,120.171,128.48,120.171,129.038z"/>
			</g>
			<g>
				<path fill="#0FB1B5" d="M84.023,156.6v38.947c0,0.174-0.09,0.336-0.239,0.427l-23.75,14.597
					c-0.152,0.094-0.348-0.016-0.348-0.195v-38.887c0-0.253,0.132-0.489,0.347-0.621l23.584-14.494
					C83.795,156.264,84.023,156.391,84.023,156.6z"/>
				<path fill="#0FB1B5" d="M84.023,202.895v3.733c0,0.174-0.09,0.336-0.239,0.427l-23.75,14.597
					c-0.152,0.094-0.348-0.016-0.348-0.195v-3.674c0-0.253,0.132-0.489,0.347-0.621l23.584-14.495
					C83.795,202.559,84.023,202.687,84.023,202.895z"/>
				<path fill="#1CC6C6" d="M81.536,190.608v2.97c0,0.139-0.072,0.267-0.19,0.34L62.452,205.53
					c-0.121,0.074-0.277-0.013-0.277-0.155v-2.923c0-0.202,0.105-0.389,0.276-0.494l18.762-11.531
					C81.354,190.34,81.536,190.442,81.536,190.608z"/>
				<path fill="#0FB1B5" d="M84.023,210.639v3.733c0,0.174-0.09,0.336-0.239,0.427l-23.75,14.597
					c-0.152,0.094-0.348-0.016-0.348-0.195v-3.674c0-0.253,0.132-0.489,0.347-0.621l23.584-14.494
					C83.795,210.303,84.023,210.431,84.023,210.639z"/>
				<path fill="#0FB1B5" d="M78.621,221.7v3.733c0,0.174-0.09,0.336-0.239,0.427l-18.348,11.28
					c-0.152,0.094-0.348-0.016-0.348-0.195v-3.674c0-0.253,0.132-0.489,0.347-0.621l18.182-11.178
					C78.393,221.364,78.621,221.492,78.621,221.7z"/>
				<path fill="#0FB1B5" d="M109.943,198.071v3.733c0,0.174-0.09,0.336-0.239,0.427l-18.348,11.28
					c-0.152,0.094-0.348-0.016-0.348-0.195v-3.674c0-0.253,0.132-0.489,0.347-0.621l18.182-11.178
					C109.714,197.735,109.943,197.862,109.943,198.071z"/>
				<path fill="#0FB1B5" d="M109.943,209.071v3.733c0,0.174-0.09,0.336-0.239,0.427l-18.348,11.28
					c-0.152,0.094-0.348-0.016-0.348-0.195v-3.674c0-0.253,0.132-0.489,0.347-0.621l18.182-11.178
					C109.714,208.735,109.943,208.863,109.943,209.071z"/>
				<path fill="#0FB1B5" d="M84.023,226.127v3.733c0,0.174-0.09,0.336-0.239,0.427l-23.75,14.597
					c-0.152,0.093-0.348-0.016-0.348-0.195v-3.674c0-0.253,0.132-0.489,0.347-0.621L83.617,225.9
					C83.795,225.791,84.023,225.919,84.023,226.127z"/>
				<path fill="#0FB1B5" d="M67.359,249.67v5.412c0,0.253-0.131,0.487-0.346,0.619l-5.036,3.059
					c-0.221,0.136-0.504-0.023-0.504-0.282v-5.325c0-0.367,0.191-0.708,0.504-0.901l4.795-2.911
					C67.028,249.183,67.359,249.368,67.359,249.67z"/>
				<path fill="#FFDC79" d="M75.691,244.578v5.412c0,0.253-0.131,0.487-0.346,0.619l-5.036,3.059
					c-0.221,0.136-0.505-0.023-0.505-0.282v-5.326c0-0.367,0.191-0.708,0.504-0.901l4.795-2.911
					C75.36,244.091,75.691,244.276,75.691,244.578z"/>
				<path fill="#FE5C99" d="M84.023,239.486v5.412c0,0.253-0.131,0.487-0.346,0.619l-5.036,3.059
					c-0.221,0.136-0.504-0.023-0.504-0.282v-5.326c0-0.367,0.191-0.708,0.504-0.901l4.795-2.911
					C83.692,238.999,84.023,239.184,84.023,239.486z"/>
				<path fill="#0FB1B5" d="M105.776,143.576v1.42c0,0.174-0.09,0.336-0.239,0.427l-15.905,9.781
					c-0.152,0.094-0.348-0.016-0.348-0.195v-1.361c0-0.253,0.132-0.489,0.347-0.621l15.739-9.679
					C105.548,143.24,105.776,143.367,105.776,143.576z"/>
				<path fill="#0FB1B5" d="M99.935,151.284v1.42c0,0.174-0.09,0.336-0.239,0.427l-10.065,6.224
					c-0.152,0.094-0.348-0.016-0.348-0.195v-1.361c0-0.253,0.132-0.489,0.347-0.621l9.899-6.122
					C99.707,150.948,99.935,151.076,99.935,151.284z"/>
				<path fill="#0FB1B5" d="M113.62,147.063v1.42c0,0.174-0.09,0.336-0.239,0.427l-23.75,14.597
					c-0.152,0.093-0.348-0.016-0.348-0.195v-1.361c0-0.253,0.132-0.489,0.347-0.621l23.585-14.494
					C113.392,146.727,113.62,146.854,113.62,147.063z"/>
				<path fill="#0FB1B5" d="M111.504,152.476v1.42c0,0.174-0.09,0.336-0.239,0.427l-21.633,13.334
					c-0.152,0.094-0.348-0.016-0.348-0.195v-1.36c0-0.253,0.132-0.489,0.347-0.621l21.467-13.232
					C111.275,152.14,111.504,152.268,111.504,152.476z"/>
				<path fill="#0FB1B5" d="M102.066,162.455v1.42c0,0.174-0.09,0.336-0.239,0.427l-12.195,7.506
					c-0.152,0.094-0.348-0.016-0.348-0.195v-1.361c0-0.253,0.132-0.489,0.347-0.621l12.029-7.404
					C101.837,162.119,102.066,162.247,102.066,162.455z"/>
				<path fill="#0FB1B5" d="M113.62,159.516v1.42c0,0.174-0.09,0.336-0.239,0.427l-23.75,14.597
					c-0.152,0.093-0.348-0.016-0.348-0.195v-1.361c0-0.253,0.132-0.489,0.347-0.621l23.584-14.494
					C113.392,159.18,113.62,159.307,113.62,159.516z"/>
				<path fill="#0FB1B5" d="M113.62,163.667v1.42c0,0.174-0.09,0.336-0.239,0.427l-23.75,14.597
					c-0.152,0.094-0.348-0.016-0.348-0.195v-1.36c0-0.253,0.132-0.489,0.347-0.621l23.584-14.494
					C113.392,163.331,113.62,163.459,113.62,163.667z"/>
				<path fill="#0FB1B5" d="M107.922,171.342v1.42c0,0.174-0.09,0.336-0.239,0.427l-18.051,11.072
					c-0.152,0.094-0.348-0.016-0.348-0.195v-1.361c0-0.253,0.132-0.489,0.347-0.621l17.885-10.97
					C107.694,171.007,107.922,171.134,107.922,171.342z"/>
				<path fill="#0FB1B5" d="M113.62,171.969v1.42c0,0.174-0.09,0.336-0.239,0.427l-23.75,14.597
					c-0.152,0.093-0.348-0.016-0.348-0.195v-1.361c0-0.253,0.132-0.489,0.347-0.621l23.584-14.494
					C113.392,171.633,113.62,171.761,113.62,171.969z"/>
				<path fill="#0FB1B5" d="M113.62,176.12v1.42c0,0.174-0.09,0.336-0.239,0.427l-23.75,14.597
					c-0.152,0.094-0.348-0.016-0.348-0.195v-1.36c0-0.253,0.132-0.489,0.347-0.621l23.584-14.494
					C113.392,175.784,113.62,175.912,113.62,176.12z"/>
				<g>
					<path fill="#FFFFFF" d="M75.854,173.709c0,2.209-1.79,6.726-3.999,8.106s-3.999-0.9-3.999-3.108
						c0-2.209,1.79-5.118,3.999-6.498C74.064,170.828,75.854,171.5,75.854,173.709z"/>
					<path fill="#FFFFFF" d="M81.536,186.086v0.65l-19.361,12.098v-0.65c0-5.347,4.334-12.389,9.681-15.73
						c2.675-1.672,5.094-2.1,6.846-1.443C80.452,181.668,81.536,183.414,81.536,186.086z"/>
				</g>
				<g>
					<path fill="#FFFFFF" d="M103.863,136.444l-29.159,17.52v-0.748c0-2.222,1.801-5.106,4.023-6.441l21.112-12.685
						c2.222-1.335,4.024-0.616,4.024,1.606V136.444z"/>
					<path fill="#EAEAEA" d="M93.623,136.544l-0.8,0.48c-1.185,0.712-2.042,0.094-1.719-1.241l0.001-0.004l-0.005,0.003
						c0.15-0.669,0.069-1.275-0.872-1.443c-0.286-0.051-0.642,0.03-1.004,0.258c-1.009,0.637-1.813,1.949-1.813,2.965
						c0,0.15,0.023,0.282,0.054,0.404l-0.005,0.003l0,0c0.326,0.945-0.531,2.596-1.718,3.309l-0.8,0.481
						c-0.914,0.549-1.654,1.734-1.654,2.648v0.309l11.988-7.203v-0.309C95.277,136.291,94.536,135.995,93.623,136.544z
						 M89.283,137.407c-0.541,0.325-0.977,0.151-0.977-0.385c0-0.541,0.436-1.239,0.977-1.564s0.977-0.151,0.977,0.39
						C90.26,136.383,89.824,137.082,89.283,137.407z"/>
				</g>
				<path fill="#0FB1B5" d="M113.62,155.308v1.42c0,0.174-0.09,0.336-0.239,0.427l-9.753,6.058
					c-0.152,0.094-0.348-0.016-0.348-0.195v-1.361c0-0.253,0.132-0.489,0.347-0.621l9.587-5.956
					C113.392,154.972,113.62,155.1,113.62,155.308z"/>
			</g>
		</g>
	</g>
	<g>
		<path opacity="0.5" fill="#076D6D" enable-background="new    " d="M370.46,251.107l-25.156-15.882l19.286-11.875
			c2.051-1.263,2.049-4.244-0.003-5.505l-99.114-60.988c-1.871-1.149-4.229-1.148-6.099,0.003l-124.511,76.667
			c-2.025,1.247-2.023,4.19,0.003,5.435l99.154,61.013c1.881,1.156,4.253,1.154,6.133-0.003l20.816-12.818l24.118,15.786
			L370.46,251.107z"/>
		<path fill="#48D7E5" d="M269.34,30.279l-3.969-2.523l-0.016,0.01c-0.864-0.592-2.035-0.725-3.057-0.095L138.24,104.06
			c-2.257,1.389-3.631,3.85-3.631,6.5v107.946c0,1.085,0.554,1.961,1.336,2.495l-0.011,0.016l0.235,0.149
			c0.001,0,0.001,0.001,0.002,0.001l4.329,2.736c0,0,0.621-3.662,0.474-3.736c-0.013-0.007-0.059-0.027-0.118-0.052l123.194-75.856
			c1.576-0.971,2.536-2.689,2.536-4.54V30.888L269.34,30.279z"/>
		<path fill="#E0F9FE" d="M143.488,223.788l124.796-76.843c1.576-0.97,2.536-2.689,2.536-4.54V32.754
			c0-2.201-2.413-3.549-4.287-2.395l-124.058,76.388c-2.257,1.389-3.631,3.85-3.631,6.5v107.946
			C138.844,223.578,141.458,225.038,143.488,223.788z"/>
		<path fill="#011A5F" d="M146.19,217.505l119.478-73.568c1.509-0.929,2.428-2.574,2.428-4.346V40.738
			c0-2.107-2.31-3.397-4.104-2.293L145.22,111.578c-2.16,1.33-3.476,3.686-3.476,6.223v97.22
			C141.743,217.303,144.246,218.701,146.19,217.505z"/>
		<path fill="#48D7E5" d="M366.08,211.511l0.021-0.012v-5.769h-7.064l-85.167-52.312c-1.871-1.149-4.229-1.148-6.099,0.003
			L150.99,225.328l-9.247,1.319v5.942l0.025,0.015c-0.069,1.113,0.417,2.256,1.496,2.918l90.756,55.745
			c1.881,1.156,4.253,1.154,6.133-0.003l124.437-76.622C365.738,213.936,366.219,212.692,366.08,211.511z"/>
		<path fill="#E0F9FE" d="M240.153,285.104l124.437-76.622c2.051-1.263,2.049-4.244-0.003-5.505l-90.716-55.72
			c-1.871-1.149-4.229-1.148-6.099,0.003l-124.511,76.667c-2.025,1.247-2.023,4.19,0.003,5.435l90.756,55.745
			C235.901,286.263,238.273,286.262,240.153,285.104z"/>
		<path fill="#C5EAEF" d="M216.422,258.262l104.487-64.352c1.825-1.124,1.824-3.778-0.003-4.9l-51.961-32.477
			c-1.665-1.023-3.765-1.022-5.429,0.003l-104.553,64.392c-1.802,1.11-1.801,3.73,0.003,4.838l51.996,32.498
			C212.637,259.293,214.748,259.292,216.422,258.262z"/>
		<path fill="#EDEDED" d="M277.474,258.393l43.529-26.803c0.717-0.442,0.717-1.485-0.001-1.926l-25.205-15.771
			c-0.655-0.402-1.479-0.402-2.134,0.001l-43.555,26.819c-0.708,0.436-0.708,1.466,0.001,1.901l25.219,15.779
			C275.987,258.799,276.817,258.798,277.474,258.393z"/>
		<g>
			<path fill="#48D7E5" d="M168.309,217.558c-0.197-0.121-0.446-0.121-0.643,0l-5.43,3.337l-0.611-0.199v0.767h0.001
				c0.001,0.109,0.054,0.218,0.159,0.282l6.157,3.848c0.198,0.122,0.448,0.122,0.646,0l5.873-3.61
				c0.106-0.065,0.158-0.174,0.16-0.284l0.002,0.001v-0.758L168.309,217.558z"/>
			<path fill="#48D7E5" d="M177.014,212.19c-0.197-0.121-0.446-0.121-0.643,0l-5.43,3.337l-0.611-0.199v0.767h0.001
				c0.001,0.109,0.054,0.217,0.159,0.282l6.157,3.848c0.198,0.122,0.448,0.122,0.646,0l5.873-3.61
				c0.106-0.065,0.158-0.174,0.16-0.284l0.002,0.002v-0.758L177.014,212.19z"/>
			<path fill="#48D7E5" d="M185.719,206.823c-0.197-0.121-0.446-0.121-0.643,0l-5.43,3.337l-0.611-0.199v0.767h0.001
				c0.001,0.109,0.054,0.217,0.159,0.282l6.157,3.848c0.198,0.122,0.448,0.122,0.646,0l5.873-3.61
				c0.106-0.065,0.158-0.174,0.16-0.284l0.002,0.002v-0.758L185.719,206.823z"/>
			<path fill="#48D7E5" d="M194.424,201.455c-0.197-0.121-0.446-0.121-0.643,0l-5.43,3.337l-0.611-0.199v0.767h0.001
				c0.001,0.109,0.054,0.217,0.159,0.282l6.157,3.848c0.198,0.122,0.448,0.122,0.646,0l5.873-3.61
				c0.106-0.065,0.158-0.174,0.16-0.284l0.002,0.001v-0.758L194.424,201.455z"/>
			<path fill="#48D7E5" d="M203.129,196.088c-0.197-0.121-0.446-0.121-0.643,0l-5.43,3.337l-0.611-0.199v0.767h0.001
				c0.001,0.109,0.054,0.217,0.159,0.282l6.157,3.848c0.198,0.122,0.448,0.122,0.646,0l5.873-3.61
				c0.106-0.065,0.158-0.174,0.16-0.284l0.002,0.002v-0.758L203.129,196.088z"/>
			<path fill="#48D7E5" d="M211.834,190.72c-0.197-0.121-0.446-0.121-0.643,0l-5.43,3.337l-0.611-0.199v0.767h0.001
				c0.001,0.109,0.054,0.217,0.159,0.282l6.157,3.848c0.198,0.122,0.448,0.122,0.646,0l5.873-3.61
				c0.106-0.065,0.158-0.174,0.16-0.284l0.002,0.002v-0.758L211.834,190.72z"/>
			<path fill="#48D7E5" d="M220.539,185.353c-0.197-0.121-0.446-0.121-0.643,0l-5.43,3.337l-0.611-0.199v0.767h0.001
				c0.001,0.109,0.054,0.217,0.159,0.282l6.157,3.848c0.198,0.122,0.448,0.122,0.646,0l5.873-3.61
				c0.106-0.065,0.158-0.174,0.16-0.284l0.002,0.002v-0.758L220.539,185.353z"/>
			<path fill="#48D7E5" d="M220.819,192.627l5.873-3.61c0.216-0.133,0.216-0.447,0-0.58l-6.152-3.845
				c-0.197-0.121-0.446-0.121-0.643,0l-5.881,3.615c-0.213,0.131-0.213,0.442,0,0.573l6.157,3.848
				C220.371,192.749,220.62,192.749,220.819,192.627z"/>
			<path fill="#48D7E5" d="M229.244,179.985c-0.197-0.121-0.446-0.121-0.643,0l-5.43,3.337l-0.611-0.199v0.767h0.001
				c0.001,0.109,0.054,0.217,0.159,0.282l6.157,3.848c0.198,0.122,0.448,0.122,0.646,0l5.873-3.61
				c0.106-0.065,0.158-0.174,0.16-0.284l0.002,0.001v-0.758L229.244,179.985z"/>
			<path fill="#48D7E5" d="M237.949,174.618c-0.197-0.121-0.446-0.121-0.643,0l-5.43,3.337l-0.611-0.199v0.767h0.001
				c0.001,0.109,0.054,0.217,0.159,0.282l6.157,3.848c0.198,0.122,0.448,0.122,0.646,0l5.873-3.61
				c0.106-0.065,0.158-0.174,0.16-0.284l0.002,0.001v-0.758L237.949,174.618z"/>
			<path fill="#48D7E5" d="M246.654,169.25c-0.197-0.121-0.446-0.121-0.643,0l-5.43,3.337l-0.611-0.199v0.767h0.001
				c0.001,0.109,0.054,0.218,0.159,0.282l6.157,3.848c0.198,0.122,0.448,0.122,0.646,0l5.873-3.61
				c0.106-0.065,0.158-0.174,0.16-0.284l0.002,0.001v-0.756L246.654,169.25z"/>
			<path fill="#48D7E5" d="M255.359,163.883c-0.197-0.121-0.446-0.121-0.643,0l-5.43,3.337l-0.611-0.199v0.767h0.001
				c0.001,0.109,0.054,0.217,0.159,0.282l6.157,3.848c0.198,0.122,0.448,0.122,0.646,0l5.873-3.61
				c0.106-0.065,0.158-0.174,0.16-0.284l0.002,0.002v-0.758L255.359,163.883z"/>
			<path fill="#48D7E5" d="M264.064,158.515c-0.197-0.121-0.446-0.121-0.643,0l-5.43,3.337l-0.611-0.199v0.767h0.001
				c0.001,0.109,0.054,0.217,0.159,0.282l6.157,3.848c0.198,0.122,0.448,0.122,0.646,0l5.873-3.61
				c0.106-0.065,0.158-0.174,0.16-0.284l0.002,0.002V161.9L264.064,158.515z"/>
			<path fill="#48D7E5" d="M178.012,223.687c-0.197-0.121-0.446-0.121-0.643,0l-5.43,3.337l-0.611-0.199v0.767h0.001
				c0.001,0.109,0.054,0.218,0.159,0.282l6.157,3.848c0.198,0.122,0.448,0.122,0.646,0l5.873-3.61
				c0.106-0.065,0.158-0.174,0.16-0.284l0.002,0.001v-0.758L178.012,223.687z"/>
			<path fill="#48D7E5" d="M186.717,218.319c-0.197-0.121-0.446-0.121-0.643,0l-5.43,3.337l-0.611-0.199v0.767h0.001
				c0.001,0.109,0.054,0.217,0.159,0.282l6.157,3.848c0.198,0.122,0.448,0.122,0.646,0l5.873-3.61
				c0.106-0.065,0.158-0.174,0.16-0.284l0.002,0.002v-0.758L186.717,218.319z"/>
			<path fill="#48D7E5" d="M195.422,212.952c-0.197-0.121-0.446-0.121-0.643,0l-5.43,3.337l-0.611-0.199v0.767h0.001
				c0.001,0.109,0.054,0.217,0.159,0.282l6.157,3.848c0.198,0.122,0.448,0.122,0.646,0l5.873-3.61
				c0.106-0.065,0.158-0.174,0.16-0.284l0.002,0.002v-0.758L195.422,212.952z"/>
			<path fill="#48D7E5" d="M204.127,207.584c-0.197-0.121-0.446-0.121-0.643,0l-5.43,3.337l-0.611-0.199v0.767h0.001
				c0.001,0.109,0.054,0.217,0.159,0.282l6.157,3.848c0.198,0.122,0.448,0.122,0.646,0l5.873-3.61
				c0.106-0.065,0.158-0.174,0.16-0.284l0.002,0.001v-0.758L204.127,207.584z"/>
			<path fill="#48D7E5" d="M212.832,202.217c-0.197-0.121-0.446-0.121-0.643,0l-5.43,3.337l-0.611-0.199v0.767h0.001
				c0.001,0.109,0.054,0.217,0.159,0.282l6.157,3.848c0.198,0.122,0.448,0.122,0.646,0l5.873-3.61
				c0.106-0.065,0.158-0.174,0.16-0.284l0.002,0.001v-0.758L212.832,202.217z"/>
			<path fill="#48D7E5" d="M221.537,196.849c-0.197-0.121-0.446-0.121-0.643,0l-5.43,3.337l-0.611-0.199v0.767h0.001
				c0.001,0.109,0.054,0.217,0.159,0.282l6.157,3.848c0.198,0.122,0.448,0.122,0.646,0l5.873-3.61
				c0.106-0.065,0.158-0.174,0.16-0.284l0.002,0.002v-0.758L221.537,196.849z"/>
			<path fill="#48D7E5" d="M230.242,191.482c-0.197-0.121-0.446-0.121-0.643,0l-5.43,3.337l-0.611-0.199v0.767h0.001
				c0.001,0.109,0.054,0.217,0.159,0.282l6.157,3.848c0.198,0.122,0.448,0.122,0.646,0l5.873-3.61
				c0.106-0.065,0.158-0.174,0.16-0.284l0.002,0.002v-0.758L230.242,191.482z"/>
			<path fill="#48D7E5" d="M238.947,186.114c-0.197-0.121-0.446-0.121-0.643,0l-5.43,3.337l-0.611-0.199v0.767h0.001
				c0.001,0.109,0.054,0.217,0.159,0.282l6.157,3.848c0.198,0.122,0.448,0.122,0.646,0l5.873-3.61
				c0.106-0.065,0.158-0.174,0.16-0.284l0.002,0.001v-0.758L238.947,186.114z"/>
			<path fill="#48D7E5" d="M247.652,180.747c-0.197-0.121-0.446-0.121-0.643,0l-5.43,3.337l-0.611-0.199v0.767h0.001
				c0.001,0.109,0.054,0.217,0.159,0.282l6.157,3.848c0.198,0.122,0.448,0.122,0.646,0l5.873-3.61
				c0.106-0.065,0.158-0.174,0.16-0.284l0.002,0.001v-0.758L247.652,180.747z"/>
			<path fill="#48D7E5" d="M256.357,175.379c-0.197-0.121-0.446-0.121-0.643,0l-5.43,3.337l-0.611-0.199v0.767h0.001
				c0.001,0.109,0.054,0.218,0.159,0.282l6.157,3.848c0.198,0.122,0.448,0.122,0.646,0l5.873-3.61
				c0.106-0.065,0.158-0.174,0.16-0.284l0.002,0.001v-0.758L256.357,175.379z"/>
			<path fill="#48D7E5" d="M265.062,170.012c-0.197-0.121-0.446-0.121-0.643,0l-5.43,3.337l-0.611-0.199v0.767h0.001
				c0.001,0.109,0.054,0.217,0.159,0.282l6.157,3.848c0.198,0.122,0.448,0.122,0.646,0l5.873-3.61
				c0.106-0.065,0.158-0.174,0.16-0.284l0.002,0.002v-0.758L265.062,170.012z"/>
			<path fill="#48D7E5" d="M273.767,164.644c-0.197-0.121-0.446-0.121-0.643,0l-5.43,3.337l-0.611-0.199v0.767h0.001
				c0.001,0.109,0.054,0.218,0.159,0.282l6.157,3.848c0.198,0.122,0.448,0.122,0.646,0l5.873-3.61
				c0.106-0.065,0.158-0.174,0.16-0.284l0.002,0.002v-0.758L273.767,164.644z"/>
			<path fill="#48D7E5" d="M187.715,229.815c-0.197-0.121-0.446-0.121-0.643,0l-5.43,3.337l-0.611-0.199v0.767h0.001
				c0.001,0.109,0.054,0.217,0.159,0.282l6.157,3.848c0.198,0.122,0.448,0.122,0.646,0l5.873-3.61
				c0.106-0.065,0.158-0.174,0.16-0.284l0.002,0.001v-0.758L187.715,229.815z"/>
			<path fill="#48D7E5" d="M196.42,224.448c-0.197-0.121-0.446-0.121-0.643,0l-5.43,3.337l-0.611-0.199v0.767h0.001
				c0.001,0.109,0.054,0.217,0.159,0.282l6.157,3.848c0.198,0.122,0.448,0.122,0.646,0l5.873-3.61
				c0.106-0.065,0.158-0.174,0.16-0.284l0.002,0.002v-0.758L196.42,224.448z"/>
			<path fill="#48D7E5" d="M205.125,219.08c-0.197-0.121-0.446-0.121-0.643,0l-5.43,3.337l-0.611-0.199v0.767h0.001
				c0.001,0.109,0.054,0.217,0.159,0.282l6.157,3.848c0.198,0.122,0.448,0.122,0.646,0l5.873-3.61
				c0.106-0.065,0.158-0.174,0.16-0.284l0.002,0.002v-0.758L205.125,219.08z"/>
			<path fill="#48D7E5" d="M213.83,213.713c-0.197-0.121-0.446-0.121-0.643,0l-5.43,3.337l-0.611-0.199v0.767h0.001
				c0.001,0.109,0.054,0.217,0.159,0.282l6.157,3.848c0.198,0.122,0.448,0.122,0.646,0l5.873-3.61
				c0.106-0.065,0.158-0.174,0.16-0.284l0.002,0.001v-0.758L213.83,213.713z"/>
			<path fill="#48D7E5" d="M222.535,208.345c-0.197-0.121-0.446-0.121-0.643,0l-5.43,3.337l-0.611-0.199v0.767h0.001
				c0.001,0.109,0.054,0.217,0.159,0.282l6.157,3.848c0.198,0.122,0.448,0.122,0.646,0l5.873-3.61
				c0.106-0.065,0.158-0.174,0.16-0.284l0.002,0.001v-0.758L222.535,208.345z"/>
			<path fill="#48D7E5" d="M231.24,202.978c-0.197-0.121-0.446-0.121-0.643,0l-5.43,3.337l-0.611-0.199v0.767h0.001
				c0.001,0.109,0.054,0.217,0.159,0.282l6.157,3.848c0.198,0.122,0.448,0.122,0.646,0l5.873-3.61
				c0.106-0.065,0.158-0.174,0.16-0.284l0.002,0.002v-0.758L231.24,202.978z"/>
			<path fill="#48D7E5" d="M239.945,197.61c-0.197-0.121-0.446-0.121-0.643,0l-5.43,3.337l-0.611-0.199v0.767h0.001
				c0.001,0.109,0.054,0.217,0.159,0.282l6.157,3.848c0.198,0.122,0.448,0.122,0.646,0l5.873-3.61
				c0.106-0.065,0.158-0.174,0.16-0.284l0.002,0.002v-0.758L239.945,197.61z"/>
			<path fill="#48D7E5" d="M248.65,192.243c-0.197-0.121-0.446-0.121-0.643,0l-5.43,3.337l-0.611-0.199v0.767h0.001
				c0.001,0.109,0.054,0.217,0.159,0.282l6.157,3.848c0.198,0.122,0.448,0.122,0.646,0l5.873-3.61
				c0.106-0.065,0.158-0.174,0.16-0.284l0.002,0.001v-0.758L248.65,192.243z"/>
			<path fill="#48D7E5" d="M257.354,186.875c-0.197-0.121-0.446-0.121-0.643,0l-5.43,3.337l-0.611-0.199v0.767h0.001
				c0.001,0.109,0.054,0.217,0.159,0.282l6.157,3.848c0.198,0.122,0.448,0.122,0.646,0l5.873-3.61
				c0.106-0.065,0.158-0.174,0.16-0.284l0.002,0.001v-0.758L257.354,186.875z"/>
			<path fill="#48D7E5" d="M266.059,181.508c-0.197-0.121-0.446-0.121-0.643,0l-5.43,3.337l-0.611-0.199v0.767h0.001
				c0.001,0.109,0.054,0.218,0.159,0.282l6.157,3.848c0.198,0.122,0.448,0.122,0.646,0l5.873-3.61
				c0.106-0.065,0.158-0.174,0.16-0.284l0.002,0.001v-0.758L266.059,181.508z"/>
			<path fill="#48D7E5" d="M274.764,176.14c-0.197-0.121-0.446-0.121-0.643,0l-5.43,3.337l-0.611-0.199v0.767h0.001
				c0.001,0.109,0.054,0.217,0.159,0.282l6.157,3.848c0.198,0.122,0.448,0.122,0.646,0l5.873-3.61
				c0.106-0.065,0.158-0.174,0.16-0.284l0.002,0.002v-0.758L274.764,176.14z"/>
			<path fill="#48D7E5" d="M283.469,170.773c-0.197-0.121-0.446-0.121-0.643,0l-5.43,3.337l-0.611-0.199v0.767h0.001
				c0.001,0.109,0.054,0.218,0.159,0.282l6.157,3.848c0.198,0.122,0.448,0.122,0.646,0l5.873-3.61
				c0.106-0.065,0.158-0.174,0.16-0.284l0.002,0.002v-0.758L283.469,170.773z"/>
			<path fill="#48D7E5" d="M197.418,235.944c-0.197-0.121-0.446-0.121-0.643,0l-5.43,3.337l-0.611-0.199v0.767h0.001
				c0.001,0.109,0.054,0.217,0.159,0.282l6.157,3.848c0.198,0.122,0.448,0.122,0.646,0l5.873-3.61
				c0.106-0.065,0.158-0.174,0.16-0.284l0.002,0.001v-0.758L197.418,235.944z"/>
			<path fill="#48D7E5" d="M206.123,230.577c-0.197-0.121-0.446-0.121-0.643,0l-5.43,3.337l-0.611-0.199v0.767h0.001
				c0.001,0.109,0.054,0.217,0.159,0.282l6.157,3.848c0.198,0.122,0.448,0.122,0.646,0l5.873-3.61
				c0.106-0.065,0.158-0.174,0.16-0.284l0.002,0.002v-0.758L206.123,230.577z"/>
			<path fill="#48D7E5" d="M214.828,225.209c-0.197-0.121-0.446-0.121-0.643,0l-5.43,3.337l-0.611-0.199v0.767h0.001
				c0.001,0.109,0.054,0.217,0.159,0.282l6.157,3.848c0.198,0.122,0.448,0.122,0.646,0l5.873-3.61
				c0.106-0.065,0.158-0.174,0.16-0.284l0.002,0.002v-0.758L214.828,225.209z"/>
			<path fill="#48D7E5" d="M223.532,219.842c-0.197-0.121-0.446-0.121-0.643,0l-5.43,3.337l-0.611-0.199v0.767h0.001
				c0.001,0.109,0.054,0.217,0.159,0.282l6.157,3.848c0.198,0.122,0.448,0.122,0.646,0l5.873-3.61
				c0.106-0.065,0.158-0.174,0.16-0.284l0.002,0.001v-0.758L223.532,219.842z"/>
			<path fill="#48D7E5" d="M232.237,214.474c-0.197-0.121-0.446-0.121-0.643,0l-5.43,3.337l-0.611-0.199v0.767h0.001
				c0.001,0.109,0.054,0.217,0.159,0.282l6.157,3.848c0.198,0.122,0.448,0.122,0.646,0l5.873-3.61
				c0.106-0.065,0.158-0.174,0.16-0.284l0.002,0.001v-0.758L232.237,214.474z"/>
			<path fill="#48D7E5" d="M240.942,209.107c-0.197-0.121-0.446-0.121-0.643,0l-5.43,3.337l-0.611-0.199v0.767h0.001
				c0.001,0.109,0.054,0.218,0.159,0.282l6.157,3.848c0.198,0.122,0.448,0.122,0.646,0l5.873-3.61
				c0.106-0.065,0.158-0.174,0.16-0.284l0.002,0.001v-0.758L240.942,209.107z"/>
			<path fill="#48D7E5" d="M249.647,203.739c-0.197-0.121-0.446-0.121-0.643,0l-5.43,3.337l-0.611-0.199v0.767h0.001
				c0.001,0.109,0.054,0.217,0.159,0.282l6.157,3.848c0.198,0.122,0.448,0.122,0.647,0l5.873-3.61
				c0.106-0.065,0.158-0.174,0.16-0.284l0.002,0.002v-0.758L249.647,203.739z"/>
			<path fill="#48D7E5" d="M258.352,198.372c-0.197-0.121-0.446-0.121-0.643,0l-5.43,3.337l-0.611-0.199v0.767h0.001
				c0.001,0.109,0.054,0.217,0.159,0.282l6.157,3.848c0.198,0.122,0.448,0.122,0.646,0l5.873-3.61
				c0.106-0.065,0.158-0.174,0.16-0.284l0.002,0.002v-0.758L258.352,198.372z"/>
			<path fill="#48D7E5" d="M267.057,193.004c-0.197-0.121-0.446-0.121-0.643,0l-5.43,3.337l-0.611-0.199v0.767h0.001
				c0.001,0.109,0.054,0.217,0.159,0.282l6.157,3.848c0.198,0.122,0.448,0.122,0.646,0l5.873-3.61
				c0.106-0.065,0.158-0.174,0.16-0.284l0.002,0.002v-0.758L267.057,193.004z"/>
			<path fill="#48D7E5" d="M275.762,187.637c-0.197-0.121-0.446-0.121-0.643,0l-5.43,3.337l-0.611-0.199v0.767h0.001
				c0.001,0.109,0.054,0.218,0.159,0.282l6.157,3.848c0.198,0.122,0.448,0.122,0.646,0l5.873-3.61
				c0.106-0.065,0.158-0.174,0.16-0.284l0.002,0.001v-0.758L275.762,187.637z"/>
			<path fill="#48D7E5" d="M284.467,182.269c-0.197-0.121-0.446-0.121-0.643,0l-5.43,3.337l-0.611-0.199v0.767h0.001
				c0.001,0.109,0.054,0.217,0.159,0.282l6.157,3.848c0.198,0.122,0.448,0.122,0.646,0l5.873-3.61
				c0.106-0.065,0.158-0.174,0.16-0.284l0.002,0.002v-0.758L284.467,182.269z"/>
			<path fill="#48D7E5" d="M293.172,176.902c-0.197-0.121-0.446-0.121-0.643,0l-5.43,3.337l-0.611-0.199v0.767h0.001
				c0.001,0.109,0.054,0.217,0.159,0.282l6.157,3.848c0.198,0.122,0.448,0.122,0.646,0l5.873-3.61
				c0.106-0.065,0.158-0.174,0.16-0.284l0.002,0.002v-0.758L293.172,176.902z"/>
			<path fill="#48D7E5" d="M207.12,242.073c-0.197-0.121-0.446-0.121-0.643,0l-5.43,3.337l-0.611-0.199v0.767h0.001
				c0.001,0.109,0.054,0.217,0.159,0.282l6.157,3.848c0.198,0.122,0.448,0.122,0.646,0l5.873-3.61
				c0.106-0.065,0.158-0.174,0.16-0.284l0.002,0.001v-0.758L207.12,242.073z"/>
			<path fill="#48D7E5" d="M215.825,236.705c-0.197-0.121-0.446-0.121-0.643,0l-5.43,3.337l-0.611-0.199v0.767h0.001
				c0.001,0.109,0.054,0.217,0.159,0.282l6.157,3.848c0.198,0.122,0.448,0.122,0.646,0l5.873-3.61
				c0.106-0.065,0.158-0.174,0.16-0.284l0.002,0.002v-0.758L215.825,236.705z"/>
			<path fill="#48D7E5" d="M224.53,231.338c-0.197-0.121-0.446-0.121-0.643,0l-5.43,3.337l-0.611-0.199v0.767h0.001
				c0.001,0.109,0.054,0.217,0.159,0.282l6.157,3.848c0.198,0.122,0.448,0.122,0.646,0l5.873-3.61
				c0.106-0.065,0.158-0.174,0.16-0.284l0.002,0.002v-0.758L224.53,231.338z"/>
			<path fill="#48D7E5" d="M233.235,225.97c-0.197-0.121-0.446-0.121-0.643,0l-5.43,3.337l-0.611-0.199v0.767h0.001
				c0.001,0.109,0.054,0.217,0.159,0.282l6.157,3.848c0.198,0.122,0.448,0.122,0.646,0l5.873-3.61
				c0.106-0.065,0.158-0.174,0.16-0.284l0.002,0.001v-0.758L233.235,225.97z"/>
			<path fill="#48D7E5" d="M241.94,220.603c-0.197-0.121-0.446-0.121-0.643,0l-5.43,3.337l-0.611-0.199v0.767h0.001
				c0.001,0.109,0.054,0.217,0.159,0.282l6.157,3.848c0.198,0.122,0.448,0.122,0.646,0l5.873-3.61
				c0.106-0.065,0.158-0.174,0.16-0.284l0.002,0.001v-0.758L241.94,220.603z"/>
			<path fill="#48D7E5" d="M250.645,215.235c-0.197-0.121-0.446-0.121-0.643,0l-5.43,3.337l-0.611-0.199v0.767h0.001
				c0.001,0.109,0.054,0.218,0.159,0.282l6.157,3.848c0.198,0.122,0.448,0.122,0.646,0l5.873-3.61
				c0.106-0.065,0.158-0.174,0.16-0.284l0.002,0.001v-0.758L250.645,215.235z"/>
			<path fill="#48D7E5" d="M259.35,209.868c-0.197-0.121-0.446-0.121-0.643,0l-5.429,3.338l-0.611-0.199v0.767h0.001
				c0.001,0.109,0.054,0.217,0.159,0.282l6.157,3.848c0.198,0.122,0.448,0.122,0.646,0l5.873-3.61
				c0.106-0.065,0.158-0.174,0.16-0.284l0.002,0.002v-0.758L259.35,209.868z"/>
			<path fill="#48D7E5" d="M268.055,204.5c-0.197-0.121-0.446-0.121-0.643,0l-5.43,3.337l-0.611-0.199v0.767h0.001
				c0.001,0.109,0.054,0.217,0.159,0.282l6.157,3.848c0.198,0.122,0.448,0.122,0.646,0l5.873-3.61
				c0.106-0.065,0.158-0.174,0.16-0.284l0.002,0.002v-0.758L268.055,204.5z"/>
			<path fill="#48D7E5" d="M276.76,199.133c-0.197-0.121-0.446-0.121-0.643,0l-5.43,3.337l-0.611-0.199v0.767h0.001
				c0.001,0.109,0.054,0.218,0.159,0.282l6.157,3.848c0.198,0.122,0.448,0.122,0.646,0l5.873-3.61
				c0.106-0.065,0.158-0.174,0.16-0.284l0.002,0.002v-0.758L276.76,199.133z"/>
			<path fill="#48D7E5" d="M285.465,193.766c-0.197-0.121-0.446-0.121-0.643,0l-5.43,3.337l-0.611-0.199v0.767h0.001
				c0.001,0.109,0.054,0.218,0.159,0.282l6.157,3.848c0.198,0.122,0.448,0.122,0.646,0l5.873-3.61
				c0.106-0.065,0.158-0.174,0.16-0.284l0.002,0.001v-0.758L285.465,193.766z"/>
			<path fill="#48D7E5" d="M294.17,188.398c-0.197-0.121-0.446-0.121-0.643,0l-5.43,3.337l-0.611-0.199v0.767h0.001
				c0.001,0.109,0.054,0.217,0.159,0.282l6.157,3.848c0.198,0.122,0.448,0.122,0.646,0l5.873-3.61
				c0.106-0.065,0.158-0.174,0.16-0.284l0.002,0.002v-0.758L294.17,188.398z"/>
			<path fill="#48D7E5" d="M302.875,183.031c-0.197-0.121-0.446-0.121-0.643,0l-5.43,3.337l-0.611-0.199v0.767h0.001
				c0.001,0.109,0.054,0.217,0.159,0.282l6.157,3.848c0.198,0.122,0.448,0.122,0.646,0l5.873-3.61
				c0.106-0.065,0.158-0.174,0.16-0.284l0.002,0.002v-0.758L302.875,183.031z"/>
			<path fill="#48D7E5" d="M216.823,248.202c-0.197-0.121-0.446-0.121-0.643,0l-5.43,3.337l-0.611-0.199v0.767h0.001
				c0.001,0.109,0.054,0.217,0.159,0.282l6.157,3.848c0.198,0.122,0.448,0.122,0.646,0l5.873-3.61
				c0.106-0.065,0.158-0.174,0.16-0.284l0.002,0.001v-0.758L216.823,248.202z"/>
			<path fill="#48D7E5" d="M225.528,242.834c-0.197-0.121-0.446-0.121-0.643,0l-5.43,3.337l-0.611-0.199v0.767h0.001
				c0.001,0.109,0.054,0.217,0.159,0.282l6.157,3.848c0.198,0.122,0.448,0.122,0.646,0l5.873-3.61
				c0.106-0.065,0.158-0.174,0.16-0.284l0.002,0.002v-0.758L225.528,242.834z"/>
			<path fill="#48D7E5" d="M234.233,237.467c-0.197-0.121-0.446-0.121-0.643,0l-5.43,3.337l-0.611-0.199v0.767h0.001
				c0.001,0.109,0.054,0.217,0.159,0.282l6.157,3.848c0.198,0.122,0.448,0.122,0.646,0l5.873-3.61
				c0.106-0.065,0.158-0.174,0.16-0.284l0.002,0.002v-0.758L234.233,237.467z"/>
			<path fill="#48D7E5" d="M277.758,210.629c-0.197-0.121-0.446-0.121-0.643,0l-5.43,3.337l-0.611-0.199v0.767h0.001
				c0.001,0.109,0.054,0.217,0.159,0.282l6.157,3.848c0.198,0.122,0.448,0.122,0.646,0l5.873-3.61
				c0.106-0.065,0.158-0.174,0.16-0.284l0.002,0.002v-0.758L277.758,210.629z"/>
			<path fill="#48D7E5" d="M286.463,205.262c-0.197-0.121-0.446-0.121-0.643,0l-5.43,3.337l-0.611-0.199v0.767h0.001
				c0.001,0.109,0.054,0.218,0.159,0.282l6.157,3.848c0.198,0.122,0.448,0.122,0.646,0l5.873-3.61
				c0.106-0.065,0.158-0.174,0.16-0.284l0.002,0.002v-0.758L286.463,205.262z"/>
			<path fill="#48D7E5" d="M295.168,199.894c-0.197-0.121-0.446-0.121-0.643,0l-5.43,3.337l-0.611-0.199v0.767h0.001
				c0.001,0.109,0.054,0.218,0.159,0.282l6.157,3.848c0.198,0.122,0.448,0.122,0.646,0l5.873-3.61
				c0.106-0.065,0.158-0.174,0.16-0.284l0.002,0.001v-0.758L295.168,199.894z"/>
			<path fill="#48D7E5" d="M303.873,194.527c-0.197-0.121-0.446-0.121-0.643,0l-5.43,3.337l-0.611-0.199v0.767h0.001
				c0.001,0.109,0.054,0.217,0.159,0.282l2.503,1.564c0.198,0.122,0.448,0.122,0.646,0l5.873-3.61
				c0.106-0.065,0.158-0.174,0.16-0.284l0.002,0.002v-0.758L303.873,194.527z"/>
			<path fill="#48D7E5" d="M307.532,196.814c-0.197-0.121-0.446-0.121-0.643,0l-5.43,3.337l-0.611-0.199v0.767h0.001
				c0.001,0.109,0.054,0.217,0.159,0.282l2.503,1.563c0.198,0.122,0.448,0.122,0.646,0l5.873-3.61
				c0.106-0.065,0.158-0.174,0.16-0.284l0.002,0.001v-0.758L307.532,196.814z"/>
			<path fill="#48D7E5" d="M312.578,189.159c-0.197-0.121-0.446-0.121-0.643,0l-5.43,3.337l-0.611-0.199v0.767h0.001
				c0.001,0.109,0.054,0.217,0.159,0.282l6.157,3.848c0.198,0.122,0.448,0.122,0.646,0l5.873-3.61
				c0.106-0.065,0.158-0.174,0.16-0.284l0.002,0.002v-0.758L312.578,189.159z"/>
			<path fill="#48D7E5" d="M269.053,215.997c-0.197-0.121-0.446-0.121-0.643,0l-5.43,3.337l-0.611-0.199v0.767h0.001
				c0.002,0.109,0.054,0.218,0.159,0.282l2.983,1.864l-18.651,12.154l-3.923-2.103c-0.197-0.121-0.446-0.121-0.643,0l-5.43,3.337
				l-0.611-0.199v0.767h0.001c0.001,0.109,0.054,0.217,0.159,0.282l6.157,3.848c0.198,0.122,0.448,0.122,0.646,0l5.873-3.61
				c0.003-0.002,0.004-0.005,0.007-0.007l23.277-14.355l0,0l2.831-1.74c0.106-0.065,0.158-0.174,0.16-0.284l0.002,0.002v-0.758
				L269.053,215.997z"/>
		</g>
		<g>
			<path fill="#FFFFFF" d="M168.589,224.832l5.873-3.61c0.216-0.133,0.216-0.447,0-0.58l-6.153-3.845
				c-0.197-0.121-0.446-0.121-0.643,0l-5.881,3.615c-0.213,0.131-0.213,0.442,0,0.573l6.157,3.848
				C168.141,224.954,168.391,224.954,168.589,224.832z"/>
			<path fill="#FFFFFF" d="M177.294,219.464l5.873-3.61c0.216-0.133,0.216-0.447,0-0.58l-6.153-3.845
				c-0.197-0.121-0.446-0.121-0.643,0l-5.881,3.615c-0.213,0.131-0.213,0.442,0,0.573l6.157,3.848
				C176.846,219.586,177.096,219.586,177.294,219.464z"/>
			<path fill="#FFFFFF" d="M185.999,214.097l5.873-3.61c0.216-0.133,0.216-0.447,0-0.58l-6.153-3.846
				c-0.197-0.121-0.446-0.121-0.643,0l-5.881,3.615c-0.213,0.131-0.213,0.442,0,0.573l6.157,3.848
				C185.551,214.219,185.801,214.219,185.999,214.097z"/>
			<path fill="#FFFFFF" d="M194.704,208.729l5.873-3.61c0.216-0.133,0.216-0.447,0-0.58l-6.152-3.845
				c-0.197-0.121-0.446-0.121-0.643,0l-5.881,3.615c-0.213,0.131-0.213,0.442,0,0.573l6.157,3.848
				C194.256,208.851,194.506,208.851,194.704,208.729z"/>
			<path fill="#FFFFFF" d="M203.409,203.362l5.873-3.61c0.216-0.133,0.216-0.447,0-0.58l-6.152-3.846
				c-0.197-0.121-0.446-0.121-0.643,0l-5.881,3.615c-0.213,0.131-0.213,0.442,0,0.573l6.157,3.848
				C202.961,203.484,203.211,203.484,203.409,203.362z"/>
			<path fill="#FFFFFF" d="M212.114,197.994l5.873-3.61c0.216-0.133,0.216-0.447,0-0.58l-6.152-3.845
				c-0.197-0.121-0.446-0.121-0.643,0l-5.881,3.615c-0.213,0.131-0.213,0.442,0,0.573l6.157,3.848
				C211.666,198.116,211.916,198.116,212.114,197.994z"/>
			<path fill="#FFFFFF" d="M229.524,187.259l5.873-3.61c0.216-0.133,0.216-0.447,0-0.58l-6.152-3.846
				c-0.197-0.121-0.446-0.121-0.643,0l-5.881,3.614c-0.213,0.131-0.213,0.442,0,0.573l6.157,3.848
				C229.076,187.382,229.326,187.381,229.524,187.259z"/>
			<path fill="#FFFFFF" d="M238.229,181.892l5.873-3.61c0.216-0.133,0.216-0.447,0-0.58l-6.152-3.846
				c-0.197-0.121-0.446-0.121-0.643,0l-5.881,3.615c-0.213,0.131-0.213,0.442,0,0.573l6.157,3.848
				C237.78,182.014,238.03,182.014,238.229,181.892z"/>
			<path fill="#FFFFFF" d="M246.933,176.525l5.873-3.61c0.216-0.133,0.216-0.447,0-0.58l-6.152-3.845
				c-0.197-0.121-0.446-0.121-0.643,0l-5.881,3.615c-0.213,0.131-0.213,0.442,0,0.573l6.157,3.848
				C246.485,176.647,246.735,176.646,246.933,176.525z"/>
			<path fill="#FFFFFF" d="M255.638,171.157l5.873-3.61c0.216-0.133,0.216-0.447,0-0.58l-6.153-3.845
				c-0.197-0.121-0.446-0.121-0.643,0l-5.881,3.615c-0.213,0.131-0.213,0.442,0,0.573l6.157,3.848
				C255.19,171.279,255.44,171.279,255.638,171.157z"/>
			<path fill="#FFFFFF" d="M264.343,165.79l5.873-3.61c0.216-0.133,0.216-0.447,0-0.58l-6.152-3.846
				c-0.197-0.121-0.446-0.121-0.643,0l-5.881,3.615c-0.213,0.131-0.213,0.442,0,0.573l6.157,3.848
				C263.895,165.912,264.145,165.911,264.343,165.79z"/>
			<path fill="#FFFFFF" d="M178.292,230.961l5.873-3.61c0.216-0.133,0.216-0.447,0-0.58l-6.152-3.845
				c-0.197-0.121-0.446-0.121-0.643,0l-5.881,3.615c-0.213,0.131-0.213,0.442,0,0.573l6.157,3.848
				C177.844,231.083,178.094,231.083,178.292,230.961z"/>
			<path fill="#FFFFFF" d="M186.997,225.593l5.873-3.61c0.216-0.133,0.216-0.447,0-0.58l-6.153-3.845
				c-0.197-0.121-0.446-0.121-0.643,0l-5.881,3.615c-0.213,0.131-0.213,0.442,0,0.573l6.157,3.848
				C186.549,225.715,186.798,225.715,186.997,225.593z"/>
			<path fill="#FFFFFF" d="M195.702,220.226l5.873-3.61c0.216-0.133,0.216-0.447,0-0.58l-6.153-3.846
				c-0.197-0.121-0.446-0.121-0.643,0l-5.881,3.615c-0.213,0.131-0.213,0.442,0,0.573l6.157,3.848
				C195.253,220.348,195.503,220.348,195.702,220.226z"/>
			<path fill="#FFFFFF" d="M204.407,214.858l5.873-3.61c0.216-0.133,0.216-0.447,0-0.58l-6.152-3.845
				c-0.197-0.121-0.446-0.121-0.643,0l-5.881,3.615c-0.213,0.131-0.213,0.442,0,0.573l6.157,3.848
				C203.958,214.98,204.208,214.98,204.407,214.858z"/>
			<path fill="#FFFFFF" d="M213.111,209.491l5.873-3.61c0.216-0.133,0.216-0.447,0-0.58l-6.152-3.846
				c-0.197-0.121-0.446-0.121-0.643,0l-5.881,3.614c-0.213,0.131-0.213,0.442,0,0.573l6.157,3.848
				C212.663,209.613,212.913,209.613,213.111,209.491z"/>
			<path fill="#FFFFFF" d="M221.816,204.123l5.873-3.61c0.216-0.133,0.216-0.447,0-0.58l-6.152-3.845
				c-0.197-0.121-0.446-0.121-0.643,0l-5.881,3.615c-0.213,0.131-0.213,0.442,0,0.573l6.157,3.848
				C221.368,204.245,221.618,204.245,221.816,204.123z"/>
			<path fill="#FFFFFF" d="M230.521,198.756l5.873-3.61c0.216-0.133,0.216-0.447,0-0.58l-6.152-3.845
				c-0.197-0.121-0.446-0.121-0.643,0l-5.881,3.615c-0.213,0.131-0.213,0.442,0,0.573l6.157,3.848
				C230.073,198.878,230.323,198.878,230.521,198.756z"/>
			<path fill="#FFFFFF" d="M239.226,193.388l5.873-3.61c0.216-0.133,0.216-0.447,0-0.58l-6.152-3.846
				c-0.197-0.121-0.446-0.121-0.643,0l-5.881,3.614c-0.213,0.131-0.213,0.442,0,0.573l6.157,3.848
				C238.778,193.51,239.028,193.51,239.226,193.388z"/>
			<path fill="#FFFFFF" d="M247.931,188.021l5.873-3.61c0.216-0.133,0.216-0.447,0-0.58l-6.152-3.846
				c-0.197-0.121-0.446-0.121-0.643,0l-5.881,3.615c-0.213,0.131-0.213,0.442,0,0.573l6.157,3.848
				C247.483,188.143,247.733,188.143,247.931,188.021z"/>
			<path fill="#FFFFFF" d="M256.636,182.653l5.873-3.61c0.216-0.133,0.216-0.447,0-0.58l-6.152-3.845
				c-0.197-0.121-0.446-0.121-0.643,0l-5.881,3.615c-0.213,0.131-0.213,0.442,0,0.573l6.157,3.848
				C256.188,182.775,256.438,182.775,256.636,182.653z"/>
			<path fill="#FFFFFF" d="M265.341,177.286l5.873-3.61c0.216-0.133,0.216-0.447,0-0.58l-6.152-3.845
				c-0.197-0.121-0.446-0.121-0.643,0l-5.881,3.615c-0.213,0.131-0.213,0.442,0,0.573l6.157,3.848
				C264.893,177.408,265.143,177.408,265.341,177.286z"/>
			<path fill="#FFFFFF" d="M274.046,171.918l5.873-3.61c0.216-0.133,0.216-0.447,0-0.58l-6.153-3.846
				c-0.197-0.121-0.446-0.121-0.643,0l-5.881,3.615c-0.213,0.131-0.213,0.442,0,0.573l6.157,3.848
				C273.598,172.041,273.848,172.04,274.046,171.918z"/>
			<path fill="#FFFFFF" d="M187.994,237.089l5.873-3.61c0.216-0.133,0.216-0.447,0-0.58l-6.153-3.845
				c-0.197-0.121-0.446-0.121-0.643,0l-5.881,3.615c-0.213,0.131-0.213,0.442,0,0.573l6.157,3.848
				C187.546,237.211,187.796,237.211,187.994,237.089z"/>
			<path fill="#FFFFFF" d="M196.699,231.722l5.873-3.61c0.216-0.133,0.216-0.447,0-0.58l-6.152-3.845
				c-0.197-0.121-0.446-0.121-0.643,0l-5.881,3.615c-0.213,0.131-0.213,0.442,0,0.573l6.157,3.848
				C196.251,231.844,196.501,231.844,196.699,231.722z"/>
			<path fill="#FFFFFF" d="M205.404,226.354l5.873-3.61c0.216-0.133,0.216-0.447,0-0.58l-6.153-3.845
				c-0.197-0.121-0.446-0.121-0.643,0l-5.881,3.615c-0.213,0.131-0.213,0.442,0,0.573l6.157,3.848
				C204.956,226.476,205.206,226.476,205.404,226.354z"/>
			<path fill="#FFFFFF" d="M214.109,220.987l5.873-3.61c0.216-0.133,0.216-0.447,0-0.58l-6.153-3.845
				c-0.197-0.121-0.446-0.121-0.643,0l-5.881,3.615c-0.213,0.131-0.213,0.442,0,0.573l6.157,3.848
				C213.661,221.109,213.911,221.109,214.109,220.987z"/>
			<path fill="#FFFFFF" d="M222.814,215.619l5.873-3.61c0.216-0.133,0.216-0.447,0-0.58l-6.152-3.846
				c-0.197-0.121-0.446-0.121-0.643,0l-5.881,3.614c-0.213,0.131-0.213,0.442,0,0.573l6.157,3.848
				C222.366,215.742,222.616,215.741,222.814,215.619z"/>
			<path fill="#FFFFFF" d="M231.519,210.252l5.873-3.61c0.216-0.133,0.216-0.447,0-0.58l-6.152-3.845
				c-0.197-0.121-0.446-0.121-0.643,0l-5.881,3.615c-0.213,0.131-0.213,0.442,0,0.573l6.157,3.848
				C231.071,210.374,231.321,210.374,231.519,210.252z"/>
			<path fill="#FFFFFF" d="M240.224,204.885l5.873-3.61c0.216-0.133,0.216-0.447,0-0.58l-6.152-3.845
				c-0.197-0.121-0.446-0.121-0.643,0l-5.881,3.615c-0.213,0.131-0.213,0.442,0,0.573l6.157,3.848
				C239.776,205.007,240.026,205.006,240.224,204.885z"/>
			<path fill="#FFFFFF" d="M248.929,199.517l5.873-3.61c0.216-0.133,0.216-0.447,0-0.58l-6.152-3.846
				c-0.197-0.121-0.446-0.121-0.643,0l-5.881,3.615c-0.213,0.131-0.213,0.442,0,0.573l6.157,3.848
				C248.481,199.639,248.731,199.639,248.929,199.517z"/>
			<path fill="#FFFFFF" d="M257.634,194.15l5.873-3.61c0.216-0.133,0.216-0.447,0-0.58l-6.153-3.846
				c-0.197-0.121-0.446-0.121-0.643,0l-5.881,3.615c-0.213,0.131-0.213,0.442,0,0.573l6.157,3.848
				C257.186,194.272,257.436,194.271,257.634,194.15z"/>
			<path fill="#FFFFFF" d="M266.339,188.782l5.873-3.61c0.216-0.133,0.216-0.447,0-0.58l-6.153-3.845
				c-0.197-0.121-0.446-0.121-0.643,0l-5.881,3.615c-0.213,0.131-0.213,0.442,0,0.573l6.157,3.848
				C265.891,188.904,266.141,188.904,266.339,188.782z"/>
			<path fill="#FFFFFF" d="M275.044,183.415l5.873-3.61c0.216-0.133,0.216-0.447,0-0.58l-6.152-3.845
				c-0.197-0.121-0.446-0.121-0.643,0l-5.881,3.615c-0.213,0.131-0.213,0.442,0,0.573l6.157,3.848
				C274.596,183.537,274.846,183.537,275.044,183.415z"/>
			<path fill="#FFFFFF" d="M283.749,178.047l5.873-3.61c0.216-0.133,0.216-0.447,0-0.58l-6.153-3.846
				c-0.197-0.121-0.446-0.121-0.643,0l-5.881,3.615c-0.213,0.131-0.213,0.442,0,0.573l6.157,3.848
				C283.301,178.169,283.551,178.169,283.749,178.047z"/>
			<path fill="#FFFFFF" d="M197.697,243.218l5.873-3.61c0.216-0.133,0.216-0.447,0-0.58l-6.152-3.845
				c-0.197-0.121-0.446-0.121-0.643,0l-5.881,3.615c-0.213,0.131-0.213,0.442,0,0.573l6.157,3.848
				C197.249,243.34,197.499,243.34,197.697,243.218z"/>
			<path fill="#FFFFFF" d="M206.402,237.851l5.873-3.61c0.216-0.133,0.216-0.447,0-0.58l-6.153-3.845
				c-0.197-0.121-0.446-0.121-0.643,0l-5.881,3.615c-0.213,0.131-0.213,0.442,0,0.573l6.157,3.848
				C205.954,237.973,206.204,237.973,206.402,237.851z"/>
			<path fill="#FFFFFF" d="M215.107,232.483l5.873-3.61c0.216-0.133,0.216-0.447,0-0.58l-6.152-3.845
				c-0.197-0.121-0.446-0.121-0.643,0l-5.881,3.615c-0.213,0.131-0.213,0.442,0,0.573l6.157,3.848
				C214.659,232.605,214.909,232.605,215.107,232.483z"/>
			<path fill="#FFFFFF" d="M223.812,227.116l5.873-3.61c0.216-0.133,0.216-0.447,0-0.58l-6.153-3.846
				c-0.197-0.121-0.446-0.121-0.643,0l-5.881,3.615c-0.213,0.131-0.213,0.442,0,0.573l6.157,3.848
				C223.364,227.238,223.614,227.238,223.812,227.116z"/>
			<path fill="#FFFFFF" d="M232.517,221.748l5.873-3.61c0.216-0.133,0.216-0.447,0-0.58l-6.153-3.846
				c-0.197-0.121-0.446-0.121-0.643,0l-5.881,3.614c-0.213,0.131-0.213,0.442,0,0.573l6.157,3.848
				C232.069,221.87,232.319,221.87,232.517,221.748z"/>
			<path fill="#FFFFFF" d="M241.222,216.381l5.873-3.61c0.216-0.133,0.216-0.447,0-0.58l-6.152-3.845
				c-0.197-0.121-0.446-0.121-0.643,0l-5.881,3.615c-0.213,0.131-0.213,0.442,0,0.573l6.157,3.848
				C240.774,216.503,241.024,216.503,241.222,216.381z"/>
			<path fill="#FFFFFF" d="M249.927,211.013l5.873-3.61c0.216-0.133,0.216-0.447,0-0.58l-6.152-3.845
				c-0.197-0.121-0.446-0.121-0.643,0l-5.881,3.615c-0.213,0.131-0.213,0.442,0,0.573l6.157,3.848
				C249.479,211.135,249.729,211.135,249.927,211.013z"/>
			<path fill="#FFFFFF" d="M258.632,205.646l5.873-3.61c0.216-0.133,0.216-0.447,0-0.58l-6.152-3.846
				c-0.197-0.121-0.446-0.121-0.643,0l-5.881,3.615c-0.213,0.131-0.213,0.442,0,0.573l6.157,3.848
				C258.184,205.768,258.434,205.768,258.632,205.646z"/>
			<path fill="#FFFFFF" d="M267.337,200.278l5.873-3.61c0.216-0.133,0.216-0.447,0-0.58l-6.152-3.846
				c-0.197-0.121-0.446-0.121-0.643,0l-5.881,3.615c-0.213,0.131-0.213,0.442,0,0.573l6.157,3.848
				C266.889,200.4,267.139,200.4,267.337,200.278z"/>
			<path fill="#FFFFFF" d="M276.042,194.911l5.873-3.61c0.216-0.133,0.216-0.447,0-0.58l-6.152-3.845
				c-0.197-0.121-0.446-0.121-0.643,0l-5.881,3.615c-0.213,0.131-0.213,0.442,0,0.573l6.157,3.848
				C275.594,195.033,275.844,195.033,276.042,194.911z"/>
			<path fill="#FFFFFF" d="M284.747,189.543l5.873-3.61c0.216-0.133,0.216-0.447,0-0.58l-6.153-3.845
				c-0.197-0.121-0.446-0.121-0.643,0l-5.881,3.615c-0.213,0.131-0.213,0.442,0,0.573l6.157,3.848
				C284.299,189.666,284.549,189.665,284.747,189.543z"/>
			<path fill="#FFFFFF" d="M293.452,184.176l5.873-3.61c0.216-0.133,0.216-0.447,0-0.58l-6.152-3.846
				c-0.197-0.121-0.446-0.121-0.643,0l-5.881,3.615c-0.213,0.131-0.213,0.442,0,0.573l6.157,3.848
				C293.004,184.298,293.253,184.298,293.452,184.176z"/>
			<path fill="#FFFFFF" d="M207.4,249.347l5.873-3.61c0.216-0.133,0.216-0.447,0-0.58l-6.152-3.845
				c-0.197-0.121-0.446-0.121-0.643,0l-5.881,3.615c-0.213,0.131-0.213,0.442,0,0.573l6.157,3.848
				C206.952,249.469,207.202,249.469,207.4,249.347z"/>
			<path fill="#FFFFFF" d="M216.105,243.98l5.873-3.61c0.216-0.133,0.216-0.447,0-0.58l-6.152-3.845
				c-0.197-0.121-0.446-0.121-0.643,0l-5.881,3.615c-0.213,0.131-0.213,0.442,0,0.573l6.157,3.848
				C215.657,244.102,215.907,244.101,216.105,243.98z"/>
			<path fill="#FFFFFF" d="M224.81,238.612l5.873-3.61c0.216-0.133,0.216-0.447,0-0.58l-6.153-3.845
				c-0.197-0.121-0.446-0.121-0.643,0l-5.881,3.615c-0.213,0.131-0.213,0.442,0,0.573l6.157,3.848
				C224.362,238.734,224.612,238.734,224.81,238.612z"/>
			<path fill="#FFFFFF" d="M233.515,233.245l5.873-3.61c0.216-0.133,0.216-0.447,0-0.58l-6.152-3.846
				c-0.197-0.121-0.446-0.121-0.643,0l-5.881,3.615c-0.213,0.131-0.213,0.442,0,0.573l6.157,3.848
				C233.067,233.367,233.317,233.366,233.515,233.245z"/>
			<path fill="#FFFFFF" d="M242.22,227.877l5.873-3.61c0.216-0.133,0.216-0.447,0-0.58l-6.153-3.846
				c-0.197-0.121-0.446-0.121-0.643,0l-5.881,3.614c-0.213,0.131-0.213,0.442,0,0.573l6.157,3.848
				C241.772,227.999,242.022,227.999,242.22,227.877z"/>
			<path fill="#FFFFFF" d="M250.925,222.51l5.873-3.61c0.216-0.133,0.216-0.447,0-0.58l-6.153-3.845
				c-0.197-0.121-0.446-0.121-0.643,0l-5.881,3.615c-0.213,0.131-0.213,0.442,0,0.573l6.157,3.848
				C250.477,222.632,250.727,222.632,250.925,222.51z"/>
			<path fill="#FFFFFF" d="M259.63,217.142l5.873-3.61c0.216-0.133,0.216-0.447,0-0.58l-6.152-3.845
				c-0.197-0.121-0.446-0.121-0.643,0l-5.881,3.615c-0.213,0.131-0.213,0.442,0,0.573l6.157,3.848
				C259.182,217.264,259.431,217.264,259.63,217.142z"/>
			<path fill="#FFFFFF" d="M268.335,211.775l5.873-3.61c0.216-0.133,0.216-0.447,0-0.58l-6.152-3.845
				c-0.197-0.121-0.446-0.121-0.643,0l-5.881,3.615c-0.213,0.131-0.213,0.442,0,0.573l6.157,3.848
				C267.886,211.897,268.136,211.897,268.335,211.775z"/>
			<path fill="#FFFFFF" d="M277.04,206.407l5.873-3.61c0.216-0.133,0.216-0.447,0-0.58l-6.152-3.846
				c-0.197-0.121-0.446-0.121-0.643,0l-5.881,3.615c-0.213,0.131-0.213,0.442,0,0.573l6.157,3.848
				C276.591,206.529,276.841,206.529,277.04,206.407z"/>
			<path fill="#FFFFFF" d="M285.744,201.04l5.873-3.61c0.216-0.133,0.216-0.447,0-0.58l-6.152-3.845
				c-0.197-0.121-0.446-0.121-0.643,0l-5.881,3.615c-0.213,0.131-0.213,0.442,0,0.573l6.157,3.848
				C285.296,201.162,285.546,201.162,285.744,201.04z"/>
			<path fill="#FFFFFF" d="M294.449,195.672l5.873-3.61c0.216-0.133,0.216-0.447,0-0.58l-6.152-3.845
				c-0.197-0.121-0.446-0.121-0.643,0l-5.881,3.615c-0.213,0.131-0.213,0.442,0,0.573l6.157,3.848
				C294.001,195.794,294.251,195.794,294.449,195.672z"/>
			<path fill="#FFFFFF" d="M303.154,190.305l5.873-3.61c0.216-0.133,0.216-0.447,0-0.58l-6.152-3.846
				c-0.197-0.121-0.446-0.121-0.643,0l-5.881,3.615c-0.213,0.131-0.213,0.442,0,0.573l6.157,3.848
				C302.706,190.427,302.956,190.427,303.154,190.305z"/>
			<path fill="#FFFFFF" d="M217.103,255.476l5.873-3.61c0.216-0.133,0.216-0.447,0-0.58l-6.152-3.845
				c-0.197-0.121-0.446-0.121-0.643,0l-5.881,3.615c-0.213,0.131-0.213,0.442,0,0.573l6.157,3.848
				C216.655,255.598,216.905,255.598,217.103,255.476z"/>
			<path fill="#FFFFFF" d="M225.808,250.108l5.873-3.61c0.216-0.133,0.216-0.447,0-0.58l-6.152-3.845
				c-0.197-0.121-0.446-0.121-0.643,0l-5.881,3.615c-0.213,0.131-0.213,0.442,0,0.573l6.157,3.848
				C225.36,250.23,225.609,250.23,225.808,250.108z"/>
			<path fill="#FFFFFF" d="M234.513,244.741l5.873-3.61c0.216-0.133,0.216-0.447,0-0.58l-6.152-3.845
				c-0.197-0.121-0.446-0.121-0.643,0l-5.881,3.615c-0.213,0.131-0.213,0.442,0,0.573l6.157,3.848
				C234.064,244.863,234.314,244.863,234.513,244.741z"/>
			<path fill="#FFFFFF" d="M278.037,217.903l5.873-3.61c0.216-0.133,0.216-0.447,0-0.58l-6.152-3.845
				c-0.197-0.121-0.446-0.121-0.643,0l-5.881,3.615c-0.213,0.131-0.213,0.442,0,0.573l6.157,3.848
				C277.589,218.026,277.839,218.025,278.037,217.903z"/>
			<path fill="#FFFFFF" d="M286.742,212.536l5.873-3.61c0.216-0.133,0.216-0.447,0-0.58l-6.152-3.846
				c-0.197-0.121-0.446-0.121-0.643,0l-5.881,3.615c-0.213,0.131-0.213,0.442,0,0.573l6.157,3.848
				C286.294,212.658,286.544,212.658,286.742,212.536z"/>
			<path fill="#FFFFFF" d="M295.447,207.168l5.873-3.61c0.216-0.133,0.216-0.447,0-0.58l-6.153-3.845
				c-0.197-0.121-0.446-0.121-0.643,0l-5.881,3.615c-0.213,0.131-0.213,0.442,0,0.573l6.157,3.848
				C294.999,207.291,295.249,207.291,295.447,207.168z"/>
			<path fill="#FFFFFF" d="M300.499,199.516l5.873-3.61c0.216-0.133,0.216-0.447,0-0.58l-2.499-1.561
				c-0.197-0.121-0.446-0.121-0.643,0l-5.881,3.615c-0.213,0.131-0.213,0.442,0,0.573l2.503,1.563
				C300.05,199.639,300.3,199.638,300.499,199.516z"/>
			<path fill="#FFFFFF" d="M304.158,201.804l5.873-3.61c0.216-0.133,0.216-0.447,0-0.58l-2.499-1.561
				c-0.197-0.121-0.446-0.121-0.643,0l-5.881,3.615c-0.213,0.131-0.213,0.442,0,0.573l2.503,1.564
				C303.71,201.926,303.96,201.926,304.158,201.804z"/>
			<path fill="#FFFFFF" d="M312.857,196.433l5.873-3.61c0.216-0.133,0.216-0.447,0-0.58l-6.152-3.845
				c-0.197-0.121-0.446-0.121-0.643,0l-5.881,3.615c-0.213,0.131-0.213,0.442,0,0.573l6.157,3.848
				C312.409,196.556,312.659,196.556,312.857,196.433z"/>
			<path fill="#FFFFFF" d="M275.205,219.081l-6.153-3.846c-0.197-0.121-0.446-0.121-0.643,0l-5.881,3.615
				c-0.005,0.003-0.006,0.008-0.011,0.011l-21.55,13.292l0,0l-4.554,2.799c-0.214,0.131-0.213,0.442,0,0.573l6.157,3.848
				c0.198,0.122,0.448,0.122,0.646,0l5.873-3.61c0.002-0.001,0.003-0.003,0.004-0.005l22.815-14.072l0,0l3.295-2.025
				C275.422,219.528,275.422,219.214,275.205,219.081z"/>
		</g>
	</g>
	<g>
		<polygon opacity="0.5" fill="#2D605D" enable-background="new    " points="190.734,71.736 158.476,91.598 158.476,91.609 
			153.941,94.404 158.476,96.895 158.476,214.559 256.96,274.755 303.512,246.091 		"/>
		<g>
			<path fill="#FFFFFF" d="M374.335,232.359l-89.074,54.869l-25.451-17.249c-11.3-7.662-18.071-20.429-18.082-34.088v-0.329
				c0-7.17-1.784-14.093-5.046-20.23c-3.544-6.642-8.824-12.356-15.454-16.428c-4.224-2.593-9.023-2.464-12.849-0.481l-0.047,0.023
				c-0.598,0.305-1.173,0.669-1.725,1.068c-3.168,2.312-5.327,6.043-5.339,10.549v6.313c0,7.885-8.683,12.685-15.36,8.484h-0.012
				c-6.407-4.025-10.303-11.065-10.303-18.634V79.662c0-6.207-4.365-10.854-9.669-12.063c-5.316,1.349-10.549,2.558-10.549,2.558
				l86.739-53.508l3.661-2.347c0.434-0.27,0.868-0.504,1.314-0.716c1.291-0.61,2.617-0.974,3.931-1.115
				c6.9-0.716,13.647,4.6,13.647,12.321v126.554c0,3.802,0.986,7.486,2.781,10.702l28.197-17.378
				c0.587-0.434,1.208-0.821,1.866-1.138l0.047-0.035c1.819-0.915,3.837-1.42,5.914-1.42c2.288,0,4.635,0.61,6.829,1.96
				c12.743,7.827,20.5,21.696,20.511,36.646v0.34c0,13.659,6.771,26.425,18.071,34.088L374.335,232.359z"/>
			<path fill="#FFFFFF" d="M278.589,173.935l4.954-3.048C282.229,172.363,280.495,173.429,278.589,173.935z"/>
			<path fill="#B2CFD1" d="M230.176,206.515l-32.733,19.989l-0.129-2.042c2.359-1.784,3.954-4.612,3.954-7.991v-6.313
				c0.012-4.506,2.171-8.237,5.339-10.549c0.551-0.399,1.126-0.763,1.725-1.068l0.047-0.023c3.825-1.983,8.625-2.112,12.849,0.481
				C224.021,200.712,227.888,204.263,230.176,206.515z"/>
			<path fill="#B2CFD1" d="M175.596,81.059v-1.376c0-9.699-10.66-15.62-18.894-10.494l0,0c-3.489,2.172-5.609,5.99-5.609,10.1V96.16
				L175.596,81.059z"/>
			<polygon fill="#EDF4F4" points="374.335,232.354 374.335,234.799 285.261,289.607 285.261,287.223 			"/>
			<path fill="#EBF6F7" d="M267.453,162.046l-59.071,36.379l-0.054,0.021c-0.442,0.226-0.883,0.485-1.303,0.775
				c-0.14,0.097-0.28,0.194-0.42,0.291c-3.166,2.315-5.32,6.042-5.342,10.554v6.311c0,7.883-8.68,12.686-15.357,8.486h-0.011
				c-6.408-4.028-10.306-11.071-10.306-18.642V79.659c0-6.203-4.362-10.856-9.66-12.062c-5.32,1.357-10.554,2.563-10.554,2.563
				l86.737-53.514l3.661-2.348c0.442-0.269,0.872-0.506,1.314-0.711c1.292-0.614,2.617-0.98,3.931-1.12
				c6.903-0.711,13.645,4.599,13.645,12.32V151.35C264.664,155.153,265.654,158.836,267.453,162.046z"/>
			<path fill="#EBF6F7" d="M265.084,161.346l-56.744,34.882c-0.312-0.894-0.56-1.809-0.754-2.746l56.238-34.559
				C264.19,159.763,264.61,160.57,265.084,161.346z"/>
			<path fill="#D1E4E5" d="M165.925,67.595c5.304,1.209,9.669,5.855,9.669,12.063v126.565c0,7.569,3.896,14.609,10.303,18.634h0.012
				c6.677,4.201,15.36-0.598,15.36-8.484v-6.313c0.012-4.506,2.171-8.237,5.339-10.549c0.551-0.399,1.126-0.763,1.725-1.068
				l0.047-0.023c3.825-1.983,8.625-2.112,12.849,0.481c6.63,4.072,11.91,9.786,15.454,16.428c3.262,6.137,5.046,13.06,5.046,20.23
				v0.329c0.012,13.658,6.782,26.425,18.082,34.088l25.451,17.249v2.384l-26.361-17.699c0,0-8.777-7.371-11.245-10.854
				c-2.616-3.691-5.663-10.102-6.625-15.062c-0.962-4.96-0.975-10.949-1.234-14.372c-0.26-3.422-2.03-10.091-4.706-15.511
				c-4.303-8.715-10.534-13.201-14.735-15.838c-2.753-1.728-8.434-3.088-12.644,0.233c0,0-4.472,2.993-4.766,9.476
				c-0.293,6.483,0.998,11.703-4.504,15.822c-6.004,4.495-9.858,2.69-12.695,1.306c-0.907-0.442-4.987-2.85-8.397-8.218
				c-4.303-6.773-3.569-13.019-3.569-13.019l-0.196-125.671c0,0,0.617-8.393-7.859-10.935c0,0-7.37-1.641-11.257,4.226
				c0,0-1.503,1.931-1.65,5.5s0.113,16.03,0.113,16.03l-1.836,1.137V78.929c0,0,0.105-3,1.592-5.577
				C154.384,70.406,158.713,66.304,165.925,67.595z"/>
			<path fill="#EBF6F7" d="M203.239,190.001c-0.008,0.001-0.017,0.001-0.026,0.002C203.213,190.003,203.223,190.002,203.239,190.001
				z"/>
		</g>
		<g>
			<path fill="#00E0C1" d="M213.74,86.398l-33.72,20.739c-0.496,0.306-1.135-0.05-1.135-0.633V85.94
				c0-0.719,0.372-1.387,0.984-1.765l34.104-20.976c0.397-0.245,0.909,0.04,0.909,0.507v20.642
				C214.883,85.183,214.451,85.959,213.74,86.398z"/>
			<path fill="#B7E3E5" d="M261.686,63.212l-82.293,50.732c-0.222,0.137-0.508-0.023-0.508-0.283v-2.262
				c0-0.211,0.109-0.407,0.288-0.517l82.325-50.752c0.228-0.141,0.522,0.023,0.522,0.291v2.191
				C262.021,62.857,261.894,63.084,261.686,63.212z"/>
			<path fill="#B7E3E5" d="M261.686,56.978L217.671,84.02c-0.222,0.137-0.508-0.023-0.508-0.283v-2.262
				c0-0.211,0.109-0.407,0.289-0.517L261.5,53.896c0.228-0.141,0.522,0.023,0.522,0.291v2.191
				C262.021,56.622,261.894,56.85,261.686,56.978z"/>
			<path fill="#B7E3E5" d="M261.686,50.363l-44.015,27.041c-0.222,0.137-0.508-0.022-0.508-0.283v-2.262
				c0-0.211,0.109-0.407,0.289-0.517L261.5,47.28c0.228-0.141,0.522,0.023,0.522,0.291v2.191
				C262.021,50.007,261.894,50.234,261.686,50.363z"/>
			<path fill="#B7E3E5" d="M261.686,43.747l-44.015,27.042c-0.222,0.137-0.508-0.023-0.508-0.283v-2.262
				c0-0.211,0.109-0.407,0.289-0.517L261.5,40.665c0.228-0.141,0.522,0.023,0.522,0.291v2.191
				C262.021,43.391,261.894,43.618,261.686,43.747z"/>
			<path fill="#00E0C1" d="M261.686,37.131l-44.015,27.041c-0.222,0.137-0.508-0.022-0.508-0.283v-2.262
				c0-0.211,0.109-0.406,0.289-0.517L261.5,34.048c0.228-0.141,0.522,0.023,0.522,0.291v2.191
				C262.021,36.775,261.894,37.003,261.686,37.131z"/>
			<path fill="#B7E3E5" d="M217.447,149.911l19.083-11.718c0.184-0.113,0.42,0.019,0.42,0.235v2.274
				c0,0.268-0.139,0.517-0.368,0.657l-18.91,11.62c-0.226,0.129-0.506-0.021-0.506-0.291v-2.262
				C217.167,150.224,217.275,150.03,217.447,149.911z"/>
			<path fill="#B7E3E5" d="M262.022,123.149v2.186c0,0.248-0.129,0.474-0.334,0.603l-21.573,13.257
				c-0.23,0.141-0.526-0.024-0.526-0.294v-2.174c0-0.26,0.135-0.5,0.356-0.636l21.549-13.233
				C261.731,122.708,262.022,122.88,262.022,123.149z"/>
			<path fill="#B7E3E5" d="M261.686,119.321l-48.283,29.693c-0.222,0.137-0.508-0.023-0.508-0.283v-2.262
				c0-0.211,0.109-0.406,0.288-0.517l48.316-29.713c0.228-0.141,0.522,0.023,0.522,0.291v2.19
				C262.021,118.965,261.894,119.192,261.686,119.321z"/>
			<path fill="#B7E3E5" d="M261.686,112.705l-44.015,27.041c-0.222,0.137-0.508-0.023-0.508-0.283v-2.262
				c0-0.211,0.109-0.406,0.289-0.517l44.048-27.062c0.228-0.141,0.522,0.023,0.522,0.291v2.191
				C262.021,112.349,261.894,112.576,261.686,112.705z"/>
			<path fill="#B7E3E5" d="M261.686,106.089l-44.015,27.041c-0.222,0.137-0.508-0.023-0.508-0.283v-2.262
				c0-0.211,0.109-0.407,0.289-0.517l44.048-27.062c0.228-0.141,0.522,0.023,0.522,0.291v2.19
				C262.021,105.733,261.894,105.961,261.686,106.089z"/>
			<path fill="#B7E3E5" d="M261.686,151.422l-44.015,27.041c-0.222,0.137-0.508-0.022-0.508-0.283v-2.262
				c0-0.211,0.109-0.406,0.289-0.517l44.048-27.062c0.228-0.141,0.522,0.023,0.522,0.291v2.191
				C262.021,151.066,261.894,151.293,261.686,151.422z"/>
			<path fill="#FFDC79" d="M261.874,157.383l-54.289,33.364c-0.269,0.172-0.355,0.011-0.388-0.108c0,0,0,0,0-0.011
				c-0.032-0.506-0.054-1.023-0.054-1.54v-0.861c0-0.301,0.14-0.474,0.215-0.538c0.032-0.022,0.043-0.032,0.043-0.032l54.224-33.331
				c0.205-0.129,0.463,0.011,0.485,0.258c0.054,0.592,0.129,1.185,0.226,1.766C262.402,156.758,262.219,157.167,261.874,157.383z"/>
			<path fill="#B7E3E5" d="M263.478,162.333l-54.551,33.534c-0.299,0.184-0.699,0.042-0.803-0.294
				c-0.165-0.53-0.309-1.067-0.433-1.612c-0.065-0.286,0.063-0.583,0.313-0.736l54.648-33.578c0.208-0.128,0.476-0.026,0.553,0.205
				c0.171,0.512,0.362,1.017,0.574,1.515C263.928,161.722,263.806,162.131,263.478,162.333z"/>
			<path fill="#B7E3E5" d="M261.686,144.806l-44.015,27.042c-0.222,0.137-0.508-0.023-0.508-0.283v-2.262
				c0-0.211,0.109-0.406,0.289-0.517l44.048-27.062c0.228-0.141,0.522,0.023,0.522,0.291v2.19
				C262.021,144.45,261.894,144.678,261.686,144.806z"/>
			<path fill="#B7E3E5" d="M261.686,138.191l-44.015,27.041c-0.222,0.137-0.508-0.023-0.508-0.283v-2.262
				c0-0.211,0.109-0.407,0.289-0.517l44.048-27.062c0.228-0.141,0.522,0.023,0.522,0.291v2.191
				C262.021,137.835,261.894,138.062,261.686,138.191z"/>
			<path fill="#B7E3E5" d="M217.447,155.555l26.01-15.976c0.15-0.092,0.342,0.016,0.342,0.192v2.52c0,0.165-0.086,0.319-0.227,0.405
				l-25.9,15.918c-0.226,0.14-0.506-0.021-0.506-0.28v-2.262C217.167,155.856,217.275,155.662,217.447,155.555z"/>
			<path fill="#E83D83" d="M262.022,128.782v2.197c0,0.237-0.129,0.463-0.334,0.592l-14.808,9.094
				c-0.188,0.116-0.43-0.02-0.43-0.241v-2.411c0-0.176,0.091-0.338,0.241-0.43l14.804-9.092
				C261.731,128.351,262.022,128.513,262.022,128.782z"/>
			<path fill="#B7E3E5" d="M210.56,157.257l-30.497,18.79c-0.222,0.137-0.508-0.023-0.508-0.283v-2.262
				c0-0.211,0.109-0.407,0.288-0.517l30.53-18.81c0.228-0.141,0.522,0.023,0.522,0.291v2.191
				C210.895,156.901,210.769,157.128,210.56,157.257z"/>
			<path fill="#C3D600" d="M210.56,150.641l-30.497,18.79c-0.222,0.137-0.508-0.023-0.508-0.283v-2.262
				c0-0.211,0.109-0.407,0.288-0.517l30.53-18.81c0.228-0.141,0.522,0.023,0.522,0.291v2.191
				C210.895,150.285,210.769,150.513,210.56,150.641z"/>
			<path fill="#C3D600" d="M210.56,144.806l-30.497,18.79c-0.222,0.137-0.508-0.023-0.508-0.283v-10.675
				c0-0.211,0.109-0.406,0.288-0.517l30.53-18.81c0.228-0.141,0.522,0.023,0.522,0.291v10.603
				C210.895,144.45,210.769,144.678,210.56,144.806z"/>
			<path fill="#B7E3E5" d="M210.56,182.743l-26.32,16.237c-0.222,0.137-0.508-0.023-0.508-0.283v-2.262
				c0-0.211,0.109-0.407,0.288-0.517l26.353-16.257c0.228-0.141,0.522,0.023,0.522,0.291v2.19
				C210.895,182.387,210.769,182.614,210.56,182.743z"/>
			<path fill="#B7E3E5" d="M210.56,176.127l-30.497,18.79c-0.222,0.137-0.508-0.023-0.508-0.283v-2.262
				c0-0.211,0.109-0.406,0.288-0.517l30.53-18.81c0.228-0.141,0.522,0.023,0.522,0.291v2.191
				C210.895,175.771,210.769,175.998,210.56,176.127z"/>
			<path fill="#B7E3E5" d="M210.56,169.511l-30.497,18.79c-0.222,0.137-0.508-0.023-0.508-0.283v-2.262
				c0-0.211,0.109-0.406,0.288-0.517l30.53-18.81c0.228-0.141,0.522,0.023,0.522,0.291v2.191
				C210.895,169.155,210.769,169.383,210.56,169.511z"/>
			<path fill="#B7E3E5" d="M210.56,162.896l-30.497,18.79c-0.222,0.137-0.508-0.023-0.508-0.283v-2.262
				c0-0.211,0.109-0.407,0.288-0.517l30.53-18.81c0.228-0.141,0.522,0.023,0.522,0.291v2.191
				C210.895,162.54,210.769,162.767,210.56,162.896z"/>
			<path fill="#B7E3E5" d="M239.518,84.07l-60.124,37.098c-0.222,0.137-0.508-0.022-0.508-0.283v-2.262
				c0-0.211,0.109-0.407,0.288-0.517l60.157-37.118c0.228-0.141,0.522,0.023,0.522,0.291v2.191
				C239.853,83.714,239.726,83.941,239.518,84.07z"/>
			<path fill="#B7E3E5" d="M179.173,125.325l27.545-16.981c0.185-0.114,0.424,0.019,0.424,0.237v2.251
				c0,0.28-0.145,0.539-0.383,0.686l-27.37,16.877c-0.215,0.129-0.506-0.022-0.506-0.291v-2.262
				C178.882,125.637,178.99,125.443,179.173,125.325z"/>
			<path fill="#B7E3E5" d="M262.022,74.87v2.186c0,0.248-0.129,0.474-0.334,0.603l-51.313,31.629
				c-0.26,0.16-0.596-0.027-0.596-0.332v-2.058c0-0.274,0.142-0.529,0.375-0.672l51.34-31.646
				C261.731,74.439,262.022,74.6,262.022,74.87z"/>
			<path fill="#B7E3E5" d="M261.686,84.882l-82.293,50.732c-0.222,0.137-0.508-0.023-0.508-0.283v-2.262
				c0-0.211,0.109-0.406,0.288-0.517L261.498,81.8c0.228-0.141,0.522,0.023,0.522,0.291v2.191
				C262.021,84.526,261.894,84.753,261.686,84.882z"/>
			<path fill="#B7E3E5" d="M179.173,139.777l41.464-25.563c0.239-0.147,0.548,0.025,0.548,0.306v2.13
				c0,0.264-0.137,0.509-0.362,0.648l-41.435,25.538c-0.215,0.14-0.506-0.021-0.506-0.28v-2.262
				C178.882,140.079,178.99,139.885,179.173,139.777z"/>
			<path fill="#B7E3E5" d="M262.022,89.312v2.197c0,0.237-0.129,0.463-0.334,0.592l-37.18,22.922
				c-0.295,0.182-0.675-0.03-0.675-0.377v-1.934c0-0.293,0.152-0.566,0.402-0.72l37.259-22.971
				C261.731,88.881,262.022,89.042,262.022,89.312z"/>
			<path fill="#B7E3E5" d="M261.686,99.328l-82.293,50.732c-0.222,0.137-0.508-0.023-0.508-0.283v-2.262
				c0-0.211,0.109-0.406,0.288-0.517l82.325-50.752c0.228-0.141,0.522,0.023,0.522,0.291v2.191
				C262.021,98.972,261.894,99.199,261.686,99.328z"/>
			<path fill="#FFDC79" d="M206.239,199.793c-2.962,2.326-4.954,5.934-4.976,10.274v3.748c0,0.162-0.075,0.302-0.215,0.388
				c-1.518,0.926-10.565,6.462-12.202,7.474c-0.151,0.086-0.345,0.086-0.495-0.011c-1.852-1.228-3.468-2.692-4.835-4.362
				c-0.517-0.614-1.002-1.271-1.432-1.938c-0.011-0.011-0.011-0.022-0.022-0.032c-2.714-4.523-2.811-10.791-2.197-11.168
				l22.648-13.925c0,0,0.373-0.257,0.645-0.239c0.269,0.018,0.55,0.088,0.615,0.832c0,0.043,0.011,0.075,0.011,0.108v0.011
				C203.967,194.085,204.818,197.079,206.239,199.793z"/>
			<path fill="#B7E3E5" d="M201.264,215.818v0.549c0,0.517-0.032,1.023-0.108,1.508l-7.89,4.74c-0.837,0.503-1.857,0.57-2.765,0.21
				c-0.164-0.065-0.328-0.135-0.492-0.211L201.264,215.818z"/>
			<path fill="#02F5D0" d="M286.502,195.087l-41.432,25.615c-0.786,0.486-1.833,0.107-2.095-0.779
				c-0.822-2.779-1.924-5.463-3.275-8.014c-3.543-6.634-8.831-12.353-15.454-16.424c-1.125-0.691-2.288-1.188-3.463-1.505
				c-0.626-0.169-0.727-1.021-0.176-1.362l6.579-4.079l22.67-14.033l11.548-7.146c0.877-0.543,1.925-0.783,2.938-0.593
				c1.505,0.282,2.999,0.848,4.424,1.729c6.623,4.071,11.911,9.79,15.454,16.434c1.322,2.473,2.393,5.082,3.206,7.778
				C287.701,193.614,287.306,194.589,286.502,195.087z"/>
			<path fill="#B7E3E5" d="M306.123,146.831l-20.074,12.374l-12.708,7.84c-0.237,0.14-0.528,0.129-0.765-0.011
				c-0.237-0.162-0.485-0.312-0.732-0.463c-0.42-0.258-0.84-0.495-1.271-0.678c0,0-0.032-0.032-0.054-0.043
				c-0.172-0.097-0.054-0.215,0.011-0.258c0.022-0.011,0.032-0.022,0.032-0.022l15.648-9.649l16.962-10.457
				c0.969,0.302,1.917,0.732,2.843,1.303C306.048,146.788,306.091,146.81,306.123,146.831z"/>
			<path fill="#B7E3E5" d="M310.674,150.082c0.206,0.171,0.18,0.5-0.048,0.64l-24.714,15.232l-7.641,4.712
				c-0.286,0.176-0.648,0.146-0.903-0.072c-0.303-0.26-0.612-0.517-0.925-0.77c-0.418-0.338-0.387-0.981,0.071-1.263l9.538-5.881
				l22.308-13.757c0.27-0.167,0.618-0.156,0.873,0.032C309.724,149.317,310.205,149.692,310.674,150.082z"/>
			<path fill="#B7E3E5" d="M314.492,155.015l-31.985,19.71c-0.36,0.222-0.823,0.15-1.105-0.166
				c-0.283-0.317-0.572-0.631-0.866-0.941c-0.273-0.288-0.218-0.751,0.12-0.958l2.887-1.772l29.224-18.013
				c0.363-0.224,0.835-0.177,1.138,0.123c0.256,0.252,0.509,0.51,0.758,0.772C315.015,154.139,314.927,154.747,314.492,155.015z"/>
			<path fill="#B7E3E5" d="M318.324,159.307l-32.282,19.912c-0.404,0.249-0.925,0.131-1.192-0.261
				c-0.211-0.309-0.427-0.614-0.647-0.918c-0.243-0.334-0.155-0.801,0.197-1.018l32.19-19.84c0.382-0.236,0.888-0.149,1.16,0.208
				c0.261,0.341,0.514,0.688,0.76,1.039C318.712,158.719,318.624,159.122,318.324,159.307z"/>
			<path fill="#B7E3E5" d="M321.462,164.038c0,0.011-0.011,0.011-0.021,0.022l-32.599,20.085c-0.388,0.237-0.905,0.086-1.12-0.323
				c-0.129-0.269-0.28-0.549-0.42-0.818c-0.065-0.118-0.129-0.237-0.194-0.355c-0.205-0.388,0.032-0.635,0.129-0.711
				c0.032-0.022,0.043-0.032,0.043-0.032l32.89-20.257c0.162-0.108,0.388-0.054,0.485,0.108c0.334,0.549,0.657,1.12,0.948,1.691
				c0,0,0.011,0.011,0.011,0.043C321.645,163.597,321.709,163.866,321.462,164.038z"/>
			<path fill="#B7E3E5" d="M323.833,169.245l-33.285,20.516c-0.157,0.097-0.361,0.021-0.418-0.154
				c-0.22-0.671-0.458-1.336-0.716-1.994c-0.063-0.162-0.003-0.345,0.145-0.437l33.167-20.457c0.172-0.106,0.402-0.034,0.481,0.153
				c0.272,0.65,0.526,1.306,0.767,1.969C324.029,168.991,323.97,169.16,323.833,169.245z"/>
			<path fill="#B7E3E5" d="M326.234,178.51c0.042,0.362-0.135,0.717-0.446,0.909l-80.574,49.614c-0.215,0.14-0.506-0.022-0.506-0.28
				v-2.262c0-0.215,0.108-0.409,0.291-0.517l80.355-49.484c0.259-0.159,0.6-0.006,0.647,0.294
				C326.088,177.355,326.168,177.931,326.234,178.51z"/>
			<path fill="#B7E3E5" d="M326.607,186.461c0.02,0.278-0.113,0.543-0.351,0.689l-81.042,49.905
				c-0.054,0.043-0.119,0.054-0.183,0.054c-0.172-0.011-0.323-0.14-0.323-0.334v-2.262c0-0.108,0.032-0.215,0.086-0.302
				c0.043-0.086,0.118-0.162,0.205-0.215l80.92-49.831c0.263-0.162,0.595,0.025,0.6,0.333
				C326.531,185.155,326.561,185.808,326.607,186.461z"/>
			<path fill="#B7E3E5" d="M327.722,193.625c0.085,0.339-0.055,0.692-0.352,0.875l-80.347,49.469
				c-0.248,0.151-0.571,0.032-0.646-0.237c-0.172-0.592-0.334-1.195-0.474-1.788c-0.065-0.248,0.054-0.506,0.269-0.646
				l80.505-49.574c0.271-0.167,0.618-0.012,0.681,0.3C327.467,192.562,327.589,193.095,327.722,193.625z"/>
			<path fill="#B7E3E5" d="M329.915,200.113c0.165,0.38,0.03,0.821-0.322,1.038l-80.071,49.312
				c-0.215,0.129-0.495,0.054-0.603-0.172c-0.269-0.517-0.506-1.055-0.743-1.583c-0.118-0.28-0.011-0.603,0.248-0.765l80.201-49.387
				c0.275-0.169,0.632-0.047,0.75,0.254C329.547,199.248,329.728,199.681,329.915,200.113z"/>
			<path fill="#B7E3E5" d="M333.244,206.285c0.164,0.25,0.092,0.583-0.163,0.74l-80.049,49.297
				c-0.205,0.118-0.463,0.065-0.603-0.129c-0.345-0.484-0.689-0.98-1.023-1.475c-0.151-0.226-0.075-0.538,0.151-0.678l80.047-49.297
				c0.274-0.169,0.629-0.079,0.794,0.198C332.671,205.394,332.953,205.841,333.244,206.285z"/>
			<path fill="#B7E3E5" d="M337.443,211.686c0.211,0.23,0.164,0.59-0.102,0.753l-79.796,49.149
				c-0.194,0.108-0.431,0.086-0.592-0.065c-0.431-0.431-0.862-0.872-1.282-1.325c-0.205-0.226-0.151-0.582,0.108-0.743
				l79.727-49.099c0.291-0.179,0.666-0.118,0.888,0.142C336.736,210.901,337.086,211.298,337.443,211.686z"/>
			<path fill="#B7E3E5" d="M309.202,236.915c0.298,0.23,0.279,0.681-0.041,0.878l-46.059,28.383
				c-0.172,0.108-0.388,0.097-0.56-0.011c-0.549-0.388-1.088-0.775-1.626-1.185c-0.226-0.172-0.205-0.528,0.043-0.678l46.133-28.426
				c0.282-0.174,0.641-0.146,0.896,0.066C308.387,236.274,308.791,236.599,309.202,236.915z"/>
		</g>
	</g>
	<g>
		<g>
			<path opacity="0.5" fill="#076D6D" enable-background="new    " d="M184.311,296.728l-26.849,16.3
				c-1.963,1.183-4.421,1.176-6.377-0.019l-53.662-32.783c-1.315-0.803-1.309-2.715,0.01-3.51l27.962-16.971
				c1.692-1.02,3.811-1.014,5.497,0.016l53.432,32.642C185.944,293.392,185.937,295.747,184.311,296.728z"/>
			<path fill="#EDEDED" d="M185.534,283.593v4.119h-0.023c0.059,0.892-0.329,1.819-1.197,2.335l-26.848,16.299
				c-1.971,1.185-4.424,1.185-6.383-0.012l-53.66-32.785c-0.528-0.328-0.833-0.833-0.939-1.373l-0.047-0.012v-4.658
				c0-0.681,0.34-1.361,0.997-1.76l27.963-16.968c1.69-1.021,3.814-1.021,5.492,0.012l53.437,32.644
				C185.135,281.927,185.534,282.76,185.534,283.593z"/>
			<path fill="#FFFFFF" d="M185.534,283.593c0,0.833-0.411,1.666-1.22,2.159l-26.848,16.31c-1.971,1.173-4.424,1.173-6.383-0.023
				l-53.66-32.785c-0.657-0.399-0.986-1.068-0.986-1.748c0-0.681,0.34-1.361,0.997-1.76l27.963-16.968
				c1.69-1.021,3.814-1.021,5.492,0.012l53.437,32.644C185.135,281.927,185.534,282.76,185.534,283.593z"/>
			<path fill="#4DE4E8" d="M180.515,282.678c0,0.739-0.364,1.479-1.083,1.916l-23.823,14.473c-1.749,1.041-3.925,1.041-5.664-0.021
				l-47.616-29.092c-0.583-0.354-0.875-0.948-0.875-1.552s0.302-1.208,0.885-1.562l24.813-15.056
				c1.499-0.906,3.384-0.906,4.873,0.01l47.418,28.967C180.161,281.2,180.515,281.939,180.515,282.678z"/>
		</g>
		<g>
			<polygon fill="#B0F4F4" points="160.421,281.24 150.573,287.228 148.103,285.72 157.951,279.732 			"/>
			<polygon fill="#B0F4F4" points="159.883,274.499 140.185,286.474 137.716,284.965 157.413,272.99 			"/>
			<polygon fill="#B0F4F4" points="153.376,270.505 133.679,282.48 131.209,280.972 150.906,268.996 			"/>
			<ellipse fill="#B0F4F4" cx="129.93" cy="268.806" rx="8.484" ry="4.309"/>
		</g>
	</g>
</g>
<g id="DESIGNED_BY_FREEPIK">
</g>
</svg>
