<?xml version="1.0" encoding="utf-8"?>
<!-- Generator: Adobe Illustrator 17.0.0, SVG Export Plug-In . SVG Version: 6.00 Build 0)  -->
<!DOCTYPE svg PUBLIC "-//W3C//DTD SVG 1.1//EN" "http://www.w3.org/Graphics/SVG/1.1/DTD/svg11.dtd">
<svg version="1.1" id="OBJECTS" xmlns="http://www.w3.org/2000/svg" xmlns:xlink="http://www.w3.org/1999/xlink" x="0px" y="0px"
	 width="968px" height="337.713px" viewBox="0 43.471 968 337.713" enable-background="new 0 43.471 968 337.713"
	 xml:space="preserve">
<path fill="#FFFFFF" d="M693.918,65.291h-8.743c0.212-0.748,0.333-1.535,0.333-2.351c0-4.754-3.854-8.607-8.607-8.607h-6.464
	c0.461-0.982,0.727-2.075,0.727-3.232c0-4.214-3.416-7.63-7.63-7.63h-22.67c-4.214,0-7.63,3.416-7.63,7.63
	c0,1.157,0.266,2.25,0.727,3.232h-5.475c-4.754,0-8.608,3.854-8.608,8.607c0,0.816,0.121,1.603,0.333,2.351h-11.779
	c-5.112,0-9.257,4.144-9.257,9.256s4.144,9.257,9.257,9.257h85.486c5.112,0,9.257-4.145,9.257-9.257
	C703.175,69.436,699.03,65.291,693.918,65.291z"/>
<g>
	<path fill="#DA71F4" d="M671.426,300.264c0,6.627-5.373,12-12,12H336.574c-6.628,0-12-5.373-12-12V117.97c0-6.627,5.372-12,12-12
		h322.852c6.627,0,12,5.373,12,12V300.264z"/>
	<path fill="#B7C1DA" d="M324.574,129.014v-11.365c0-6.628,5.372-12,12-12h322.852c6.627,0,12,5.372,12,12v11.365H324.574z"/>
	<circle fill="#2A4F9A" cx="656" cy="117.331" r="3.5"/>
	<circle fill="#2A4F9A" cx="639" cy="117.331" r="3.5"/>
	<circle fill="#2A4F9A" cx="622" cy="117.331" r="3.5"/>
	<path fill="#FFFFFF" d="M504.401,117.331c0,2.946-2.739,5.333-6.118,5.333H342.592c-3.379,0-6.118-2.388-6.118-5.333l0,0
		c0-2.946,2.739-5.334,6.118-5.334h155.691C501.662,111.998,504.401,114.385,504.401,117.331L504.401,117.331z"/>
</g>
<g>
	<rect x="335.343" y="219.168" fill="#FFFFFF" width="74.323" height="12.432"/>
	<rect x="335.343" y="239.168" fill="#FFFFFF" width="74.323" height="12.432"/>
	<rect x="335.343" y="259.168" fill="#FFFFFF" width="62.907" height="12.432"/>
	<rect x="335.343" y="279.168" fill="#FFFFFF" width="29.039" height="12.432"/>
</g>
<path fill="#2A4F9A" d="M340.647,231.6c0,0,4.93,6.818-1.064,14.28c-6.334,7.886-3.695-13.86-3.695-13.86L340.647,231.6z"/>
<g>
	<path fill="#2A4F9A" d="M310.027,369.073c-1.117,2.188-4.777,3.114-6.124,3.78c-1.929,0.956-4.81,1.909-4.64,7.25
		c0.085,2.664,15.338-0.166,19.806-2.379c2.14-1.061,3.09-1.878,3.801-6.833C323.259,368.194,311.142,366.89,310.027,369.073z"/>
	<path fill="#2A4F9A" d="M353.611,369.073c1.117,2.188,4.777,3.114,6.124,3.78c1.929,0.956,4.81,1.909,4.64,7.25
		c-0.085,2.664-15.338-0.166-19.806-2.379c-2.14-1.061-3.09-1.878-3.801-6.833C340.379,368.194,352.497,366.89,353.611,369.073z"/>
	<path fill="#B7C1DA" d="M315.253,304.17l-6.05,64.998c0,0,4.5,4.25,15.75,0l3.943-46.75h5.307l5.25,46.75c0,0,6.5,2.25,15.5-0.75
		l-7.641-65.466L315.253,304.17z"/>
	<path fill="#FBADB1" d="M309.232,268.194c-8.534-5.625-19.788-19.903-10.98-55.026c0,0-9.152-12.879-3.714-16.5
		c3.881-2.583,9.055,11.703,9.055,11.703s3.243-3.7,4.005-3.048c0.988,0.845,0.738,2.095-3.145,7.095c0,0-7.279,34.975,9.469,46.29"
		/>
	<path fill="#FBADB1" d="M342.199,258.537c7.966-5.841,12.755-19.361,12.755-47.119c0-2.176-3.813-8.938-2.563-9.5
		c1.097-0.493,2.15,2.041,2.438,2.75c0,0,2.346-3.083,7.458-3.833c10.917-1.604,5.54,5.214-2.167,8.282
		c0,0,9.165,44.031-14.261,59.268"/>
	<path fill="#353C73" d="M313.922,258.708c2.502,1.691,5.542,2.854,9.222,3.293c7.394,0.882,13.892,0.322,19.055-3.464l3.66,9.848
		c-2.044,1.33-4.336,2.44-6.905,3.283l9.857,30.666c0,0-15.333,7.334-35.333,1.334l3.67-32c0,0-3.612-0.637-7.915-3.474
		L313.922,258.708z"/>
	<path fill="#FBADB1" d="M332.484,251.251c0,0-1.75,8,3.75,10.75c0,0-1.5,4-7.5,4h0.325c-6,0-7.5-4-7.5-4
		c5.5-2.75,3.75-10.75,3.75-10.75H332.484z"/>
	<path fill="#FBADB1" d="M340.647,239.751c0,8.146-4.413,15.499-11.751,15.499s-11.749-7.352-11.749-15.499s5.26-14.75,11.75-14.75
		C335.385,225.001,340.647,231.605,340.647,239.751z"/>
	<path fill="#2A4F9A" d="M318.406,246.39c0,0-1.653-14.525,4.847-14.79s14.584,6.568,21-0.598c0,0-3,0.598-5.833-3.25
		c-3.01-4.088-12.167-7.416-20,0.084C309.498,236.377,318.406,246.39,318.406,246.39z"/>
</g>
<polyline fill="none" stroke="#353C73" stroke-miterlimit="10" stroke-dasharray="6" points="574.229,223.366 574.229,302.952 
	510.772,302.952 510.772,223.366 "/>
<g>
	<rect x="510.772" y="141.668" fill="#FFFFFF" width="63.456" height="77.5"/>
	<circle fill="#B7C1DA" cx="524.792" cy="163.043" r="10.252"/>
	<rect x="515.5" y="180.418" fill="#353C73" width="54.956" height="5.25"/>
	<rect x="538.5" y="170.418" fill="#353C73" width="31.956" height="5.25"/>
	<rect x="538.5" y="160.418" fill="#353C73" width="31.956" height="5.25"/>
	<rect x="538.5" y="150.418" fill="#353C73" width="31.956" height="5.25"/>
	<rect x="515.5" y="190.418" fill="#353C73" width="54.956" height="5.25"/>
	<rect x="515.5" y="200.418" fill="#353C73" width="54.956" height="5.25"/>
	<rect x="515.5" y="210.418" fill="#353C73" width="54.956" height="5.25"/>
</g>
<g>
	<path fill="#353C73" d="M560.861,97.752c-12.403-14.25,2.557-23.05-2.597-37.035c-4.133-11.216-15.043-10.073-15.952-9.549
		c0,0-11.68-1.667-15.813,9.549c-5.153,13.984,9.807,22.785-2.597,37.035"/>
	<path fill="#35083A" d="M520,105.97c0,0,1.766-13.968,22.383-13.968S565,105.97,565,105.97H520z"/>
	<path fill="#FBADB1" d="M545.97,82.983c0,0-1.75,8,3.75,10.75c0,0-1.5,4-7.5,4h0.325c-6,0-7.5-4-7.5-4
		c5.5-2.75,3.75-10.75,3.75-10.75H545.97z"/>
	<ellipse fill="#FBADB1" cx="542.383" cy="70.009" rx="11.75" ry="14.75"/>
	<path fill="#353C73" d="M541.084,54.001c-8.042,0-9.577,8-9.577,8s2.601-2.728,4.979,0c2.376,2.727,4.463,0.833,5.19,0
		c0.726-0.833,3.993-2.417,6.098,0c2.107,2.417,3.661,1.934,5.346,0C553.119,62.001,552.917,54.001,541.084,54.001z"/>
	<path fill="#2C0735" d="M533.756,92.994c0,0-30.755,5.674-15.422,48.674l7.177-2.691c0,0-8.844-21.645,8.245-35.642"/>
	<path fill="#2C0735" d="M550.75,92.994c0,0,30.755,5.674,15.422,48.674l-7.177-2.691c0,0,8.844-21.645-8.245-35.642"/>
	<path fill="#FBADB1" d="M518.334,141.668c0,0,3.166,11.5,7.416,11.5s1.5-8.5,1.5-8.5s1.75,2.5,3,0.5c0,0,1.021-3.633-4.739-6.191
		L518.334,141.668z"/>
	<path fill="#FBADB1" d="M566.172,141.668c0,0-3.166,11.5-7.416,11.5s-1.5-8.5-1.5-8.5s-1.75,2.5-3,0.5c0,0-1.021-3.633,4.739-6.191
		L566.172,141.668z"/>
</g>
<g>
	<g>
		<line fill="none" stroke="#353C73" stroke-miterlimit="10" x1="394.25" y1="198.25" x2="397.25" y2="198.25"/>
		
			<line fill="none" stroke="#353C73" stroke-miterlimit="10" stroke-dasharray="6.1,6.1" x1="403.35" y1="198.25" x2="485.7" y2="198.25"/>
		<polyline fill="none" stroke="#353C73" stroke-miterlimit="10" points="488.75,198.25 491.75,198.25 491.75,195.25 		"/>
		
			<line fill="none" stroke="#353C73" stroke-miterlimit="10" stroke-dasharray="6.6429,6.6429" x1="491.75" y1="188.607" x2="491.75" y2="152.071"/>
		<polyline fill="none" stroke="#353C73" stroke-miterlimit="10" points="491.75,148.75 491.75,145.75 488.75,145.75 		"/>
		
			<line fill="none" stroke="#353C73" stroke-miterlimit="10" stroke-dasharray="5.6912,5.6912" x1="483.059" y1="145.75" x2="394.846" y2="145.75"/>
		<line fill="none" stroke="#353C73" stroke-miterlimit="10" x1="392" y1="145.75" x2="389" y2="145.75"/>
	</g>
</g>
<g>
	
		<rect x="299.551" y="152.957" transform="matrix(0.9945 -0.1045 0.1045 0.9945 -16.7119 36.9496)" fill="#FFFFFF" stroke="#000000" stroke-miterlimit="10" width="89.402" height="49.998"/>
	
		<rect x="311.157" y="192.754" transform="matrix(0.9945 -0.1045 0.1045 0.9945 -18.4934 36.9984)" fill="#5686C4" width="65.34" height="4.454"/>
	
		<rect x="343.482" y="179.706" transform="matrix(0.9945 -0.1045 0.1045 0.9945 -17.0197 39.0303)" fill="#5686C4" width="40.944" height="4.454"/>
	
		<rect x="342.482" y="169.706" transform="matrix(0.9945 -0.1045 0.1045 0.9945 -15.9801 38.871)" fill="#5686C4" width="40.944" height="4.454"/>
	
		<rect x="341.482" y="159.705" transform="matrix(0.9945 -0.1045 0.1045 0.9945 -14.9405 38.7118)" fill="#5686C4" width="40.944" height="4.454"/>
	
		<rect x="304.185" y="160.97" transform="matrix(0.9945 -0.1045 0.1045 0.9945 -15.9341 33.7857)" fill="#353C73" width="20.526" height="15.962"/>
	
		<rect x="317.924" y="168.22" transform="matrix(0.9945 -0.1045 0.1045 0.9945 -16.6166 35.2612)" fill="#FBADB1" width="20.527" height="15.963"/>
</g>
<g>
	
		<rect x="588.496" y="168.794" transform="matrix(0.997 0.0777 -0.0777 0.997 17.3332 -47.6504)" fill="#2A4F9A" width="65.038" height="60.254"/>
	
		<rect x="596.508" y="152.762" transform="matrix(0.9948 -0.1015 0.1015 0.9948 -15.3148 64.7927)" fill="#5686C4" width="65.031" height="60.248"/>
	<circle fill="#FFFFFF" cx="625.5" cy="153.168" r="7.35"/>
	<circle fill="#FBADB1" cx="630.035" cy="157.58" r="5.495"/>
	<line fill="none" stroke="#353C73" stroke-miterlimit="10" x1="601" y1="167.58" x2="654.146" y2="163.043"/>
	<line fill="none" stroke="#353C73" stroke-miterlimit="10" x1="602.444" y1="180.227" x2="655.591" y2="175.69"/>
	<line fill="none" stroke="#353C73" stroke-miterlimit="10" x1="603.462" y1="191.623" x2="656.608" y2="187.086"/>
	<line fill="none" stroke="#353C73" stroke-miterlimit="10" x1="605.462" y1="202.623" x2="658.608" y2="198.086"/>
</g>
<rect x="589" y="239.751" fill="none" stroke="#353C73" stroke-miterlimit="10" stroke-dasharray="6" width="70.5" height="63.201"/>
<g>
	<rect x="417.666" y="219.168" fill="#5686C4" width="74.084" height="74.084"/>
	<circle fill="#FBADB1" cx="441.645" cy="234.303" r="9.301"/>
	<path fill="#FFFFFF" d="M446.355,255.295h-2.383c0.01-0.094,0.028-0.186,0.028-0.282c0-1.479-1.199-2.678-2.678-2.678h-6.395
		c-1.479,0-2.678,1.199-2.678,2.678c0,0.097,0.019,0.189,0.028,0.282h-0.383c-1.323,0-2.395,1.072-2.395,2.395
		c0,1.322,1.072,2.395,2.395,2.395h14.46c1.323,0,2.395-1.072,2.395-2.395C448.75,256.367,447.678,255.295,446.355,255.295z"/>
	<path fill="#FFFFFF" d="M478.5,240.634h-3.158c0.015-0.107,0.033-0.213,0.033-0.324c0-1.284-1.04-2.324-2.324-2.324h-4.352
		c-1.284,0-2.324,1.04-2.324,2.324c0,0.123,0.018,0.241,0.036,0.358c-1.149,0.166-2.036,1.146-2.036,2.341
		c0,1.311,1.063,2.375,2.375,2.375h11.75c1.311,0,2.375-1.064,2.375-2.375C480.875,241.697,479.811,240.634,478.5,240.634z"/>
	<path fill="#2A4F9A" d="M417.666,269.75c0,0,16.084-2.25,40.584,3.25s33.5-4.826,33.5-4.826v25.078h-74.084L417.666,269.75
		L417.666,269.75z"/>
</g>
</svg>
