<?xml version="1.0" encoding="utf-8"?>
<!-- Generator: Adobe Illustrator 17.0.0, SVG Export Plug-In . SVG Version: 6.00 Build 0)  -->
<!DOCTYPE svg PUBLIC "-//W3C//DTD SVG 1.1//EN" "http://www.w3.org/Graphics/SVG/1.1/DTD/svg11.dtd">
<svg version="1.1" id="OBJECTS" xmlns="http://www.w3.org/2000/svg" xmlns:xlink="http://www.w3.org/1999/xlink" x="0px" y="0px"
	 width="968px" height="484px" viewBox="0 0 968 484" enable-background="new 0 0 968 484" xml:space="preserve">
<path fill="#5686C4" d="M296.388,432.5H325.5c0,0,2.482-7.715-5.75-7.166c-3.778,0.252-5.935,2.416-5.935,2.416
	s-0.213-12.283-8.713-11.533S293.026,425,296.388,432.5z"/>
<path fill="#5686C4" d="M569.271,422.324c0,0-2.654-7.689,5.107-8.37c5.122-0.449,6.78,2.296,6.78,2.296s0.669-9.509,6.629-11.401
	c5.959-1.893,6.637,13.172,6.637,13.172s0.15-4.066,6.44-4.517c6.291-0.45,5.96,5.179,5.96,5.179s7.449-0.993,7.449,3.642
	L569.271,422.324L569.271,422.324z"/>
<g>
	<polygon fill="#2A4F9A" points="498,388.811 539.516,396.168 539.516,409.044 498,402.211 	"/>
	<line fill="none" stroke="#C6D8ED" stroke-miterlimit="10" x1="530.286" y1="403.531" x2="504.401" y2="399.287"/>
	<line fill="none" stroke="#C6D8ED" stroke-miterlimit="10" x1="534.901" y1="399.287" x2="500.625" y2="393.668"/>
	<polygon fill="#2A4F9A" points="539.516,396.168 564.741,380.14 564.741,393.54 539.516,409.044 	"/>
	<line fill="none" stroke="#C6D8ED" stroke-miterlimit="10" x1="560.929" y1="386.884" x2="544.38" y2="397.055"/>
	<line fill="none" stroke="#C6D8ED" stroke-miterlimit="10" x1="561.863" y1="391.309" x2="544.38" y2="402.055"/>
	<polygon fill="#5686C4" points="524.014,374.359 564.741,380.14 539.516,396.168 498,388.811 	"/>
	<polygon fill="#C6D8ED" points="542.259,374.359 501.53,380.14 526.757,396.168 568.272,388.811 	"/>
</g>
<path fill="#2A4F9A" d="M679.149,424.368c0.101-0.195,0.155-0.399,0.155-0.608c0-1.621-3.2-2.935-7.148-2.935
	c-3.946,0-7.148,1.314-7.148,2.935c0,1.62,3.201,2.934,7.148,2.934c0.275,0,0.546-0.007,0.811-0.02
	c-0.023,0.095-0.063,0.19-0.063,0.286c0,1.443,2.579,2.614,5.761,2.614c3.183,0,5.762-1.171,5.762-2.614
	C684.427,425.592,682.101,424.48,679.149,424.368z"/>
<ellipse fill="#2A4F9A" cx="661.168" cy="428.134" rx="3.841" ry="1.44"/>
<path fill="#2A4F9A" d="M718.833,438.963c-0.764,0-1.477,0.09-2.115,0.238c-0.36-2.037-5.215-3.653-11.167-3.653
	c-1.069,0-2.099,0.055-3.077,0.152c0.264-0.243,0.41-0.51,0.41-0.791c0-1.12-2.316-2.028-5.175-2.028s-5.175,0.908-5.175,2.028
	c0,1.03,1.973,1.873,4.518,2c-1.681,0.683-2.703,1.566-2.703,2.533c0,2.151,5.016,3.895,11.202,3.895
	c3.575,0,6.753-0.585,8.803-1.491c0.634,0.865,2.389,1.491,4.48,1.491c2.621,0,4.747-0.979,4.747-2.188
	C723.58,439.941,721.454,438.963,718.833,438.963z"/>
<ellipse fill="#2A4F9A" cx="726.248" cy="430.427" rx="3.414" ry="1.28"/>
<g>
	<path fill="#5686C4" d="M719.16,416.408c0,1.1-0.9,2-2,2h-28.916c-1.1,0-2-0.9-2-2v-26.569c0-1.1,0.9-2,2-2h28.916c1.1,0,2,0.9,2,2
		V416.408z"/>
	<path fill="#2A4F9A" d="M719.16,388.52c0,1.511-4.59,2.79-11,3.261c-1.37,0.109-2.82,0.17-4.32,0.189
		c-0.38,0.011-0.76,0.011-1.14,0.011c-9.09,0-16.46-1.551-16.46-3.461c0-1.909,7.37-3.46,16.46-3.46c1.109,0,2.189,0.021,3.24,0.07
		c1.449,0.06,2.829,0.16,4.119,0.3C715.46,385.99,719.16,387.17,719.16,388.52z"/>
	<path fill="#B7C1DA" d="M714.47,370.66l-4.41,14.77l-1.899,6.351c-1.37,0.109-2.82,0.17-4.32,0.189l2.101-6.84l4.779-15.58
		c0.3-1.03,1.391-1.62,2.431-1.319C714.18,368.54,714.769,369.63,714.47,370.66z"/>
	<g>
		<path fill="#FFFFFF" d="M714.471,409.853c0,0.55-0.45,1-1,1h-21.537c-0.55,0-1-0.45-1-1V401.6c0-0.55,0.45-1,1-1h21.537
			c0.55,0,1,0.45,1,1V409.853z"/>
	</g>
	<path fill="none" stroke="#353C73" stroke-miterlimit="10" d="M719.16,389.158c0,0,8.634-25.028-16.458-25.028
		s-16.458,25.028-16.458,25.028"/>
	<line fill="none" stroke="#353C73" stroke-miterlimit="10" x1="686.244" y1="389.158" x2="684.81" y2="389.158"/>
	<line fill="none" stroke="#353C73" stroke-miterlimit="10" x1="719.16" y1="389.158" x2="720.688" y2="389.158"/>
</g>
<path fill="#FFFFFF" d="M416.955,41.156h-16.849c1.09-1.741,1.731-3.793,1.731-6c0-6.259-5.074-11.333-11.333-11.333h-18.798
	c0.094-0.542,0.153-1.097,0.153-1.667c0-5.339-4.328-9.667-9.667-9.667H342.77c-5.338,0-9.667,4.328-9.667,9.667
	c0,0.569,0.059,1.124,0.153,1.667h-9.822c-6.259,0-11.333,5.074-11.333,11.333c0,2.206,0.641,4.258,1.731,6h-4.878
	c-6.627,0-12,5.373-12,12v2.177c0,6.627,5.373,12,12,12h108.001c6.627,0,12-5.373,12-12v-2.177
	C428.955,46.528,423.582,41.156,416.955,41.156z"/>
<path fill="#FFFFFF" d="M693.918,65.291h-8.743c0.212-0.748,0.333-1.535,0.333-2.351c0-4.754-3.854-8.607-8.607-8.607h-6.464
	c0.461-0.982,0.727-2.075,0.727-3.232c0-4.214-3.416-7.63-7.63-7.63h-22.67c-4.214,0-7.63,3.416-7.63,7.63
	c0,1.157,0.266,2.25,0.727,3.232h-5.475c-4.754,0-8.608,3.854-8.608,8.607c0,0.816,0.121,1.603,0.333,2.351h-11.779
	c-5.112,0-9.257,4.144-9.257,9.256s4.144,9.257,9.257,9.257h85.486c5.112,0,9.257-4.145,9.257-9.257
	C703.175,69.436,699.03,65.291,693.918,65.291z"/>
<g>
	<path fill="#C608F4" d="M671.426,300.264c0,6.627-5.373,12-12,12H336.574c-6.628,0-12-5.373-12-12V117.97c0-6.627,5.372-12,12-12
		h322.852c6.627,0,12,5.373,12,12V300.264z"/>
	<path fill="#B7C1DA" d="M324.574,129.014v-11.365c0-6.628,5.372-12,12-12h322.852c6.627,0,12,5.372,12,12v11.365H324.574z"/>
	<circle fill="#2A4F9A" cx="656" cy="117.331" r="3.5"/>
	<circle fill="#2A4F9A" cx="639" cy="117.331" r="3.5"/>
	<circle fill="#2A4F9A" cx="622" cy="117.331" r="3.5"/>
	<path fill="#FFFFFF" d="M504.401,117.331c0,2.946-2.739,5.333-6.118,5.333H342.592c-3.379,0-6.118-2.388-6.118-5.333l0,0
		c0-2.946,2.739-5.334,6.118-5.334h155.691C501.662,111.998,504.401,114.385,504.401,117.331L504.401,117.331z"/>
</g>
<g>
	<path fill="#E487F4" d="M420.375,354.644c0,0-0.668-11.977,14.666-11.977c0,0,5.666,0,8,5.988c0,0-3.332-19.321,8.001-21.321
		s11,18,11,18s3.833-5.165,12.083-4.416c8.25,0.749,8.583,5.082,8.583,5.082s14.917-3.38,15.292,8.644L420.375,354.644
		L420.375,354.644z"/>
	<line fill="#E487F4" stroke="#353C73" stroke-miterlimit="10" x1="452.667" y1="334.644" x2="454.708" y2="354.644"/>
	<line fill="#E487F4" stroke="#353C73" stroke-miterlimit="10" x1="447.333" y1="338.668" x2="453.688" y2="348.001"/>
	<line fill="#E487F4" stroke="#353C73" stroke-miterlimit="10" x1="475.333" y1="348.001" x2="472.333" y2="354.472"/>
	<line fill="#E487F4" stroke="#353C73" stroke-miterlimit="10" x1="431.333" y1="348.001" x2="435.333" y2="354.644"/>
</g>
<path fill="#B7C1DA" d="M578.403,354.761h26.417c0,0,2.776-15.687-14.82-9.903C575.25,343.578,578.403,354.761,578.403,354.761z"/>
<g>
	<path fill="#EDB7F7" d="M296.713,354.472c0,0-25.277-32.989-16.494-36.844c8.782-3.856,22.492,26.776,22.492,26.776
		S278.72,275,294.143,272.215c15.424-2.785,24.848,36.201,22.063,72.403c0,0,4.928-17.565,11.996-15.852
		c7.069,1.713,3.642,13.923-3.642,25.705h-27.847V354.472z"/>
	<line fill="#EDB7F7" stroke="#353C73" stroke-miterlimit="10" x1="296.388" y1="278.5" x2="313.815" y2="354.472"/>
	<line fill="#EDB7F7" stroke="#353C73" stroke-miterlimit="10" x1="283.167" y1="323.333" x2="305.222" y2="354.644"/>
	<line fill="#EDB7F7" stroke="#353C73" stroke-miterlimit="10" x1="304.764" y1="315.016" x2="309.204" y2="300.001"/>
	<line fill="#EDB7F7" stroke="#353C73" stroke-miterlimit="10" x1="294.194" y1="295.333" x2="301.709" y2="301.695"/>
	<line fill="#EDB7F7" stroke="#353C73" stroke-miterlimit="10" x1="309.204" y1="334.369" x2="302.5" y2="327.193"/>
	<line fill="#EDB7F7" stroke="#353C73" stroke-miterlimit="10" x1="291.333" y1="330.668" x2="291.333" y2="334.927"/>
</g>
<g>
	<rect x="335.343" y="219.168" fill="#FFFFFF" width="74.323" height="12.432"/>
	<rect x="335.343" y="239.168" fill="#FFFFFF" width="74.323" height="12.432"/>
	<rect x="335.343" y="259.168" fill="#FFFFFF" width="62.907" height="12.432"/>
	<rect x="335.343" y="279.168" fill="#FFFFFF" width="29.039" height="12.432"/>
</g>
<path fill="#2A4F9A" d="M340.647,231.6c0,0,4.93,6.818-1.064,14.28c-6.334,7.886-3.695-13.86-3.695-13.86L340.647,231.6z"/>
<line fill="none" stroke="#353C73" stroke-width="2" stroke-miterlimit="10" x1="731.454" y1="354.644" x2="264.546" y2="354.644"/>
<g>
	<path fill="#2A4F9A" d="M310.027,369.073c-1.117,2.188-4.777,3.114-6.124,3.78c-1.929,0.956-4.81,1.909-4.64,7.25
		c0.085,2.664,15.338-0.166,19.806-2.379c2.14-1.061,3.09-1.878,3.801-6.833C323.259,368.194,311.142,366.89,310.027,369.073z"/>
	<path fill="#2A4F9A" d="M353.611,369.073c1.117,2.188,4.777,3.114,6.124,3.78c1.929,0.956,4.81,1.909,4.64,7.25
		c-0.085,2.664-15.338-0.166-19.806-2.379c-2.14-1.061-3.09-1.878-3.801-6.833C340.379,368.194,352.497,366.89,353.611,369.073z"/>
	<path fill="#B7C1DA" d="M315.253,304.17l-6.05,64.998c0,0,4.5,4.25,15.75,0l3.943-46.75h5.307l5.25,46.75c0,0,6.5,2.25,15.5-0.75
		l-7.641-65.466L315.253,304.17z"/>
	<path fill="#FBADB1" d="M309.232,268.194c-8.534-5.625-19.788-19.903-10.98-55.026c0,0-9.152-12.879-3.714-16.5
		c3.881-2.583,9.055,11.703,9.055,11.703s3.243-3.7,4.005-3.048c0.988,0.845,0.738,2.095-3.145,7.095c0,0-7.279,34.975,9.469,46.29"
		/>
	<path fill="#FBADB1" d="M342.199,258.537c7.966-5.841,12.755-19.361,12.755-47.119c0-2.176-3.813-8.938-2.563-9.5
		c1.097-0.493,2.15,2.041,2.438,2.75c0,0,2.346-3.083,7.458-3.833c10.917-1.604,5.54,5.214-2.167,8.282
		c0,0,9.165,44.031-14.261,59.268"/>
	<path fill="#353C73" d="M313.922,258.708c2.502,1.691,5.542,2.854,9.222,3.293c7.394,0.882,13.892,0.322,19.055-3.464l3.66,9.848
		c-2.044,1.33-4.336,2.44-6.905,3.283l9.857,30.666c0,0-15.333,7.334-35.333,1.334l3.67-32c0,0-3.612-0.637-7.915-3.474
		L313.922,258.708z"/>
	<path fill="#FBADB1" d="M332.484,251.251c0,0-1.75,8,3.75,10.75c0,0-1.5,4-7.5,4h0.325c-6,0-7.5-4-7.5-4
		c5.5-2.75,3.75-10.75,3.75-10.75H332.484z"/>
	<path fill="#FBADB1" d="M340.647,239.751c0,8.146-4.413,15.499-11.751,15.499s-11.749-7.352-11.749-15.499s5.26-14.75,11.75-14.75
		C335.385,225.001,340.647,231.605,340.647,239.751z"/>
	<path fill="#2A4F9A" d="M318.406,246.39c0,0-1.653-14.525,4.847-14.79s14.584,6.568,21-0.598c0,0-3,0.598-5.833-3.25
		c-3.01-4.088-12.167-7.416-20,0.084C309.498,236.377,318.406,246.39,318.406,246.39z"/>
</g>
<g>
	
		<line fill="none" stroke="#353C73" stroke-width="1.5" stroke-miterlimit="10" x1="601.28" y1="245.693" x2="625.28" y2="408.693"/>
	
		<line fill="none" stroke="#353C73" stroke-width="1.5" stroke-miterlimit="10" x1="645.78" y1="245.693" x2="669.78" y2="408.693"/>
	
		<line fill="none" stroke="#353C73" stroke-width="1.5" stroke-miterlimit="10" x1="603.495" y1="260.735" x2="647.995" y2="260.735"/>
	
		<line fill="none" stroke="#353C73" stroke-width="1.5" stroke-miterlimit="10" x1="606.495" y1="280.735" x2="650.995" y2="280.735"/>
	
		<line fill="none" stroke="#353C73" stroke-width="1.5" stroke-miterlimit="10" x1="609.495" y1="300.735" x2="654.206" y2="300.735"/>
	
		<line fill="none" stroke="#353C73" stroke-width="1.5" stroke-miterlimit="10" x1="612.495" y1="320.735" x2="656.995" y2="320.735"/>
	
		<line fill="none" stroke="#353C73" stroke-width="1.5" stroke-miterlimit="10" x1="615.495" y1="340.735" x2="659.774" y2="340.735"/>
	
		<line fill="none" stroke="#353C73" stroke-width="1.5" stroke-miterlimit="10" x1="618.495" y1="360.735" x2="662.719" y2="360.735"/>
	
		<line fill="none" stroke="#353C73" stroke-width="1.5" stroke-miterlimit="10" x1="621.495" y1="380.735" x2="666.031" y2="380.735"/>
</g>
<polyline fill="none" stroke="#353C73" stroke-miterlimit="10" stroke-dasharray="6" points="574.229,223.366 574.229,302.952 
	510.772,302.952 510.772,223.366 "/>
<g>
	<rect x="510.772" y="141.668" fill="#FFFFFF" width="63.456" height="77.5"/>
	<circle fill="#B7C1DA" cx="524.792" cy="163.043" r="10.252"/>
	<rect x="515.5" y="180.418" fill="#353C73" width="54.956" height="5.25"/>
	<rect x="538.5" y="170.418" fill="#353C73" width="31.956" height="5.25"/>
	<rect x="538.5" y="160.418" fill="#353C73" width="31.956" height="5.25"/>
	<rect x="538.5" y="150.418" fill="#353C73" width="31.956" height="5.25"/>
	<rect x="515.5" y="190.418" fill="#353C73" width="54.956" height="5.25"/>
	<rect x="515.5" y="200.418" fill="#353C73" width="54.956" height="5.25"/>
	<rect x="515.5" y="210.418" fill="#353C73" width="54.956" height="5.25"/>
</g>
<g>
	<path fill="#353C73" d="M560.861,97.752c-12.403-14.25,2.557-23.05-2.597-37.035c-4.133-11.216-15.043-10.073-15.952-9.549
		c0,0-11.68-1.667-15.813,9.549c-5.153,13.984,9.807,22.785-2.597,37.035"/>
	<path fill="#5686C4" d="M520,105.97c0,0,1.766-13.968,22.383-13.968S565,105.97,565,105.97H520z"/>
	<path fill="#FBADB1" d="M545.97,82.983c0,0-1.75,8,3.75,10.75c0,0-1.5,4-7.5,4h0.325c-6,0-7.5-4-7.5-4
		c5.5-2.75,3.75-10.75,3.75-10.75H545.97z"/>
	<ellipse fill="#FBADB1" cx="542.383" cy="70.009" rx="11.75" ry="14.75"/>
	<path fill="#353C73" d="M541.084,54.001c-8.042,0-9.577,8-9.577,8s2.601-2.728,4.979,0c2.376,2.727,4.463,0.833,5.19,0
		c0.726-0.833,3.993-2.417,6.098,0c2.107,2.417,3.661,1.934,5.346,0C553.119,62.001,552.917,54.001,541.084,54.001z"/>
	<path fill="#5686C4" d="M533.756,92.994c0,0-30.755,5.674-15.422,48.674l7.177-2.691c0,0-8.844-21.645,8.245-35.642"/>
	<path fill="#5686C4" d="M550.75,92.994c0,0,30.755,5.674,15.422,48.674l-7.177-2.691c0,0,8.844-21.645-8.245-35.642"/>
	<path fill="#FBADB1" d="M518.334,141.668c0,0,3.166,11.5,7.416,11.5s1.5-8.5,1.5-8.5s1.75,2.5,3,0.5c0,0,1.021-3.633-4.739-6.191
		L518.334,141.668z"/>
	<path fill="#FBADB1" d="M566.172,141.668c0,0-3.166,11.5-7.416,11.5s-1.5-8.5-1.5-8.5s-1.75,2.5-3,0.5c0,0-1.021-3.633,4.739-6.191
		L566.172,141.668z"/>
</g>
<g>
	<g>
		<line fill="none" stroke="#353C73" stroke-miterlimit="10" x1="394.25" y1="198.25" x2="397.25" y2="198.25"/>
		
			<line fill="none" stroke="#353C73" stroke-miterlimit="10" stroke-dasharray="6.1,6.1" x1="403.35" y1="198.25" x2="485.7" y2="198.25"/>
		<polyline fill="none" stroke="#353C73" stroke-miterlimit="10" points="488.75,198.25 491.75,198.25 491.75,195.25 		"/>
		
			<line fill="none" stroke="#353C73" stroke-miterlimit="10" stroke-dasharray="6.6429,6.6429" x1="491.75" y1="188.607" x2="491.75" y2="152.071"/>
		<polyline fill="none" stroke="#353C73" stroke-miterlimit="10" points="491.75,148.75 491.75,145.75 488.75,145.75 		"/>
		
			<line fill="none" stroke="#353C73" stroke-miterlimit="10" stroke-dasharray="5.6912,5.6912" x1="483.059" y1="145.75" x2="394.846" y2="145.75"/>
		<line fill="none" stroke="#353C73" stroke-miterlimit="10" x1="392" y1="145.75" x2="389" y2="145.75"/>
	</g>
</g>
<g>
	
		<rect x="299.542" y="152.954" transform="matrix(-0.9945 0.1045 -0.1045 -0.9945 705.1989 318.957)" fill="#FFFFFF" stroke="#000000" stroke-miterlimit="10" width="89.404" height="49.999"/>
	
		<rect x="311.147" y="192.751" transform="matrix(-0.9945 0.1045 -0.1045 -0.9945 706.1295 352.9575)" fill="#5686C4" width="65.342" height="4.454"/>
	
		<rect x="343.473" y="179.702" transform="matrix(-0.9945 0.1045 -0.1045 -0.9945 744.9094 324.829)" fill="#5686C4" width="40.945" height="4.454"/>
	
		<rect x="342.473" y="169.702" transform="matrix(-0.9945 0.1045 -0.1045 -0.9945 741.8699 304.9886)" fill="#5686C4" width="40.945" height="4.454"/>
	
		<rect x="341.473" y="159.703" transform="matrix(-0.9945 0.1045 -0.1045 -0.9945 738.8306 285.1485)" fill="#5686C4" width="40.945" height="4.454"/>
	
		<rect x="304.177" y="160.968" transform="matrix(-0.9945 0.1045 -0.1045 -0.9945 644.8145 304.1118)" fill="#353C73" width="20.527" height="15.962"/>
	
		<rect x="317.915" y="168.218" transform="matrix(-0.9945 0.1045 -0.1045 -0.9945 672.9741 317.1374)" fill="#FBADB1" width="20.528" height="15.963"/>
</g>
<g>
	
		<rect x="588.512" y="168.8" transform="matrix(-0.997 -0.0777 0.0777 -0.997 1224.726 445.5051)" fill="#2A4F9A" width="65.037" height="60.253"/>
	
		<rect x="596.484" y="152.756" transform="matrix(-0.9948 0.1015 -0.1015 -0.9948 1273.3154 300.9723)" fill="#5686C4" width="65.033" height="60.25"/>
	<circle fill="#FFFFFF" cx="625.5" cy="153.168" r="7.35"/>
	<circle fill="#FBADB1" cx="630.035" cy="157.58" r="5.495"/>
	<line fill="none" stroke="#353C73" stroke-miterlimit="10" x1="601" y1="167.58" x2="654.146" y2="163.043"/>
	<line fill="none" stroke="#353C73" stroke-miterlimit="10" x1="602.444" y1="180.227" x2="655.591" y2="175.69"/>
	<line fill="none" stroke="#353C73" stroke-miterlimit="10" x1="603.462" y1="191.623" x2="656.608" y2="187.086"/>
	<line fill="none" stroke="#353C73" stroke-miterlimit="10" x1="605.462" y1="202.623" x2="658.608" y2="198.086"/>
</g>
<rect x="589" y="239.751" fill="none" stroke="#353C73" stroke-miterlimit="10" stroke-dasharray="6" width="70.5" height="63.201"/>
<g>
	<rect x="417.666" y="219.168" fill="#5686C4" width="74.084" height="74.084"/>
	<circle fill="#FBADB1" cx="441.645" cy="234.303" r="9.301"/>
	<path fill="#FFFFFF" d="M446.355,255.295h-2.383c0.01-0.094,0.028-0.186,0.028-0.282c0-1.479-1.199-2.678-2.678-2.678h-6.395
		c-1.479,0-2.678,1.199-2.678,2.678c0,0.097,0.019,0.189,0.028,0.282h-0.383c-1.323,0-2.395,1.072-2.395,2.395
		c0,1.322,1.072,2.395,2.395,2.395h14.46c1.323,0,2.395-1.072,2.395-2.395C448.75,256.367,447.678,255.295,446.355,255.295z"/>
	<path fill="#FFFFFF" d="M478.5,240.634h-3.158c0.015-0.107,0.033-0.213,0.033-0.324c0-1.284-1.04-2.324-2.324-2.324h-4.352
		c-1.284,0-2.324,1.04-2.324,2.324c0,0.123,0.018,0.241,0.036,0.358c-1.149,0.166-2.036,1.146-2.036,2.341
		c0,1.311,1.063,2.375,2.375,2.375h11.75c1.311,0,2.375-1.064,2.375-2.375C480.875,241.697,479.811,240.634,478.5,240.634z"/>
	<path fill="#2A4F9A" d="M417.666,269.75c0,0,16.084-2.25,40.584,3.25s33.5-4.826,33.5-4.826v25.078h-74.084L417.666,269.75
		L417.666,269.75z"/>
</g>
<g>
	<g>
		<path fill="#EDB1FC" stroke="#FFFFFF" stroke-miterlimit="10" d="M669.175,354.535c0,0-10.298-18.618-0.57-19.533
			c4.369-0.412,9.043,9.614,9.043,9.614s4.73-71.264,32.81-71.264s-15.26,65.312-15.26,65.312s14.648-13.428,20.754-7.935
			c6.104,5.493-17.092,17.091-17.092,17.091s16.482-4.272,16.482,6.715H669.175z"/>
		<line fill="#EDB1FC" stroke="#FFFFFF" stroke-miterlimit="10" x1="708.333" y1="282.668" x2="683.32" y2="354.472"/>
		<line fill="#EDB1FC" stroke="#FFFFFF" stroke-miterlimit="10" x1="691.416" y1="306.334" x2="695.826" y2="318.57"/>
		<line fill="#EDB1FC" stroke="#FFFFFF" stroke-miterlimit="10" x1="670.535" y1="340.918" x2="677.833" y2="354.472"/>
		<line fill="#EDB1FC" stroke="#FFFFFF" stroke-miterlimit="10" x1="708.333" y1="334.644" x2="683.32" y2="354.472"/>
	</g>
	<line fill="#EDB1FC" stroke="#FFFFFF" stroke-miterlimit="10" x1="702.749" y1="298.696" x2="713.667" y2="290.334"/>
</g>
<line fill="none" stroke="#353C73" stroke-miterlimit="10" x1="295.5" y1="347.462" x2="299.964" y2="347.462"/>
<g>
	<polygon fill="#C6D8ED" points="426.653,386.148 366.592,395.477 391.818,410.505 452.667,400.601 	"/>
	<polygon fill="#B7C1DA" points="366.592,395.477 366.592,400.75 391.25,416.25 452.667,406.363 452.667,400.601 391.818,410.505 	
		"/>
	<polyline fill="none" stroke="#2A4F9A" stroke-miterlimit="10" points="371.157,401.196 391.818,413.505 450.068,404.023 	"/>
</g>
<path fill="#B7C1DA" d="M428.887,445.039c0,0,8.677,3.08,22.732,0c0,0-0.861-12.539-11.76-12.539
	C428.958,432.5,428.887,445.039,428.887,445.039z"/>
<g>
	<ellipse fill="#353C73" cx="354.953" cy="431" rx="0.775" ry="0.457"/>
	<ellipse fill="#353C73" cx="363.024" cy="435.7" rx="1.105" ry="0.651"/>
</g>
<g>
	<ellipse fill="#353C73" cx="288.315" cy="391.309" rx="1.352" ry="0.798"/>
	<ellipse fill="#353C73" cx="284.259" cy="400.379" rx="0.987" ry="0.582"/>
	<ellipse fill="#353C73" cx="294.195" cy="396.477" rx="1.783" ry="1.053"/>
</g>
<ellipse fill="#353C73" cx="488.883" cy="430" rx="2.229" ry="1.316"/>
<g>
	<ellipse fill="#353C73" cx="472.333" cy="390.511" rx="0.775" ry="0.457"/>
	<ellipse fill="#353C73" cx="456.491" cy="380.141" rx="1.783" ry="1.053"/>
	<ellipse fill="#353C73" cx="451.618" cy="384.621" rx="1.09" ry="0.643"/>
</g>
<g>
	<ellipse fill="#353C73" cx="604.82" cy="440.096" rx="1.316" ry="0.777"/>
	<ellipse fill="#353C73" cx="612.086" cy="433.438" rx="1.027" ry="0.606"/>
</g>
<g>
	<ellipse fill="#353C73" cx="531.08" cy="414.267" rx="1.523" ry="0.899"/>
	<ellipse fill="#353C73" cx="535.783" cy="418.408" rx="0.882" ry="0.521"/>
</g>
<g>
	<ellipse fill="#353C73" cx="593.336" cy="371.058" rx="1.783" ry="1.053"/>
	<ellipse fill="#353C73" cx="600.118" cy="379.088" rx="0.882" ry="0.521"/>
</g>
</svg>
