<?xml version="1.0" encoding="utf-8"?>
<!-- Generator: Adobe Illustrator 17.0.0, SVG Export Plug-In . SVG Version: 6.00 Build 0)  -->
<!DOCTYPE svg PUBLIC "-//W3C//DTD SVG 1.1//EN" "http://www.w3.org/Graphics/SVG/1.1/DTD/svg11.dtd">
<svg version="1.1" id="OBJECT" xmlns="http://www.w3.org/2000/svg" xmlns:xlink="http://www.w3.org/1999/xlink" x="0px" y="0px"
	 width="535.473px" height="358.5px" viewBox="0 0 535.473 358.5" style="enable-background:new 0 0 535.473 358.5;"
	 xml:space="preserve">
<g>
	<g>
		<path style="fill:#B5DEF2;" d="M227.49,336.603c-9.087-0.771-13.83-7.937-10.584-16.009l82.258-204.244
			c3.246-8.072,13.25-13.987,22.337-13.216l103.558,8.785c9.093,0.771,13.83,7.937,10.584,16.009l-82.258,204.244
			c-3.246,8.072-13.244,13.988-22.337,13.216L227.49,336.603z"/>
	</g>
	<polygon style="fill:#B5DEF2;" points="435.265,117.653 428.153,103.826 210.075,316.865 217.134,330.598 	"/>
	<g>
		<g>
			<path style="fill:#DFECF3;" d="M426.97,116.735c0.077,0.05,0.155,0.1,0.229,0.158l1.211-3.011
				c3.242-8.068-1.489-15.229-10.586-16.001l-103.551-8.788c-9.088-0.766-19.094,5.145-22.34,13.221l-0.827,2.063l136.093,12.516
				C428.247,116.988,426.015,116.117,426.97,116.735z"/>
			<path style="fill:#DFECF3;" d="M346.153,318.131l0.882-2.201c-1.117-0.006-2.241-0.048-3.365-0.142l-133.165-11.297
				l40.303-100.061L209.67,306.549c-3.246,8.076,1.503,15.249,10.592,16.015l103.554,8.78
				C332.91,332.124,342.907,326.207,346.153,318.131z"/>
		</g>
	</g>
	<g>
		<path style="fill:#1B374F;" d="M412.418,109.984c-2.131-0.181-3.244-1.865-2.481-3.761c0.761-1.891,3.11-3.281,5.241-3.101
			c2.137,0.181,3.25,1.865,2.489,3.756C416.904,108.775,414.555,110.165,412.418,109.984z"/>
	</g>
	<g>
		<path style="fill:#1B374F;" d="M395.954,107.896c-2.13-0.181-3.244-1.865-2.481-3.761c0.76-1.891,3.11-3.281,5.24-3.101
			c2.137,0.181,3.25,1.865,2.489,3.756C400.44,106.687,398.091,108.077,395.954,107.896z"/>
	</g>
	<g>
		<g>
			<g>
				<path style="fill:#1B374F;" d="M269.389,324.417c-3.868-0.328-5.885-3.379-4.505-6.813c1.381-3.434,5.638-5.953,9.506-5.625
					c3.868,0.328,5.885,3.379,4.505,6.813C277.514,322.226,273.257,324.745,269.389,324.417z"/>
			</g>
		</g>
	</g>
	<polygon style="fill:#326896;" points="291.101,104.376 210.504,304.488 347.035,315.931 427.199,116.893 	"/>
</g>
<g>
	<path style="fill:#FCFFFC;" d="M237.669,70.293L167.103,245.5c-4.983,12.372,3.434,26.034,16.725,27.148l109.775,9.2l27.004,2.041
		l-16.887-27.161L373.768,82.81L237.669,70.293z"/>
	<path style="fill:#98CFDE;" d="M360.174,116.57l-56.453,140.157c-5.008,12.435,3.519,26.151,16.887,27.161h0
		c8.605,0.65,16.642-4.344,19.869-12.347l60.965-151.175L360.174,116.57z"/>
	<polygon style="fill:#DEEBF2;" points="236.407,92.184 214.441,146.724 336.242,157.926 358.209,103.387 	"/>
	<polygon style="fill:#D5E8F2;" points="177.864,240.02 176.621,243.459 298.422,254.661 299.665,251.222 	"/>
	<polygon style="fill:#D5E8F2;" points="241.149,80.12 239.906,83.559 361.707,94.762 362.95,91.323 	"/>
	<polygon style="fill:#326896;" points="211.022,156.453 180.693,231.772 216.062,235.025 246.391,159.706 	"/>
	<polygon style="fill:#4E6591;" points="255.794,160.76 249.946,175.311 295.636,179.514 301.485,164.963 	"/>
	<polygon style="fill:#4E6591;" points="249.946,175.311 247.223,181.995 311.006,187.861 313.728,181.178 	"/>
	<polygon style="fill:#DEEBF2;" points="243.898,188.985 241.175,195.668 280.07,199.276 282.792,192.593 	"/>
	<polygon style="fill:#DEEBF2;" points="240.098,199.766 237.375,206.449 265.558,209.028 268.281,202.344 	"/>
	<polygon style="fill:#98CFDE;" points="235.772,210.547 233.049,217.23 296.832,223.097 299.555,216.413 	"/>
	<polygon style="fill:#98CFDE;" points="232.264,220.932 229.542,227.616 293.324,233.482 296.047,226.799 	"/>
	<polygon style="fill:#98CFDE;" points="228.756,231.318 226.676,235.878 290.459,241.744 292.539,237.184 	"/>
	
		<line style="fill:none;stroke:#1B374F;stroke-width:0.5;stroke-miterlimit:10;" x1="236.407" y1="92.184" x2="336.242" y2="157.926"/>
	
		<line style="fill:none;stroke:#1B374F;stroke-width:0.5;stroke-miterlimit:10;" x1="358.209" y1="103.387" x2="214.441" y2="146.724"/>
	
		<line style="fill:none;stroke:#1B374F;stroke-width:0.5;stroke-miterlimit:10;" x1="211.022" y1="156.453" x2="216.062" y2="235.025"/>
	
		<line style="fill:none;stroke:#1B374F;stroke-width:0.5;stroke-miterlimit:10;" x1="246.391" y1="159.706" x2="180.693" y2="231.772"/>
</g>
<g>
	<path style="fill:#0F253B;" d="M276.211,127.878c0,6.524,5.029,12.165,11.778,12.672c6.608,0.492,12.495-4.167,13.53-10.712
		l9.99-63.288L286.829,64.7l-0.178,1.046l-10.257,59.963c-0.104,0.622-0.162,1.234-0.178,1.846
		C276.211,127.664,276.211,127.768,276.211,127.878z"/>
	<path style="opacity:0.05;fill:#FCFFFC;" d="M276.216,127.554c1.396,0.852,3.011,1.401,4.768,1.532
		c5.562,0.418,10.513-3.503,11.386-9.013l8.406-53.266l-14.126-1.061l-10.257,59.963
		C276.289,126.33,276.232,126.942,276.216,127.554z"/>
	<path style="fill:#326896;" d="M209.071,48.591l-0.014-0.001L209.056,0c0,0,32.713,17.633,113.032,20.94
		c14.804,0.609,26.471,12.831,26.471,27.648v0.003l-0.013,0.001l0,0c0.007,14.816-11.659,27.041-26.462,27.651
		c-80.317,3.307-113.029,20.94-113.029,20.94l0.001-48.59H209.071z"/>
	<ellipse style="fill:#FBC367;" cx="209.056" cy="48.591" rx="38.4" ry="48.591"/>
	<path style="fill:#1B374F;" d="M178.497,48.593c0,21.356,13.681,38.665,30.557,38.665c6.247,0,12.055-2.368,16.891-6.441
		c8.239-6.922,13.671-18.768,13.671-32.224c0-13.457-5.432-25.308-13.676-32.235c-4.836-4.067-10.639-6.435-16.886-6.435
		C192.179,9.922,178.497,27.237,178.497,48.593z"/>
	<path style="fill:#162F42;" d="M195.796,48.593c0,18.052,11.564,32.684,25.831,32.684c1.469,0,2.912-0.157,4.318-0.46
		c5.803-4.872,10.21-12.191,12.306-20.791c0.889-3.612,1.364-7.455,1.364-11.433c0-3.978-0.476-7.821-1.364-11.433
		c-2.096-8.605-6.503-15.924-12.311-20.802c-1.401-0.298-2.844-0.455-4.313-0.455C207.36,15.903,195.796,30.541,195.796,48.593z"/>
	<path style="fill:#FBC367;" d="M322.088,20.94v55.302h0c14.62,0,26.471-11.852,26.471-26.471v-2.36
		C348.559,32.791,336.708,20.94,322.088,20.94L322.088,20.94z"/>
	<path style="fill:#DEEBF2;" d="M212.729,48.593c0,2.734,1.056,5.228,2.797,7.089c1.741,1.861,4.167,3.09,6.89,3.273l15.835,1.072
		c0.889-3.612,1.364-7.455,1.364-11.433c0-3.978-0.476-7.821-1.364-11.433l-15.835,1.066
		C216.964,38.597,212.729,43.124,212.729,48.593z"/>
	<ellipse style="fill:#98CFDE;" cx="218.218" cy="48.591" rx="4.182" ry="6.143"/>
</g>
<g>
	<circle style="fill:#FB6767;" cx="170.656" cy="178.444" r="33.469"/>
	<path style="fill:#FCFFFC;" d="M181.336,175.08c2.589,1.495,2.589,5.232,0,6.727l-8.738,5.045l-8.738,5.045
		c-2.589,1.495-5.826-0.374-5.826-3.364v-10.09v-10.089c0-2.99,3.237-4.859,5.826-3.364l8.738,5.045L181.336,175.08z"/>
</g>
<path style="fill:#DEDEDE;" d="M205.867,121.93c5.609-5.562,5.646-14.618,0.084-20.226c-3.594-3.624-8.647-4.919-13.286-3.883
	l-2.274-3.9l-2.06,5.655c-0.925,0.567-1.802,1.246-2.606,2.043c-5.609,5.562-5.646,14.618-0.084,20.226
	C191.203,127.455,200.259,127.493,205.867,121.93z"/>
<g>
	<path style="fill:#FCFFFC;" d="M140.9,97.351c0.045-10.856,8.693-19.621,19.314-19.576c6.864,0.029,12.869,3.732,16.249,9.276
		l10.403-4.999l-8,10.937c0.329,1.453,0.505,2.966,0.498,4.523c-0.045,10.856-8.693,19.621-19.314,19.576
		C149.429,117.043,140.855,108.207,140.9,97.351z"/>
	<circle style="fill:#162F42;" cx="147.704" cy="97.013" r="3.029"/>
	<circle style="fill:#162F42;" cx="159.662" cy="97.013" r="3.029"/>
	<circle style="fill:#162F42;" cx="171.619" cy="97.013" r="3.029"/>
</g>
</svg>
