<?xml version="1.0" encoding="utf-8"?>
<!-- Generator: Adobe Illustrator 17.0.0, SVG Export Plug-In . SVG Version: 6.00 Build 0)  -->
<!DOCTYPE svg PUBLIC "-//W3C//DTD SVG 1.1//EN" "http://www.w3.org/Graphics/SVG/1.1/DTD/svg11.dtd">
<svg version="1.1" id="Layer_1" xmlns="http://www.w3.org/2000/svg" xmlns:xlink="http://www.w3.org/1999/xlink" x="0px" y="0px"
	 width="85px" height="30.667px" viewBox="0 0 85 30.667" style="enable-background:new 0 0 85 30.667;" xml:space="preserve">
<path style="fill:#FFFFFF;" d="M78.696,13.157l-4.334,2.617c0,0-3.887,1.621-2.106,4.597c0.149,0.248,0.218,0.627,0.533,0
	c1.017-2.181,7.239-2.299,7.263,0.563c0.012,0.412,0.048,1.681,0.073,2.253c0.024,0.572-0.533,0.527-0.533,0.527L68.99,23.705
	c0,0-1.504-0.191-1.48-1.445c0.024-1.254,0-6.814,0-6.814s-2.968-0.3-3.005,1.726c-0.015,1.917,0,5.142-0.012,5.615
	c-0.003,0.363-0.242,0.838-0.799,0.872s-4.673-0.018-4.673-0.018s-1.053,0.055-0.881-0.854c-0.024-0.818,0-12.047,0-12.047
	s-3.036-0.318-3.036,1.808s0.007,11.003,0.007,11.003s-0.215,1.272,1.722,1.272c1.937,0,8.813,0,8.813,0s0.99,0.045,1.498-0.827
	c0.212,0.279,0.342,0.79,1.601,0.827c1.259,0.036,11.836,0.02,12.49,0.001c0.654-0.019,1.613-0.146,1.634-1.346
	c0.021-1.199-0.012-2.862-0.024-3.48c0-0.382-0.032-0.93-0.881-1.426c-1.238-0.863-3.232-1.19-4.167-1.163s-2.648,0.118-4.815,1.599
	c-0.097-0.091-0.339-2.489,3.462-2.671c0.932-0.018,1.441,0.572,1.622,0.69c1.029-0.482,0.702-1.356,0.339-1.581
	C78.708,15.301,80.124,14.266,78.696,13.157z"/>
<ellipse style="fill:#FFFFFF;" cx="63.11" cy="26.731" rx="1.289" ry="0.968"/>
<ellipse style="fill:#FFFFFF;" cx="60.22" cy="26.72" rx="1.304" ry="0.979"/>
<path style="fill:#FFFFFF;" d="M54.159,15.547v7.932c0,0,0.318,1.417-1.988,1.417c-2.306,0-10.105,0.007-11.594-0.051
	c-1.489-0.058-1.498-1.012-1.462-1.612s-0.035-5.778-0.035-5.778s-0.174-1.888,2.985-1.799c0,0.143-0.009,5.976-0.009,6.937
	c-0.036,0.872,0.336,1.192,1.534,1.097c1.334,0.025,5.301,0.013,6.162,0.016c0.412,0.03,1.149-0.263,1.332-0.654
	c0.048-1.472-0.012-4.173-0.012-5.052C50.987,15.22,54.159,15.547,54.159,15.547z"/>
<ellipse style="fill:#FFFFFF;" cx="47.005" cy="17.196" rx="1.671" ry="1.267"/>
<path style="fill:#FFFFFF;" d="M36.11,12.221v10.875c0,0,0.145,1.908-2.687,1.799c-2.833-0.109-0.436,0.027-0.399-0.654
	c0.036-0.681,0.1-10.876,0.145-11.148c0.35-2.117,3.123-3.298,3.995-2.59C36.523,11.01,36.291,11.54,36.11,12.221z"/>
<path style="fill:#FFFFFF;" d="M31.534,15.535c0,0-0.091,6.145-0.091,7.099c-0.073,2.794-3.94,2.222-4.376,2.263
	s-0.708-0.096-0.345-0.191c2.397-1.213,1.543-2.944,1.675-4.116c0.007-1.772-0.098-1.799-0.023-2.99
	C28.665,15.301,31.534,15.535,31.534,15.535z"/>
<path style="fill:#FFFFFF;" d="M26.268,15.588c0,0,0.073,5.737-0.018,7.509s-2.633,1.744-2.633,1.744L7.185,24.827
	c0,0-2.388-0.041-2.415-1.819c-0.027-1.778,0.009-4.538,0.009-5.451c-0.209-1.595,3.15-3.08,5.674-0.947
	c0.327-0.818-1.697-2.813-3.105-1.472c-0.69-0.354-0.563-0.804-0.327-1.118C6.858,13.83,5.95,13.175,6.84,12.317
	c0.272,0.668,0.581,1.077,2.233,1.581s3.359,2.031,1.943,3.789c-0.212-0.102-1.553-0.75-1.812-0.852
	c-0.258-0.102-1.187-0.089-1.387,0.538c-0.02,0.723-0.142,4.852-0.106,5.37s0.182,0.886,0.999,0.899
	c1.09,0.002,11.603,0.027,12.62,0c1.017-0.027,1.706,0.042,1.761-0.981c0.055-1.023-0.13-3.315-0.022-4.989
	C23.218,15.342,26.268,15.588,26.268,15.588z"/>
<ellipse style="fill:#FFFFFF;" cx="19.04" cy="17.156" rx="1.681" ry="1.262"/>
<ellipse style="fill:#FFFFFF;" cx="15.18" cy="17.2" rx="1.719" ry="1.29"/>
<path style="fill:#FFFFFF;" d="M41.521,9.4c0.89,0.381,2.252,1.608,4.231,0.627c0.833-0.439,1.162-0.872,2.288-1.567
	c2.106-1.118,5.611,0.055,3.595,2.262c-0.835,0.586-4.43,2.712-8.447,0.057C42.54,10.317,42.151,10.023,41.521,9.4z"/>
<path style="fill:#FFFFFF;" d="M52.561,10.724c-1.271,1.961-5.895,2.315-8.28,1.36c-0.621-0.155-2.385-0.707-4.249-1.785
	c-3.777-1.538-6.21-0.121-7.118,1.785c0.073,2.046-3.087,2.137-3.268-0.461c-0.1-1.431,2.31-3.628,5.072-3.891
	c2.252-0.214,4.919,1.368,5.169,1.519c1.586,0.854,2.576,2.175,6.198,2.998C50.031,12.612,51.118,11.781,52.561,10.724z"/>
</svg>
