<?xml version="1.0" encoding="utf-8"?>
<!-- Generator: Adobe Illustrator 17.0.0, SVG Export Plug-In . SVG Version: 6.00 Build 0)  -->
<!DOCTYPE svg PUBLIC "-//W3C//DTD SVG 1.1//EN" "http://www.w3.org/Graphics/SVG/1.1/DTD/svg11.dtd">
<svg version="1.1" id="Layer_1" xmlns="http://www.w3.org/2000/svg" xmlns:xlink="http://www.w3.org/1999/xlink" x="0px" y="0px"
	 width="462.049px" height="310.946px" viewBox="0 0 462.049 310.946" style="enable-background:new 0 0 462.049 310.946;"
	 xml:space="preserve">
<radialGradient id="SVGID_1_" cx="326.7963" cy="269.4412" r="200.8557" gradientTransform="matrix(0.9733 -0.0355 0.0357 0.9782 8.7586 20.5747)" gradientUnits="userSpaceOnUse">
	<stop  offset="0" style="stop-color:#42E8E0"/>
	<stop  offset="1" style="stop-color:#180D5B"/>
</radialGradient>
<path style="fill:url(#SVGID_1_);" d="M75.048,135.39c1.959-26.51,26.752-39.14,38.97-44.866
	c29.838-13.983,89.864-21.486,181.304,16.801c66.853,27.992,83.513,65.307,85.029,93.111c1.191,21.831,0.064,45.637-33.565,67.781
	c-30.531,20.103-88.705,24.041-131.181-26.2C161.317,177.805,70.895,191.594,75.048,135.39z"/>
<g id="laptops">
	<g id="alaptops">
		<g>
			<g>
				<path style="fill:#42E8E0;" d="M70.643,166.714c-1.805,0-3.58-0.466-5.135-1.346L6.384,131.847
					c-0.93-0.529-1.485-1.473-1.485-2.528c0-1.055,0.555-1.999,1.484-2.527l106.979-60.651c0.185-0.102,0.409-0.102,0.594,0
					l63.963,36.263c0.929,0.529,1.484,1.473,1.484,2.528c0,1.054-0.555,1.999-1.484,2.527l-102.14,57.909
					C74.222,166.247,72.447,166.714,70.643,166.714z M113.659,67.32L6.978,127.802c-0.558,0.316-0.891,0.884-0.891,1.517
					c0,0.633,0.334,1.2,0.892,1.518l59.123,33.519c2.749,1.56,6.331,1.559,9.083,0l102.14-57.909
					c0.558-0.315,0.891-0.882,0.891-1.515c0-0.633-0.333-1.2-0.892-1.518L113.659,67.32z"/>
			</g>
			<g>
				<g>
					<g>
						<g>
							<g>
								
									<linearGradient id="SVGID_2_" gradientUnits="userSpaceOnUse" x1="2743.7676" y1="104.9709" x2="2929.3132" y2="104.9709" gradientTransform="matrix(1 0 0 1 -2743.7285 0)">
									<stop  offset="0" style="stop-color:#5761D7"/>
									<stop  offset="0.1779" style="stop-color:#5C66D9"/>
									<stop  offset="0.3876" style="stop-color:#6A73DF"/>
									<stop  offset="0.6134" style="stop-color:#8289E8"/>
									<stop  offset="0.849" style="stop-color:#A3A7F5"/>
									<stop  offset="1" style="stop-color:#BCBEFF"/>
								</linearGradient>
								<path style="fill:url(#SVGID_2_);" d="M185.585,86.121l-6.206,3.183l-62.233-35.283c-1.041-0.59-2.86-0.516-4.062,0.165
									L5.749,115.039c-1.027-0.564-5.71-2.776-5.71-2.776l2.272,5.813c0,0,0.008-0.006,0.009-0.007
									c0.094,0.258,0.296,0.5,0.635,0.692l65.544,37.16c1.041,0.59,2.86,0.516,4.062-0.165l109.837-62.271
									c0.494-0.28,0.796-0.619,0.921-0.962l0.008,0.006L185.585,86.121z"/>
								
									<linearGradient id="SVGID_3_" gradientUnits="userSpaceOnUse" x1="2806.1116" y1="98.8956" x2="2991.7561" y2="98.8956" gradientTransform="matrix(1 0 0 1 -2743.7285 0)">
									<stop  offset="0" style="stop-color:#C0BFF6"/>
									<stop  offset="0.2938" style="stop-color:#C5C4F7"/>
									<stop  offset="0.6399" style="stop-color:#D3D2F9"/>
									<stop  offset="1" style="stop-color:#E9E9FD"/>
								</linearGradient>
								<path style="fill:url(#SVGID_3_);" d="M184.625,87.123l-112.568,63.82c-1.232,0.699-3.096,0.774-4.163,0.17L0.72,113.029
									c-1.067-0.605-0.933-1.662,0.299-2.36l112.568-63.82c1.232-0.699,3.096-0.774,4.163-0.169l67.174,38.084
									C185.991,85.368,185.858,86.424,184.625,87.123z"/>
								<path style="fill:#FFFFFF;" d="M184.625,86.486l-112.568,63.82c-1.232,0.699-3.096,0.775-4.163,0.17L0.72,112.391
									c-0.349-0.198-0.557-0.447-0.652-0.713c-0.169,0.497,0.034,0.999,0.652,1.35l67.174,38.084
									c1.067,0.605,2.931,0.529,4.163-0.17l112.568-63.82c0.829-0.47,1.148-1.1,0.951-1.647
									C185.454,85.835,185.143,86.192,184.625,86.486z"/>
								<path style="fill:#2842A2;" d="M38.104,137.138v-1.212c0-0.115,0.071-0.168,0.159-0.118l4.354,2.469
									c0.088,0.05,0.159,0.183,0.159,0.298v1.212c0,0.115-0.071,0.168-0.159,0.118l-4.354-2.468
									C38.175,137.386,38.104,137.253,38.104,137.138z"/>
								<path style="fill:#2842A2;" d="M44.615,140.829v-1.212c0-0.115,0.071-0.168,0.159-0.118l4.354,2.468
									c0.088,0.05,0.159,0.183,0.159,0.298v1.212c0,0.115-0.071,0.168-0.159,0.118l-4.354-2.468
									C44.686,141.077,44.615,140.944,44.615,140.829z"/>
								<g>
									<path style="fill:#ADB1F2;" d="M38.592,121.686l93.544-53.034c0.624-0.354,1.392-0.353,2.015,0.001l33.311,18.925
										c0.478,0.272,0.478,0.95-0.001,1.221l-93.501,53.01c-0.623,0.353-1.39,0.353-2.013,0l-33.356-18.901
										C38.114,122.636,38.113,121.958,38.592,121.686z"/>
									<path style="fill:#9198DB;" d="M38.592,122.908l0.335,0.19l93.209-52.845c0.624-0.354,1.392-0.353,2.015,0.001
										l32.976,18.735l0.335-0.19c0.479-0.271,0.479-0.95,0.001-1.221l-33.311-18.925c-0.623-0.354-1.392-0.354-2.015-0.001
										l-93.544,53.034C38.113,121.958,38.114,122.636,38.592,122.908z"/>
									<g>
										<polygon style="fill:#24126A;" points="136.666,73.446 50.5,122.297 46.228,120.622 133.053,71.397 										"/>
										<polygon style="fill:#24126A;" points="145.523,78.467 69.308,121.677 65.695,119.629 141.91,76.419 										"/>
										<polygon style="fill:#24126A;" points="151.293,81.738 61.557,132.613 57.944,130.565 147.68,79.69 										"/>
										<polygon style="fill:#24126A;" points="157.062,85.009 67.326,135.884 63.713,133.836 153.449,82.961 										"/>
										<polygon style="fill:#24126A;" points="162.831,88.28 73.095,139.155 69.482,137.106 159.218,86.231 										"/>
										<polygon style="fill:#24126A;" points="50.5,122.297 46.887,124.345 43.274,122.297 46.887,120.249 										"/>
										<polygon style="fill:#24126A;" points="73.691,119.193 55.745,129.367 52.132,127.319 70.208,117.07 										"/>
									</g>
								</g>
								<g>
									
										<linearGradient id="SVGID_4_" gradientUnits="userSpaceOnUse" x1="2794.0664" y1="84.8679" x2="2841.5862" y2="84.8679" gradientTransform="matrix(1 0 0 1 -2743.7285 0)">
										<stop  offset="0" style="stop-color:#C0BFF6"/>
										<stop  offset="0.2938" style="stop-color:#C5C4F7"/>
										<stop  offset="0.6399" style="stop-color:#D3D2F9"/>
										<stop  offset="1" style="stop-color:#E9E9FD"/>
									</linearGradient>
									<path style="fill:url(#SVGID_4_);" d="M71.895,97.919l25.223-14.3c0.986-0.559,0.986-1.465,0-2.024L79.87,71.817
										c-0.986-0.559-2.584-0.559-3.57,0l-25.223,14.3c-0.986,0.559-0.986,1.465,0,2.024l17.248,9.779
										C69.311,98.478,70.91,98.478,71.895,97.919z"/>
									<path style="fill:#9198DB;" d="M51.078,86.945l25.223-14.3c0.986-0.559,2.584-0.559,3.57,0l17.248,9.779
										c0.304,0.173,0.503,0.38,0.62,0.598c0.261-0.489,0.062-1.04-0.62-1.426L79.87,71.817c-0.986-0.559-2.584-0.559-3.57,0
										l-25.223,14.3c-0.682,0.386-0.881,0.937-0.62,1.426C50.574,87.324,50.773,87.117,51.078,86.945z"/>
								</g>
							</g>
						</g>
					</g>
				</g>
			</g>
			<g>
				
					<linearGradient id="SVGID_5_" gradientUnits="userSpaceOnUse" x1="2797.782" y1="76.4588" x2="2929.158" y2="76.4588" gradientTransform="matrix(1 0 0 1 -2743.7285 0)">
					<stop  offset="0" style="stop-color:#C0BFF6"/>
					<stop  offset="0.2938" style="stop-color:#C5C4F7"/>
					<stop  offset="0.6399" style="stop-color:#D3D2F9"/>
					<stop  offset="1" style="stop-color:#E9E9FD"/>
				</linearGradient>
				<path style="fill:url(#SVGID_5_);" d="M185.406,84.482L171.176,1.58l1.144-0.473l-1.719-0.968l0.003,0.01
					c-0.333-0.218-0.805-0.205-1.325,0.09L55.554,64.715c-0.934,0.529-1.641,1.887-1.477,2.837l14.343,83.561
					c0.075,0.435,0.294,0.724,0.599,0.851l-0.002,0.001l1.682,0.954l0.289-1.542l-0.096,0.029l113.036-64.085
					C184.863,86.789,185.57,85.431,185.406,84.482z"/>
				
					<linearGradient id="SVGID_6_" gradientUnits="userSpaceOnUse" x1="2797.783" y1="109.5436" x2="2820.3413" y2="109.5436" gradientTransform="matrix(1 0 0 1 -2743.7285 0)">
					<stop  offset="0" style="stop-color:#5761D7"/>
					<stop  offset="0.1779" style="stop-color:#5C66D9"/>
					<stop  offset="0.3876" style="stop-color:#6A73DF"/>
					<stop  offset="0.6134" style="stop-color:#8289E8"/>
					<stop  offset="0.849" style="stop-color:#A3A7F5"/>
					<stop  offset="1" style="stop-color:#BCBEFF"/>
				</linearGradient>
				<path style="fill:url(#SVGID_6_);" d="M56.188,66.982l-1.87-0.812c-0.21,0.47-0.313,0.965-0.241,1.382l14.343,83.561
					c0.075,0.435,0.294,0.724,0.599,0.851l-0.002,0.001l1.682,0.954l0.289-1.542l-0.096,0.029l5.72-3.243L56.188,66.982z"/>
				<path style="fill:#453C9E;" d="M185.713,88.324L71.989,152.8c-0.878,0.498-1.63,0.21-1.784-0.682L55.862,68.557
					c-0.164-0.949,0.543-2.307,1.477-2.837L171.063,1.244c0.878-0.498,1.63-0.21,1.784,0.682l14.343,83.561
					C187.354,86.437,186.647,87.795,185.713,88.324z"/>
			</g>
		</g>
		<g>
			<g>
				<path style="fill:#42E8E0;" d="M391.406,166.714c-1.805,0-3.58-0.466-5.135-1.346l0,0l-102.14-57.909
					c-0.929-0.527-1.484-1.471-1.484-2.527c0-1.055,0.555-2,1.484-2.527l63.962-36.264c0.185-0.102,0.409-0.102,0.594,0
					l106.979,60.65c0.931,0.529,1.486,1.475,1.486,2.528s-0.555,1.999-1.484,2.527l-59.126,33.522
					C394.985,166.247,393.21,166.714,391.406,166.714z M386.865,164.356c2.748,1.56,6.331,1.561,9.082,0l59.125-33.521
					c0.558-0.316,0.892-0.884,0.892-1.517c0-0.633-0.334-1.2-0.893-1.518L348.389,67.32l-63.665,36.095
					c-0.558,0.317-0.891,0.884-0.891,1.517c0,0.634,0.333,1.2,0.891,1.515L386.865,164.356z"/>
			</g>
			<g>
				<g>
					<g>
						<g>
							<g>
								
									<linearGradient id="SVGID_7_" gradientUnits="userSpaceOnUse" x1="54.8833" y1="104.9709" x2="240.429" y2="104.9709" gradientTransform="matrix(-1 0 0 1 516.8929 0)">
									<stop  offset="0" style="stop-color:#5761D7"/>
									<stop  offset="0.1779" style="stop-color:#5C66D9"/>
									<stop  offset="0.3876" style="stop-color:#6A73DF"/>
									<stop  offset="0.6134" style="stop-color:#8289E8"/>
									<stop  offset="0.849" style="stop-color:#A3A7F5"/>
									<stop  offset="1" style="stop-color:#BCBEFF"/>
								</linearGradient>
								<path style="fill:url(#SVGID_7_);" d="M276.464,86.121l6.206,3.183l62.233-35.283c1.041-0.59,2.86-0.516,4.062,0.165
									l107.334,60.853c1.027-0.564,5.71-2.776,5.71-2.776l-2.272,5.813c0,0-0.008-0.006-0.009-0.007
									c-0.094,0.258-0.296,0.5-0.635,0.692l-65.544,37.16c-1.041,0.59-2.86,0.516-4.062-0.165L279.651,93.484
									c-0.494-0.28-0.796-0.619-0.921-0.962l-0.008,0.006L276.464,86.121z"/>
								
									<linearGradient id="SVGID_8_" gradientUnits="userSpaceOnUse" x1="117.2273" y1="98.8956" x2="302.8719" y2="98.8956" gradientTransform="matrix(-1 0 0 1 516.8929 0)">
									<stop  offset="0" style="stop-color:#C0BFF6"/>
									<stop  offset="0.2938" style="stop-color:#C5C4F7"/>
									<stop  offset="0.6399" style="stop-color:#D3D2F9"/>
									<stop  offset="1" style="stop-color:#E9E9FD"/>
								</linearGradient>
								<path style="fill:url(#SVGID_8_);" d="M277.423,87.123l112.568,63.82c1.232,0.699,3.096,0.774,4.163,0.17l67.174-38.084
									c1.067-0.605,0.933-1.662-0.299-2.36l-112.568-63.82c-1.232-0.699-3.096-0.774-4.163-0.169l-67.174,38.084
									C276.057,85.368,276.191,86.424,277.423,87.123z"/>
								<path style="fill:#FFFFFF;" d="M277.423,86.486l112.568,63.82c1.232,0.699,3.096,0.775,4.163,0.17l67.174-38.084
									c0.349-0.198,0.557-0.447,0.652-0.713c0.169,0.497-0.034,0.999-0.652,1.35l-67.174,38.084
									c-1.067,0.605-2.931,0.529-4.163-0.17l-112.568-63.82c-0.829-0.47-1.148-1.1-0.951-1.647
									C276.594,85.835,276.906,86.192,277.423,86.486z"/>
								<path style="fill:#2842A2;" d="M423.945,137.138v-1.212c0-0.115-0.071-0.168-0.159-0.118l-4.354,2.469
									c-0.088,0.05-0.159,0.183-0.159,0.298v1.212c0,0.115,0.071,0.168,0.159,0.118l4.354-2.468
									C423.874,137.386,423.945,137.253,423.945,137.138z"/>
								<path style="fill:#2842A2;" d="M417.434,140.829v-1.212c0-0.115-0.071-0.168-0.159-0.118l-4.354,2.468
									c-0.088,0.05-0.159,0.183-0.159,0.298v1.212c0,0.115,0.071,0.168,0.159,0.118l4.354-2.468
									C417.363,141.077,417.434,140.944,417.434,140.829z"/>
								<g>
									<path style="fill:#ADB1F2;" d="M423.456,121.686l-93.544-53.034c-0.624-0.354-1.392-0.353-2.015,0.001l-33.311,18.925
										c-0.478,0.272-0.478,0.95,0.001,1.221l93.501,53.01c0.623,0.353,1.39,0.353,2.013,0l33.356-18.901
										C423.935,122.636,423.935,121.958,423.456,121.686z"/>
									<path style="fill:#9198DB;" d="M423.456,122.908l-0.335,0.19l-93.209-52.845c-0.624-0.354-1.392-0.353-2.015,0.001
										l-32.976,18.735l-0.335-0.19c-0.478-0.271-0.479-0.95-0.001-1.221l33.311-18.925c0.623-0.354,1.392-0.354,2.015-0.001
										l93.544,53.034C423.935,121.958,423.935,122.636,423.456,122.908z"/>
									<g>
										<polygon style="fill:#24126A;" points="325.383,73.446 411.549,122.297 415.821,120.622 328.996,71.397 										"/>
										<polygon style="fill:#24126A;" points="316.525,78.467 392.741,121.677 396.354,119.629 320.138,76.419 										"/>
										<polygon style="fill:#24126A;" points="310.756,81.738 400.492,132.613 404.105,130.565 314.369,79.69 										"/>
										<polygon style="fill:#24126A;" points="304.987,85.009 394.722,135.884 398.335,133.836 308.6,82.961 										"/>
										<polygon style="fill:#24126A;" points="299.218,88.28 388.953,139.155 392.566,137.106 302.831,86.231 										"/>
										<polygon style="fill:#24126A;" points="411.549,122.297 415.162,124.345 418.775,122.297 415.162,120.249 										"/>
										<polygon style="fill:#24126A;" points="388.358,119.193 406.304,129.367 409.917,127.319 391.841,117.07 										"/>
									</g>
								</g>
								<g>
									
										<linearGradient id="SVGID_11_" gradientUnits="userSpaceOnUse" x1="105.1822" y1="84.8679" x2="152.702" y2="84.8679" gradientTransform="matrix(-1 0 0 1 516.8929 0)">
										<stop  offset="0" style="stop-color:#C0BFF6"/>
										<stop  offset="0.2938" style="stop-color:#C5C4F7"/>
										<stop  offset="0.6399" style="stop-color:#D3D2F9"/>
										<stop  offset="1" style="stop-color:#E9E9FD"/>
									</linearGradient>
									<path style="fill:url(#SVGID_11_);" d="M390.153,97.919l-25.223-14.3c-0.986-0.559-0.986-1.465,0-2.024l17.248-9.779
										c0.986-0.559,2.584-0.559,3.57,0l25.223,14.3c0.986,0.559,0.986,1.465,0,2.024l-17.248,9.779
										C392.737,98.478,391.139,98.478,390.153,97.919z"/>
									<path style="fill:#9198DB;" d="M410.971,86.945l-25.223-14.3c-0.986-0.559-2.584-0.559-3.57,0l-17.248,9.779
										c-0.304,0.173-0.503,0.38-0.62,0.598c-0.261-0.489-0.062-1.04,0.62-1.426l17.248-9.779c0.986-0.559,2.584-0.559,3.57,0
										l25.223,14.3c0.682,0.386,0.88,0.937,0.62,1.426C411.474,87.324,411.276,87.117,410.971,86.945z"/>
								</g>
							</g>
						</g>
					</g>
				</g>
			</g>
			<g>
				
					<linearGradient id="SVGID_12_" gradientUnits="userSpaceOnUse" x1="108.8978" y1="76.4588" x2="240.2737" y2="76.4588" gradientTransform="matrix(-1 0 0 1 516.8929 0)">
					<stop  offset="0" style="stop-color:#C0BFF6"/>
					<stop  offset="0.2938" style="stop-color:#C5C4F7"/>
					<stop  offset="0.6399" style="stop-color:#D3D2F9"/>
					<stop  offset="1" style="stop-color:#E9E9FD"/>
				</linearGradient>
				<path style="fill:url(#SVGID_12_);" d="M276.643,84.482l14.23-82.902l-1.144-0.473l1.719-0.968l-0.003,0.01
					c0.334-0.218,0.805-0.205,1.325,0.09l113.725,64.476c0.934,0.529,1.641,1.887,1.477,2.837l-14.343,83.561
					c-0.075,0.435-0.294,0.724-0.599,0.851l0.002,0.001l-1.682,0.954l-0.289-1.542l0.096,0.029L278.12,87.319
					C277.186,86.789,276.479,85.431,276.643,84.482z"/>
				
					<linearGradient id="SVGID_13_" gradientUnits="userSpaceOnUse" x1="108.8987" y1="109.5436" x2="131.4572" y2="109.5436" gradientTransform="matrix(-1 0 0 1 516.8929 0)">
					<stop  offset="0" style="stop-color:#5761D7"/>
					<stop  offset="0.1779" style="stop-color:#5C66D9"/>
					<stop  offset="0.3876" style="stop-color:#6A73DF"/>
					<stop  offset="0.6134" style="stop-color:#8289E8"/>
					<stop  offset="0.849" style="stop-color:#A3A7F5"/>
					<stop  offset="1" style="stop-color:#BCBEFF"/>
				</linearGradient>
				<path style="fill:url(#SVGID_13_);" d="M405.861,66.982l1.87-0.812c0.21,0.47,0.313,0.965,0.241,1.382l-14.343,83.561
					c-0.075,0.435-0.294,0.724-0.599,0.851l0.002,0.001l-1.682,0.954l-0.289-1.542l0.096,0.029l-5.72-3.243L405.861,66.982z"/>
				<path style="fill:#453C9E;" d="M276.335,88.324L390.06,152.8c0.878,0.498,1.63,0.21,1.784-0.682l14.343-83.561
					c0.164-0.949-0.543-2.307-1.477-2.837L290.986,1.244c-0.878-0.498-1.63-0.21-1.784,0.682l-14.343,83.561
					C274.695,86.437,275.402,87.795,276.335,88.324z"/>
			</g>
		</g>
		<g>
			<polygon style="fill:#BCBEFF;" points="231.026,186.707 125.134,126.672 231.023,66.638 336.915,126.673 			"/>
			<polygon style="fill:#453C9E;" points="231.025,170.314 154.048,126.672 231.023,83.031 308.001,126.673 			"/>
			<polygon style="fill:#FFFFFF;" points="231.023,85.987 305.395,128.151 308.001,126.673 231.023,83.031 154.048,126.672 
				156.654,128.15 			"/>
			<linearGradient id="SVGID_14_" gradientUnits="userSpaceOnUse" x1="283.9705" y1="199.7258" x2="283.9705" y2="128.6684">
				<stop  offset="0" style="stop-color:#C0BFF6"/>
				<stop  offset="0.2938" style="stop-color:#C5C4F7"/>
				<stop  offset="0.6399" style="stop-color:#D3D2F9"/>
				<stop  offset="1" style="stop-color:#E9E9FD"/>
			</linearGradient>
			<polygon style="fill:url(#SVGID_14_);" points="336.915,126.673 336.915,160.703 231.026,220.736 231.026,186.707 			"/>
			<polygon style="fill:#24126A;" points="125.134,126.672 125.134,160.701 231.026,220.736 231.026,186.707 			"/>
			<g style="opacity:0.51;">
				<polygon style="fill:#453C9E;" points="132.307,141.961 132.307,152.677 223.853,204.578 223.853,193.862 				"/>
			</g>
			<polygon style="fill:#FFFFFF;" points="231.026,184.756 126.854,125.696 125.134,126.672 231.026,186.707 336.915,126.673 
				335.194,125.698 			"/>
			<polygon style="fill:#453C9E;" points="321.032,150.52 321.032,156.611 246.909,198.634 246.909,192.543 			"/>
			<polygon style="opacity:0.51;fill:#453C9E;" points="125.134,126.672 125.134,160.701 231.026,220.736 231.026,186.707 			"/>
			<polygon style="fill:#42E8E0;" points="200.114,184.899 180.939,174.026 180.936,176.272 200.112,187.144 			"/>
			<polygon style="fill:#42E8E0;" points="178.174,172.482 172.979,169.536 172.976,171.782 178.172,174.728 			"/>
			<polygon style="fill:#42E8E0;" points="153.835,158.687 143.206,152.66 143.203,154.905 153.833,160.932 			"/>
			<polygon style="fill:#42E8E0;" points="163.536,164.187 155.849,159.828 155.846,162.074 163.534,166.432 			"/>
			<polygon style="fill:#42E8E0;" points="170.744,168.274 165.549,165.328 165.547,167.574 170.742,170.52 			"/>
			<g>
				<g>
					<polygon style="fill:#42E8E0;" points="231.133,98.016 227.771,96.109 231.133,94.203 234.496,96.109 					"/>
					<polygon style="opacity:0.1;fill:#42E8E0;" points="237.858,101.828 234.496,99.922 237.858,98.016 241.221,99.922 					"/>
					<polygon style="opacity:0.4;fill:#42E8E0;" points="244.583,105.641 241.221,103.735 244.583,101.828 247.946,103.735 					"/>
					<polygon style="fill:#42E8E0;" points="251.308,109.454 247.946,107.547 251.308,105.641 254.671,107.547 					"/>
					<polygon style="opacity:0.4;fill:#42E8E0;" points="258.033,113.266 254.671,111.36 258.033,109.454 261.396,111.36 					"/>
					<polygon style="fill:#42E8E0;" points="264.758,117.079 261.396,115.173 264.758,113.266 268.121,115.173 					"/>
					<polygon style="fill:#42E8E0;" points="271.483,120.892 268.121,118.985 271.483,117.079 274.846,118.985 					"/>
					<polygon style="fill:#42E8E0;" points="278.208,124.704 274.846,122.798 278.208,120.892 281.571,122.798 					"/>
					<polygon style="opacity:0.1;fill:#42E8E0;" points="284.933,128.517 281.571,126.611 284.933,124.704 288.295,126.611 					"/>
				</g>
				<g>
					<polygon style="fill:#42E8E0;" points="224.381,101.844 221.019,99.937 224.381,98.031 227.743,99.937 					"/>
					<polygon style="fill:#42E8E0;" points="231.106,105.656 227.744,103.75 231.106,101.844 234.468,103.75 					"/>
					<polygon style="fill:#42E8E0;" points="237.831,109.469 234.469,107.563 237.831,105.657 241.193,107.563 					"/>
					<polygon style="fill:#42E8E0;" points="244.556,113.282 241.194,111.375 244.556,109.469 247.918,111.375 					"/>
					<polygon style="fill:#42E8E0;" points="251.281,117.094 247.918,115.188 251.281,113.282 254.643,115.188 					"/>
					<polygon style="fill:#42E8E0;" points="258.006,120.907 254.643,119.001 258.006,117.094 261.368,119.001 					"/>
					<polygon style="fill:#42E8E0;" points="264.731,124.72 261.368,122.813 264.731,120.907 268.093,122.814 					"/>
					<polygon style="fill:#42E8E0;" points="271.456,128.533 268.093,126.626 271.456,124.72 274.818,126.626 					"/>
					<polygon style="fill:#42E8E0;" points="278.181,132.345 274.818,130.439 278.181,128.533 281.543,130.439 					"/>
				</g>
				<g>
					<polygon style="fill:#42E8E0;" points="217.629,105.672 214.266,103.765 217.629,101.859 220.991,103.766 					"/>
					<polygon style="fill:#42E8E0;" points="224.354,109.484 220.991,107.578 224.354,105.672 227.716,107.578 					"/>
					<polygon style="fill:#42E8E0;" points="231.079,113.297 227.716,111.391 231.079,109.484 234.441,111.391 					"/>
					<polygon style="opacity:0.1;fill:#42E8E0;" points="237.804,117.11 234.441,115.204 237.804,113.297 241.166,115.204 					"/>
					<polygon style="opacity:0.4;fill:#42E8E0;" points="244.529,120.923 241.166,119.016 244.529,117.11 247.891,119.016 					"/>
					<polygon style="opacity:0.4;fill:#42E8E0;" points="251.254,124.735 247.891,122.829 251.254,120.923 254.616,122.829 					"/>
					<polygon style="fill:#42E8E0;" points="257.979,128.548 254.616,126.642 257.979,124.735 261.341,126.642 					"/>
					<polygon style="fill:#42E8E0;" points="264.704,132.361 261.341,130.454 264.704,128.548 268.066,130.454 					"/>
					<polygon style="fill:#42E8E0;" points="271.429,136.173 268.066,134.267 271.429,132.361 274.791,134.267 					"/>
				</g>
				<g>
					<polygon style="opacity:0.4;fill:#42E8E0;" points="210.877,109.5 207.514,107.594 210.877,105.687 214.239,107.594 					"/>
					<polygon style="opacity:0.4;fill:#42E8E0;" points="217.602,113.313 214.239,111.406 217.602,109.5 220.964,111.406 					"/>
					<polygon style="opacity:0.1;fill:#42E8E0;" points="224.327,117.125 220.964,115.219 224.327,113.313 227.689,115.219 					"/>
					<polygon style="fill:#42E8E0;" points="231.052,120.938 227.689,119.032 231.052,117.125 234.414,119.032 					"/>
					<polygon style="fill:#42E8E0;" points="237.777,124.751 234.414,122.844 237.776,120.938 241.139,122.844 					"/>
					<polygon style="fill:#42E8E0;" points="244.502,128.563 241.139,126.657 244.501,124.751 247.864,126.657 					"/>
					<polygon style="opacity:0.4;fill:#42E8E0;" points="251.227,132.376 247.864,130.47 251.227,128.563 254.589,130.47 					"/>
					<polygon style="fill:#42E8E0;" points="257.951,136.189 254.589,134.282 257.951,132.376 261.314,134.283 					"/>
					<polygon style="fill:#42E8E0;" points="264.676,140.001 261.314,138.095 264.676,136.189 268.039,138.095 					"/>
				</g>
				<g>
					<polygon style="fill:#42E8E0;" points="204.125,113.328 200.762,111.422 204.124,109.515 207.487,111.422 					"/>
					<polygon style="fill:#42E8E0;" points="210.85,117.141 207.487,115.234 210.849,113.328 214.212,115.234 					"/>
					<polygon style="fill:#42E8E0;" points="217.574,120.953 214.212,119.047 217.574,117.141 220.937,119.047 					"/>
					<polygon style="fill:#42E8E0;" points="224.299,124.766 220.937,122.86 224.299,120.953 227.662,122.86 					"/>
					<polygon style="fill:#42E8E0;" points="231.024,128.579 227.662,126.672 231.024,124.766 234.387,126.672 					"/>
					<polygon style="fill:#42E8E0;" points="237.749,132.391 234.387,130.485 237.749,128.579 241.112,130.485 					"/>
					<polygon style="fill:#42E8E0;" points="244.474,136.204 241.112,134.298 244.474,132.392 247.837,134.298 					"/>
					<polygon style="fill:#42E8E0;" points="251.199,140.017 247.837,138.11 251.199,136.204 254.562,138.111 					"/>
					<polygon style="fill:#42E8E0;" points="257.924,143.83 254.562,141.923 257.924,140.017 261.287,141.923 					"/>
				</g>
				<g>
					<polygon style="fill:#42E8E0;" points="197.372,117.156 194.01,115.25 197.372,113.344 200.735,115.25 					"/>
					<polygon style="fill:#42E8E0;" points="204.097,120.969 200.735,119.062 204.097,117.156 207.46,119.063 					"/>
					<polygon style="opacity:0.4;fill:#42E8E0;" points="210.822,124.782 207.46,122.875 210.822,120.969 214.185,122.875 					"/>
					<polygon style="fill:#42E8E0;" points="217.547,128.594 214.185,126.688 217.547,124.782 220.91,126.688 					"/>
					<polygon style="opacity:0.1;fill:#42E8E0;" points="224.272,132.407 220.91,130.501 224.272,128.594 227.635,130.501 					"/>
					<polygon style="fill:#42E8E0;" points="230.997,136.22 227.635,134.313 230.997,132.407 234.36,134.313 					"/>
					<polygon style="fill:#42E8E0;" points="237.722,140.032 234.36,138.126 237.722,136.22 241.085,138.126 					"/>
					<polygon style="fill:#42E8E0;" points="244.447,143.845 241.085,141.939 244.447,140.032 247.809,141.939 					"/>
					<polygon style="fill:#42E8E0;" points="251.172,147.658 247.81,145.751 251.172,143.845 254.534,145.751 					"/>
				</g>
				<g>
					<polygon style="fill:#42E8E0;" points="190.62,120.984 187.258,119.078 190.62,117.172 193.983,119.078 					"/>
					<polygon style="fill:#42E8E0;" points="197.345,124.797 193.983,122.891 197.345,120.984 200.708,122.891 					"/>
					<polygon style="opacity:0.4;fill:#42E8E0;" points="204.07,128.61 200.708,126.703 204.07,124.797 207.432,126.703 					"/>
					<polygon style="fill:#42E8E0;" points="210.795,132.422 207.433,130.516 210.795,128.61 214.157,130.516 					"/>
					<polygon style="fill:#42E8E0;" points="217.52,136.235 214.158,134.329 217.52,132.422 220.882,134.329 					"/>
					<polygon style="opacity:0.1;fill:#42E8E0;" points="224.245,140.048 220.883,138.141 224.245,136.235 227.607,138.141 					"/>
					<polygon style="opacity:0.4;fill:#42E8E0;" points="230.97,143.86 227.607,141.954 230.97,140.048 234.332,141.954 					"/>
					<polygon style="fill:#42E8E0;" points="237.695,147.673 234.332,145.767 237.695,143.86 241.057,145.767 					"/>
					<polygon style="opacity:0.1;fill:#42E8E0;" points="244.42,151.486 241.057,149.579 244.42,147.673 247.782,149.58 					"/>
				</g>
				<g>
					<polygon style="fill:#42E8E0;" points="183.868,124.812 180.506,122.906 183.868,121 187.23,122.906 					"/>
					<polygon style="opacity:0.4;fill:#42E8E0;" points="190.593,128.625 187.23,126.719 190.593,124.812 193.955,126.719 					"/>
					<polygon style="fill:#42E8E0;" points="197.318,132.438 193.955,130.531 197.318,128.625 200.68,130.532 					"/>
					<polygon style="fill:#42E8E0;" points="204.043,136.25 200.68,134.344 204.043,132.438 207.405,134.344 					"/>
					<polygon style="fill:#42E8E0;" points="210.768,140.063 207.405,138.157 210.768,136.25 214.13,138.157 					"/>
					<polygon style="fill:#42E8E0;" points="217.493,143.876 214.13,141.97 217.493,140.063 220.855,141.97 					"/>
					<polygon style="fill:#42E8E0;" points="224.218,147.688 220.855,145.782 224.218,143.876 227.58,145.782 					"/>
					<polygon style="opacity:0.4;fill:#42E8E0;" points="230.943,151.501 227.58,149.595 230.943,147.689 234.305,149.595 					"/>
					<polygon style="fill:#42E8E0;" points="237.668,155.314 234.305,153.408 237.668,151.501 241.03,153.408 					"/>
				</g>
				<g>
					<polygon style="fill:#42E8E0;" points="177.116,128.64 173.753,126.734 177.116,124.828 180.478,126.734 					"/>
					<polygon style="opacity:0.1;fill:#42E8E0;" points="183.841,132.453 180.478,130.547 183.841,128.641 187.203,130.547 					"/>
					<polygon style="fill:#42E8E0;" points="190.566,136.266 187.203,134.36 190.566,132.453 193.928,134.36 					"/>
					<polygon style="fill:#42E8E0;" points="197.291,140.079 193.928,138.172 197.291,136.266 200.653,138.172 					"/>
					<polygon style="fill:#42E8E0;" points="204.016,143.891 200.653,141.985 204.016,140.079 207.378,141.985 					"/>
					<polygon style="fill:#42E8E0;" points="210.741,147.704 207.378,145.798 210.741,143.891 214.103,145.798 					"/>
					<polygon style="opacity:0.4;fill:#42E8E0;" points="217.466,151.517 214.103,149.61 217.465,147.704 220.828,149.61 					"/>
					<polygon style="fill:#42E8E0;" points="224.191,155.329 220.828,153.423 224.19,151.517 227.553,153.423 					"/>
					<polygon style="fill:#42E8E0;" points="230.916,159.142 227.553,157.236 230.915,155.329 234.278,157.236 					"/>
				</g>
			</g>
		</g>
		<g>
			<polygon style="fill:#BCBEFF;" points="231.026,127.787 125.134,67.752 231.023,7.718 336.915,67.753 			"/>
			<polygon style="fill:#453C9E;" points="231.025,111.394 154.048,67.752 231.023,24.111 308.001,67.753 			"/>
			<polygon style="fill:#FFFFFF;" points="231.023,27.066 305.395,69.231 308.001,67.753 231.023,24.111 154.048,67.752 
				156.654,69.23 			"/>
			<linearGradient id="SVGID_15_" gradientUnits="userSpaceOnUse" x1="283.9705" y1="140.8057" x2="283.9705" y2="69.7484">
				<stop  offset="0" style="stop-color:#C0BFF6"/>
				<stop  offset="0.2938" style="stop-color:#C5C4F7"/>
				<stop  offset="0.6399" style="stop-color:#D3D2F9"/>
				<stop  offset="1" style="stop-color:#E9E9FD"/>
			</linearGradient>
			<polygon style="fill:url(#SVGID_15_);" points="336.915,67.753 336.915,101.783 231.026,161.816 231.026,127.787 			"/>
			<polygon style="fill:#24126A;" points="125.134,67.752 125.134,101.781 231.026,161.816 231.026,127.787 			"/>
			<g style="opacity:0.51;">
				<polygon style="fill:#453C9E;" points="132.307,83.041 132.307,93.757 223.853,145.659 223.853,134.942 				"/>
			</g>
			<polygon style="fill:#FFFFFF;" points="231.026,125.836 126.854,66.776 125.134,67.752 231.026,127.787 336.915,67.753 
				335.194,66.778 			"/>
			<polygon style="fill:#453C9E;" points="321.032,91.599 321.032,97.691 246.909,139.714 246.909,133.623 			"/>
			<polygon style="opacity:0.51;fill:#453C9E;" points="125.134,67.752 125.134,101.781 231.026,161.816 231.026,127.787 			"/>
			<polygon style="fill:#42E8E0;" points="200.114,125.979 180.939,115.106 180.936,117.352 200.112,128.224 			"/>
			<polygon style="fill:#42E8E0;" points="178.174,113.562 172.979,110.616 172.976,112.862 178.172,115.808 			"/>
			<polygon style="fill:#42E8E0;" points="153.835,99.767 143.206,93.74 143.203,95.985 153.833,102.012 			"/>
			<polygon style="fill:#42E8E0;" points="163.536,105.267 155.849,100.908 155.846,103.154 163.534,107.512 			"/>
			<polygon style="fill:#42E8E0;" points="170.744,109.354 165.549,106.408 165.547,108.654 170.742,111.6 			"/>
			<g>
				<g>
					<polygon style="fill:#42E8E0;" points="231.133,39.096 227.771,37.189 231.133,35.283 234.496,37.189 					"/>
					<polygon style="opacity:0.1;fill:#42E8E0;" points="237.858,42.908 234.496,41.002 237.858,39.096 241.221,41.002 					"/>
					<polygon style="opacity:0.4;fill:#42E8E0;" points="244.583,46.721 241.221,44.815 244.583,42.908 247.946,44.815 					"/>
					<polygon style="fill:#42E8E0;" points="251.308,50.534 247.946,48.627 251.308,46.721 254.671,48.627 					"/>
					<polygon style="opacity:0.4;fill:#42E8E0;" points="258.033,54.346 254.671,52.44 258.033,50.534 261.396,52.44 					"/>
					<polygon style="fill:#42E8E0;" points="264.758,58.159 261.396,56.253 264.758,54.346 268.121,56.253 					"/>
					<polygon style="fill:#42E8E0;" points="271.483,61.972 268.121,60.065 271.483,58.159 274.846,60.065 					"/>
					<polygon style="fill:#42E8E0;" points="278.208,65.784 274.846,63.878 278.208,61.972 281.571,63.878 					"/>
					<polygon style="opacity:0.1;fill:#42E8E0;" points="284.933,69.597 281.571,67.691 284.933,65.784 288.295,67.691 					"/>
				</g>
				<g>
					<polygon style="fill:#42E8E0;" points="224.381,42.924 221.019,41.017 224.381,39.111 227.743,41.017 					"/>
					<polygon style="fill:#42E8E0;" points="231.106,46.736 227.744,44.83 231.106,42.924 234.468,44.83 					"/>
					<polygon style="fill:#42E8E0;" points="237.831,50.549 234.469,48.643 237.831,46.736 241.193,48.643 					"/>
					<polygon style="fill:#42E8E0;" points="244.556,54.362 241.194,52.455 244.556,50.549 247.918,52.455 					"/>
					<polygon style="fill:#42E8E0;" points="251.281,58.174 247.918,56.268 251.281,54.362 254.643,56.268 					"/>
					<polygon style="fill:#42E8E0;" points="258.006,61.987 254.643,60.081 258.006,58.174 261.368,60.081 					"/>
					<polygon style="fill:#42E8E0;" points="264.731,65.8 261.368,63.893 264.731,61.987 268.093,63.893 					"/>
					<polygon style="fill:#42E8E0;" points="271.456,69.612 268.093,67.706 271.456,65.8 274.818,67.706 					"/>
					<polygon style="fill:#42E8E0;" points="278.181,73.425 274.818,71.519 278.181,69.613 281.543,71.519 					"/>
				</g>
				<g>
					<polygon style="fill:#42E8E0;" points="217.629,46.752 214.266,44.845 217.629,42.939 220.991,44.845 					"/>
					<polygon style="fill:#42E8E0;" points="224.354,50.565 220.991,48.658 224.354,46.752 227.716,48.658 					"/>
					<polygon style="fill:#42E8E0;" points="231.079,54.377 227.716,52.471 231.079,50.565 234.441,52.471 					"/>
					<polygon style="opacity:0.1;fill:#42E8E0;" points="237.804,58.19 234.441,56.283 237.804,54.377 241.166,56.284 					"/>
					<polygon style="opacity:0.4;fill:#42E8E0;" points="244.529,62.003 241.166,60.096 244.529,58.19 247.891,60.096 					"/>
					<polygon style="opacity:0.4;fill:#42E8E0;" points="251.254,65.815 247.891,63.909 251.254,62.003 254.616,63.909 					"/>
					<polygon style="fill:#42E8E0;" points="257.979,69.628 254.616,67.722 257.979,65.815 261.341,67.722 					"/>
					<polygon style="fill:#42E8E0;" points="264.704,73.441 261.341,71.534 264.704,69.628 268.066,71.534 					"/>
					<polygon style="fill:#42E8E0;" points="271.429,77.253 268.066,75.347 271.429,73.441 274.791,75.347 					"/>
				</g>
				<g>
					<polygon style="opacity:0.4;fill:#42E8E0;" points="210.877,50.58 207.514,48.674 210.877,46.767 214.239,48.674 					"/>
					<polygon style="opacity:0.4;fill:#42E8E0;" points="217.602,54.393 214.239,52.486 217.602,50.58 220.964,52.486 					"/>
					<polygon style="opacity:0.1;fill:#42E8E0;" points="224.327,58.205 220.964,56.299 224.327,54.393 227.689,56.299 					"/>
					<polygon style="fill:#42E8E0;" points="231.052,62.018 227.689,60.112 231.052,58.205 234.414,60.112 					"/>
					<polygon style="fill:#42E8E0;" points="237.777,65.831 234.414,63.924 237.776,62.018 241.139,63.924 					"/>
					<polygon style="fill:#42E8E0;" points="244.502,69.643 241.139,67.737 244.501,65.831 247.864,67.737 					"/>
					<polygon style="opacity:0.4;fill:#42E8E0;" points="251.227,73.456 247.864,71.55 251.227,69.643 254.589,71.55 					"/>
					<polygon style="fill:#42E8E0;" points="257.951,77.269 254.589,75.362 257.951,73.456 261.314,75.362 					"/>
					<polygon style="fill:#42E8E0;" points="264.676,81.081 261.314,79.175 264.676,77.269 268.039,79.175 					"/>
				</g>
				<g>
					<polygon style="fill:#42E8E0;" points="204.125,54.408 200.762,52.502 204.124,50.595 207.487,52.502 					"/>
					<polygon style="fill:#42E8E0;" points="210.85,58.221 207.487,56.314 210.849,54.408 214.212,56.314 					"/>
					<polygon style="fill:#42E8E0;" points="217.574,62.033 214.212,60.127 217.574,58.221 220.937,60.127 					"/>
					<polygon style="fill:#42E8E0;" points="224.299,65.846 220.937,63.94 224.299,62.033 227.662,63.94 					"/>
					<polygon style="fill:#42E8E0;" points="231.024,69.659 227.662,67.752 231.024,65.846 234.387,67.753 					"/>
					<polygon style="fill:#42E8E0;" points="237.749,73.471 234.387,71.565 237.749,69.659 241.112,71.565 					"/>
					<polygon style="fill:#42E8E0;" points="244.474,77.284 241.112,75.378 244.474,73.471 247.837,75.378 					"/>
					<polygon style="fill:#42E8E0;" points="251.199,81.097 247.837,79.191 251.199,77.284 254.562,79.191 					"/>
					<polygon style="fill:#42E8E0;" points="257.924,84.909 254.562,83.003 257.924,81.097 261.287,83.003 					"/>
				</g>
				<g>
					<polygon style="fill:#42E8E0;" points="197.372,58.236 194.01,56.33 197.372,54.423 200.735,56.33 					"/>
					<polygon style="fill:#42E8E0;" points="204.097,62.049 200.735,60.143 204.097,58.236 207.46,60.143 					"/>
					<polygon style="opacity:0.4;fill:#42E8E0;" points="210.822,65.861 207.46,63.955 210.822,62.049 214.185,63.955 					"/>
					<polygon style="fill:#42E8E0;" points="217.547,69.674 214.185,67.768 217.547,65.862 220.91,67.768 					"/>
					<polygon style="opacity:0.1;fill:#42E8E0;" points="224.272,73.487 220.91,71.581 224.272,69.674 227.635,71.581 					"/>
					<polygon style="fill:#42E8E0;" points="230.997,77.3 227.635,75.393 230.997,73.487 234.36,75.393 					"/>
					<polygon style="fill:#42E8E0;" points="237.722,81.112 234.36,79.206 237.722,77.3 241.085,79.206 					"/>
					<polygon style="fill:#42E8E0;" points="244.447,84.925 241.085,83.019 244.447,81.112 247.809,83.019 					"/>
					<polygon style="fill:#42E8E0;" points="251.172,88.738 247.81,86.831 251.172,84.925 254.534,86.831 					"/>
				</g>
				<g>
					<polygon style="fill:#42E8E0;" points="190.62,62.064 187.258,60.158 190.62,58.252 193.983,60.158 					"/>
					<polygon style="fill:#42E8E0;" points="197.345,65.877 193.983,63.971 197.345,62.064 200.708,63.971 					"/>
					<polygon style="opacity:0.4;fill:#42E8E0;" points="204.07,69.69 200.708,67.783 204.07,65.877 207.432,67.783 					"/>
					<polygon style="fill:#42E8E0;" points="210.795,73.502 207.433,71.596 210.795,69.69 214.157,71.596 					"/>
					<polygon style="fill:#42E8E0;" points="217.52,77.315 214.158,75.409 217.52,73.502 220.882,75.409 					"/>
					<polygon style="opacity:0.1;fill:#42E8E0;" points="224.245,81.128 220.883,79.221 224.245,77.315 227.607,79.221 					"/>
					<polygon style="opacity:0.4;fill:#42E8E0;" points="230.97,84.94 227.607,83.034 230.97,81.128 234.332,83.034 					"/>
					<polygon style="fill:#42E8E0;" points="237.695,88.753 234.332,86.847 237.695,84.94 241.057,86.847 					"/>
					<polygon style="opacity:0.1;fill:#42E8E0;" points="244.42,92.566 241.057,90.659 244.42,88.753 247.782,90.659 					"/>
				</g>
				<g>
					<polygon style="fill:#42E8E0;" points="183.868,65.892 180.506,63.986 183.868,62.08 187.23,63.986 					"/>
					<polygon style="opacity:0.4;fill:#42E8E0;" points="190.593,69.705 187.23,67.799 190.593,65.892 193.955,67.799 					"/>
					<polygon style="fill:#42E8E0;" points="197.318,73.518 193.955,71.611 197.318,69.705 200.68,71.611 					"/>
					<polygon style="fill:#42E8E0;" points="204.043,77.33 200.68,75.424 204.043,73.518 207.405,75.424 					"/>
					<polygon style="fill:#42E8E0;" points="210.768,81.143 207.405,79.237 210.768,77.331 214.13,79.237 					"/>
					<polygon style="fill:#42E8E0;" points="217.493,84.956 214.13,83.049 217.493,81.143 220.855,83.05 					"/>
					<polygon style="fill:#42E8E0;" points="224.218,88.769 220.855,86.862 224.218,84.956 227.58,86.862 					"/>
					<polygon style="opacity:0.4;fill:#42E8E0;" points="230.943,92.581 227.58,90.675 230.943,88.769 234.305,90.675 					"/>
					<polygon style="fill:#42E8E0;" points="237.668,96.394 234.305,94.488 237.668,92.581 241.03,94.488 					"/>
				</g>
				<g>
					<polygon style="fill:#42E8E0;" points="177.116,69.721 173.753,67.814 177.116,65.908 180.478,67.814 					"/>
					<polygon style="opacity:0.1;fill:#42E8E0;" points="183.841,73.533 180.478,71.627 183.841,69.721 187.203,71.627 					"/>
					<polygon style="fill:#42E8E0;" points="190.566,77.346 187.203,75.44 190.566,73.533 193.928,75.44 					"/>
					<polygon style="fill:#42E8E0;" points="197.291,81.159 193.928,79.252 197.291,77.346 200.653,79.252 					"/>
					<polygon style="fill:#42E8E0;" points="204.016,84.971 200.653,83.065 204.016,81.159 207.378,83.065 					"/>
					<polygon style="fill:#42E8E0;" points="210.741,88.784 207.378,86.878 210.741,84.971 214.103,86.878 					"/>
					<polygon style="opacity:0.4;fill:#42E8E0;" points="217.466,92.597 214.103,90.69 217.465,88.784 220.828,90.69 					"/>
					<polygon style="fill:#42E8E0;" points="224.191,96.409 220.828,94.503 224.19,92.597 227.553,94.503 					"/>
					<polygon style="fill:#42E8E0;" points="230.916,100.222 227.553,98.316 230.915,96.409 234.278,98.316 					"/>
				</g>
			</g>
		</g>
		<g id="s-f-laptops">
			<g id="l-laptop">
				<g>
					<path style="fill:#42E8E0;" d="M345.013,310.946c-1.835,0-3.639-0.473-5.22-1.367l-60.169-34.116
						c-0.944-0.533-1.507-1.492-1.507-2.562c0-1.069,0.563-2.026,1.507-2.562l108.869-61.723c0.183-0.1,0.409-0.102,0.592,0
						l0.504,0.285l64.59,36.619c0.943,0.536,1.506,1.493,1.506,2.563c0,1.069-0.563,2.026-1.506,2.561l-103.946,58.935
						C348.653,310.473,346.847,310.946,345.013,310.946z M388.791,209.794l-108.573,61.555c-0.572,0.324-0.913,0.905-0.913,1.552
						c0,0.649,0.341,1.229,0.913,1.552l60.169,34.116c2.8,1.585,6.454,1.584,9.254-0.001l103.946-58.934
						c0.571-0.323,0.912-0.904,0.912-1.551c0-0.649-0.341-1.229-0.912-1.553L388.791,209.794z"/>
				</g>
				<g>
					<g>
						<g>
							<g>
								<g>
									
										<linearGradient id="SVGID_16_" gradientUnits="userSpaceOnUse" x1="2533.9395" y1="176.6045" x2="2667.6382" y2="176.6045" gradientTransform="matrix(1 0 0 1 -2278.6904 0)">
										<stop  offset="0" style="stop-color:#C0BFF6"/>
										<stop  offset="0.2938" style="stop-color:#C5C4F7"/>
										<stop  offset="0.6399" style="stop-color:#D3D2F9"/>
										<stop  offset="1" style="stop-color:#E9E9FD"/>
									</linearGradient>
									<path style="fill:url(#SVGID_16_);" d="M388.923,184.77l-14.481-84.367l1.164-0.482l-1.75-0.985l0.003,0.01
										c-0.339-0.222-0.819-0.208-1.348,0.091l-115.736,65.616c-0.95,0.539-1.67,1.921-1.503,2.887l14.597,85.038
										c0.077,0.443,0.299,0.737,0.61,0.866l-0.002,0.001l1.712,0.971l0.294-1.57l-0.098,0.029l115.035-65.218
										C388.371,187.118,389.091,185.736,388.923,184.77z"/>
									
										<linearGradient id="SVGID_17_" gradientUnits="userSpaceOnUse" x1="2533.9404" y1="210.2742" x2="2556.8977" y2="210.2742" gradientTransform="matrix(1 0 0 1 -2278.6904 0)">
										<stop  offset="0" style="stop-color:#5761D7"/>
										<stop  offset="0.1779" style="stop-color:#5C66D9"/>
										<stop  offset="0.3876" style="stop-color:#6A73DF"/>
										<stop  offset="0.6134" style="stop-color:#8289E8"/>
										<stop  offset="0.849" style="stop-color:#A3A7F5"/>
										<stop  offset="1" style="stop-color:#BCBEFF"/>
									</linearGradient>
									<path style="fill:url(#SVGID_17_);" d="M257.421,166.96l-1.903-0.827c-0.213,0.478-0.318,0.982-0.245,1.406l14.596,85.038
										c0.077,0.443,0.299,0.737,0.61,0.866l-0.002,0.001l1.712,0.971l0.294-1.57l-0.098,0.029l5.821-3.3L257.421,166.96z"/>
									<path style="fill:#24126A;" d="M389.237,188.679l-115.735,65.616c-0.894,0.507-1.659,0.214-1.816-0.695l-14.597-85.038
										c-0.167-0.966,0.552-2.348,1.503-2.887l115.735-65.616c0.894-0.507,1.659-0.214,1.816,0.694l14.597,85.038
										C390.906,186.759,390.187,188.141,389.237,188.679z"/>
									<g style="opacity:0.51;">
										<polygon style="fill:#453C9E;" points="372.814,105.488 261.254,168.736 275.089,248.825 386.574,185.619 										"/>
									</g>
								</g>
								<g>
									
										<linearGradient id="SVGID_18_" gradientUnits="userSpaceOnUse" x1="2551.8521" y1="248.1229" x2="2740.6785" y2="248.1229" gradientTransform="matrix(1 0 0 1 -2278.6904 0)">
										<stop  offset="0" style="stop-color:#5761D7"/>
										<stop  offset="0.1779" style="stop-color:#5C66D9"/>
										<stop  offset="0.3876" style="stop-color:#6A73DF"/>
										<stop  offset="0.6134" style="stop-color:#8289E8"/>
										<stop  offset="0.849" style="stop-color:#A3A7F5"/>
										<stop  offset="1" style="stop-color:#BCBEFF"/>
									</linearGradient>
									<path style="fill:url(#SVGID_18_);" d="M461.988,228.94l-6.316,3.239l-63.333-35.907c-1.06-0.601-2.911-0.525-4.134,0.168
										l-109.232,61.929c-1.045-0.574-5.811-2.825-5.811-2.825l2.312,5.915c0,0,0.008-0.006,0.009-0.007
										c0.096,0.263,0.301,0.508,0.646,0.704l66.703,37.817c1.06,0.601,2.91,0.526,4.134-0.168l111.779-63.372
										c0.503-0.285,0.81-0.63,0.938-0.979l0.009,0.006L461.988,228.94z"/>
									
										<linearGradient id="SVGID_19_" gradientUnits="userSpaceOnUse" x1="2615.2983" y1="241.9402" x2="2804.2253" y2="241.9402" gradientTransform="matrix(1 0 0 1 -2278.6904 0)">
										<stop  offset="0" style="stop-color:#C0BFF6"/>
										<stop  offset="0.2938" style="stop-color:#C5C4F7"/>
										<stop  offset="0.6399" style="stop-color:#D3D2F9"/>
										<stop  offset="1" style="stop-color:#E9E9FD"/>
									</linearGradient>
									<path style="fill:url(#SVGID_19_);" d="M461.011,229.959l-114.558,64.948c-1.254,0.711-3.151,0.788-4.237,0.172
										l-68.361-38.757c-1.086-0.616-0.95-1.691,0.304-2.402l114.558-64.948c1.254-0.711,3.151-0.788,4.237-0.172l68.361,38.757
										C462.402,228.173,462.265,229.248,461.011,229.959z"/>
									<path style="fill:#FFFFFF;" d="M461.011,229.311l-114.558,64.948c-1.254,0.711-3.151,0.788-4.237,0.173l-68.361-38.757
										c-0.355-0.202-0.567-0.455-0.664-0.726c-0.172,0.506,0.034,1.017,0.664,1.374l68.361,38.757
										c1.086,0.616,2.983,0.538,4.237-0.172l114.558-64.948c0.844-0.478,1.168-1.119,0.968-1.676
										C461.855,228.649,461.538,229.012,461.011,229.311z"/>
									<path style="fill:#2842A2;" d="M311.899,280.858v-1.234c0-0.117,0.072-0.171,0.162-0.12l4.431,2.512
										c0.089,0.051,0.162,0.186,0.162,0.303v1.234c0,0.117-0.072,0.171-0.162,0.12l-4.431-2.512
										C311.971,281.111,311.899,280.975,311.899,280.858z"/>
									<path style="fill:#2842A2;" d="M318.525,284.615v-1.234c0-0.117,0.072-0.171,0.162-0.12l4.431,2.512
										c0.089,0.051,0.162,0.187,0.162,0.303v1.234c0,0.117-0.072,0.171-0.162,0.12l-4.431-2.512
										C318.598,284.868,318.525,284.732,318.525,284.615z"/>
									<path style="fill:#ADB1F2;" d="M291.677,252.693l95.198-53.972c0.635-0.36,1.417-0.359,2.051,0.001l33.9,19.26
										c0.487,0.276,0.486,0.967-0.001,1.243l-95.154,53.947c-0.634,0.359-1.415,0.359-2.049,0l-33.946-19.235
										C291.19,253.66,291.19,252.969,291.677,252.693z"/>
									<path style="fill:#9198DB;" d="M291.677,253.936l0.341,0.193l94.857-53.779c0.635-0.36,1.417-0.359,2.051,0.001
										l33.559,19.066l0.341-0.193c0.487-0.276,0.487-0.966,0.001-1.243l-33.9-19.26c-0.634-0.36-1.416-0.361-2.051-0.001
										l-95.198,53.972C291.19,252.969,291.19,253.66,291.677,253.936z"/>
									<g>
										<polygon style="fill:#24126A;" points="391.485,203.6 308.792,250.482 305.115,248.397 387.808,201.515 										"/>
										<polygon style="fill:#24126A;" points="400.499,208.71 322.936,252.684 319.259,250.6 396.822,206.626 										"/>
										<polygon style="fill:#24126A;" points="406.37,212.039 315.048,263.813 311.371,261.729 402.693,209.954 										"/>
										<polygon style="fill:#24126A;" points="412.241,215.368 320.919,267.142 317.242,265.057 408.564,213.283 										"/>
										<polygon style="fill:#24126A;" points="418.112,218.696 326.79,270.471 323.113,268.386 414.435,216.612 										"/>
										<polygon style="fill:#24126A;" points="303.795,253.315 300.119,255.399 296.442,253.315 300.118,251.23 										"/>
										<polygon style="fill:#24126A;" points="316.764,256.183 309.133,260.51 305.456,258.425 313.087,254.099 										"/>
									</g>
									
										<linearGradient id="SVGID_20_" gradientUnits="userSpaceOnUse" x1="2647.293" y1="252.472" x2="2695.6528" y2="252.472" gradientTransform="matrix(1 0 0 1 -2278.6904 0)">
										<stop  offset="0" style="stop-color:#C0BFF6"/>
										<stop  offset="0.2938" style="stop-color:#C5C4F7"/>
										<stop  offset="0.6399" style="stop-color:#D3D2F9"/>
										<stop  offset="1" style="stop-color:#E9E9FD"/>
									</linearGradient>
									<path style="fill:url(#SVGID_20_);" d="M390.541,265.754l25.669-14.553c1.003-0.569,1.003-1.491,0-2.06l-17.553-9.952
										c-1.003-0.569-2.63-0.569-3.633,0l-25.669,14.553c-1.003,0.569-1.003,1.491,0,2.06l17.553,9.952
										C387.911,266.323,389.538,266.323,390.541,265.754z"/>
									<path style="fill:#9198DB;" d="M369.355,254.586l25.669-14.553c1.003-0.569,2.63-0.569,3.633,0l17.553,9.952
										c0.31,0.175,0.512,0.386,0.631,0.608c0.265-0.498,0.063-1.058-0.631-1.451l-17.553-9.952c-1.003-0.569-2.63-0.569-3.633,0
										l-25.669,14.553c-0.694,0.393-0.896,0.954-0.631,1.451C368.843,254.972,369.045,254.761,369.355,254.586z"/>
								</g>
							</g>
							<g style="opacity:0.11;">
								<defs>
									<polygon id="SVGID_10_" style="opacity:0.11;" points="372.814,105.488 261.254,168.736 275.089,248.825 386.574,185.619 
																			"/>
								</defs>
								<clipPath id="SVGID_21_">
									<use xlink:href="#SVGID_10_"  style="overflow:visible;"/>
								</clipPath>
								<g style="clip-path:url(#SVGID_21_);">
									
										<linearGradient id="SVGID_22_" gradientUnits="userSpaceOnUse" x1="2543.1174" y1="200.8199" x2="2732.0444" y2="200.8199" gradientTransform="matrix(1 0 0 1 -2278.6904 0)">
										<stop  offset="0" style="stop-color:#C0BFF6"/>
										<stop  offset="0.2938" style="stop-color:#C5C4F7"/>
										<stop  offset="0.6399" style="stop-color:#D3D2F9"/>
										<stop  offset="1" style="stop-color:#E9E9FD"/>
									</linearGradient>
									<path style="fill:url(#SVGID_22_);" d="M388.831,188.839l-114.559,64.948c-1.254,0.711-3.151,0.788-4.237,0.173
										l-68.361-38.757c-1.086-0.616-0.95-1.691,0.304-2.402l114.559-64.948c1.254-0.711,3.151-0.788,4.237-0.172l68.361,38.757
										C390.221,187.053,390.084,188.128,388.831,188.839z"/>
									
										<linearGradient id="SVGID_23_" gradientUnits="userSpaceOnUse" x1="2530.6829" y1="187.2012" x2="2579.0427" y2="187.2012" gradientTransform="matrix(1 0 0 1 -2278.6904 0)">
										<stop  offset="0" style="stop-color:#C0BFF6"/>
										<stop  offset="0.2938" style="stop-color:#C5C4F7"/>
										<stop  offset="0.6399" style="stop-color:#D3D2F9"/>
										<stop  offset="1" style="stop-color:#E9E9FD"/>
									</linearGradient>
									<path style="fill:url(#SVGID_23_);" d="M273.931,200.483l25.669-14.553c1.003-0.569,1.003-1.491,0-2.06l-17.553-9.952
										c-1.003-0.569-2.63-0.569-3.633,0l-25.669,14.553c-1.003,0.569-1.003,1.491,0,2.06l17.553,9.952
										C271.301,201.052,272.928,201.052,273.931,200.483z"/>
									<path style="fill:#9198DB;" d="M252.745,189.315l25.669-14.553c1.003-0.569,2.63-0.569,3.633,0l17.553,9.952
										c0.31,0.176,0.512,0.386,0.631,0.608c0.265-0.498,0.063-1.058-0.631-1.451l-17.553-9.952c-1.003-0.569-2.63-0.569-3.633,0
										l-25.669,14.553c-0.694,0.393-0.896,0.954-0.631,1.451C252.233,189.701,252.435,189.49,252.745,189.315z"/>
									<g>
										<path style="fill:#ADB1F2;" d="M241.461,223.226l95.198-53.972c0.635-0.36,1.417-0.359,2.051,0.001l33.9,19.26
											c0.487,0.276,0.486,0.967-0.001,1.243l-95.154,53.947c-0.634,0.359-1.415,0.359-2.049,0l-33.946-19.235
											C240.974,224.193,240.973,223.502,241.461,223.226z"/>
										<path style="fill:#9198DB;" d="M241.461,224.469l0.341,0.193l94.857-53.779c0.635-0.36,1.417-0.359,2.051,0.001
											l33.559,19.066l0.341-0.193c0.487-0.276,0.487-0.966,0.001-1.243l-33.9-19.26c-0.634-0.36-1.416-0.361-2.051-0.001
											l-95.198,53.972C240.973,223.502,240.974,224.193,241.461,224.469z"/>
										<g>
											<polygon style="fill:#24126A;" points="363.738,187.201 280.804,234.22 284.089,236.083 367.023,189.064 											"/>
											<polygon style="fill:#24126A;" points="355,182.247 276.172,226.938 279.458,228.801 358.285,184.11 											"/>
											<polygon style="fill:#24126A;" points="270.286,230.275 262.924,234.449 266.209,236.312 273.571,232.138 											"/>
											<polygon style="fill:#24126A;" points="276.789,236.497 271.662,239.403 274.947,241.266 280.074,238.359 											"/>
											<polygon style="fill:#24126A;" points="349.525,179.143 257.449,231.345 260.734,233.207 352.81,181.005 											"/>
											<polygon style="fill:#24126A;" points="344.049,176.039 251.973,228.241 255.258,230.103 347.334,177.901 											"/>
											<polygon style="fill:#24126A;" points="338.574,172.934 246.498,225.136 249.783,226.999 341.859,174.797 											"/>
										</g>
									</g>
								</g>
							</g>
						</g>
					</g>
				</g>
				<g>
					<polygon style="fill:#42E8E0;" points="303.262,218.289 312.288,213.167 312.552,214.706 303.527,219.828 					"/>
					<polygon style="fill:#42E8E0;" points="313.739,212.349 318.657,209.558 318.922,211.097 314.004,213.888 					"/>
					<polygon style="fill:#42E8E0;" points="326.309,205.221 329.867,203.201 330.132,204.74 326.574,206.76 					"/>
					<polygon style="fill:#42E8E0;" points="323.714,206.694 324.93,206.004 325.195,207.543 323.979,208.233 					"/>
					<polygon style="fill:#42E8E0;" points="320.127,208.73 322.335,207.476 322.6,209.015 320.391,210.269 					"/>
					<polygon style="fill:#42E8E0;" points="310.403,206.518 313.961,204.499 314.226,206.038 310.668,208.057 					"/>
					<polygon style="fill:#42E8E0;" points="302.053,211.258 309.024,207.301 309.289,208.84 302.317,212.797 					"/>
					<g>
						<polygon style="fill:#42E8E0;" points="312.048,186.315 319.02,182.358 319.284,183.897 312.313,187.854 						"/>
						<polygon style="fill:#42E8E0;" points="308.461,188.351 310.669,187.098 310.934,188.636 308.726,189.89 						"/>
					</g>
					<polygon style="fill:#42E8E0;" points="313.211,193.356 320.183,189.399 320.448,190.938 313.476,194.895 					"/>
					<polygon style="fill:#42E8E0;" points="309.624,195.392 311.832,194.138 312.097,195.677 309.889,196.931 					"/>
					<polygon style="fill:#42E8E0;" points="306.902,155.93 293.768,163.384 293.503,161.845 306.637,154.391 					"/>
					<polygon style="fill:#42E8E0;" points="311.53,153.303 308.281,155.147 308.016,153.608 311.266,151.764 					"/>
					<polygon style="fill:#42E8E0;" points="334.61,151.808 321.476,159.261 321.211,157.723 334.345,150.269 					"/>
					<polygon style="fill:#42E8E0;" points="339.238,149.181 335.989,151.025 335.724,149.486 338.973,147.642 					"/>
					<polygon style="fill:#42E8E0;" points="297.931,164.88 294.373,166.899 294.108,165.36 297.666,163.341 					"/>
					<polygon style="fill:#42E8E0;" points="319.58,160.32 316.022,162.34 315.757,160.801 319.315,158.781 					"/>
					<polygon style="fill:#42E8E0;" points="306.282,160.141 299.31,164.097 299.045,162.558 306.017,158.602 					"/>
					<polygon style="fill:#42E8E0;" points="309.869,158.105 307.661,159.358 307.396,157.819 309.604,156.566 					"/>
					<polygon style="fill:#42E8E0;" points="318.284,153.337 311.312,157.294 311.047,155.755 318.019,151.798 					"/>
					<polygon style="fill:#42E8E0;" points="321.871,151.301 319.663,152.554 319.398,151.016 321.606,149.762 					"/>
					<polygon style="fill:#42E8E0;" points="318.975,156.803 315.417,158.822 315.152,157.283 318.71,155.264 					"/>
					<polygon style="fill:#42E8E0;" points="327.326,152.063 320.354,156.02 320.089,154.481 327.061,150.524 					"/>
					<polygon style="fill:#42E8E0;" points="330.913,150.028 328.705,151.281 328.44,149.742 330.648,148.489 					"/>
					<polygon style="fill:#42E8E0;" points="302.258,166.283 294.977,170.415 294.713,168.876 301.993,164.744 					"/>
					<polygon style="fill:#42E8E0;" points="308.902,162.512 303.637,165.5 303.372,163.961 308.637,160.973 					"/>
					<polygon style="fill:#42E8E0;" points="313.839,159.71 310.281,161.73 310.016,160.191 313.574,158.171 					"/>
					<polygon style="fill:#42E8E0;" points="348.348,144.026 341.067,148.158 340.803,146.619 348.083,142.487 					"/>
					<polygon style="fill:#42E8E0;" points="354.992,140.255 349.727,143.243 349.462,141.704 354.727,138.716 					"/>
					<polygon style="fill:#42E8E0;" points="359.929,137.453 356.371,139.473 356.106,137.934 359.664,135.914 					"/>
					<polygon style="fill:#42E8E0;" points="345.505,190.479 352.785,186.347 353.05,187.886 345.769,192.018 					"/>
					<polygon style="fill:#42E8E0;" points="338.861,194.25 344.126,191.262 344.39,192.801 339.125,195.789 					"/>
					<polygon style="fill:#42E8E0;" points="333.923,197.052 337.482,195.033 337.746,196.572 334.188,198.591 					"/>
					<polygon style="fill:#42E8E0;" points="343.088,195.724 350.368,191.592 350.633,193.131 343.353,197.263 					"/>
					<polygon style="fill:#42E8E0;" points="336.444,199.494 341.709,196.506 341.974,198.045 336.709,201.033 					"/>
					<polygon style="fill:#42E8E0;" points="331.507,202.297 335.065,200.277 335.33,201.816 331.771,203.836 					"/>
					<polygon style="fill:#42E8E0;" points="313.691,189.222 316.15,187.826 316.415,189.365 313.956,190.761 					"/>
					<polygon style="fill:#42E8E0;" points="309.063,191.849 312.312,190.005 312.577,191.544 309.327,193.388 					"/>
					<polygon style="fill:#42E8E0;" points="302.91,169.778 295.629,173.91 295.364,172.371 302.645,168.239 					"/>
					<polygon style="fill:#42E8E0;" points="309.553,166.007 304.288,168.995 304.024,167.456 309.289,164.468 					"/>
					<polygon style="fill:#42E8E0;" points="314.491,163.205 310.932,165.225 310.668,163.685 314.226,161.666 					"/>
					<polygon style="fill:#42E8E0;" points="298.693,176.03 296.234,177.425 295.969,175.886 298.428,174.491 					"/>
					<polygon style="fill:#42E8E0;" points="303.321,173.403 300.072,175.247 299.807,173.708 303.057,171.864 					"/>
					<polygon style="fill:#42E8E0;" points="309.936,169.648 304.7,172.62 304.436,171.081 309.672,168.11 					"/>
					<polygon style="fill:#42E8E0;" points="317.037,198.915 319.495,197.52 319.76,199.059 317.301,200.455 					"/>
					<polygon style="fill:#42E8E0;" points="312.408,201.543 315.657,199.698 315.922,201.237 312.673,203.082 					"/>
					<polygon style="fill:#42E8E0;" points="305.793,205.297 311.029,202.325 311.294,203.864 306.058,206.836 					"/>
					<polygon style="fill:#42E8E0;" points="320.782,193.208 326.018,190.236 326.283,191.775 321.047,194.747 					"/>
					<polygon style="fill:#42E8E0;" points="312.218,197.792 319.276,193.787 319.54,195.326 312.483,199.331 					"/>
					<polygon style="fill:#42E8E0;" points="308.631,199.828 310.839,198.575 311.104,200.114 308.896,201.367 					"/>
					<polygon style="fill:#42E8E0;" points="305.188,201.782 307.397,200.529 307.661,202.068 305.453,203.321 					"/>
					<g>
						<polygon style="fill:#42E8E0;" points="305.661,181.917 312.633,177.96 312.898,179.499 305.926,183.456 						"/>
						<polygon style="fill:#42E8E0;" points="302.074,183.952 304.282,182.699 304.547,184.238 302.339,185.491 						"/>
						<polygon style="fill:#42E8E0;" points="306.141,177.783 308.6,176.387 308.865,177.926 306.406,179.322 						"/>
						<polygon style="fill:#42E8E0;" points="314.823,180.599 317.281,179.204 317.546,180.743 315.087,182.138 						"/>
						<polygon style="fill:#42E8E0;" points="318.328,178.612 324.229,175.266 324.493,176.805 318.593,180.151 						"/>
						<polygon style="fill:#42E8E0;" points="325.275,174.674 328.785,172.683 329.05,174.222 325.54,176.213 						"/>
						<polygon style="fill:#42E8E0;" points="301.512,180.41 304.762,178.566 305.027,180.104 301.777,181.949 						"/>
						<g>
							<polygon style="fill:#42E8E0;" points="301.206,176.797 303.665,175.402 303.93,176.941 301.471,178.336 							"/>
							<polygon style="fill:#42E8E0;" points="296.578,179.425 299.827,177.58 300.092,179.119 296.842,180.964 							"/>
						</g>
						<polygon style="fill:#42E8E0;" points="311.254,182.622 313.463,181.369 313.727,182.908 311.519,184.161 						"/>
						<polygon style="fill:#42E8E0;" points="307.812,184.576 310.02,183.322 310.285,184.861 308.077,186.115 						"/>
					</g>
					<polygon style="fill:#42E8E0;" points="324.773,202.245 332.305,197.97 332.57,199.509 325.038,203.783 					"/>
					<polygon style="fill:#42E8E0;" points="316.337,207.033 323.394,203.027 323.659,204.566 316.602,208.571 					"/>
					<polygon style="fill:#42E8E0;" points="312.75,209.068 314.958,207.815 315.223,209.354 313.015,210.607 					"/>
					<polygon style="fill:#42E8E0;" points="309.307,211.022 311.515,209.769 311.78,211.308 309.572,212.561 					"/>
					<polygon style="fill:#42E8E0;" points="307.425,212.09 302.661,214.794 302.925,216.333 307.69,213.629 					"/>
				</g>
			</g>
			<g id="slaptop">
				<g style="display:none;">
					<path style="display:inline;fill:#42E8E0;" d="M117.035,310.946c-1.835,0-3.64-0.473-5.221-1.367l0,0L7.868,250.644
						c-0.942-0.533-1.505-1.49-1.505-2.561s0.563-2.029,1.505-2.563l65.095-36.904c0.183-0.102,0.409-0.1,0.592,0l108.87,61.722
						c0.943,0.537,1.506,1.496,1.506,2.563c0,1.07-0.563,2.028-1.506,2.562l-60.17,34.116
						C120.675,310.473,118.871,310.946,117.035,310.946z M112.408,308.568c2.8,1.586,6.455,1.586,9.253,0l60.171-34.114
						c0.571-0.323,0.912-0.904,0.912-1.552c0-0.647-0.341-1.228-0.913-1.554L73.258,209.794L8.462,246.531
						c-0.57,0.323-0.911,0.904-0.911,1.552c0,0.647,0.341,1.228,0.911,1.551l103.946,58.935V308.568z"/>
				</g>
				<g id="sbody">
					<g>
						<g>
							<g>
								<g>
									
										<linearGradient id="SVGID_24_" gradientUnits="userSpaceOnUse" x1="-154.9447" y1="176.6045" x2="-21.246" y2="176.6045" gradientTransform="matrix(-1 0 0 1 51.855 0)">
										<stop  offset="0" style="stop-color:#C0BFF6"/>
										<stop  offset="0.2938" style="stop-color:#C5C4F7"/>
										<stop  offset="0.6399" style="stop-color:#D3D2F9"/>
										<stop  offset="1" style="stop-color:#E9E9FD"/>
									</linearGradient>
									<path style="fill:url(#SVGID_24_);" d="M73.125,184.77l14.481-84.367l-1.164-0.482l1.75-0.985l-0.003,0.01
										c0.339-0.222,0.82-0.208,1.348,0.091l115.735,65.616c0.95,0.539,1.67,1.921,1.503,2.887l-14.597,85.038
										c-0.077,0.443-0.299,0.737-0.61,0.866l0.002,0.001l-1.712,0.971l-0.294-1.57l0.098,0.029L74.628,187.657
										C73.678,187.118,72.958,185.736,73.125,184.77z"/>
									
										<linearGradient id="SVGID_25_" gradientUnits="userSpaceOnUse" x1="-154.9439" y1="210.2742" x2="-131.9865" y2="210.2742" gradientTransform="matrix(-1 0 0 1 51.855 0)">
										<stop  offset="0" style="stop-color:#5761D7"/>
										<stop  offset="0.1779" style="stop-color:#5C66D9"/>
										<stop  offset="0.3876" style="stop-color:#6A73DF"/>
										<stop  offset="0.6134" style="stop-color:#8289E8"/>
										<stop  offset="0.849" style="stop-color:#A3A7F5"/>
										<stop  offset="1" style="stop-color:#BCBEFF"/>
									</linearGradient>
									<path style="fill:url(#SVGID_25_);" d="M204.628,166.96l1.903-0.827c0.213,0.478,0.318,0.982,0.245,1.406l-14.597,85.038
										c-0.077,0.443-0.299,0.737-0.61,0.866l0.002,0.001l-1.712,0.971l-0.294-1.57l0.098,0.029l-5.821-3.3L204.628,166.96z"/>
									<path style="fill:#24126A;" d="M72.812,188.679l115.736,65.616c0.894,0.507,1.659,0.214,1.816-0.695l14.596-85.038
										c0.167-0.966-0.552-2.348-1.503-2.887L87.722,100.06c-0.894-0.507-1.659-0.214-1.816,0.694l-14.597,85.038
										C71.142,186.759,71.862,188.141,72.812,188.679z"/>
									<g style="opacity:0.51;">
										<polygon style="fill:#453C9E;" points="89.234,105.488 200.794,168.736 186.96,248.825 75.475,185.619 										"/>
									</g>
								</g>
								<g>
									
										<linearGradient id="SVGID_26_" gradientUnits="userSpaceOnUse" x1="-137.0322" y1="248.1229" x2="51.7941" y2="248.1229" gradientTransform="matrix(-1 0 0 1 51.855 0)">
										<stop  offset="0" style="stop-color:#5761D7"/>
										<stop  offset="0.1779" style="stop-color:#5C66D9"/>
										<stop  offset="0.3876" style="stop-color:#6A73DF"/>
										<stop  offset="0.6134" style="stop-color:#8289E8"/>
										<stop  offset="0.849" style="stop-color:#A3A7F5"/>
										<stop  offset="1" style="stop-color:#BCBEFF"/>
									</linearGradient>
									<path style="fill:url(#SVGID_26_);" d="M0.061,228.94l6.316,3.239l63.333-35.907c1.06-0.601,2.91-0.525,4.134,0.168
										l109.232,61.929c1.045-0.574,5.811-2.825,5.811-2.825l-2.312,5.915c0,0-0.008-0.006-0.009-0.007
										c-0.096,0.263-0.301,0.508-0.646,0.704l-66.703,37.817c-1.06,0.601-2.91,0.526-4.134-0.168L3.304,236.433
										c-0.503-0.285-0.81-0.63-0.938-0.979l-0.009,0.006L0.061,228.94z"/>
									
										<linearGradient id="SVGID_27_" gradientUnits="userSpaceOnUse" x1="-73.5859" y1="241.9402" x2="115.341" y2="241.9402" gradientTransform="matrix(-1 0 0 1 51.855 0)">
										<stop  offset="0" style="stop-color:#C0BFF6"/>
										<stop  offset="0.2938" style="stop-color:#C5C4F7"/>
										<stop  offset="0.6399" style="stop-color:#D3D2F9"/>
										<stop  offset="1" style="stop-color:#E9E9FD"/>
									</linearGradient>
									<path style="fill:url(#SVGID_27_);" d="M1.037,229.959l114.558,64.948c1.254,0.711,3.151,0.788,4.237,0.172l68.361-38.757
										c1.086-0.616,0.95-1.691-0.304-2.402L73.331,188.973c-1.254-0.711-3.151-0.788-4.237-0.172L0.733,227.557
										C-0.353,228.173-0.217,229.248,1.037,229.959z"/>
									<path style="fill:#FFFFFF;" d="M1.037,229.311l114.558,64.948c1.254,0.711,3.151,0.788,4.237,0.173l68.361-38.757
										c0.355-0.202,0.567-0.455,0.664-0.726c0.172,0.506-0.034,1.017-0.664,1.374l-68.361,38.757
										c-1.086,0.616-2.983,0.538-4.237-0.172L1.037,229.959c-0.844-0.478-1.168-1.119-0.968-1.676
										C0.194,228.649,0.511,229.012,1.037,229.311z"/>
									<path style="fill:#2842A2;" d="M150.15,280.858v-1.234c0-0.117-0.072-0.171-0.162-0.12l-4.431,2.512
										c-0.089,0.051-0.162,0.186-0.162,0.303v1.234c0,0.117,0.072,0.171,0.162,0.12l4.431-2.512
										C150.077,281.111,150.15,280.975,150.15,280.858z"/>
									<path style="fill:#2842A2;" d="M143.524,284.615v-1.234c0-0.117-0.072-0.171-0.162-0.12l-4.431,2.512
										c-0.089,0.051-0.162,0.187-0.162,0.303v1.234c0,0.117,0.072,0.171,0.162,0.12l4.431-2.512
										C143.451,284.868,143.524,284.732,143.524,284.615z"/>
									<path style="fill:#ADB1F2;" d="M170.371,252.693l-95.198-53.972c-0.635-0.36-1.417-0.359-2.051,0.001l-33.9,19.26
										c-0.487,0.276-0.486,0.967,0.001,1.243l95.154,53.947c0.634,0.359,1.415,0.359,2.049,0l33.946-19.235
										C170.859,253.66,170.859,252.969,170.371,252.693z"/>
									<path style="fill:#9198DB;" d="M170.371,253.936l-0.341,0.193l-94.857-53.779c-0.635-0.36-1.417-0.359-2.051,0.001
										l-33.559,19.066l-0.341-0.193c-0.487-0.276-0.487-0.966-0.001-1.243l33.9-19.26c0.634-0.36,1.416-0.361,2.051-0.001
										l95.198,53.972C170.859,252.969,170.859,253.66,170.371,253.936z"/>
									<g>
										<polygon style="fill:#24126A;" points="78.527,208.114 159.108,253.799 162.589,251.604 82.22,206.039 										"/>
										<polygon style="fill:#24126A;" points="73.294,215.369 146.455,256.847 148.961,254.099 76.969,213.283 										"/>
										<polygon style="fill:#24126A;" points="55.679,212.039 147.001,263.813 150.677,261.729 59.355,209.954 										"/>
										<polygon style="fill:#24126A;" points="49.808,215.368 141.13,267.142 144.806,265.057 53.484,213.283 										"/>
										<polygon style="fill:#24126A;" points="43.937,218.696 135.258,270.471 138.935,268.386 47.613,216.612 										"/>
										<polygon style="fill:#24126A;" points="158.254,253.315 161.93,255.399 165.607,253.315 161.93,251.23 										"/>
										<polygon style="fill:#24126A;" points="145.285,256.183 152.916,260.51 156.593,258.425 148.961,254.099 										"/>
									</g>
									
										<linearGradient id="SVGID_28_" gradientUnits="userSpaceOnUse" x1="-41.5914" y1="252.472" x2="6.7686" y2="252.472" gradientTransform="matrix(-1 0 0 1 51.855 0)">
										<stop  offset="0" style="stop-color:#C0BFF6"/>
										<stop  offset="0.2938" style="stop-color:#C5C4F7"/>
										<stop  offset="0.6399" style="stop-color:#D3D2F9"/>
										<stop  offset="1" style="stop-color:#E9E9FD"/>
									</linearGradient>
									<path style="fill:url(#SVGID_28_);" d="M71.508,265.754l-25.669-14.553c-1.003-0.569-1.003-1.491,0-2.06l17.553-9.952
										c1.003-0.569,2.63-0.569,3.633,0l25.669,14.553c1.003,0.569,1.003,1.491,0,2.06l-17.553,9.952
										C74.138,266.323,72.511,266.323,71.508,265.754z"/>
									<path style="fill:#9198DB;" d="M92.694,254.586l-25.669-14.553c-1.003-0.569-2.63-0.569-3.633,0l-17.553,9.952
										c-0.31,0.175-0.512,0.386-0.63,0.608c-0.265-0.498-0.063-1.058,0.63-1.451l17.553-9.952c1.003-0.569,2.63-0.569,3.633,0
										l25.669,14.553c0.694,0.393,0.896,0.954,0.631,1.451C93.206,254.972,93.004,254.761,92.694,254.586z"/>
								</g>
							</g>
							<g style="opacity:0.11;">
								<defs>
									<polygon id="SVGID_9_" style="opacity:0.11;" points="89.234,105.488 200.794,168.736 186.96,248.825 75.475,185.619 
																			"/>
								</defs>
								<clipPath id="SVGID_29_">
									<use xlink:href="#SVGID_9_"  style="overflow:visible;"/>
								</clipPath>
								<g style="clip-path:url(#SVGID_29_);">
									
										<linearGradient id="SVGID_30_" gradientUnits="userSpaceOnUse" x1="-145.7669" y1="200.8199" x2="43.16" y2="200.8199" gradientTransform="matrix(-1 0 0 1 51.855 0)">
										<stop  offset="0" style="stop-color:#C0BFF6"/>
										<stop  offset="0.2938" style="stop-color:#C5C4F7"/>
										<stop  offset="0.6399" style="stop-color:#D3D2F9"/>
										<stop  offset="1" style="stop-color:#E9E9FD"/>
									</linearGradient>
									<path style="fill:url(#SVGID_30_);" d="M73.218,188.839l114.558,64.948c1.254,0.711,3.151,0.788,4.237,0.173l68.361-38.757
										c1.086-0.616,0.95-1.691-0.304-2.402l-114.558-64.948c-1.254-0.711-3.151-0.788-4.237-0.172l-68.361,38.757
										C71.828,187.053,71.964,188.128,73.218,188.839z"/>
									
										<linearGradient id="SVGID_31_" gradientUnits="userSpaceOnUse" x1="-158.2014" y1="187.2012" x2="-109.8414" y2="187.2012" gradientTransform="matrix(-1 0 0 1 51.855 0)">
										<stop  offset="0" style="stop-color:#C0BFF6"/>
										<stop  offset="0.2938" style="stop-color:#C5C4F7"/>
										<stop  offset="0.6399" style="stop-color:#D3D2F9"/>
										<stop  offset="1" style="stop-color:#E9E9FD"/>
									</linearGradient>
									<path style="fill:url(#SVGID_31_);" d="M188.118,200.483l-25.669-14.553c-1.003-0.569-1.003-1.491,0-2.06l17.553-9.952
										c1.003-0.569,2.63-0.569,3.633,0l25.669,14.553c1.003,0.569,1.003,1.491,0,2.06l-17.553,9.952
										C190.748,201.052,189.121,201.052,188.118,200.483z"/>
									<path style="fill:#9198DB;" d="M209.304,189.315l-25.669-14.553c-1.003-0.569-2.63-0.569-3.633,0l-17.553,9.952
										c-0.31,0.176-0.512,0.386-0.63,0.608c-0.265-0.498-0.063-1.058,0.63-1.451l17.553-9.952c1.003-0.569,2.63-0.569,3.633,0
										l25.669,14.553c0.694,0.393,0.896,0.954,0.631,1.451C209.816,189.701,209.614,189.49,209.304,189.315z"/>
									<g>
										<path style="fill:#ADB1F2;" d="M220.588,223.226l-95.198-53.972c-0.635-0.36-1.417-0.359-2.051,0.001l-33.9,19.26
											c-0.487,0.276-0.486,0.967,0.001,1.243l95.154,53.947c0.634,0.359,1.415,0.359,2.049,0l33.946-19.235
											C221.075,224.193,221.075,223.502,220.588,223.226z"/>
										<path style="fill:#9198DB;" d="M220.588,224.469l-0.341,0.193l-94.857-53.779c-0.635-0.36-1.417-0.359-2.051,0.001
											L89.78,189.951l-0.341-0.193c-0.487-0.276-0.487-0.966-0.001-1.243l33.9-19.26c0.634-0.36,1.416-0.361,2.051-0.001
											l95.198,53.972C221.075,223.502,221.075,224.193,220.588,224.469z"/>
										<g>
											<polygon style="fill:#24126A;" points="98.311,187.201 181.245,234.22 177.959,236.083 95.025,189.064 											"/>
											<polygon style="fill:#24126A;" points="107.049,182.247 185.876,226.938 182.591,228.801 103.764,184.11 											"/>
											<polygon style="fill:#24126A;" points="191.763,230.275 199.125,234.449 195.84,236.312 188.477,232.138 											"/>
											<polygon style="fill:#24126A;" points="185.26,236.497 190.387,239.403 187.101,241.266 181.975,238.359 											"/>
											<polygon style="fill:#24126A;" points="112.524,179.143 204.6,231.345 201.315,233.207 109.239,181.005 											"/>
											<polygon style="fill:#24126A;" points="118,176.039 210.076,228.241 206.79,230.103 114.714,177.901 											"/>
											<polygon style="fill:#24126A;" points="123.475,172.934 215.551,225.136 212.266,226.999 120.19,174.797 											"/>
										</g>
									</g>
								</g>
							</g>
						</g>
					</g>
				</g>
				<g id="stypes">
					<polygon style="fill:#42E8E0;" points="114.212,135.173 123.238,140.296 123.502,138.757 114.476,133.634 					"/>
					<polygon style="fill:#42E8E0;" points="124.689,141.114 129.607,143.905 129.872,142.366 124.954,139.575 					"/>
					<polygon style="fill:#42E8E0;" points="137.259,148.241 140.817,150.261 141.082,148.722 137.524,146.702 					"/>
					<polygon style="fill:#42E8E0;" points="134.664,146.769 135.88,147.459 136.145,145.92 134.929,145.23 					"/>
					<polygon style="fill:#42E8E0;" points="131.077,144.733 133.285,145.986 133.55,144.447 131.341,143.194 					"/>
					<polygon style="fill:#42E8E0;" points="121.353,146.944 124.911,148.964 125.176,147.425 121.618,145.405 					"/>
					<polygon style="fill:#42E8E0;" points="113.002,142.205 119.974,146.162 120.239,144.623 113.267,140.666 					"/>
					<g>
						<polygon style="fill:#42E8E0;" points="122.998,167.148 129.97,171.104 130.234,169.566 123.263,165.609 						"/>
						<polygon style="fill:#42E8E0;" points="119.411,165.112 121.619,166.365 121.884,164.826 119.676,163.573 						"/>
					</g>
					<polygon style="fill:#42E8E0;" points="124.161,160.107 131.133,164.063 131.398,162.525 124.426,158.568 					"/>
					<polygon style="fill:#42E8E0;" points="120.574,158.071 122.783,159.324 123.047,157.785 120.839,156.532 					"/>
					<polygon style="fill:#42E8E0;" points="117.852,197.532 104.718,190.079 104.453,191.617 117.587,199.071 					"/>
					<polygon style="fill:#42E8E0;" points="122.48,200.159 119.231,198.315 118.966,199.854 122.215,201.698 					"/>
					<polygon style="fill:#42E8E0;" points="145.56,201.655 132.426,194.201 132.161,195.74 145.295,203.194 					"/>
					<polygon style="fill:#42E8E0;" points="150.188,204.282 146.939,202.437 146.674,203.976 149.924,205.821 					"/>
					<polygon style="fill:#42E8E0;" points="108.881,188.583 105.323,186.563 105.058,188.102 108.616,190.121 					"/>
					<polygon style="fill:#42E8E0;" points="130.53,193.143 126.972,191.123 126.707,192.662 130.265,194.681 					"/>
					<polygon style="fill:#42E8E0;" points="117.232,193.322 110.26,189.365 109.995,190.904 116.967,194.861 					"/>
					<polygon style="fill:#42E8E0;" points="120.819,195.358 118.611,194.105 118.346,195.643 120.554,196.897 					"/>
					<polygon style="fill:#42E8E0;" points="129.233,200.125 122.262,196.169 121.997,197.707 128.969,201.664 					"/>
					<polygon style="fill:#42E8E0;" points="132.82,202.161 130.612,200.908 130.348,202.447 132.556,203.7 					"/>
					<polygon style="fill:#42E8E0;" points="129.925,196.66 126.367,194.64 126.102,196.179 129.66,198.199 					"/>
					<polygon style="fill:#42E8E0;" points="138.276,201.399 131.304,197.442 131.039,198.981 138.011,202.938 					"/>
					<polygon style="fill:#42E8E0;" points="141.863,203.435 139.654,202.182 139.39,203.721 141.598,204.974 					"/>
					<polygon id="stype-15-1" style="fill:#42E8E0;" points="113.208,187.18 105.927,183.047 105.663,184.586 112.943,188.719 					
						"/>
					<polygon id="stype-15-2" style="fill:#42E8E0;" points="119.852,190.95 114.587,187.962 114.322,189.501 119.587,192.489 					
						"/>
					<polygon id="stype-15-3" style="fill:#42E8E0;" points="124.789,193.752 121.231,191.733 120.966,193.272 124.524,195.291 
											"/>
					<polygon id="stype-14-7" style="fill:#42E8E0;" points="159.298,209.437 152.017,205.305 151.753,206.843 159.033,210.975 
											"/>
					<polygon id="stype-14-8" style="fill:#42E8E0;" points="165.942,213.207 160.677,210.219 160.412,211.758 165.677,214.746 
											"/>
					<polygon id="stype-14-9" style="fill:#42E8E0;" points="170.879,216.009 167.321,213.99 167.056,215.529 170.614,217.548 					
						"/>
					<polygon id="stype-2-8" style="fill:#42E8E0;" points="156.454,162.983 163.735,167.115 164,165.576 156.719,161.444 					"/>
					<polygon id="stype-2-7" style="fill:#42E8E0;" points="149.811,159.212 155.076,162.201 155.34,160.661 150.075,157.673 					
						"/>
					<polygon id="stype-2-6" style="fill:#42E8E0;" points="144.873,156.41 148.432,158.43 148.696,156.891 145.138,154.871 					
						"/>
					<polygon id="stype-1-8" style="fill:#42E8E0;" points="154.038,157.739 161.318,161.871 161.583,160.332 154.302,156.2 					
						"/>
					<polygon id="stype-1-7" style="fill:#42E8E0;" points="147.394,153.968 152.659,156.956 152.923,155.417 147.659,152.429 					
						"/>
					<polygon id="stype-1-6" style="fill:#42E8E0;" points="142.457,151.166 146.015,153.185 146.28,151.646 142.721,149.627 					
						"/>
					<polygon id="stype-7-2" style="fill:#42E8E0;" points="124.641,164.241 127.1,165.636 127.365,164.097 124.906,162.702 					
						"/>
					<polygon id="stype-7-1" style="fill:#42E8E0;" points="120.013,161.614 123.262,163.458 123.527,161.919 120.277,160.075 					
						"/>
					<polygon id="stype-14-1" style="fill:#42E8E0;" points="113.859,183.685 106.579,179.553 106.314,181.092 113.595,185.224 
											"/>
					<polygon id="stype-14-2" style="fill:#42E8E0;" points="120.503,187.455 115.238,184.467 114.974,186.006 120.239,188.994 
											"/>
					<polygon id="stype-14-3" style="fill:#42E8E0;" points="125.441,190.257 121.882,188.238 121.618,189.777 125.176,191.796 
											"/>
					<polygon id="stype-13-1" style="fill:#42E8E0;" points="109.643,177.433 107.184,176.037 106.919,177.576 109.378,178.972 
											"/>
					<polygon id="stype-13-2" style="fill:#42E8E0;" points="114.271,180.06 111.022,178.215 110.757,179.755 114.007,181.599 					
						"/>
					<polygon id="stype-13-3" style="fill:#42E8E0;" points="120.886,183.814 115.65,180.842 115.385,182.381 120.622,185.353 					
						"/>
					<polygon id="stype-4-3" style="fill:#42E8E0;" points="127.987,154.547 130.445,155.942 130.71,154.403 128.251,153.008 					
						"/>
					<polygon id="stype-4-2" style="fill:#42E8E0;" points="123.358,151.92 126.607,153.764 126.872,152.225 123.623,150.381 					
						"/>
					<polygon id="stype-5-5" style="fill:#42E8E0;" points="116.743,148.166 121.979,151.137 122.244,149.598 117.008,146.627 					
						"/>
					<polygon id="stype-5-4" style="fill:#42E8E0;" points="131.732,160.254 136.968,163.226 137.233,161.687 131.997,158.715 					
						"/>
					<polygon id="stype-5-3" style="fill:#42E8E0;" points="123.168,155.67 130.226,159.676 130.49,158.137 123.433,154.131 					
						"/>
					<polygon id="stype-5-2" style="fill:#42E8E0;" points="119.581,153.634 121.789,154.887 122.054,153.349 119.846,152.095 					
						"/>
					<polygon id="stype-5-1" style="fill:#42E8E0;" points="116.138,151.68 118.347,152.934 118.611,151.395 116.403,150.141 					
						"/>
					<g id="stype-p-2">
						<polygon id="stype-p-2-2-2" style="fill:#42E8E0;" points="116.611,171.546 123.583,175.503 123.848,173.964 116.876,170.007 
													"/>
						<polygon id="stype-p-2-2-1" style="fill:#42E8E0;" points="113.024,169.51 115.232,170.763 115.497,169.224 113.289,167.971 
													"/>
						<polygon id="stype-p-2-3-2" style="fill:#42E8E0;" points="117.091,175.68 119.55,177.075 119.815,175.536 117.356,174.141 
													"/>
						<polygon id="stype-p-2-1-3" style="fill:#42E8E0;" points="125.772,172.863 128.231,174.259 128.496,172.72 126.037,171.324 
													"/>
						<polygon id="stype-p-2-1-4" style="fill:#42E8E0;" points="129.278,174.85 135.179,178.197 135.443,176.658 129.543,173.311 
													"/>
						<polygon id="stype-p-2-1-5" style="fill:#42E8E0;" points="136.225,178.788 139.735,180.779 140,179.24 136.49,177.249 						
							"/>
						<polygon id="stype-p-2-3-1" style="fill:#42E8E0;" points="112.462,173.053 115.712,174.897 115.977,173.358 112.727,171.514 
													"/>
						<g id="stype-p-2-p4">
							<polygon id="stype-p-2-p4-1-2" style="fill:#42E8E0;" points="112.156,176.665 114.615,178.061 114.88,176.522 
								112.421,175.126 							"/>
							<polygon id="stype-p-2-p4-1-1" style="fill:#42E8E0;" points="107.527,174.038 110.777,175.882 111.042,174.343 
								107.792,172.499 							"/>
						</g>
						<polygon id="stype-p-2-1-2" style="fill:#42E8E0;" points="122.204,170.841 124.413,172.094 124.677,170.555 122.469,169.302 
													"/>
						<polygon id="stype-p-2-1-1" style="fill:#42E8E0;" points="118.762,168.887 120.97,170.14 121.235,168.601 119.026,167.348 
													"/>
					</g>
					<polygon id="stype2-5" style="fill:#42E8E0;" points="135.723,151.218 143.255,155.493 143.52,153.954 135.988,149.679 					
						"/>
					<polygon id="stype2-4" style="fill:#42E8E0;" points="127.287,146.43 134.344,150.435 134.609,148.896 127.551,144.891 					
						"/>
					<polygon id="stype2-3" style="fill:#42E8E0;" points="123.7,144.394 125.908,145.647 126.173,144.108 123.964,142.855 					"/>
					<polygon id="stype2-2" style="fill:#42E8E0;" points="120.257,142.44 122.465,143.694 122.73,142.155 120.522,140.901 					"/>
					<polygon id="stype2-1" style="fill:#42E8E0;" points="118.375,141.372 113.611,138.668 113.875,137.129 118.64,139.833 					
						"/>
				</g>
			</g>
		</g>
		<polygon id="slaptop-kp-1" style="fill:#24126A;" points="70.564,203.6 74.241,205.684 77.917,203.6 74.241,201.515 		"/>
		<polygon id="slaptop-kb-3" style="fill:#24126A;" points="61.55,208.71 69.181,213.037 72.858,210.952 65.227,206.626 		"/>
	</g>
</g>
</svg>
