<?xml version="1.0" encoding="utf-8"?>
<!-- Generator: Adobe Illustrator 17.0.0, SVG Export Plug-In . SVG Version: 6.00 Build 0)  -->
<!DOCTYPE svg PUBLIC "-//W3C//DTD SVG 1.1//EN" "http://www.w3.org/Graphics/SVG/1.1/DTD/svg11.dtd">
<svg version="1.1" id="Layer_1" xmlns="http://www.w3.org/2000/svg" xmlns:xlink="http://www.w3.org/1999/xlink" x="0px" y="0px"
	 width="540px" height="451px" viewBox="0 0 540 451" style="enable-background:new 0 0 540 451;" xml:space="preserve">
<g>
	<g>
		<g style="opacity:0.2;">
			<path style="opacity:0;" d="M270.682,354.226c2.73,0,5.21-0.6,7.168-1.729l43.53-24.772l43.53-24.772
				c2.613-1.51,4.113-3.898,4.113-6.551c0-2.91-1.806-5.621-4.955-7.438l-28.486-16.029c-2.471-1.424-5.563-2.211-8.705-2.211
				c-2.73,0-5.209,0.596-7.169,1.727l-43.528,24.772l-43.528,24.771c-2.614,1.51-4.114,3.898-4.114,6.553
				c0,2.908,1.807,5.621,4.952,7.436l28.491,16.029C264.449,353.439,267.539,354.226,270.682,354.226z"/>
			<path style="opacity:0.0909;" d="M363.297,289.577l-7.726-4.309c-0.315-0.182-14.812-8.091-15.085-7.934l-4.98-2.44
				c-2.246-1.294-5.548-1.726-8.405-1.726c-2.482,0-5.139,0.774-6.92,1.802l-34.854,19.853l-7.432,4.234l-42.286,24.087
				c-1.365,0.788-2.631,2.003-3.285,3.2c-0.519,0.948-0.835,1.97-0.865,3.05c-0.084,2.795,1.638,5.446,4.73,7.229l7.727,4.309
				c0.314,0.182,14.81,8.089,15.082,7.932l4.986,2.442c2.244,1.298,5.545,1.73,8.402,1.73c2.482,0,5.139-0.778,6.919-1.804
				l34.853-19.853l7.435-4.235l42.288-24.088c1.364-0.788,2.629-2.003,3.284-3.199c0.519-0.949,0.836-1.97,0.866-3.05
				C368.114,294.012,366.393,291.363,363.297,289.577z"/>
			<path style="opacity:0.1818;" d="M362.526,290.19l-7.517-4.154c-0.629-0.363-14.201-7.504-14.746-7.189l-4.832-1.994
				c-2.021-1.165-5.534-1.241-8.105-1.241c-2.234,0-5.068,0.953-6.672,1.878l-33.83,19.289l-7.213,4.113l-41.043,23.402
				c-1.229,0.71-2.629,1.98-3.242,3.045c-0.525,0.912-0.883,1.873-0.945,2.904c-0.161,2.681,1.469,5.27,4.507,7.023l7.519,4.154
				c0.629,0.364,14.198,7.502,14.743,7.187l4.837,1.996c2.02,1.168,5.531,1.245,8.102,1.245c2.234,0,5.069-0.956,6.671-1.88
				l33.829-19.289l7.216-4.114l41.045-23.403c1.228-0.709,2.628-1.98,3.24-3.043c0.525-0.912,0.884-1.873,0.946-2.904
				C367.197,294.532,365.567,291.945,362.526,290.19z"/>
			<path style="opacity:0.2727;" d="M361.755,290.803l-7.309-3.999c-0.944-0.545-13.589-6.916-14.408-6.444l-4.684-1.548
				c-1.797-1.035-5.52-0.757-7.805-0.757c-1.986,0-4.998,1.131-6.423,1.954l-32.806,18.725l-6.995,3.992l-39.801,22.718
				c-1.092,0.631-2.632,1.956-3.198,2.889c-0.532,0.877-0.933,1.775-1.025,2.757c-0.243,2.568,1.301,5.095,4.285,6.817l7.311,3.999
				c0.943,0.545,13.587,6.914,14.405,6.443l4.689,1.549c1.796,1.038,5.517,0.76,7.802,0.76c1.986,0,4.998-1.134,6.422-1.955
				l32.805-18.724l6.997-3.994l39.802-22.718c1.091-0.631,2.631-1.955,3.196-2.888c0.532-0.877,0.934-1.776,1.026-2.757
				C366.285,295.051,364.742,292.526,361.755,290.803z"/>
			<path style="opacity:0.3636;" d="M360.983,291.416l-7.101-3.845c-1.259-0.727-12.978-6.328-14.069-5.699l-4.535-1.102
				c-1.572-0.906-5.506-0.272-7.505-0.272c-1.738,0-4.927,1.31-6.174,2.03l-31.782,18.161l-6.776,3.872l-38.558,22.033
				c-0.956,0.552-2.64,1.929-3.154,2.734c-0.54,0.844-0.982,1.678-1.105,2.61c-0.324,2.456,1.132,4.919,4.063,6.611l7.103,3.844
				c1.258,0.727,12.975,6.327,14.066,5.698l4.54,1.103c1.571,0.909,5.503,0.275,7.502,0.275c1.738,0,4.928-1.312,6.174-2.031
				l31.781-18.16l6.778-3.873l38.559-22.034c0.955-0.552,2.638-1.928,3.153-2.732c0.54-0.844,0.983-1.678,1.107-2.611
				C365.373,295.571,363.917,293.108,360.983,291.416z"/>
			<path style="opacity:0.4545;" d="M360.212,292.029l-6.892-3.69c-1.573-0.908-12.366-5.741-13.73-4.954l-4.387-0.656
				c-1.348-0.777-5.491,0.213-7.206,0.213c-1.489,0-4.857,1.489-5.926,2.105l-30.758,17.597l-6.557,3.751l-37.316,21.348
				c-0.819,0.473-2.652,1.9-3.111,2.578c-0.548,0.812-1.032,1.581-1.186,2.464c-0.407,2.343,0.964,4.744,3.84,6.405l6.894,3.689
				c1.572,0.909,12.364,5.74,13.727,4.953l4.392,0.657c1.347,0.779,5.489-0.21,7.203-0.21c1.489,0,4.857-1.491,5.925-2.106
				l30.757-17.596l6.559-3.753l37.317-21.349c0.819-0.473,2.651-1.899,3.109-2.577c0.549-0.812,1.033-1.581,1.187-2.464
				C364.462,296.09,363.092,293.69,360.212,292.029z"/>
			<path style="opacity:0.5455;" d="M359.441,292.642l-6.684-3.535c-1.888-1.09-11.755-5.153-13.391-4.209l-4.239-0.21
				c-1.123-0.647-5.477,0.698-6.906,0.698c-1.241,0-4.786,1.667-5.677,2.181l-29.734,17.033l-6.338,3.631l-36.073,20.664
				c-0.683,0.394-2.67,1.867-3.067,2.422c-0.558,0.781-1.082,1.484-1.266,2.317c-0.49,2.23,0.795,4.569,3.618,6.199l6.686,3.534
				c1.887,1.091,11.752,5.153,13.388,4.209l4.244,0.21c1.122,0.649,5.475-0.695,6.903-0.695c1.241,0,4.787-1.669,5.677-2.182
				l29.733-17.032l6.34-3.632l36.074-20.664c0.682-0.394,2.669-1.866,3.065-2.421c0.559-0.781,1.083-1.484,1.267-2.318
				C363.551,296.61,362.266,294.272,359.441,292.642z"/>
			<path style="opacity:0.6364;" d="M358.669,293.255l-6.476-3.38c-2.202-1.271-11.143-4.565-13.052-3.464l-4.091,0.236
				c-0.898-0.518-5.463,1.182-6.606,1.182c-0.993,0-4.716,1.846-5.429,2.257l-28.71,16.469l-6.119,3.51l-34.831,19.979
				c-0.546,0.315-2.694,1.832-3.023,2.267c-0.569,0.752-1.133,1.386-1.346,2.171c-0.575,2.117,0.626,4.393,3.395,5.992l6.478,3.378
				c2.201,1.273,11.141,4.566,13.049,3.464l4.095-0.236c0.898,0.519,5.461-1.18,6.603-1.18c0.993,0,4.716-1.847,5.428-2.258
				l28.709-16.468l6.121-3.511l34.831-19.979c0.546-0.315,2.692-1.831,3.022-2.266c0.569-0.753,1.134-1.387,1.347-2.171
				C362.642,297.13,361.441,294.854,358.669,293.255z"/>
			<path style="opacity:0.7273;" d="M357.898,293.868l-6.267-3.225c-2.517-1.453-10.532-3.978-12.714-2.719l-3.942,0.682
				c-0.674-0.388-5.449,1.667-6.306,1.667c-0.745,0-4.646,2.024-5.18,2.333l-27.687,15.904l-5.901,3.39l-33.588,19.295
				c-0.41,0.237-2.79,1.748-2.979,2.111c-0.711,0.599-1.184,1.289-1.426,2.024c-0.66,2.003,0.458,4.218,3.173,5.786l6.269,3.223
				c2.516,1.455,10.529,3.978,12.71,2.72l3.947-0.682c0.673,0.389,5.447-1.665,6.304-1.665c0.745,0,4.645-2.025,5.179-2.333
				l27.685-15.904l5.903-3.391l33.589-19.295c0.409-0.236,2.789-1.747,2.978-2.11c0.712-0.599,1.185-1.289,1.427-2.024
				C361.733,297.65,360.616,295.436,357.898,293.868z"/>
			<path style="opacity:0.8182;" d="M357.127,294.481l-6.059-3.07c-2.832-1.635-9.92-3.39-12.375-1.974l-3.794,1.128
				c-0.449-0.259-5.435,2.152-6.006,2.152c-0.496,0-4.575,2.203-4.932,2.409l-26.663,15.34l-5.682,3.269l-32.346,18.61
				c-0.273,0.158-2.81,1.714-2.936,1.956c-0.736,0.55-1.235,1.191-1.506,1.877c-0.746,1.89,0.289,4.042,2.951,5.58l6.061,3.068
				c2.83,1.636,9.917,3.391,12.371,1.975l3.798-1.129c0.449,0.26,5.432-2.15,6.004-2.15c0.496,0,4.575-2.204,4.931-2.409
				l26.661-15.339l5.684-3.27l32.346-18.61c0.273-0.158,2.808-1.713,2.934-1.955c0.736-0.551,1.236-1.192,1.507-1.878
				C360.825,298.17,359.791,296.018,357.127,294.481z"/>
			<path style="opacity:0.9091;" d="M356.355,295.094l-5.851-2.915c-3.146-1.816-9.309-2.802-12.036-1.229l-3.646,1.574
				c-0.225-0.129-5.42,2.637-5.706,2.637c-0.248,0-4.505,2.382-4.683,2.484l-25.639,14.776l-5.463,3.148l-31.103,17.925
				c-0.137,0.079-2.829,1.679-2.892,1.8c-0.76,0.502-1.287,1.094-1.586,1.731c-0.834,1.775,0.12,3.867,2.728,5.374l5.853,2.913
				c3.145,1.818,9.306,2.804,12.032,1.231l3.65-1.575c0.224,0.13,5.418-2.635,5.704-2.635c0.248,0,4.504-2.382,4.682-2.484
				l25.637-14.775l5.465-3.149l31.103-17.925c0.136-0.079,2.827-1.678,2.89-1.799c0.761-0.502,1.288-1.094,1.588-1.731
				C359.919,298.691,358.965,296.6,356.355,295.094z"/>
			<path d="M280.516,346.285l37.953-21.913l37.953-21.913c3-1.732,2.625-4.754-0.838-6.752l-5.643-2.76
				c-3.461-1.998-8.697-2.215-11.697-0.484l-37.953,21.913l-37.953,21.913c-2.997,1.73-2.621,4.752,0.84,6.752l5.645,2.758
				C272.281,347.798,277.517,348.015,280.516,346.285z"/>
		</g>
		<g style="opacity:0.15;">
			
				<linearGradient id="SVGID_1_" gradientUnits="userSpaceOnUse" x1="6499.8936" y1="324.9527" x2="6535.2671" y2="386.2215" gradientTransform="matrix(-0.9889 0.026 0.0048 1.0111 6735.873 -164.0917)">
				<stop  offset="0.0556" style="stop-color:#200041"/>
				<stop  offset="0.1812" style="stop-color:#210243"/>
				<stop  offset="0.2432" style="stop-color:#25084B"/>
				<stop  offset="0.291" style="stop-color:#2C1358"/>
				<stop  offset="0.3131" style="stop-color:#311B61"/>
				<stop  offset="0.346" style="stop-color:#331E65"/>
				<stop  offset="0.3818" style="stop-color:#3A2573"/>
				<stop  offset="0.4191" style="stop-color:#453288"/>
				<stop  offset="0.4573" style="stop-color:#5545A7"/>
				<stop  offset="0.4959" style="stop-color:#695CCE"/>
				<stop  offset="0.5303" style="stop-color:#7E74F7"/>
				<stop  offset="0.5416" style="stop-color:#6F63DA"/>
				<stop  offset="0.5607" style="stop-color:#5949AF"/>
				<stop  offset="0.5792" style="stop-color:#48358D"/>
				<stop  offset="0.5967" style="stop-color:#3B2775"/>
				<stop  offset="0.6128" style="stop-color:#341E66"/>
				<stop  offset="0.6263" style="stop-color:#311B61"/>
				<stop  offset="0.6724" style="stop-color:#2A1155"/>
				<stop  offset="0.7491" style="stop-color:#230446"/>
				<stop  offset="0.8131" style="stop-color:#200041"/>
				<stop  offset="1" style="stop-color:#200041"/>
			</linearGradient>
			<path style="fill:url(#SVGID_1_);" d="M357.173,309.83c-0.026-5.408,4.316-6.717,1.674-8.592c-0.1-0.07-6.186-2.732-6.3-2.775
				c-2.843-1.037-5.877-1.453-9.55,0.82l-68.96,42.641c-7.78,4.813-14.045,17.332-13.995,27.967l6.208,2.199
				C266.278,377.738,357.173,309.83,357.173,309.83z"/>
			
				<radialGradient id="SVGID_2_" cx="6541.9531" cy="307.8759" r="26.1665" gradientTransform="matrix(-0.9889 0.026 0.0048 1.0111 6735.873 -164.0917)" gradientUnits="userSpaceOnUse">
				<stop  offset="0" style="stop-color:#AF8AFC"/>
				<stop  offset="1" style="stop-color:#10054D"/>
			</radialGradient>
			<path style="opacity:0.6;fill:url(#SVGID_2_);" d="M362.559,312.199c-0.053-10.633-6.398-15.358-14.177-10.545l-68.96,42.643
				c-7.781,4.809-14.047,17.33-13.995,27.963L362.559,312.199z"/>
			
				<linearGradient id="SVGID_3_" gradientUnits="userSpaceOnUse" x1="6533.1357" y1="338.7269" x2="6347.708" y2="280.6798" gradientTransform="matrix(-0.9889 0.026 0.0048 1.0111 6735.873 -164.0917)">
				<stop  offset="0.1869" style="stop-color:#3D065F"/>
				<stop  offset="0.9343" style="stop-color:#3D065F"/>
			</linearGradient>
			<path style="fill:url(#SVGID_3_);" d="M363.791,312.849c-0.05-10.635-6.398-15.359-14.178-10.549l-68.961,42.643
				c-7.781,4.809-14.042,17.33-13.994,27.965L363.791,312.849z"/>
			
				<linearGradient id="SVGID_4_" gradientUnits="userSpaceOnUse" x1="6515.1172" y1="375.0757" x2="6464.6616" y2="268.4623" gradientTransform="matrix(-0.9889 0.026 0.0048 1.0111 6735.873 -164.0917)">
				<stop  offset="0" style="stop-color:#311B61"/>
				<stop  offset="0.2031" style="stop-color:#290F52"/>
				<stop  offset="0.4949" style="stop-color:#200041"/>
				<stop  offset="1" style="stop-color:#0F001F"/>
			</linearGradient>
			<path style="fill:url(#SVGID_4_);" d="M361.87,313.92c-0.044-9.324-5.608-13.463-12.427-9.244l-68.598,42.414
				c-6.816,4.217-12.309,15.191-12.266,24.518L361.87,313.92z"/>
			
				<linearGradient id="SVGID_5_" gradientUnits="userSpaceOnUse" x1="6499.2642" y1="324.5596" x2="6492.2998" y2="336.295" gradientTransform="matrix(-0.9889 0.026 0.0048 1.0111 6735.873 -164.0917)">
				<stop  offset="0.1212" style="stop-color:#4916A1"/>
				<stop  offset="0.6689" style="stop-color:#452377"/>
				<stop  offset="1" style="stop-color:#432962"/>
			</linearGradient>
			<path style="opacity:0.8;fill:url(#SVGID_5_);" d="M359.127,316.095c-0.035-7.805-4.694-11.27-10.4-7.74l-67.133,41.51
				c-5.708,3.529-10.305,12.717-10.27,20.521L359.127,316.095z"/>
		</g>
		<g>
			
				<linearGradient id="SVGID_6_" gradientUnits="userSpaceOnUse" x1="5910.0127" y1="-43.8033" x2="6001.3589" y2="114.4132" gradientTransform="matrix(-1.0918 0.0229 0.3676 0.9082 6769.1025 9.1119)">
				<stop  offset="0.0556" style="stop-color:#200041"/>
				<stop  offset="0.2576" style="stop-color:#210243"/>
				<stop  offset="0.3572" style="stop-color:#25084B"/>
				<stop  offset="0.4341" style="stop-color:#2C1358"/>
				<stop  offset="0.4697" style="stop-color:#311B61"/>
				<stop  offset="0.482" style="stop-color:#351F65"/>
				<stop  offset="0.4954" style="stop-color:#422C73"/>
				<stop  offset="0.5093" style="stop-color:#584188"/>
				<stop  offset="0.5235" style="stop-color:#765FA7"/>
				<stop  offset="0.5303" style="stop-color:#8770B8"/>
				<stop  offset="0.5366" style="stop-color:#7E67AE"/>
				<stop  offset="0.5617" style="stop-color:#5C468D"/>
				<stop  offset="0.5857" style="stop-color:#442E75"/>
				<stop  offset="0.6078" style="stop-color:#362066"/>
				<stop  offset="0.6263" style="stop-color:#311B61"/>
				<stop  offset="0.6724" style="stop-color:#2A1155"/>
				<stop  offset="0.7491" style="stop-color:#230446"/>
				<stop  offset="0.8131" style="stop-color:#200041"/>
				<stop  offset="1" style="stop-color:#200041"/>
			</linearGradient>
			<path style="fill:url(#SVGID_6_);" d="M278.009,341.121l61.51-38.271c6.939-4.316,9.429-15.561,5.561-25.113l-68.47-169.139
				c-1.967-4.858,2.398-6.032-1.215-7.719c-0.137-0.063-7.871-2.456-8.012-2.492c-3.535-0.933-7.064-1.307-10.336,0.731
				l-61.513,38.271c-6.938,4.317-9.427,15.562-5.563,25.116l68.473,169.137c2.056,5.076,5.491,8.652,9.3,10.24
				c0.224,0.094,9.599,3.121,9.83,3.176C280.67,345.771,274.977,343.009,278.009,341.121z"/>
			
				<radialGradient id="SVGID_7_" cx="6051.9736" cy="20.4775" r="171.4235" gradientTransform="matrix(-1.0918 0.0229 0.3676 0.9082 6769.1025 9.1119)" gradientUnits="userSpaceOnUse">
				<stop  offset="0" style="stop-color:#711F56"/>
				<stop  offset="0.1614" style="stop-color:#6C1E52"/>
				<stop  offset="0.3626" style="stop-color:#5C1946"/>
				<stop  offset="0.5849" style="stop-color:#431233"/>
				<stop  offset="0.8208" style="stop-color:#200918"/>
				<stop  offset="1" style="stop-color:#000000"/>
			</radialGradient>
			<path style="fill:url(#SVGID_7_);" d="M196.319,137.57l61.508-38.272c3.277-2.038-56.814,39.354-56.814,39.354
				c-6.939,4.316-9.428,15.561-5.563,25.113c0,0,65.83,173.133,63.777,168.057l-68.471-169.139
				C186.887,153.132,189.381,141.886,196.319,137.57z"/>
			
				<radialGradient id="SVGID_8_" cx="6023.2949" cy="8.23" r="100.9926" gradientTransform="matrix(-1.0918 0.0229 0.3676 0.9082 6769.1025 9.1119)" gradientUnits="userSpaceOnUse">
				<stop  offset="0" style="stop-color:#AF8AFC"/>
				<stop  offset="1" style="stop-color:#10054D"/>
			</radialGradient>
			<path style="opacity:0.6;fill:url(#SVGID_8_);" d="M284.855,343.252l61.507-38.272c6.939-4.318,9.43-15.56,5.563-25.111
				l-68.472-169.142c-3.867-9.551-12.627-13.795-19.565-9.479l-61.51,38.271c-6.941,4.32-9.43,15.561-5.561,25.117l68.472,169.137
				C269.155,343.326,277.914,347.57,284.855,343.252z"/>
			
				<linearGradient id="SVGID_9_" gradientUnits="userSpaceOnUse" x1="6031.4312" y1="102.1019" x2="5752.2559" y2="14.7078" gradientTransform="matrix(-1.0918 0.0229 0.3676 0.9082 6769.1025 9.1119)">
				<stop  offset="0.1869" style="stop-color:#3D065F"/>
				<stop  offset="0.9343" style="stop-color:#3D065F"/>
			</linearGradient>
			<path style="fill:url(#SVGID_9_);" d="M286.459,343.834l61.511-38.272c6.936-4.318,9.425-15.56,5.56-25.113L285.058,111.31
				c-3.864-9.553-12.626-13.797-19.565-9.479l-61.51,38.272c-6.937,4.318-9.427,15.561-5.561,25.113l68.472,169.139
				C270.76,343.906,279.522,348.152,286.459,343.834z"/>
			
				<linearGradient id="SVGID_10_" gradientUnits="userSpaceOnUse" x1="6035.0723" y1="210.1523" x2="5893.2949" y2="-89.4258" gradientTransform="matrix(-1.0918 0.0229 0.3676 0.9082 6769.1025 9.1119)">
				<stop  offset="0" style="stop-color:#311B61"/>
				<stop  offset="0.2031" style="stop-color:#290F52"/>
				<stop  offset="0.4949" style="stop-color:#200041"/>
				<stop  offset="1" style="stop-color:#0F001F"/>
			</linearGradient>
			<path style="fill:url(#SVGID_10_);" d="M351.859,281.619l-68.556-169.348c-3.389-8.373-11.068-12.092-17.149-8.31l-61.185,38.07
				c-6.084,3.783-8.264,13.641-4.876,22.016l68.556,169.346c3.391,8.375,11.068,12.094,17.152,8.311l61.182-38.068
				C353.065,299.851,355.246,289.992,351.859,281.619z"/>
			
				<linearGradient id="SVGID_11_" gradientUnits="userSpaceOnUse" x1="5931.1533" y1="84.6476" x2="6020.1987" y2="84.6476" gradientTransform="matrix(-1.0918 0.0229 0.3676 0.9082 6769.1025 9.1119)">
				<stop  offset="0" style="stop-color:#311B61"/>
				<stop  offset="0.2031" style="stop-color:#290F52"/>
				<stop  offset="0.4949" style="stop-color:#200041"/>
				<stop  offset="1" style="stop-color:#0F001F"/>
			</linearGradient>
			<path style="fill:url(#SVGID_11_);" d="M349.237,282.714l-68.206-168.49c-2.839-7.011-9.265-10.125-14.357-6.957l-59.879,37.258
				c-5.091,3.168-6.918,11.418-4.077,18.428l68.205,168.49c2.84,7.01,9.266,10.121,14.358,6.953l59.877-37.258
				C350.246,297.974,352.074,289.722,349.237,282.714z"/>
			
				<linearGradient id="SVGID_12_" gradientUnits="userSpaceOnUse" x1="5921.0952" y1="-19.4264" x2="6056.5625" y2="238.8843" gradientTransform="matrix(-1.0918 0.0229 0.3676 0.9082 6769.1025 9.1119)">
				<stop  offset="0.0101" style="stop-color:#9F19AB"/>
				<stop  offset="0.4293" style="stop-color:#5F27BD"/>
				<stop  offset="0.904" style="stop-color:#3D065F"/>
			</linearGradient>
			<path style="fill:url(#SVGID_12_);" d="M215.184,141.121c1.428,3.525,4.993,4.878,7.967,3.029l33.506-20.848
				c2.975-1.85,4.228-6.207,2.801-9.73l7.111-4.424c4.798-2.984,10.553-0.795,12.853,4.889l68.975,170.387
				c2.303,5.685,0.277,12.715-4.52,15.699l-58.494,36.395c-4.797,2.986-10.551,0.797-12.852-4.891l-68.977-170.383
				c-2.301-5.684-0.277-12.715,4.521-15.699L215.184,141.121z"/>
			
				<linearGradient id="SVGID_13_" gradientUnits="userSpaceOnUse" x1="2520.0686" y1="2487.3169" x2="2535.9971" y2="2487.3169" gradientTransform="matrix(1.0766 1.2994 1.1294 0.4342 -5323.7954 -4167.3257)">
				<stop  offset="0" style="stop-color:#311B61"/>
				<stop  offset="0.2031" style="stop-color:#290F52"/>
				<stop  offset="0.4949" style="stop-color:#200041"/>
				<stop  offset="1" style="stop-color:#0F001F"/>
			</linearGradient>
			<path style="fill:url(#SVGID_13_);" d="M212.218,204.394l-4.623-11.418c-0.592-1.461-2.345-3.133-3.919-3.736l0,0
				c-1.573-0.605-2.368,0.088-1.776,1.547l4.623,11.42c0.59,1.459,2.345,3.133,3.917,3.738l0,0
				C212.011,206.55,212.806,205.855,212.218,204.394z"/>
			
				<linearGradient id="SVGID_14_" gradientUnits="userSpaceOnUse" x1="6033.0898" y1="55.6869" x2="6022.1045" y2="55.2144" gradientTransform="matrix(-1.0918 0.0229 0.3676 0.9082 6769.1025 9.1119)">
				<stop  offset="0" style="stop-color:#3D065F"/>
				<stop  offset="1" style="stop-color:#5F27BD"/>
			</linearGradient>
			<path style="fill:url(#SVGID_14_);" d="M211.309,205.732c0.68-0.014,0.636-0.723,0.392-1.326l-4.623-11.418
				c-0.525-1.299-2.134-2.842-3.51-3.373c-0.292-0.111-0.555-0.168-0.761-0.166c-0.678,0.014-0.636,0.725-0.39,1.326l4.619,11.42
				c0.525,1.299,2.132,2.842,3.51,3.373C210.84,205.681,211.105,205.738,211.309,205.732z"/>
			
				<radialGradient id="SVGID_15_" cx="6027.5645" cy="51.0003" r="6.4514" gradientTransform="matrix(-1.0918 0.0229 0.3676 0.9082 6769.1025 9.1119)" gradientUnits="userSpaceOnUse">
				<stop  offset="0" style="stop-color:#711F56"/>
				<stop  offset="0.1614" style="stop-color:#6C1E52"/>
				<stop  offset="0.3626" style="stop-color:#5C1946"/>
				<stop  offset="0.5849" style="stop-color:#431233"/>
				<stop  offset="0.8208" style="stop-color:#200918"/>
				<stop  offset="1" style="stop-color:#000000"/>
			</radialGradient>
			<path style="fill:url(#SVGID_15_);" d="M211.115,204.711l-4.623-11.416c-0.526-1.299-2.132-2.844-3.51-3.371
				c-0.258-0.1-0.486-0.148-0.678-0.158c0.072-0.184,0.223-0.311,0.502-0.316c0.206-0.002,0.469,0.055,0.761,0.166
				c1.376,0.529,2.984,2.074,3.51,3.373l4.623,11.418c0.244,0.604,0.288,1.313-0.392,1.326c-0.026,0.002-0.059-0.006-0.082-0.01
				C211.33,205.459,211.26,205.07,211.115,204.711z"/>
			<path style="fill:#BCBEC0;" d="M203.555,161.244l68.977,170.383c2.301,5.688,8.055,7.877,12.852,4.891l58.494-36.395
				c4.797-2.984,6.822-10.014,4.52-15.699l-68.975-170.387c-2.301-5.684-8.056-7.873-12.853-4.889l-7.111,4.424
				c1.428,3.523,0.174,7.879-2.799,9.73l-33.508,20.848c-2.974,1.849-6.539,0.495-7.967-3.029l-7.108,4.424
				C203.278,148.529,201.254,155.56,203.555,161.244z M204.492,161.226c-2.197-5.43-0.258-12.165,4.324-15.018l6.086-3.783
				c1.324,2.11,3.512,3.382,5.873,3.332c1.103-0.023,2.15-0.338,3.116-0.94l33.51-20.849c3.101-1.931,4.438-6.228,3.165-9.958
				l6.742-4.193c1.24-0.771,2.594-1.193,3.917-1.221c3.089-0.063,5.87,2.028,7.261,5.463l68.973,170.383
				c2.199,5.43,0.258,12.164-4.325,15.016l-58.49,36.395c-1.239,0.77-2.593,1.189-3.917,1.219l0,0
				c-1.464,0.029-2.889-0.418-4.117-1.297c-1.342-0.959-2.429-2.4-3.142-4.164L204.492,161.226z"/>
		</g>
	</g>
</g>
</svg>
