<?xml version="1.0" encoding="utf-8"?>
<!-- Generator: Adobe Illustrator 17.0.0, SVG Export Plug-In . SVG Version: 6.00 Build 0)  -->
<!DOCTYPE svg PUBLIC "-//W3C//DTD SVG 1.1//EN" "http://www.w3.org/Graphics/SVG/1.1/DTD/svg11.dtd">
<svg version="1.1" id="Слой_1" xmlns="http://www.w3.org/2000/svg" xmlns:xlink="http://www.w3.org/1999/xlink" x="0px" y="0px"
	 width="617.969px" height="489.898px" viewBox="0 0 617.969 489.898" style="enable-background:new 0 0 617.969 489.898;"
	 xml:space="preserve">
<g>
	<g>
		<g>
			<g>
				<path style="fill:#FFFFFF;" d="M49.468,415.953c-0.894-3.794-8.532-37.181-1.406-41.217c6.282-3.557,6.126-17.392,5.146-30.456
					c-0.867-11.565,13.985-16.97,14.618-17.194l0.377,1.063c-0.147,0.052-14.674,5.343-13.871,16.048
					c1.006,13.416,1.114,27.653-5.715,31.521c-5.412,3.064-0.43,29.897,1.947,39.977L49.468,415.953z"/>
			</g>
		</g>
		<g>
			<polygon style="fill:#78C2FF;" points="502.068,256.773 447.989,256.773 447.989,255.807 501.102,255.807 501.102,212.177 
				502.068,212.177 			"/>
		</g>
		<g>
			<g>
				<g>
					<path style="fill:#6AAFE8;" d="M492.785,178.357H466.93v-25.855h25.855V178.357z M467.791,177.494h24.132v-24.132h-24.132
						V177.494z"/>
				</g>
				<g>
					<path style="fill:#6AAFE8;" d="M557.137,161.981h-59.181v-6.32h59.181V161.981z M498.819,161.12h57.457v-4.597h-57.457V161.12z
						"/>
				</g>
				<g>
					<path style="fill:#6AAFE8;" d="M557.137,191.374H466.93v-6.32h90.207V191.374z M467.791,190.512h88.484v-4.597h-88.484V190.512
						z"/>
				</g>
				<g>
					<path style="fill:#6AAFE8;" d="M524.387,203.512H466.93v-6.32h57.457V203.512z M467.791,202.651h55.734v-4.597h-55.734V202.651
						z"/>
				</g>
				<g>
					<path style="fill:#6AAFE8;" d="M538.032,174.038h-40.076v-6.32h40.076V174.038z M498.819,173.176h38.353v-4.597h-38.353
						V173.176z"/>
				</g>
			</g>
			<g>
				<path style="fill:#6AAFE8;" d="M567.407,217.257H456.659v-78.501h110.748V217.257z M457.521,216.395h109.025v-76.777H457.521
					V216.395z"/>
			</g>
		</g>
		<g>
			<path style="fill:#78C2FF;" d="M501.585,212.826c-1.955,0-3.547-1.591-3.547-3.546c0-1.956,1.592-3.547,3.547-3.547
				c1.955,0,3.546,1.591,3.546,3.547C505.131,211.236,503.54,212.826,501.585,212.826z M501.585,206.699
				c-1.424,0-2.581,1.158-2.581,2.581c0,1.423,1.157,2.581,2.581,2.581c1.423,0,2.58-1.158,2.58-2.581
				C504.165,207.857,503.008,206.699,501.585,206.699z"/>
		</g>
		<g>
			<path style="fill:#6AAFE8;" d="M130.819,190.272H66.214l0.112-0.575c1.038-5.322,5.733-9.184,11.165-9.184
				c0.784,0,1.566,0.082,2.329,0.242c3.366-6.397,9.905-10.354,17.157-10.354c6.179,0,12.004,2.966,15.655,7.952
				c1.332-0.405,2.714-0.61,4.118-0.61c7.03,0,12.91,5.035,13.981,11.973L130.819,190.272z M67.404,189.306h62.275
				c-1.213-6.08-6.674-10.598-12.929-10.598c-1.42,0-2.816,0.225-4.153,0.669l-0.34,0.113l-0.206-0.294
				c-3.456-4.903-9.09-7.83-15.073-7.83c-7.011,0-13.321,3.893-16.467,10.159l-0.173,0.345l-0.374-0.093
				c-0.805-0.198-1.636-0.299-2.471-0.299C72.718,181.478,68.566,184.736,67.404,189.306z"/>
		</g>
		<g>
			<linearGradient id="SVGID_1_" gradientUnits="userSpaceOnUse" x1="170.7126" y1="426.1886" x2="399.9055" y2="426.1886">
				<stop  offset="0" style="stop-color:#FF9F55"/>
				<stop  offset="1" style="stop-color:#FFD255"/>
			</linearGradient>
			<polygon style="fill:url(#SVGID_1_);" points="385.565,399.39 285.309,399.39 185.053,399.39 170.713,452.987 285.309,452.987 
				399.906,452.987 			"/>
			<path style="fill:#FFFFFF;" d="M186.633,413.624h13.12c0.548,0,0.962,0.426,0.859,0.886l-1.27,5.707
				c-0.079,0.352-0.439,0.607-0.86,0.607h-13.344c-0.56,0-0.976-0.442-0.853-0.909l1.495-5.707
				C185.868,413.866,186.223,413.624,186.633,413.624z"/>
			<polygon style="fill:#FFFFFF;" points="205.768,413.624 215.687,413.624 214.366,420.824 204.26,420.824 			"/>
			<polygon style="fill:#FFFFFF;" points="220.646,413.624 230.564,413.624 229.526,420.824 219.418,420.834 			"/>
			<polygon style="fill:#FFFFFF;" points="235.523,413.624 245.441,413.624 244.687,420.824 234.58,420.824 			"/>
			<polygon style="fill:#FFFFFF;" points="250.4,413.624 260.319,413.624 259.846,420.824 249.739,420.824 			"/>
			<polygon style="fill:#FFFFFF;" points="265.277,413.624 275.196,413.624 275.007,420.824 264.9,420.834 			"/>
			<polygon style="fill:#FFFFFF;" points="384.328,413.624 369.451,413.624 371.054,420.824 386.214,420.824 			"/>
			<polygon style="fill:#FFFFFF;" points="364.492,413.624 354.573,413.624 355.894,420.824 366.001,420.824 			"/>
			<polygon style="fill:#FFFFFF;" points="349.614,413.624 339.698,413.624 340.735,420.824 350.842,420.834 			"/>
			<polygon style="fill:#FFFFFF;" points="334.739,413.624 324.82,413.624 325.573,420.824 335.681,420.824 			"/>
			<polygon style="fill:#FFFFFF;" points="319.861,413.624 309.943,413.624 310.414,420.824 320.52,420.824 			"/>
			<polygon style="fill:#FFFFFF;" points="304.983,413.624 295.065,413.624 295.253,420.824 305.361,420.834 			"/>
			<polygon style="fill:#FFFFFF;" points="280.155,413.624 290.073,413.624 290.238,420.824 280.155,420.824 			"/>
			<polygon style="fill:#FFFFFF;" points="182.269,426.189 202.994,426.189 201.814,433.615 180.696,433.615 			"/>
			<polygon style="fill:#FFFFFF;" points="387.565,426.189 361.947,426.189 363.406,433.615 389.51,433.615 			"/>
			<polygon style="fill:#FFFFFF;" points="356.823,426.189 346.575,426.189 347.742,433.615 358.185,433.615 			"/>
			<polygon style="fill:#FFFFFF;" points="341.452,426.189 331.204,426.189 332.08,433.615 342.522,433.615 			"/>
			<polygon style="fill:#FFFFFF;" points="326.081,426.189 315.833,426.189 316.417,433.615 326.859,433.615 			"/>
			<polygon style="fill:#FFFFFF;" points="310.71,426.189 300.463,426.189 300.755,433.615 311.197,433.615 			"/>
			<polygon style="fill:#FFFFFF;" points="179.173,439.427 200.361,439.427 198.815,446.804 177.24,446.804 			"/>
			<polygon style="fill:#FFFFFF;" points="205.658,439.427 216.252,439.427 214.996,446.804 204.209,446.804 			"/>
			<polygon style="fill:#FFFFFF;" points="221.55,439.427 232.143,439.427 300.998,439.427 301.294,446.804 220.389,446.804 			"/>
			<polygon style="fill:#FFFFFF;" points="306.302,439.427 316.896,439.427 317.476,446.804 306.689,446.804 			"/>
			<polygon style="fill:#FFFFFF;" points="322.193,439.427 332.786,439.427 333.656,446.804 322.868,446.804 			"/>
			<polygon style="fill:#FFFFFF;" points="338.084,439.427 348.678,439.427 349.837,446.804 339.051,446.804 			"/>
			<polygon style="fill:#FFFFFF;" points="353.975,439.427 364.569,439.427 366.019,446.804 355.231,446.804 			"/>
			<polygon style="fill:#FFFFFF;" points="369.866,439.427 391.054,439.427 392.987,446.804 371.411,446.804 			"/>
			<polygon style="fill:#FFFFFF;" points="295.361,426.189 285.197,426.189 285.197,433.615 295.556,433.615 			"/>
			<polygon style="fill:#FFFFFF;" points="279.99,426.189 269.742,426.189 269.45,433.615 279.892,433.615 			"/>
			<polygon style="fill:#FFFFFF;" points="264.619,426.189 254.372,426.189 253.788,433.615 264.23,433.615 			"/>
			<polygon style="fill:#FFFFFF;" points="249.248,426.189 239.001,426.189 238.125,433.615 248.567,433.615 			"/>
			<polygon style="fill:#FFFFFF;" points="233.877,426.189 223.63,426.189 222.463,433.615 232.905,433.615 			"/>
			<polygon style="fill:#FFFFFF;" points="218.507,426.189 208.259,426.189 206.8,433.615 217.242,433.615 			"/>
			<polygon style="fill:#FFFFFF;" points="187.117,409.1 188.801,402.672 193.616,402.672 192.045,409.1 			"/>
			<polygon style="fill:#FFFFFF;" points="198.432,402.672 208.063,402.672 206.717,409.1 196.917,409.1 			"/>
			<polygon style="fill:#FFFFFF;" points="212.879,402.672 222.51,402.672 221.416,409.1 211.616,409.1 			"/>
			<polygon style="fill:#FFFFFF;" points="227.326,402.672 236.957,402.672 236.115,409.1 226.316,409.1 			"/>
			<polygon style="fill:#FFFFFF;" points="241.773,402.672 251.405,402.672 250.815,409.1 241.015,409.1 			"/>
			<polygon style="fill:#FFFFFF;" points="256.22,402.672 265.851,402.672 265.514,409.1 255.715,409.1 			"/>
			<polygon style="fill:#FFFFFF;" points="270.666,402.672 280.298,402.672 280.214,409.1 270.414,409.1 			"/>
			<polygon style="fill:#FFFFFF;" points="285.114,402.672 294.744,402.672 294.913,409.1 285.114,409.1 			"/>
			<polygon style="fill:#FFFFFF;" points="299.56,402.672 309.193,402.672 309.613,409.1 299.814,409.1 			"/>
			<polygon style="fill:#FFFFFF;" points="314.007,402.672 323.639,402.672 324.313,409.1 314.513,409.1 			"/>
			<polygon style="fill:#FFFFFF;" points="328.454,402.672 338.085,402.672 339.011,409.1 329.213,409.1 			"/>
			<polygon style="fill:#FFFFFF;" points="342.902,402.672 352.532,402.672 353.711,409.1 343.911,409.1 			"/>
			<polygon style="fill:#FFFFFF;" points="357.348,402.672 366.98,402.672 368.41,409.1 358.612,409.1 			"/>
			<polygon style="fill:#FFFFFF;" points="371.795,402.672 381.426,402.672 383.111,409.1 373.31,409.1 			"/>
			<linearGradient id="SVGID_2_" gradientUnits="userSpaceOnUse" x1="64.4852" y1="454.569" x2="293.6781" y2="454.569">
				<stop  offset="0" style="stop-color:#E37E30"/>
				<stop  offset="1" style="stop-color:#E8A12E"/>
			</linearGradient>
			<rect x="170.713" y="452.987" style="fill:url(#SVGID_2_);" width="229.193" height="3.163"/>
		</g>
		<g>
			<rect x="270.224" y="285.872" style="fill:#518AFA;" width="31.543" height="95.806"/>
		</g>
		<g>
			<linearGradient id="SVGID_3_" gradientUnits="userSpaceOnUse" x1="141.5935" y1="235.9511" x2="444.1814" y2="235.9511">
				<stop  offset="0" style="stop-color:#FF9F55"/>
				<stop  offset="1" style="stop-color:#FFD255"/>
			</linearGradient>
			<path style="fill:url(#SVGID_3_);" d="M159.397,332.023h253.197c5.294,0,9.587-4.292,9.587-9.587V149.466
				c0-5.295-4.293-9.587-9.587-9.587H159.397c-5.295,0-9.587,4.292-9.587,9.587v172.969
				C149.81,327.731,154.102,332.023,159.397,332.023z"/>
		</g>
		<g>
			<linearGradient id="SVGID_4_" gradientUnits="userSpaceOnUse" x1="159.4377" y1="223.1942" x2="412.0695" y2="223.1942">
				<stop  offset="0" style="stop-color:#404B61"/>
				<stop  offset="0.486" style="stop-color:#3C4860"/>
				<stop  offset="1" style="stop-color:#2F3E5C"/>
			</linearGradient>
			<rect x="159.438" y="149.291" style="fill:url(#SVGID_4_);" width="252.632" height="147.807"/>
		</g>
		<g>
			<circle style="fill:#696969;" cx="285.996" cy="315.69" r="8.786"/>
		</g>
		<linearGradient id="SVGID_5_" gradientUnits="userSpaceOnUse" x1="215.0422" y1="381.6779" x2="356.9475" y2="381.6779">
			<stop  offset="0" style="stop-color:#FF9F55"/>
			<stop  offset="1" style="stop-color:#FFD255"/>
		</linearGradient>
		<rect x="215.042" y="378.062" style="fill:url(#SVGID_5_);" width="141.905" height="7.233"/>
		<g>
			<path style="fill:#6AAFE8;" d="M369.451,75.691l-0.22-0.113c-22.926-11.705-19.847-34.374-19.813-34.601l0.061-0.413h0.416
				c14.576,0,19.157-4.698,19.202-4.745l0.355-0.378l0.353,0.379c0.043,0.046,4.625,4.744,19.2,4.744h0.417l0.062,0.413
				c0.034,0.228,3.112,22.896-19.814,34.601L369.451,75.691z M350.327,41.528c-0.289,3.071-1.255,22.53,19.124,33.077
				c20.379-10.546,19.413-30.006,19.124-33.077c-12.657-0.079-17.807-3.604-19.124-4.723
				C368.135,37.924,362.985,41.45,350.327,41.528z"/>
		</g>
		<g>
			<rect x="173.958" y="160.608" style="fill:#E0E0E0;" width="28.294" height="2.898"/>
		</g>
		<g>
			<rect x="210.171" y="182.423" style="fill:#E0E0E0;" width="20.429" height="2.897"/>
		</g>
		<g>
			<rect x="233.781" y="182.423" style="fill:#1487E3;" width="13.556" height="2.897"/>
		</g>
		<g>
			<rect x="261.478" y="270.003" style="fill:#1487E3;" width="13.556" height="2.898"/>
		</g>
		<g>
			<rect x="174.279" y="237.281" style="fill:#1487E3;" width="13.556" height="2.896"/>
		</g>
		<g>
			<rect x="250.016" y="182.423" style="fill:#E0E0E0;" width="32.73" height="2.897"/>
		</g>
		<g>
			<rect x="174.279" y="226.294" style="fill:#E0E0E0;" width="21.032" height="2.895"/>
		</g>
		<g>
			<rect x="230.792" y="248.189" style="fill:#E0E0E0;" width="21.032" height="2.897"/>
		</g>
		<g>
			<rect x="309.352" y="270.003" style="fill:#E0E0E0;" width="21.032" height="2.898"/>
		</g>
		<g>
			<rect x="203.596" y="248.189" style="fill:#E0E0E0;" width="12.839" height="2.897"/>
		</g>
		<g>
			<rect x="174.279" y="248.189" style="fill:#1487E3;" width="25.438" height="2.897"/>
		</g>
		<g>
			<rect x="174.279" y="259.096" style="fill:#E0E0E0;" width="14.03" height="2.898"/>
		</g>
		<g>
			<rect x="207.757" y="160.608" style="fill:#78C2FF;" width="20.086" height="2.898"/>
		</g>
		<g>
			<rect x="207.757" y="193.33" style="fill:#1487E3;" width="20.086" height="2.898"/>
		</g>
		<g>
			<rect x="197.714" y="204.237" style="fill:#E0E0E0;" width="8.582" height="2.897"/>
		</g>
		<g>
			<rect x="189.132" y="215.306" style="fill:#78C2FF;" width="19.276" height="2.897"/>
		</g>
		<g>
			<rect x="211.322" y="215.306" style="fill:#1487E3;" width="26.612" height="2.897"/>
		</g>
		<g>
			<rect x="295.598" y="259.096" style="fill:#1487E3;" width="26.611" height="2.898"/>
		</g>
		<g>
			<rect x="174.279" y="204.317" style="fill:#1487E3;" width="20.086" height="2.897"/>
		</g>
		<g>
			<rect x="174.279" y="215.306" style="fill:#1487E3;" width="11.918" height="2.897"/>
		</g>
		<g>
			<rect x="210.342" y="204.317" style="fill:#FF8761;" width="11.244" height="2.897"/>
		</g>
		<g>
			<rect x="174.616" y="270.003" style="fill:#FF8761;" width="11.244" height="2.898"/>
		</g>
		<g>
			<rect x="174.198" y="182.423" style="fill:#78C2FF;" width="20.086" height="2.897"/>
		</g>
		<g>
			<rect x="191.962" y="237.281" style="fill:#78C2FF;" width="20.086" height="2.896"/>
		</g>
		<g>
			<rect x="192.209" y="259.096" style="fill:#78C2FF;" width="20.086" height="2.898"/>
		</g>
		<g>
			<rect x="227.891" y="259.096" style="fill:#78C2FF;" width="20.086" height="2.898"/>
		</g>
		<g>
			<rect x="174.198" y="193.33" style="fill:#78C2FF;" width="28.633" height="2.898"/>
		</g>
		<g>
			<rect x="308.372" y="160.608" style="fill:#78C2FF;" width="20.086" height="2.898"/>
		</g>
		<g>
			<rect x="236.818" y="270.003" style="fill:#78C2FF;" width="20.086" height="2.898"/>
		</g>
		<g>
			<rect x="334.707" y="160.608" style="fill:#78C2FF;" width="13.445" height="2.898"/>
		</g>
		<g>
			<rect x="380.198" y="171.515" style="fill:#78C2FF;" width="13.445" height="2.896"/>
		</g>
		<g>
			<rect x="233.25" y="160.608" style="fill:#1487E3;" width="25.59" height="2.898"/>
		</g>
		<g>
			<rect x="334.707" y="270.003" style="fill:#1487E3;" width="25.591" height="2.898"/>
		</g>
		<g>
			<rect x="190.105" y="270.003" style="fill:#1487E3;" width="25.59" height="2.898"/>
		</g>
		<g>
			<rect x="332.959" y="171.515" style="fill:#1487E3;" width="25.59" height="2.896"/>
		</g>
		<g>
			<rect x="301.573" y="182.423" style="fill:#1487E3;" width="25.591" height="2.897"/>
		</g>
		<g>
			<rect x="279.337" y="270.003" style="fill:#1487E3;" width="25.59" height="2.898"/>
		</g>
		<g>
			<rect x="275.399" y="248.189" style="fill:#1487E3;" width="25.591" height="2.897"/>
		</g>
		<g>
			<rect x="220.455" y="248.189" style="fill:#FF8761;" width="5.516" height="2.897"/>
		</g>
		<g>
			
				<rect x="334.191" y="189.123" transform="matrix(0.9952 0.0979 -0.0979 0.9952 20.3287 -33.1339)" style="fill:#78C2FF;" width="27.18" height="2.897"/>
		</g>
		<g>
			<rect x="277.768" y="160.608" style="fill:#FF8761;" width="25.59" height="2.898"/>
		</g>
		<g>
			<rect x="236.818" y="237.443" style="fill:#FF8761;" width="15.005" height="2.896"/>
		</g>
		<g>
			<rect x="263.573" y="160.608" style="fill:#E0E0E0;" width="9.367" height="2.898"/>
		</g>
		<g>
			<rect x="233.25" y="193.33" style="fill:#E0E0E0;" width="9.367" height="2.898"/>
		</g>
		<g>
			<rect x="364.721" y="171.515" style="fill:#E0E0E0;" width="9.367" height="2.896"/>
		</g>
		<g>
			<rect x="173.958" y="171.515" style="fill:#1487E3;" width="14.654" height="2.896"/>
		</g>
		<g>
			<rect x="213.058" y="226.374" style="fill:#1487E3;" width="11.57" height="2.896"/>
		</g>
		<g>
			<rect x="192.209" y="171.515" style="fill:#1487E3;" width="4.732" height="2.896"/>
		</g>
		<g>
			<rect x="289.348" y="171.515" style="fill:#E0E0E0;" width="39.11" height="2.896"/>
		</g>
		<g>
			<rect x="251.823" y="259.096" style="fill:#E0E0E0;" width="39.109" height="2.898"/>
		</g>
		<g>
			<rect x="200.417" y="171.515" style="fill:#FF8761;" width="4.829" height="2.896"/>
		</g>
		<g>
			<rect x="272.939" y="171.515" style="fill:#1487E3;" width="12.796" height="2.896"/>
		</g>
		<g>
			<rect x="285.736" y="182.423" style="fill:#FF8761;" width="12.795" height="2.897"/>
		</g>
		<g>
			<rect x="257.175" y="248.189" style="fill:#FF8761;" width="12.795" height="2.897"/>
		</g>
		<g>
			<rect x="219.94" y="270.003" style="fill:#FF8761;" width="12.795" height="2.898"/>
		</g>
		<g>
			<rect x="242.327" y="171.515" style="fill:#1487E3;" width="27.225" height="2.896"/>
		</g>
		<g>
			<rect x="305.673" y="248.189" style="fill:#1487E3;" width="27.225" height="2.897"/>
		</g>
		<g>
			<rect x="216.987" y="237.443" style="fill:#1487E3;" width="15.906" height="2.896"/>
		</g>
		<g>
			<rect x="215.964" y="259.096" style="fill:#1487E3;" width="7.953" height="2.898"/>
		</g>
		<g>
			<rect x="229.098" y="171.515" style="fill:#78C2FF;" width="9.367" height="2.896"/>
		</g>
		<g>
			<rect x="325.7" y="259.096" style="fill:#FF8761;" width="9.366" height="2.898"/>
		</g>
		<g>
			<rect x="197.569" y="182.423" style="fill:#FF8761;" width="9.367" height="2.897"/>
		</g>
		<g>
			<rect x="199.436" y="226.374" style="fill:#FF8761;" width="9.367" height="2.896"/>
		</g>
		<g>
			<rect x="209.205" y="171.515" style="fill:#1487E3;" width="16.32" height="2.896"/>
		</g>
		<g>
			<polygon style="fill:#78C2FF;" points="173.958,238.073 102.872,238.073 102.872,185.842 103.838,185.842 103.838,237.109 
				173.958,237.109 			"/>
		</g>
		<g>
			<polygon style="fill:#78C2FF;" points="317.959,183.871 316.993,183.871 316.993,114.741 368.969,114.741 368.969,69.446 
				369.935,69.446 369.935,115.706 317.959,115.706 			"/>
		</g>
		<g>
			<g>
				<g>
					<path style="fill:#323657;" d="M170.372,281.306c-0.003-0.002-0.007-0.003-0.013-0.002
						C170.412,281.327,170.419,281.329,170.372,281.306z"/>
				</g>
			</g>
		</g>
		<g>
			<polygon style="fill:#6AAFE8;" points="401.407,87.648 393.121,87.648 393.121,86.682 400.443,86.682 400.443,79.369 
				401.407,79.369 			"/>
		</g>
		<g>
			<polygon style="fill:#6AAFE8;" points="345.688,87.648 337.402,87.648 337.402,79.369 338.366,79.369 338.366,86.682 
				345.688,86.682 			"/>
		</g>
		<g>
			<polygon style="fill:#6AAFE8;" points="338.37,31.931 337.405,31.931 337.405,23.645 345.685,23.645 345.685,24.611 
				338.37,24.611 			"/>
		</g>
		<g>
			<polygon style="fill:#6AAFE8;" points="401.407,31.928 400.443,31.928 400.443,24.614 393.121,24.614 393.121,23.648 
				401.407,23.648 			"/>
		</g>
		<g>
			<rect x="400.443" y="44.301" style="fill:#6AAFE8;" width="0.965" height="22.693"/>
		</g>
		<g>
			<rect x="337.402" y="44.301" style="fill:#6AAFE8;" width="0.965" height="22.693"/>
		</g>
		<g>
			<path style="fill:#78C2FF;" d="M103.355,186.325c-1.956,0-3.546-1.591-3.546-3.546c0-1.955,1.591-3.547,3.546-3.547
				c1.956,0,3.546,1.592,3.546,3.547C106.901,184.735,105.31,186.325,103.355,186.325z M103.355,180.198
				c-1.423,0-2.581,1.158-2.581,2.581c0,1.423,1.158,2.581,2.581,2.581c1.423,0,2.581-1.157,2.581-2.581
				C105.935,181.356,104.778,180.198,103.355,180.198z"/>
		</g>
		<g>
			<path style="fill:#78C2FF;" d="M369.451,69.929c-1.956,0-3.547-1.591-3.547-3.546c0-1.956,1.591-3.547,3.547-3.547
				c1.955,0,3.546,1.591,3.546,3.547C372.997,68.338,371.406,69.929,369.451,69.929z M369.451,63.802
				c-1.424,0-2.581,1.157-2.581,2.581c0,1.423,1.157,2.581,2.581,2.581c1.423,0,2.58-1.158,2.58-2.581
				C372.031,64.96,370.874,63.802,369.451,63.802z"/>
		</g>
		<g>
			<path style="fill:#A1D4FF;" d="M128.248,52.784h-24.346V28.438h24.346V52.784z M104.868,51.818h22.414V29.404h-22.414V51.818z"/>
		</g>
		<g>
			<rect x="115.593" y="35.074" style="fill:#A1D4FF;" width="0.966" height="11.347"/>
		</g>
		<g>
			<rect x="110.402" y="40.265" style="fill:#A1D4FF;" width="11.347" height="0.966"/>
		</g>
		<g>
			<path style="fill:#A1D4FF;" d="M499.238,82.151H464.44V57.309h34.798V82.151z M465.406,81.185h32.866v-22.91h-32.866V81.185z"/>
		</g>
		<g>
			<polygon style="fill:#A1D4FF;" points="481.838,72.355 464.614,58.165 465.229,57.42 481.838,71.105 498.448,57.42 
				499.061,58.165 			"/>
		</g>
		<g>
			
				<rect x="483.435" y="74.601" transform="matrix(0.6882 0.7255 -0.7255 0.6882 208.0466 -333.9201)" style="fill:#A1D4FF;" width="18.149" height="0.966"/>
		</g>
		<g>
			
				<rect x="470.684" y="66.009" transform="matrix(0.7258 0.6879 -0.6879 0.7258 180.8239 -303.5145)" style="fill:#A1D4FF;" width="0.966" height="18.149"/>
		</g>
		<g>
			<path style="fill:#A1D4FF;" d="M73.628,255.261l-0.362-0.946c-0.325-0.043-0.644-0.116-0.953-0.219l-0.739,0.693l-2.143-1.525
				l0.413-0.926c-0.198-0.258-0.372-0.535-0.518-0.828l-1.013-0.032l-0.438-2.596l0.947-0.361c0.042-0.324,0.115-0.643,0.218-0.952
				l-0.693-0.739l1.526-2.143l0.924,0.413c0.259-0.199,0.536-0.372,0.828-0.518l0.033-1.013l2.595-0.438l0.362,0.946
				c0.325,0.043,0.644,0.115,0.953,0.218l0.738-0.692l2.144,1.525l-0.413,0.925c0.198,0.259,0.372,0.536,0.519,0.829l1.012,0.031
				l0.438,2.595l-0.947,0.363c-0.043,0.324-0.116,0.643-0.219,0.952l0.693,0.738l-1.525,2.145l-0.925-0.413
				c-0.258,0.199-0.536,0.372-0.828,0.519l-0.033,1.013L73.628,255.261z M72.143,253.261l0.212,0.081
				c0.384,0.147,0.788,0.24,1.201,0.275l0.226,0.021l0.31,0.811l1.425-0.241l0.028-0.867l0.208-0.093
				c0.378-0.168,0.729-0.389,1.044-0.653l0.173-0.146l0.793,0.354l0.838-1.179l-0.594-0.633l0.081-0.212
				c0.147-0.384,0.24-0.788,0.275-1.199l0.02-0.227l0.811-0.31l-0.24-1.425l-0.869-0.027l-0.092-0.207
				c-0.169-0.378-0.389-0.73-0.653-1.044l-0.146-0.174l0.353-0.793l-1.178-0.837l-0.632,0.594l-0.212-0.082
				c-0.385-0.146-0.788-0.239-1.2-0.275l-0.226-0.02l-0.311-0.811l-1.426,0.24l-0.028,0.867l-0.207,0.094
				c-0.378,0.168-0.729,0.388-1.043,0.652l-0.174,0.146l-0.793-0.354l-0.838,1.178l0.594,0.633l-0.081,0.211
				c-0.147,0.385-0.24,0.788-0.275,1.2l-0.02,0.225l-0.812,0.312l0.24,1.426l0.868,0.026l0.093,0.207
				c0.168,0.379,0.388,0.73,0.653,1.044l0.146,0.173l-0.354,0.793l1.178,0.838L72.143,253.261z M73.934,252.058
				c-0.589,0-1.164-0.184-1.653-0.531h0c-1.286-0.914-1.587-2.705-0.672-3.99c0.914-1.285,2.705-1.587,3.99-0.672
				c1.286,0.914,1.587,2.705,0.673,3.99c-0.443,0.622-1.103,1.035-1.856,1.162C74.255,252.044,74.094,252.058,73.934,252.058z
				 M73.943,247.059c-0.669,0-1.328,0.313-1.744,0.897c-0.331,0.465-0.461,1.031-0.366,1.594c0.095,0.563,0.403,1.056,0.868,1.387h0
				c0.465,0.33,1.032,0.461,1.594,0.366c0.563-0.096,1.056-0.403,1.386-0.868c0.684-0.961,0.459-2.297-0.502-2.98
				C74.804,247.187,74.372,247.059,73.943,247.059z"/>
		</g>
		<g>
			<path style="fill:#A1D4FF;" d="M53.524,258.288l-0.809-2.112c-0.867-0.098-1.718-0.292-2.538-0.582l-1.647,1.547l-4.476-3.185
				l0.922-2.064c-0.542-0.679-1.005-1.419-1.381-2.206l-2.261-0.071l-0.913-5.418l2.112-0.808c0.097-0.867,0.292-1.718,0.582-2.537
				l-1.547-1.648l3.185-4.476l2.064,0.922c0.679-0.542,1.419-1.005,2.207-1.381l0.072-2.261l5.417-0.913l0.808,2.112
				c0.867,0.098,1.718,0.292,2.537,0.582l1.648-1.547l4.476,3.185l-0.921,2.064c0.542,0.679,1.004,1.42,1.381,2.206l2.26,0.072
				l0.913,5.417l-2.112,0.808c-0.098,0.868-0.292,1.718-0.581,2.538l1.547,1.647l-3.185,4.476l-2.064-0.922
				c-0.679,0.542-1.42,1.005-2.206,1.382l-0.072,2.26L53.524,258.288z M49.955,254.48l0.282,0.107
				c0.917,0.352,1.88,0.572,2.863,0.656l0.302,0.026l0.74,1.935l3.857-0.65l0.065-2.07l0.277-0.123
				c0.901-0.402,1.739-0.926,2.49-1.558l0.231-0.195l1.89,0.845l2.268-3.189l-1.416-1.509l0.108-0.282
				c0.351-0.916,0.572-1.88,0.656-2.864l0.025-0.301l1.935-0.74l-0.65-3.857l-2.07-0.066l-0.123-0.277
				c-0.402-0.901-0.926-1.739-1.558-2.49l-0.195-0.232l0.844-1.89l-3.188-2.269l-1.509,1.416l-0.282-0.107
				c-0.917-0.352-1.88-0.572-2.864-0.656l-0.302-0.026l-0.74-1.935l-3.857,0.65l-0.066,2.07l-0.276,0.123
				c-0.902,0.402-1.74,0.926-2.491,1.559l-0.231,0.194l-1.89-0.844l-2.268,3.188l1.417,1.509l-0.108,0.283
				c-0.352,0.916-0.572,1.88-0.656,2.863l-0.026,0.301l-1.935,0.74l0.65,3.857l2.071,0.066l0.123,0.276
				c0.402,0.901,0.927,1.74,1.559,2.491l0.195,0.23l-0.844,1.89l3.188,2.268L49.955,254.48z M54.01,250.938
				c-1.253,0-2.518-0.375-3.614-1.156c-1.36-0.967-2.261-2.406-2.539-4.052c-0.277-1.646,0.103-3.301,1.071-4.66
				c1.998-2.807,5.906-3.467,8.713-1.468c2.807,1.997,3.466,5.905,1.468,8.713C57.891,250.025,55.965,250.938,54.01,250.938z
				 M54.029,239.408c-0.295,0-0.592,0.024-0.889,0.074c-1.392,0.234-2.608,0.997-3.426,2.146c-0.818,1.149-1.139,2.549-0.905,3.94
				c0.234,1.391,0.997,2.608,2.146,3.426c2.374,1.689,5.678,1.132,7.366-1.241c0.818-1.149,1.14-2.548,0.905-3.939
				c-0.234-1.392-0.997-2.608-2.146-3.427C56.177,239.744,55.117,239.408,54.029,239.408z"/>
		</g>
		<g>
			<g>
				<g>
					<path style="fill:#78C2FF;" d="M260.162,99.685c-9.934,0-18.017-8.082-18.017-18.017h0.966c0,9.402,7.649,17.051,17.051,17.051
						c9.402,0,17.051-7.649,17.051-17.051c0-9.402-7.649-17.05-17.051-17.05v-0.966c9.934,0,18.017,8.083,18.017,18.017
						C278.179,91.602,270.096,99.685,260.162,99.685z M260.162,97.18c-8.553,0-15.512-6.959-15.512-15.512
						c0-8.553,6.959-15.512,15.512-15.512c8.553,0,15.512,6.959,15.512,15.512h-0.966c0-8.02-6.525-14.546-14.546-14.546
						s-14.546,6.525-14.546,14.546c0,8.021,6.525,14.546,14.546,14.546V97.18z"/>
				</g>
			</g>
		</g>
		<g>
			<polygon style="fill:#78C2FF;" points="257.955,87.636 251.457,81.138 252.14,80.456 257.955,86.271 268.185,76.041 
				268.868,76.724 			"/>
		</g>
		<g>
			<g>
				<g>
					<g>
						<g>
							<g>
								<path style="fill:#5C544D;" d="M409.09,331.654c0,0,0.88,3.456,1,3.977c0.12,0.521,5.539-0.912,5.539-0.912l-0.005-4.228
									C415.624,330.491,409.727,331.085,409.09,331.654z"/>
							</g>
						</g>
					</g>
				</g>
			</g>
			<g>
				<g>
					<g>
						<g>
							<g>
								<path style="fill:#3C4145;" d="M409.983,335.191c0,0-1.517,2.304-3.105,3.408c-1.588,1.104-7.719,2.532-8.614,3.595
									c-0.647,0.767-1.545,3.669,8.293,2.344c6.988-0.941,10.437-0.704,11.065-1.922c0.628-1.218-1.993-8.274-1.993-8.274
									S414.133,335.154,409.983,335.191z"/>
							</g>
						</g>
					</g>
				</g>
			</g>
			<g>
				<g>
					<g>
						<g>
							<g>
								<g>
									<polygon style="fill:#F0C141;" points="407.942,430.016 388.307,229.948 390.781,229.709 410.417,429.777 									"/>
								</g>
							</g>
						</g>
					</g>
				</g>
				<g>
					<g>
						<g>
							<g>
								<g>
									
										<rect x="338.879" y="324.734" transform="matrix(0.0977 0.9952 -0.9952 0.0977 720.8962 -143.1535)" style="fill:#F0C141;" width="201.028" height="2.487"/>
								</g>
							</g>
						</g>
					</g>
				</g>
				<g>
					<g>
						<g>
							<g>
								<g>
									<g>
										
											<rect x="408.769" y="212.384" transform="matrix(0.0966 0.9953 -0.9953 0.0966 601.7904 -198.0698)" style="fill:#F0C141;" width="2.486" height="40.218"/>
									</g>
								</g>
							</g>
						</g>
					</g>
					<g>
						<g>
							<g>
								<g>
									<g>
										
											<rect x="410.574" y="230.999" transform="matrix(0.0961 0.9954 -0.9954 0.0961 622.1729 -182.9436)" style="fill:#F0C141;" width="2.488" height="40.218"/>
									</g>
								</g>
							</g>
						</g>
					</g>
					<g>
						<g>
							<g>
								<g>
									<g>
										
											<rect x="412.382" y="249.612" transform="matrix(0.0967 0.9953 -0.9953 0.0967 642.1061 -168.0365)" style="fill:#F0C141;" width="2.486" height="40.219"/>
									</g>
								</g>
							</g>
						</g>
					</g>
					<g>
						<g>
							<g>
								<g>
									<g>
										
											<rect x="414.189" y="268.227" transform="matrix(0.0962 0.9954 -0.9954 0.0962 662.46 -152.9103)" style="fill:#F0C141;" width="2.486" height="40.218"/>
									</g>
								</g>
							</g>
						</g>
					</g>
					<g>
						<g>
							<g>
								<g>
									<g>
										
											<rect x="415.995" y="286.841" transform="matrix(0.097 0.9953 -0.9953 0.097 682.2828 -138.0873)" style="fill:#F0C141;" width="2.487" height="40.219"/>
									</g>
								</g>
							</g>
						</g>
					</g>
					<g>
						<g>
							<g>
								<g>
									<g>
										
											<rect x="417.802" y="305.455" transform="matrix(0.0966 0.9953 -0.9953 0.0966 702.6017 -122.9732)" style="fill:#F0C141;" width="2.486" height="40.218"/>
									</g>
								</g>
							</g>
						</g>
					</g>
					<g>
						<g>
							<g>
								<g>
									<g>
										
											<rect x="419.608" y="324.07" transform="matrix(0.0966 0.9953 -0.9953 0.0966 722.7612 -107.9552)" style="fill:#F0C141;" width="2.486" height="40.218"/>
									</g>
								</g>
							</g>
						</g>
					</g>
					<g>
						<g>
							<g>
								<g>
									<g>
										
											<rect x="421.414" y="342.685" transform="matrix(0.0966 0.9953 -0.9953 0.0966 742.937 -92.9258)" style="fill:#F0C141;" width="2.487" height="40.218"/>
									</g>
								</g>
							</g>
						</g>
					</g>
					<g>
						<g>
							<g>
								<g>
									<g>
										
											<rect x="423.221" y="361.298" transform="matrix(0.0966 0.9953 -0.9953 0.0966 763.0788 -77.9198)" style="fill:#F0C141;" width="2.486" height="40.219"/>
									</g>
								</g>
							</g>
						</g>
					</g>
				</g>
				<g>
					<g>
						<g>
							<g>
								<g>
									<g>
										
											<rect x="425.028" y="379.913" transform="matrix(0.097 0.9953 -0.9953 0.097 783.0558 -63.0425)" style="fill:#F0C141;" width="2.486" height="40.218"/>
									</g>
								</g>
							</g>
						</g>
					</g>
					<g>
						<g>
							<g>
								<g>
									<g>
										
											<rect x="426.834" y="398.527" transform="matrix(0.0966 0.9953 -0.9953 0.0966 803.4164 -47.8689)" style="fill:#F0C141;" width="2.487" height="40.219"/>
									</g>
								</g>
							</g>
						</g>
					</g>
				</g>
			</g>
			<g>
				<g>
					<g>
						<g>
							<g>
								<path style="fill:#3C4145;" d="M402.406,258.89c0,0-3.943,14.643-4.983,19.877c-0.905,4.561-2.728,16.706-2.986,19.594
									c-0.259,2.888,11.64,30.84,12.878,35.889l10.841-1.74c0,0-11.437-29.093-8.454-35.557c4.437-9.615,5.016-9.325,8.511-17.245
									c3.495-7.921,11.499-8.108,13.647-22.804C431.86,256.903,405.316,254.23,402.406,258.89z"/>
							</g>
						</g>
					</g>
				</g>
			</g>
			<g>
				<g>
					<g>
						<g>
							<g>
								<path style="fill:#EEA886;" d="M421.683,187.748c0,0-7.198-2.688-10.518,2.791c-3.318,5.48-2.999,16.45,0.63,17.798
									c3.628,1.349,9.079,0.644,10.937-2.785c1.858-3.428,3.534-8.385,3.454-11.698
									C426.105,190.541,423.573,188.704,421.683,187.748z"/>
							</g>
						</g>
					</g>
				</g>
			</g>
			<g>
				<g>
					<g>
						<g>
							<g>
								<path style="fill:#EEA886;" d="M413.003,208c0,0,0.291,1.888-0.189,2.817c-0.481,0.929,9.054,0.954,9.054,0.954
									s0.774-5.056,2.242-9.328C425.576,198.172,413.003,208,413.003,208z"/>
							</g>
						</g>
					</g>
				</g>
			</g>
			<g>
				<g>
					<g>
						<g>
							<g>
								<path style="fill:#3A3F47;" d="M424.11,202.444c0,0-0.658,1.085-3.345,0.665c-2.687-0.422-5.964-3.995-7.085-4.388
									c-1.121-0.393-1.132-1.051-1.132-1.051l-0.703,1.026l-1.19,0.075c0,0,1.086-3.197-0.553-4.5
									c-1.64-1.304,1.701-10.348,10.316-7.336c0,0,6.616,1.824,6.376,5.587C426.553,196.282,425.59,200.569,424.11,202.444z"/>
							</g>
						</g>
					</g>
				</g>
			</g>
			<g>
				<g>
					<g>
						<g>
							<g>
								<path style="fill:#EEA886;" d="M412.726,196.3c0.15-0.631,1.756-2.435,2.37-0.504c0.615,1.931-0.929,4.529-1.789,4.307
									C412.447,199.881,412.344,197.901,412.726,196.3z"/>
							</g>
						</g>
					</g>
				</g>
			</g>
			<g>
				<g>
					<g>
						<g>
							<path style="fill:#518AFA;" d="M440.181,235.524c-0.079,0.944-1.157,1.966-1.892,2.471c-0.472,0.323-1.036,0.519-1.642,0.539
								l-0.428,0.015h-0.001l-7.48,0.255c0,0-5.561-17.974,4.871-24.828C433.932,214.007,440.906,226.861,440.181,235.524z"/>
						</g>
					</g>
				</g>
			</g>
			<g>
				<g>
					<g>
						<g>
							<g>
								<path style="fill:#3C4145;" d="M417.621,342.615c-0.629,1.219-4.077,0.981-11.066,1.921c-1.91,0.258-3.415,0.356-4.596,0.34
									l-0.407-4.204c2.044-0.711,4.421-1.444,5.325-2.073c1.589-1.105,3.105-3.408,3.105-3.408c4.15-0.035,5.646-0.85,5.646-0.85
									S418.249,341.398,417.621,342.615z"/>
							</g>
						</g>
					</g>
				</g>
			</g>
			<g>
				<g>
					<g>
						<g>
							<path style="fill:#FFD255;" d="M412.998,210.269c0,0,5.869-1.366,9.178-0.249l0.5,0.462c0,0,1.005,1.928-2.779,2.094
								C416.111,212.742,410.16,213.017,412.998,210.269z"/>
						</g>
					</g>
				</g>
			</g>
			<g>
				<g>
					<g>
						<g>
							<g>
								<path style="fill:#5C544D;" d="M435.936,347.818c0,0,0.88,3.455,1,3.977c0.12,0.52,5.538-0.913,5.538-0.913l-0.005-4.228
									C442.469,346.653,436.573,347.248,435.936,347.818z"/>
							</g>
						</g>
					</g>
				</g>
			</g>
			<g>
				<g>
					<g>
						<g>
							<g>
								<path style="fill:#3C4145;" d="M431.86,256.903c0,0,1.976,8.15,2.561,16.309c0.541,7.541,1.525,15.812,2.307,23.698
									c0.872,8.791,3.36,23.004,3.49,27.706c0.13,4.703,4.088,25.257,4.088,25.257l-10.125,1.163c0,0-6.579-36.321-8.133-40.034
									c-1.554-3.712-9.259-30.181-9.518-33.151C416.27,274.881,431.86,256.903,431.86,256.903z"/>
							</g>
						</g>
					</g>
				</g>
			</g>
			<g>
				<g>
					<g>
						<g>
							<g>
								<path style="fill:#3C4145;" d="M436.829,351.354c0,0-1.518,2.303-3.105,3.407c-1.589,1.105-7.72,2.533-8.615,3.595
									c-0.646,0.767-1.545,3.669,8.293,2.344c6.988-0.941,10.438-0.703,11.065-1.922c0.628-1.218-1.993-8.275-1.993-8.275
									S440.979,351.316,436.829,351.354z"/>
							</g>
						</g>
					</g>
				</g>
			</g>
			<g>
				<g>
					<g>
						<g>
							<path style="fill:#518AFA;" d="M400.358,277.179c-0.862-0.123,2.141-25.831,1.911-27.443
								c-0.153-1.075-0.129-9.43-0.066-14.638l-0.939-5.27c-0.523-0.381-1.225-0.821-2.064-1.305
								c-1.306-0.754-2.943-1.615-4.763-2.524c0.211-1.245,0.358-2.225,0.415-2.798c0.454-4.63,3.563-7.083,5.326-8.116
								c0.72-0.421,1.215-0.606,1.215-0.606c0.67-0.285,1.328-0.559,1.966-0.822c4.247-1.748,9.64-3.387,9.64-3.387h8.664
								c0,0,6.596,1.318,10.527,2.926c0.504,0.207,0.976,0.47,1.42,0.779l-1.178,24.701c-0.001,0.006-0.001,0.011-0.002,0.017
								c-0.001,0.008-0.003,0.018-0.005,0.031c-0.53,3.477-1.088,7.576-1.274,10.449c-0.076,1.174,1.266,7.476,1.967,13.26
								l2.45,13.842C435.568,276.275,434.152,282.011,400.358,277.179z"/>
						</g>
					</g>
				</g>
			</g>
			<g>
				<g>
					<g>
						<g>
							<g>
								<path style="fill:#EEA886;" d="M356.122,197.066c0,0,0.512,0.634,0.87,0.802c0,0,0.677,0.255,1.147,0.466
									c0.148,0.067,0.276,0.129,0.355,0.178c0.329,0.203,0.989,0.748,1.916,1.014c0.925,0.267,5.111,1.22,5.111,1.22l0.973-2.483
									l0.698-2.006c0,0-3.874-5.02-4.708-5.367c-0.082-0.034-0.164-0.064-0.243-0.086c-0.734-0.226-1.376-0.086-1.775-0.161
									c-0.147-0.027-1.622-0.192-1.941,0.115c-0.444,0.427-0.578,0.903-0.502,1.318c0,0-0.832,0.875-0.892,1.686
									c0,0-0.795,0.782-0.582,1.812C356.549,195.572,355.833,196.457,356.122,197.066z"/>
							</g>
						</g>
					</g>
				</g>
			</g>
			<g>
				<g>
					<g>
						<g>
							<g>
								<path style="fill:#518AFA;" d="M400.985,229.63c-0.967-0.623-2.219-1.466-6.548-3.632
									c-8.061-4.033-18.013-11.344-19.905-12.4c-2.909-1.624-12.102-12.854-12.102-12.854c0.475-1.691,4.832-5.086,4.832-5.086
									s13.935,13.198,16.98,14.823c2.618,1.396,15.553,2.808,19.116,3.174c0.579,0.059,0.91,0.092,0.91,0.092
									C407.99,218.823,403.062,230.968,400.985,229.63z"/>
							</g>
						</g>
					</g>
				</g>
			</g>
		</g>
		<g>
			<g>
				<path style="fill:#A77860;" d="M230.204,145.859c-0.306-0.028-0.753-0.02-1.261,0.151c-0.126,0.042-0.295,0.128-0.493,0.245"/>
			</g>
			<path style="fill:#E0E0E0;" d="M195.383,153.842c0,0-1.248,8.946-0.633,13.347c0,0,0.651,0.483,1.946,0.092
				c0,0,0.323-9.765,1.048-13.232C197.744,154.049,197.346,153.748,195.383,153.842z"/>
		</g>
		<g>
			<g>
				<path style="fill:#5C544D;" d="M113.615,405.64c0,0-0.49,3.433-0.551,3.949c-0.062,0.516-5.45-0.304-5.45-0.304l-0.437-4.088
					C107.178,405.197,112.942,405.155,113.615,405.64z"/>
			</g>
			<g>
				<path style="fill:#3C4145;" d="M113.122,409.152c0,0,1.707,2.069,3.359,2.971c1.651,0.901,4.247,1.26,5.223,2.192
					c0.705,0.674,2.568,3.575-4.291,3.517c-6.859-0.059-10.166,0.409-10.901-0.703c-0.735-1.111,1.063-8.209,1.063-8.209
					S109.199,409.51,113.122,409.152z"/>
			</g>
			<g>
				<path style="fill:#5C544D;" d="M152.23,405.64c0,0-0.49,3.433-0.551,3.949c-0.061,0.516-5.451-0.304-5.451-0.304l-0.436-4.088
					C145.792,405.197,151.556,405.155,152.23,405.64z"/>
			</g>
			<g>
				<path style="fill:#3C4145;" d="M151.736,409.152c0,0,1.708,2.069,3.359,2.971c1.651,0.901,7.729,1.643,8.705,2.576
					c0.705,0.674,1.877,3.387-7.773,3.133c-6.856-0.181-10.166,0.409-10.901-0.703c-0.735-1.111,1.063-8.209,1.063-8.209
					S147.719,409.55,151.736,409.152z"/>
			</g>
			<g>
				<path style="fill:#33373B;" d="M115.53,317c0,0-2.868,8.519-2.49,15.862c0.377,7.342-1.483,15.376-2.244,23.046
					c-0.848,8.55-4.318,28.793-4.444,33.366c-0.126,4.574,0.539,19.18,0.539,19.18l6.947,0.16c0,0,5.835-35.389,7.346-38.999
					c1.511-3.611,9.005-29.355,9.256-32.242C130.691,334.485,115.53,317,115.53,317z"/>
			</g>
			<g>
				<path style="fill:#3C4145;" d="M144.735,318.517c0,0,3.816,20.123,4.32,24.617c0.503,4.493,0.839,21.746,1.091,24.556
					c0.252,2.809,1.679,36.752,3.022,40.925h-8.882c0,0-6.818-24.676-6.818-36.352c0-11.676-5.267-25.382-8.667-33.085
					c-3.4-7.703-11.182-7.886-13.272-22.178C115.53,317,141.905,313.984,144.735,318.517z"/>
			</g>
			<g>
				<path style="fill:#EEA886;" d="M126.685,249.743c0,0,7.002-2.616,10.229,2.714c3.228,5.329,2.917,15.998-0.612,17.31
					c-3.529,1.313-8.83,0.627-10.637-2.708c-1.806-3.335-3.438-8.155-3.359-11.377C122.385,252.46,124.847,250.673,126.685,249.743z
					"/>
			</g>
			<g>
				<path style="fill:#EEA886;" d="M135.128,269.44c0,0-0.283,1.835,0.184,2.739c0.468,0.903-8.806,0.928-8.806,0.928
					s-0.753-4.917-2.18-9.071C122.899,259.881,135.128,269.44,135.128,269.44z"/>
			</g>
			<g>
				<path style="fill:#FCCCA2;" d="M124.326,264.035c0,0,0.64,1.056,3.252,0.646c2.612-0.41,5.8-3.886,6.891-4.267
					c1.091-0.382,1.101-1.022,1.101-1.022l0.683,0.998l1.159,0.072c0,0-1.057-3.109,0.537-4.377
					c1.594-1.268-1.655-10.064-10.033-7.135c0,0-6.435,1.773-6.201,5.434C121.949,258.043,122.886,262.212,124.326,264.035z"/>
			</g>
			<g>
				<path style="fill:#E2D2CA;" d="M135.863,272.07c0,0-0.03-1.727-0.813-1.893c-0.783-0.167-8.642-0.922-9.603-0.544v2.012
					C125.448,271.646,127.299,272.785,135.863,272.07z"/>
			</g>
			<g>
				<path style="fill:#EEA886;" d="M135.397,258.061c-0.146-0.614-1.707-2.368-2.305-0.489c-0.598,1.877,0.903,4.404,1.74,4.188
					C135.669,261.543,135.769,259.616,135.397,258.061z"/>
			</g>
			<g>
				<path style="fill:#495054;" d="M135.863,272.07c0,0,4.308,1.549,9.298,3.669c0,0,5.74,2.143,6.362,8.482
					c0.33,3.365,3.913,21.225,4.584,22.735c0.671,1.511,8.617,25.786,8.896,26.289c0.28,0.504-6.484,3.311-6.932,3.088
					c-0.447-0.224-7.692-22.141-8.42-23.765c0,0-4.17-13.141-4.282-15.1c0,0-0.12,5.583-0.343,7.15
					c-0.224,1.567,3.708,31.997,3.596,32.837c-0.112,0.84-17.872,1.905-24.979,1.122c-7.108-0.783-12.844-2.419-12.844-2.419
					s5.593-24.015,5.421-26.677c-0.374-5.802-2.313-16.728-2.313-16.728l-5.796,10.926l7.419,19.087l-1.699,5.801
					c0,0-13.786-20.832-14.233-22.735c-0.448-1.903,0.676-4.327,1.403-5.895c0.728-1.566,5.507-13.494,6.626-15.173
					c1.12-1.68,3.011-8.403,7.583-10.275c3.823-1.563,10.238-2.846,10.238-2.846L135.863,272.07z"/>
			</g>
			<g>
				
					<rect x="141.911" y="317.061" transform="matrix(-0.9687 0.2484 -0.2484 -0.9687 394.0397 607.7925)" style="fill:#D6D6D6;" width="33.527" height="23.389"/>
			</g>
			<g>
				<path style="fill:#C98462;" d="M167.831,338.201c0,0,0.928,1.5,1.267,1.927c0.339,0.429-0.833,0.697-1.335,0.264
					C167.26,339.958,167.831,338.201,167.831,338.201z"/>
			</g>
			<g>
				<path style="fill:#DE9D7D;" d="M161.068,343.323c0,0-0.548-0.572-0.667-0.938c0,0-0.163-0.685-0.308-1.163
					c-0.047-0.152-0.091-0.283-0.128-0.365c-0.156-0.342-0.6-1.047-0.743-1.974c-0.144-0.925-0.548-5.08-0.548-5.08l2.516-0.634
					l2.021-0.427c0,0,4.366,4.355,4.599,5.202c0.023,0.083,0.042,0.166,0.053,0.245c0.128,0.736-0.087,1.338-0.063,1.732
					c0.007,0.143-0.014,1.589-0.351,1.859c-0.466,0.375-0.942,0.446-1.333,0.321c0,0-0.947,0.695-1.736,0.653
					c0,0-0.852,0.67-1.82,0.338C162.561,343.094,161.62,343.677,161.068,343.323z"/>
			</g>
			<g>
				<path style="fill:#495054;" d="M151.248,317.046c0,0,5.764,17.456,6.823,19.288c0,0,4.227-0.889,6.932-3.088l-6.328-18.839
					L151.248,317.046z"/>
			</g>
		</g>
	</g>
</g>
</svg>
