<?xml version="1.0" encoding="utf-8"?>
<!-- Generator: Adobe Illustrator 17.0.0, SVG Export Plug-In . SVG Version: 6.00 Build 0)  -->
<!DOCTYPE svg PUBLIC "-//W3C//DTD SVG 1.1//EN" "http://www.w3.org/Graphics/SVG/1.1/DTD/svg11.dtd">
<svg version="1.1" id="OBJECTS" xmlns="http://www.w3.org/2000/svg" xmlns:xlink="http://www.w3.org/1999/xlink" x="0px" y="0px"
	 width="373.917px" height="311.195px" viewBox="0 0 373.917 311.195" style="enable-background:new 0 0 373.917 311.195;"
	 xml:space="preserve">
<g>
	<g>
		<path id="outshadow" style="opacity:0.2;fill:#5275A0;" d="M328.75,286.596l-305.728,0.631c-4.079,0.009-7.392-3.291-7.401-7.37
			L15.203,77.318c-0.009-4.079,3.291-7.392,7.37-7.401l305.728-0.631c4.079-0.008,7.392,3.291,7.401,7.37l0.418,202.539
			C336.128,283.274,332.829,286.588,328.75,286.596z"/>
		<path id="whitebackground" style="fill:#FFFFFF;" d="M342.743,272.536v0.02c0,4.07-3.3,7.37-7.37,7.38l-195.63,0.4l-110.09,0.23
			c-4.08,0.01-7.4-3.29-7.41-7.37l-0.41-202.54c-0.01-4.07,3.29-7.39,7.37-7.4l305.72-0.63c4.08-0.01,7.4,3.29,7.41,7.37l0.02,7.89
			L342.743,272.536z"/>
		<path id="toolbar" style="fill:#78B1EA;" d="M334.431,64.388l-304.42,0.628c-4.44,0.009-8.032,3.616-8.023,8.056l0.014,6.991
			l320.499-0.661l-0.014-6.991C342.478,67.97,338.871,64.379,334.431,64.388z"/>
		<path id="bluebox" style="fill:#D1EBFF;" d="M123.165,221.908h-93.31c-1.717,0-3.109-1.392-3.109-3.109v-23.321
			c0-1.717,1.392-3.109,3.109-3.109h93.31c1.717,0,3.109,1.392,3.109,3.109v23.321C126.274,220.516,124.882,221.908,123.165,221.908
			z"/>
		<path id="blueboxshadow" style="opacity:0.3417;fill:#D1EBFF;" d="M129.039,214.038h-93.31c-1.717,0-3.109-1.392-3.109-3.109
			v-23.321c0-1.717,1.392-3.109,3.109-3.109h93.31c1.717,0,3.109,1.392,3.109,3.109v23.321
			C132.148,212.646,130.756,214.038,129.039,214.038z"/>
		<circle id="close" style="fill:#FFFFFF;" cx="36.977" cy="72.384" r="2.59"/>
		<circle id="maximaize" style="fill:#FFFFFF;" cx="47.942" cy="72.362" r="2.59"/>
		<circle id="minimize" style="fill:#FFFFFF;" cx="58.907" cy="72.339" r="2.59"/>
		<path id="greenboxshadow" style="opacity:0.3417;fill:#D1EBFF;" d="M307.003,236.743H193.797c-1.717,0-3.109-1.392-3.109-3.109
			v-59.337c0-1.717,1.392-3.109,3.109-3.109h113.206c1.717,0,3.109,1.392,3.109,3.109v59.337
			C310.112,235.351,308.72,236.743,307.003,236.743z"/>
		<path id="greenbox" style="fill:#52D2BC;" d="M317.23,243.248H204.024c-1.717,0-3.109-1.392-3.109-3.109v-65.996
			c0-1.717,1.392-3.109,3.109-3.109H317.23c1.717,0,3.109,1.392,3.109,3.109v65.996C320.339,241.856,318.947,243.248,317.23,243.248
			z"/>
		<path id="redlink" style="fill:#FF5F49;" d="M52.132,167.543l-15.545,0.032c-1.215,0.003-2.202-0.981-2.205-2.196l-0.001-0.656
			c-0.003-1.215,0.98-2.202,2.196-2.205l15.545-0.032c1.215-0.003,2.202,0.981,2.205,2.196l0.001,0.656
			C54.331,166.554,53.347,167.541,52.132,167.543z"/>
		<g id="uplefttype">
			<path style="fill:#DFE3E5;" d="M118.577,143.992l-83.39,0.172c-0.443,0.001-0.802-0.357-0.803-0.8l0-0.239
				c-0.001-0.443,0.357-0.802,0.8-0.803l83.39-0.172c0.443-0.001,0.802,0.357,0.803,0.8l0,0.239
				C119.377,143.632,119.019,143.991,118.577,143.992z"/>
			<path style="fill:#DFE3E5;" d="M118.577,139.946l-83.39,0.172c-0.443,0.001-0.802-0.357-0.803-0.8l0-0.239
				c-0.001-0.443,0.357-0.803,0.8-0.803l83.39-0.172c0.443-0.001,0.802,0.357,0.803,0.8l0,0.239
				C119.377,139.585,119.019,139.945,118.577,139.946z"/>
			<path style="fill:#DFE3E5;" d="M118.579,148.038l-83.39,0.172c-0.443,0.001-0.802-0.357-0.803-0.8l0-0.239
				c-0.001-0.443,0.357-0.802,0.8-0.803l83.39-0.172c0.443-0.001,0.802,0.357,0.803,0.8l0.001,0.239
				C119.38,147.678,119.022,148.037,118.579,148.038z"/>
			<path style="fill:#DFE3E5;" d="M118.581,152.085l-83.39,0.172c-0.443,0.001-0.802-0.357-0.803-0.8l0-0.239
				c-0.001-0.443,0.357-0.802,0.8-0.803l83.39-0.172c0.443-0.001,0.802,0.357,0.803,0.8l0,0.239
				C119.382,151.724,119.024,152.084,118.581,152.085z"/>
			<path style="fill:#DFE3E5;" d="M99.16,156.151l-63.966,0.132c-0.443,0.001-0.802-0.357-0.803-0.8l0-0.239
				c-0.001-0.443,0.357-0.802,0.8-0.803l63.967-0.132c0.443-0.001,0.802,0.357,0.803,0.8l0.001,0.239
				C99.961,155.79,99.603,156.15,99.16,156.151z"/>
		</g>
		<path id="bluesecheader" style="fill:#6397E3;" d="M98.842,131.199l-62.255,0.128c-1.215,0.003-2.202-0.98-2.205-2.196
			l-0.001-0.656c-0.003-1.215,0.98-2.202,2.196-2.205l62.255-0.129c1.215-0.002,2.202,0.981,2.205,2.196l0.001,0.655
			C101.041,130.209,100.057,131.197,98.842,131.199z"/>
		<path id="firstblueheader" style="fill:#6397E3;" d="M63.812,122.378l-27.225,0.056c-1.215,0.002-2.202-0.98-2.205-2.196
			l-0.001-0.656c-0.003-1.215,0.98-2.202,2.196-2.205l27.225-0.056c1.215-0.003,2.202,0.98,2.205,2.196l0.001,0.656
			C66.01,121.389,65.027,122.376,63.812,122.378z"/>
		<g id="lefttype">
			<path style="fill:#DFE3E5;" d="M197.434,260.476l-53.535,0.11c-0.443,0.001-0.802-0.357-0.803-0.8l-0.001-0.239
				c-0.001-0.443,0.357-0.802,0.8-0.803l53.535-0.111c0.443-0.001,0.803,0.357,0.803,0.8l0,0.239
				C198.235,260.115,197.876,260.475,197.434,260.476z"/>
			<path style="fill:#DFE3E5;" d="M197.431,256.43l-53.535,0.111c-0.443,0.001-0.802-0.357-0.803-0.8l-0.001-0.239
				c-0.001-0.443,0.357-0.802,0.8-0.803l53.535-0.111c0.443-0.001,0.802,0.357,0.803,0.8l0.001,0.239
				C198.232,256.069,197.873,256.429,197.431,256.43z"/>
			<path style="fill:#DFE3E5;" d="M197.438,264.522l-53.535,0.111c-0.443,0.001-0.802-0.357-0.803-0.8l-0.001-0.239
				c-0.001-0.443,0.357-0.802,0.8-0.803l53.535-0.111c0.443-0.001,0.802,0.357,0.803,0.8l0.001,0.239
				C198.239,264.162,197.881,264.521,197.438,264.522z"/>
			<path style="fill:#DFE3E5;" d="M197.443,268.569l-53.535,0.111c-0.443,0.001-0.802-0.357-0.803-0.8l-0.001-0.239
				c-0.001-0.443,0.357-0.802,0.8-0.803l53.535-0.111c0.443-0.001,0.802,0.357,0.803,0.8l0.001,0.239
				C198.243,268.208,197.885,268.568,197.443,268.569z"/>
			<path style="fill:#DFE3E5;" d="M184.846,272.621l-40.934,0.085c-0.443,0.001-0.803-0.357-0.803-0.8l-0.001-0.239
				c-0.001-0.443,0.357-0.802,0.8-0.803l40.934-0.085c0.443-0.001,0.802,0.357,0.803,0.8l0.001,0.239
				C185.647,272.26,185.289,272.62,184.846,272.621z"/>
		</g>
		<g id="centertype">
			<path style="fill:#DFE3E5;" d="M259.022,260.504l-53.535,0.111c-0.443,0.001-0.802-0.357-0.803-0.8l0-0.239
				c-0.001-0.443,0.357-0.802,0.8-0.803l53.535-0.111c0.443-0.001,0.803,0.357,0.803,0.8l0,0.239
				C259.823,260.144,259.465,260.504,259.022,260.504z"/>
			<path style="fill:#DFE3E5;" d="M259.02,256.458l-53.535,0.111c-0.443,0.001-0.802-0.357-0.803-0.8l-0.001-0.239
				c-0.001-0.443,0.357-0.802,0.8-0.803l53.535-0.111c0.443-0.001,0.802,0.357,0.803,0.8l0,0.239
				C259.82,256.098,259.462,256.457,259.02,256.458z"/>
			<path style="fill:#DFE3E5;" d="M259.027,264.551l-53.535,0.11c-0.443,0.001-0.802-0.357-0.803-0.8l-0.001-0.239
				c-0.001-0.443,0.357-0.802,0.8-0.803l53.535-0.111c0.443-0.001,0.802,0.357,0.803,0.8l0.001,0.239
				C259.828,264.19,259.47,264.55,259.027,264.551z"/>
			<path style="fill:#DFE3E5;" d="M259.031,268.597l-53.535,0.111c-0.443,0.001-0.802-0.357-0.803-0.8l-0.001-0.239
				c-0.001-0.443,0.357-0.802,0.8-0.803l53.535-0.11c0.443-0.001,0.802,0.357,0.803,0.8l0,0.239
				C259.832,268.237,259.474,268.596,259.031,268.597z"/>
			<path style="fill:#DFE3E5;" d="M246.435,272.649l-40.934,0.085c-0.443,0.001-0.802-0.357-0.803-0.8l0-0.239
				c-0.001-0.443,0.357-0.802,0.8-0.803l40.934-0.085c0.443-0.001,0.802,0.357,0.803,0.8l0.001,0.239
				C247.236,272.289,246.878,272.648,246.435,272.649z"/>
		</g>
		<g id="righttype">
			<path style="fill:#DFE3E5;" d="M320.611,260.504l-53.535,0.111c-0.443,0.001-0.802-0.357-0.803-0.8l0-0.239
				c-0.001-0.443,0.357-0.802,0.8-0.803l53.535-0.111c0.443-0.001,0.802,0.357,0.803,0.8l0.001,0.239
				C321.412,260.144,321.054,260.504,320.611,260.504z"/>
			<path style="fill:#DFE3E5;" d="M320.608,256.458l-53.535,0.111c-0.443,0.001-0.802-0.357-0.803-0.8l0-0.239
				c-0.001-0.443,0.357-0.802,0.8-0.803l53.535-0.111c0.443-0.001,0.802,0.357,0.803,0.8l0.001,0.239
				C321.409,256.098,321.051,256.457,320.608,256.458z"/>
			<path style="fill:#DFE3E5;" d="M320.616,264.551l-53.535,0.11c-0.443,0.001-0.802-0.357-0.803-0.8l-0.001-0.239
				c-0.001-0.443,0.357-0.802,0.8-0.803l53.535-0.111c0.443-0.001,0.802,0.357,0.803,0.8l0,0.239
				C321.417,264.19,321.058,264.55,320.616,264.551z"/>
			<path style="fill:#DFE3E5;" d="M320.62,268.597l-53.535,0.111c-0.443,0.001-0.802-0.357-0.803-0.8l0-0.239
				c-0.001-0.443,0.357-0.802,0.8-0.803l53.535-0.11c0.443-0.001,0.802,0.357,0.803,0.8l0.001,0.239
				C321.421,268.237,321.063,268.596,320.62,268.597z"/>
			<path style="fill:#DFE3E5;" d="M308.024,272.649l-40.934,0.085c-0.443,0.001-0.802-0.357-0.803-0.8l-0.001-0.239
				c-0.001-0.443,0.357-0.802,0.8-0.803l40.934-0.085c0.443-0.001,0.802,0.357,0.803,0.8l0,0.239
				C308.825,272.289,308.467,272.648,308.024,272.649z"/>
		</g>
		<g id="horizdownlines">
			<path style="fill:#DFE3E5;" d="M52.353,271.431l-17.159,0.035c-0.443,0.001-0.802-0.357-0.803-0.8l0-0.239
				c-0.001-0.443,0.357-0.802,0.8-0.803l17.159-0.035c0.443-0.001,0.803,0.357,0.803,0.8l0,0.239
				C53.154,271.07,52.796,271.43,52.353,271.431z"/>
			<path style="fill:#DFE3E5;" d="M78.203,271.431l-17.159,0.035c-0.443,0.001-0.802-0.357-0.803-0.8l0-0.239
				c-0.001-0.443,0.357-0.802,0.8-0.803l17.159-0.035c0.443-0.001,0.803,0.357,0.803,0.8l0,0.239
				C79.004,271.07,78.646,271.43,78.203,271.431z"/>
			<path style="fill:#DFE3E5;" d="M104.054,271.431l-17.159,0.035c-0.443,0.001-0.802-0.357-0.803-0.8l0-0.239
				c-0.001-0.443,0.357-0.802,0.8-0.803l17.159-0.035c0.443-0.001,0.803,0.357,0.803,0.8l0.001,0.239
				C104.855,271.07,104.496,271.43,104.054,271.431z"/>
			<path style="fill:#DFE3E5;" d="M129.904,271.431l-17.159,0.035c-0.443,0.001-0.802-0.357-0.803-0.8l0-0.239
				c-0.001-0.443,0.357-0.802,0.8-0.803l17.159-0.035c0.443-0.001,0.803,0.357,0.803,0.8l0.001,0.239
				C130.705,271.07,130.347,271.43,129.904,271.431z"/>
		</g>
		<path id="searchshadow" style="opacity:0.2;fill:#5275A0;" d="M118.315,239.233H5.109c-1.717,0-3.109-1.392-3.109-3.109v-21.837
			c0-1.717,1.392-3.109,3.109-3.109h113.206c1.717,0,3.109,1.392,3.109,3.109v21.837
			C121.424,237.841,120.032,239.233,118.315,239.233z"/>
		<linearGradient id="searchbackcolor_1_" gradientUnits="userSpaceOnUse" x1="31.2286" y1="234.0368" x2="101.4665" y2="205.067">
			<stop  offset="0.012" style="stop-color:#7AE397"/>
			<stop  offset="1" style="stop-color:#51ADA1"/>
		</linearGradient>
		<path id="searchbackcolor" style="fill:url(#searchbackcolor_1_);" d="M116.315,236.316H3.109c-1.717,0-3.109-1.392-3.109-3.109
			V211.37c0-1.717,1.392-3.109,3.109-3.109h113.206c1.717,0,3.109,1.392,3.109,3.109v21.837
			C119.424,234.924,118.032,236.316,116.315,236.316z"/>
		<g id="search">
			<path style="fill:#FFFFFF;" d="M105.234,227.073H14.191c-2.642,0-4.784-2.142-4.784-4.784l0,0c0-2.642,2.142-4.784,4.784-4.784
				h91.043c2.642,0,4.784,2.142,4.784,4.784l0,0C110.018,224.931,107.876,227.073,105.234,227.073z"/>
			<circle style="fill:#FFFFFF;" cx="99.403" cy="222.289" r="10.614"/>
			<line style="fill:none;stroke:#A8A8A8;stroke-miterlimit:10;" x1="14.997" y1="220.093" x2="14.997" y2="224.521"/>
			<g>
				<circle style="fill:none;stroke:#3B2F7C;stroke-miterlimit:10;" cx="98.75" cy="221.761" r="3.445"/>
				
					<line style="fill:none;stroke:#3B2F7C;stroke-linecap:round;stroke-linejoin:round;stroke-miterlimit:10;" x1="103.503" y1="226.262" x2="101.16" y2="224.222"/>
			</g>
		</g>
		<g id="orangepic">
			<path style="opacity:0.2;fill:#5275A0;" d="M279.017,195.769v0.009c0,1.774-1.346,3.212-3.007,3.216l-79.803,0.174l-44.909,0.1
				c-1.664,0.004-3.019-1.434-3.023-3.212l-0.167-88.265c-0.004-1.774,1.342-3.22,3.007-3.225l124.712-0.275
				c1.664-0.004,3.019,1.434,3.023,3.212l0.008,3.438L279.017,195.769z"/>
			<linearGradient id="SVGID_1_" gradientUnits="userSpaceOnUse" x1="252.8017" y1="113.4969" x2="153.4684" y2="189.4969">
				<stop  offset="0" style="stop-color:#FF6E3A"/>
				<stop  offset="0.9826" style="stop-color:#FFB846"/>
			</linearGradient>
			<path style="fill:url(#SVGID_1_);" d="M274.844,190.7v0.009c0,1.774-1.346,3.212-3.006,3.216l-79.803,0.174l-44.909,0.1
				c-1.664,0.004-3.019-1.434-3.023-3.212l-0.167-88.265c-0.004-1.774,1.342-3.221,3.006-3.225l124.712-0.275
				c1.664-0.004,3.019,1.434,3.023,3.212l0.008,3.438L274.844,190.7z"/>
			<polyline style="opacity:0.2238;fill:none;stroke:#D6451E;stroke-miterlimit:10;" points="265.844,186.244 152.935,186.244 
				152.935,109.754 			"/>
			<linearGradient id="SVGID_2_" gradientUnits="userSpaceOnUse" x1="152.9353" y1="152.6506" x2="264.8051" y2="152.6506">
				<stop  offset="0" style="stop-color:#FFFFFF"/>
				<stop  offset="1" style="stop-color:#FFFFFF;stop-opacity:0"/>
			</linearGradient>
			<polygon style="opacity:0.2412;fill:url(#SVGID_2_);" points="152.935,164.434 181.615,134.475 188.994,146.331 199.883,119.13 
				207.555,141.782 216.872,126.985 229.841,154.342 253.955,126.803 264.805,149.69 264.805,186.171 152.935,186.171 			"/>
			<linearGradient id="SVGID_3_" gradientUnits="userSpaceOnUse" x1="208.8702" y1="132.9667" x2="208.8702" y2="185.5851">
				<stop  offset="0" style="stop-color:#FFFFFF"/>
				<stop  offset="1" style="stop-color:#FFFFFF;stop-opacity:0"/>
			</linearGradient>
			<polygon style="opacity:0.2412;fill:url(#SVGID_3_);" points="152.935,154.954 184.721,168.954 208.351,120.91 221.256,154.954 
				242.446,132.784 264.805,156.973 264.805,186.171 152.935,186.171 			"/>
			<line style="fill:none;stroke:#F9D938;stroke-miterlimit:10;" x1="247.686" y1="108.488" x2="263.944" y2="108.488"/>
			<line style="fill:none;stroke:#F9D938;stroke-miterlimit:10;" x1="247.686" y1="111.168" x2="263.944" y2="111.168"/>
			<line style="fill:none;stroke:#F9D938;stroke-miterlimit:10;" x1="247.686" y1="113.847" x2="263.944" y2="113.847"/>
			<line style="fill:none;stroke:#F9D938;stroke-miterlimit:10;" x1="237.152" y1="108.488" x2="244.52" y2="108.488"/>
			<line style="fill:none;stroke:#F9D938;stroke-miterlimit:10;" x1="237.152" y1="111.168" x2="244.52" y2="111.168"/>
			<line style="fill:none;stroke:#F9D938;stroke-miterlimit:10;" x1="237.152" y1="113.847" x2="244.52" y2="113.847"/>
			<path style="opacity:0.2238;fill:none;stroke:#D6451E;stroke-miterlimit:10;" d="M159.635,142.212
				c4.454,2.213,7.223,6.767,9.318,11.277c2.095,4.51,3.829,9.321,7.156,13.018c3.327,3.697,8.846,6.015,13.361,3.931
				c3.984-1.839,5.895-6.337,7.33-10.485c4.185-12.098,7.303-24.566,9.305-37.21c0.297-1.876,0.584-3.799,1.484-5.472
				c0.9-1.673,2.56-3.074,4.46-3.103c2.23-0.034,4.04,1.732,5.453,3.458c9.451,11.54,13.559,26.518,21.583,39.092
				c1.573,2.464,3.646,5.05,6.554,5.358c2.322,0.246,4.507-1.054,6.41-2.408c5.663-4.027,10.654-8.996,14.705-14.641"/>
			<g>
				<circle style="fill:#FFFFFF;" cx="159.635" cy="141.826" r="0.87"/>
				<circle style="fill:#FFFFFF;" cx="173.248" cy="162.63" r="0.87"/>
				<circle style="fill:#FFFFFF;" cx="204.281" cy="132.499" r="0.87"/>
				<circle style="fill:#FFFFFF;" cx="201.973" cy="142.243" r="0.87"/>
				<circle style="fill:#FFFFFF;" cx="266.754" cy="145.236" r="0.87"/>
				<circle style="fill:#FFFFFF;" cx="260.627" cy="152.236" r="0.87"/>
				<circle style="fill:#FFFFFF;" cx="199.34" cy="151.78" r="0.87"/>
				<circle style="fill:#FFFFFF;" cx="232.173" cy="143.984" r="0.87"/>
			</g>
		</g>
		
			<line id="dashed" style="fill:none;stroke:#0B43A4;stroke-miterlimit:10;stroke-dasharray:4;" x1="210.394" y1="99.223" x2="210.394" y2="0"/>
		<circle id="bluecircle" style="fill:#D1EBFF;" cx="164.095" cy="223.72" r="18.15"/>
		<circle id="picmantoc" style="fill:#FFFFFF;" cx="164.095" cy="223.72" r="7.818"/>
		<polygon id="circletoc" style="fill:#FFFFFF;" points="170.673,203.903 163.507,223.72 186.507,218.315 		"/>
		<path id="logoshadow" style="fill:#00D5CF;" d="M340.051,131.229L340.051,131.229c-12.559,0-22.74-10.181-22.74-22.74v0
			c0-12.559,10.181-22.74,22.74-22.74l0,0c12.559,0,22.74,10.181,22.74,22.74v0C362.792,121.048,352.611,131.229,340.051,131.229z"
			/>
		<g id="lodo">
			<path style="fill:#00AD9F;" d="M351.363,111.149h1.904c0.25,0,0.453-0.203,0.453-0.453v-4.415c0-0.25-0.203-0.453-0.453-0.453
				h-1.904c-0.054-0.232-0.116-0.465-0.185-0.691l1.649-0.952c0.217-0.125,0.291-0.402,0.166-0.619l-2.208-3.824
				c-0.125-0.217-0.402-0.291-0.619-0.166l-1.651,0.953c-0.164-0.172-0.332-0.34-0.504-0.504c0,0-0.001,0-0.001-0.001l0.953-1.651
				c0.125-0.217,0.051-0.494-0.166-0.619l-3.824-2.208c-0.217-0.125-0.494-0.051-0.619,0.166l-0.953,1.65
				c-0.226-0.069-0.457-0.132-0.69-0.185c0,0,0,0,0,0v-1.905c0-0.25-0.203-0.453-0.453-0.453h-4.415
				c-0.25,0-0.453,0.203-0.453,0.453v1.905c0,0,0,0,0,0c-0.233,0.054-0.464,0.116-0.69,0.185l-0.953-1.65
				c-0.125-0.217-0.402-0.291-0.619-0.166l-3.824,2.208c-0.217,0.125-0.291,0.402-0.166,0.619l0.953,1.651c0,0,0,0-0.001,0.001
				c-0.172,0.164-0.34,0.332-0.504,0.504l-1.651-0.953c-0.217-0.125-0.494-0.051-0.619,0.166l-2.208,3.824
				c-0.125,0.217-0.051,0.494,0.166,0.619l1.649,0.952c-0.069,0.226-0.131,0.458-0.185,0.691h-1.904
				c-0.25,0-0.453,0.203-0.453,0.453v4.415c0,0.25,0.203,0.453,0.453,0.453h1.904c0.054,0.233,0.117,0.463,0.186,0.69
				c0,0,0,0.001,0,0.001l-1.649,0.952c-0.217,0.125-0.291,0.402-0.166,0.619l2.208,3.824c0.125,0.217,0.402,0.291,0.619,0.166
				l1.651-0.953c0.164,0.172,0.332,0.341,0.505,0.505c0,0,0,0,0,0l-0.953,1.651c-0.125,0.217-0.051,0.494,0.166,0.619l3.824,2.208
				c0.217,0.125,0.494,0.051,0.619-0.166l0.952-1.65c0.227,0.069,0.457,0.132,0.69,0.185c0,0,0,0,0,0v1.904
				c0,0.25,0.203,0.453,0.453,0.453h4.415c0.25,0,0.453-0.203,0.453-0.453v-1.904c0,0,0,0,0,0c0.233-0.054,0.464-0.116,0.69-0.185
				l0.952,1.65c0.125,0.217,0.402,0.291,0.619,0.166l3.824-2.208c0.217-0.125,0.291-0.402,0.166-0.619l-0.953-1.651c0,0,0,0,0.001,0
				c0.172-0.164,0.341-0.332,0.504-0.504l1.651,0.953c0.217,0.125,0.494,0.051,0.619-0.166l2.208-3.824
				c0.125-0.217,0.051-0.494-0.166-0.619l-1.649-0.952c0,0,0-0.001,0-0.001C351.247,111.612,351.309,111.382,351.363,111.149z
				 M341.323,114.823c-4.521,0.91-8.516-3.086-7.606-7.606c0.512-2.544,2.534-4.563,5.079-5.068c4.509-0.894,8.49,3.086,7.595,7.595
				C345.886,112.289,343.867,114.311,341.323,114.823z"/>
		</g>
	</g>
</g>
</svg>
